<?xml version="1.0" encoding="utf-8"?>
<!-- Generator: Adobe Illustrator 19.2.0, SVG Export Plug-In . SVG Version: 6.00 Build 0)  -->
<svg version="1.1" id="Layer_1" xmlns="http://www.w3.org/2000/svg" xmlns:xlink="http://www.w3.org/1999/xlink" x="0px" y="0px"
	 viewBox="0 0 10 9" style="enable-background:new 0 0 10 9;" xml:space="preserve">
		<path d="M0.7,3.8c-0.2,0-0.4-0.1-0.5-0.2c-0.3-0.3-0.3-0.8,0-1.1l2.2-2.3c0.3-0.3,0.7-0.3,1,0s0.3,0.8,0,1.1L1.2,3.6
			C1.1,3.8,0.9,3.8,0.7,3.8z"/>
		<path d="M2.9,6.1c-0.2,0-0.4-0.1-0.5-0.2L0.2,3.6c-0.3-0.3-0.3-0.8,0-1.1c0.3-0.3,0.7-0.3,1,0l2.2,2.3c0.3,0.3,0.3,0.8,0,1.1
			C3.3,6.1,3.1,6.1,2.9,6.1z"/>
		<path d="M6.8,9H0.7C0.3,9,0,8.7,0,8.2c0-0.4,0.3-0.8,0.7-0.8h6.1c1,0,1.7-0.8,1.7-1.8S7.8,3.8,6.8,3.8H1.2c-0.4,0-0.7-0.3-0.7-0.8
			s0.3-0.8,0.7-0.8h5.6c1.8,0,3.2,1.5,3.2,3.3S8.6,9,6.8,9z"/>
</svg>
