<?xml version="1.0" encoding="utf-8"?>
<!-- Generator: Adobe Illustrator 19.2.0, SVG Export Plug-In . SVG Version: 6.00 Build 0)  -->
<svg version="1.1" id="Layer_1" xmlns="http://www.w3.org/2000/svg" xmlns:xlink="http://www.w3.org/1999/xlink" x="0px" y="0px"
	 viewBox="0 0 8 8" style="enable-background:new 0 0 8 8;" xml:space="preserve">
<path d="M7.8,6.7L5.1,4l2.7-2.7c0.3-0.3,0.3-0.8,0-1.1C7.5-0.1,7-0.1,6.7,0.2L4,2.9L1.3,0.2C1-0.1,0.5-0.1,0.2,0.2s-0.3,0.8,0,1.1
	L2.9,4L0.2,6.7c-0.3,0.3-0.3,0.8,0,1.1C0.4,7.9,0.6,8,0.7,8s0.4-0.1,0.5-0.2L4,5.1l2.7,2.7C6.9,7.9,7.1,8,7.3,8
	c0.2,0,0.4-0.1,0.5-0.2C8.1,7.5,8.1,7,7.8,6.7z"/>
</svg>
