<?xml version="1.0" encoding="utf-8"?>
<!-- Generator: Adobe Illustrator 19.2.0, SVG Export Plug-In . SVG Version: 6.00 Build 0)  -->
<svg version="1.1" id="Layer_1" xmlns="http://www.w3.org/2000/svg" xmlns:xlink="http://www.w3.org/1999/xlink" x="0px" y="0px"
	 viewBox="0 0 16 16" style="enable-background:new 0 0 16 16;" xml:space="preserve">
	<path d="M10.7,5.3C10.4,5,10,5,9.7,5.3L8,6.9L6.3,5.3C6,5,5.6,5,5.3,5.3C5,5.6,5,6,5.3,6.3L6.9,8L5.3,9.7C5,10,5,10.4,5.3,10.7
		c0.1,0.1,0.3,0.2,0.5,0.2c0.2,0,0.4-0.1,0.5-0.2L8,9.1l1.7,1.7c0.1,0.1,0.3,0.2,0.5,0.2c0.2,0,0.4-0.1,0.5-0.2
		c0.3-0.3,0.3-0.8,0-1.1L9.1,8l1.7-1.7C11,6,11,5.6,10.7,5.3z"/>
	<path d="M8,0C3.6,0,0,3.6,0,8c0,4.4,3.6,8,8,8c4.4,0,8-3.6,8-8C16,3.6,12.4,0,8,0z M8,15c-3.8,0-7-3.1-7-7c0-3.8,3.1-7,7-7
		c3.8,0,7,3.1,7,7C15,11.8,11.8,15,8,15z"/>
</svg>
