<?xml version="1.0" encoding="utf-8"?>
<!-- Generator: Adobe Illustrator 19.2.0, SVG Export Plug-In . SVG Version: 6.00 Build 0)  -->
<svg version="1.1" id="Layer_1" xmlns="http://www.w3.org/2000/svg" xmlns:xlink="http://www.w3.org/1999/xlink" x="0px" y="0px"
	 viewBox="0 0 10 10" style="enable-background:new 0 0 10 10;" xml:space="preserve">
<path d="M6,5l3.7-3.7c0.3-0.3,0.3-0.8,0-1s-0.8-0.3-1,0L5,4L1.3,0.2c-0.3-0.3-0.8-0.3-1,0s-0.3,0.8,0,1L4,5L0.2,8.7
	c-0.3,0.3-0.3,0.8,0,1C0.4,9.9,0.5,10,0.7,10s0.4-0.1,0.5-0.2L5,6l3.7,3.7C8.9,9.9,9.1,10,9.3,10c0.2,0,0.4-0.1,0.5-0.2
	c0.3-0.3,0.3-0.8,0-1L6,5z"/>
</svg>
