<?xml version="1.0" encoding="utf-8"?>
<!-- Generator: Adobe Illustrator 19.2.0, SVG Export Plug-In . SVG Version: 6.00 Build 0)  -->
<svg version="1.1" id="Layer_1" xmlns="http://www.w3.org/2000/svg" xmlns:xlink="http://www.w3.org/1999/xlink" x="0px" y="0px"
	 viewBox="0 0 13 16" style="enable-background:new 0 0 13 16;" xml:space="preserve">
		<path d="M13,5.1H0v-2c0-0.7,0.5-1.2,1.2-1.2h10.6c0.7,0,1.2,0.5,1.2,1.2V5.1z M1,4.1h11v-1c0-0.1-0.1-0.2-0.2-0.2H1.2
			C1.1,2.9,1,3,1,3.1V4.1z"/>
		<path d="M10.7,16H2.3C1.6,16,1,15.4,1,14.7V4.1h11v10.5C12,15.4,11.4,16,10.7,16z M2,5.1v9.5C2,14.9,2.1,15,2.3,15h8.4
			c0.2,0,0.3-0.2,0.3-0.3V5.1H2z"/>
		<path d="M9.2,2.9H3.8V1.1C3.8,0.5,4.3,0,5,0H8c0.6,0,1.1,0.5,1.1,1.1V2.9z M4.8,1.9h3.3V1.1C8.2,1,8.1,1,8,1H5
			C4.9,1,4.8,1,4.8,1.1C4.8,1.1,4.8,1.9,4.8,1.9z"/>
		<path d="M4,13.7c-0.3,0-0.5-0.2-0.5-0.5V7.1c0-0.3,0.2-0.5,0.5-0.5s0.5,0.2,0.5,0.5v6.2C4.5,13.5,4.2,13.7,4,13.7z"/>
		<path d="M6.5,13.7c-0.3,0-0.5-0.2-0.5-0.5V7.1c0-0.3,0.2-0.5,0.5-0.5C6.8,6.6,7,6.8,7,7.1v6.2C7,13.5,6.8,13.7,6.5,13.7z"/>
		<path d="M9,13.7c-0.3,0-0.5-0.2-0.5-0.5V7.1c0-0.3,0.2-0.5,0.5-0.5s0.5,0.2,0.5,0.5v6.2C9.5,13.5,9.3,13.7,9,13.7z"/>
</svg>
