<?xml version="1.0" encoding="utf-8"?>
<!-- Generator: Adobe Illustrator 19.2.0, SVG Export Plug-In . SVG Version: 6.00 Build 0)  -->
<svg version="1.1" id="Layer_1" xmlns="http://www.w3.org/2000/svg" xmlns:xlink="http://www.w3.org/1999/xlink" x="0px" y="0px"
	 viewBox="0 0 9 16" style="enable-background:new 0 0 9 16;" xml:space="preserve">
	<path d="M4.2,0.1L0.1,5.8c-0.1,0.2,0,0.5,0.3,0.5h1.6v6c0,0.2,0.1,0.3,0.3,0.3h4.5c0.2,0,0.3-0.1,0.3-0.3v-6h1.6
		c0.2,0,0.4-0.3,0.3-0.5L4.7,0.1C4.6,0,4.4,0,4.2,0.1"/>
	<path d="M1.9,14.2v1.6C1.9,15.9,2,16,2.1,16h4.8c0.1,0,0.2-0.1,0.2-0.2v-1.6C7.1,14.1,7,14,6.9,14H2.1C2,14,1.9,14.1,1.9,14.2"/>
</svg>
