<?xml version="1.0" encoding="utf-8"?>
<!-- Generator: Adobe Illustrator 19.2.0, SVG Export Plug-In . SVG Version: 6.00 Build 0)  -->
<svg version="1.1" id="Layer_1" xmlns="http://www.w3.org/2000/svg" xmlns:xlink="http://www.w3.org/1999/xlink" x="0px" y="0px"
	 viewBox="0 0 16 10" style="enable-background:new 0 0 16 10;" xml:space="preserve">
	<path d="M8,0C2.3,0,0,5,0,5s2.2,5,8,5c5.8,0,8-5,8-5S13.8,0,8,0 M8,9.2C5.7,9.2,3.8,7.3,3.8,5S5.7,0.8,8,0.8s4.2,1.9,4.2,4.2
		S10.3,9.2,8,9.2"/>
	<path d="M8,2.3c-0.1,0-0.2,0-0.4,0C7.9,2.6,8,2.9,8,3.3c0,0.9-0.7,1.6-1.6,1.6C6,4.9,5.6,4.7,5.3,4.5c0,0.2-0.1,0.4-0.1,0.5
		c0,1.5,1.2,2.7,2.7,2.7s2.7-1.2,2.7-2.7C10.7,3.5,9.5,2.3,8,2.3"/>
</svg>
