<?xml version="1.0" encoding="utf-8"?>
<!-- Generator: Adobe Illustrator 16.0.0, SVG Export Plug-In . SVG Version: 6.00 Build 0)  -->
<!DOCTYPE svg PUBLIC "-//W3C//DTD SVG 1.1//EN" "http://www.w3.org/Graphics/SVG/1.1/DTD/svg11.dtd">
<svg version="1.1" id="Layer_1" xmlns="http://www.w3.org/2000/svg" xmlns:xlink="http://www.w3.org/1999/xlink" x="0px" y="0px"
	 width="24px" height="24px" viewBox="0 0 24 24" enable-background="new 0 0 24 24" xml:space="preserve">
<g>
	<path fill="none" d="M20.398,8.537c0,1.016-0.088,1.906-0.24,2.707C22.078,10.7,23,9.309,23,6.955V1h-2.602
		C20.398,2.658,20.398,6.048,20.398,8.537z"/>
	<path fill="none" d="M3.6,1H1v5.955c0,2.354,0.92,3.745,2.84,4.288c-0.152-0.8-0.24-1.69-0.24-2.706C3.6,6.048,3.6,2.658,3.6,1z"/>
	<path fill="none" d="M7.117,21.803l0.299-0.068l-0.301,0.068C6.729,21.891,6.6,22.307,6.6,22.482
		C6.6,22.307,6.73,21.891,7.117,21.803z"/>
	<path fill="#F9AC1E" d="M13.08,17.816v-0.777c-0.354,0.021-0.711,0.035-1.08,0.035c-0.367,0-0.727-0.014-1.08-0.035v0.777
		c0,3.139-2.025,3.59-3.504,3.918l-0.299,0.068C6.73,21.891,6.6,22.307,6.6,22.482V23h5.361h0.002h0.074H17.4v-0.424
		c0-0.031-0.008-0.182-0.064-0.342c-0.008-0.025-0.021-0.047-0.033-0.07c-0.072-0.156-0.191-0.309-0.42-0.361l-0.299-0.068
		C15.105,21.406,13.08,20.955,13.08,17.816z"/>
	<path fill="#FFFFFF" d="M12.949,16.049c4.566-0.26,6.449-2.492,6.449-7.512V1H19h-7H5H4.6v7.537c0,5.354,2.145,7.537,7.4,7.537
		C12.328,16.074,12.645,16.066,12.949,16.049z M10.51,11.326l-0.297,0.156c0,0,0,0-0.002,0c-0.652,0.344-1.086,0.029-0.963-0.701
		l0.057-0.33l0.059-0.332L9.59,8.793L8.627,7.854l-0.24-0.235L8.145,7.383H8.143C7.615,6.865,7.781,6.357,8.512,6.25l0.334-0.048
		l1.664-0.241l0.596-1.205l0.15-0.303l0.148-0.305c0.328-0.662,0.861-0.662,1.189,0V4.15l0.15,0.303l0.15,0.302l0.596,1.206
		l1.664,0.241l0.332,0.048c0.732,0.107,0.898,0.615,0.371,1.133c-0.002,0-0.002,0-0.002,0l-0.242,0.236l-0.244,0.236l-0.961,0.938
		l0.283,1.658l0.057,0.33c0.127,0.729-0.307,1.045-0.963,0.701l-0.297-0.156l-0.299-0.158L12,10.543l-1.191,0.625L10.51,11.326z"/>
	<path fill="#455B65" d="M20.051,0H18h-6H6H3.947H3.6H0c0,0,0,5.563,0,6.955c0,2.369,0.879,4.732,4.109,5.381
		c0.924,2.975,3.057,4.23,5.811,4.604v0.877c0,2.496-1.406,2.639-3.027,3.012C6.021,21.027,5.6,21.852,5.6,22.482
		c0,0.785,0,1.518,0,1.518h4.119h2.08h0.162h0.076h1.842h4.32H18.4c0,0,0-0.639,0-1.424c0-0.75-0.424-1.549-1.295-1.748
		c-1.621-0.373-3.025-0.516-3.025-3.012v-0.877c2.752-0.373,4.883-1.629,5.809-4.604C23.119,11.688,24,9.325,24,6.955
		C24,5.563,24,0,24,0h-3.602H20.051z M1,6.955V1h2.6c0,1.658,0,5.048,0,7.537c0,1.016,0.088,1.906,0.24,2.706
		C1.92,10.7,1,9.309,1,6.955z M4.6,8.537V1H5h7h7h0.398v7.537c0,5.02-1.883,7.252-6.449,7.512c-0.305,0.018-0.621,0.025-0.949,0.025
		C6.744,16.074,4.6,13.891,4.6,8.537z M16.584,21.734l0.299,0.068c0.229,0.053,0.348,0.205,0.42,0.361
		c0.012,0.023,0.025,0.045,0.033,0.07c0.057,0.16,0.064,0.311,0.064,0.342V23h-5.363h-0.074h-0.002H6.6v-0.518
		c0-0.176,0.129-0.592,0.516-0.68l0.301-0.068c1.479-0.328,3.504-0.779,3.504-3.918v-0.777c0.354,0.021,0.713,0.035,1.08,0.035
		c0.369,0,0.727-0.014,1.08-0.035v0.777C13.08,20.955,15.105,21.406,16.584,21.734z M23,6.955c0,2.354-0.922,3.745-2.842,4.289
		c0.152-0.801,0.24-1.691,0.24-2.707c0-2.489,0-5.879,0-7.537H23V6.955z"/>
	<path fill="#229DD3" d="M13.189,11.168l0.299,0.158l0.297,0.156c0.656,0.344,1.09,0.028,0.963-0.701l-0.057-0.33l-0.283-1.658
		l0.961-0.938l0.244-0.236l0.242-0.236c0,0,0,0,0.002,0c0.527-0.518,0.361-1.025-0.371-1.133l-0.332-0.048L13.49,5.961l-0.596-1.206
		l-0.15-0.302l-0.15-0.303V4.148c-0.328-0.662-0.861-0.662-1.189,0l-0.148,0.305l-0.15,0.303L10.51,5.961L8.846,6.202L8.512,6.25
		c-0.73,0.107-0.896,0.615-0.369,1.133h0.002l0.242,0.236l0.24,0.235L9.59,8.793l-0.227,1.326l-0.059,0.332l-0.057,0.33
		c-0.123,0.73,0.311,1.045,0.963,0.701c0.002,0,0.002,0,0.002,0l0.297-0.156l0.299-0.158L12,10.543L13.189,11.168z"/>
</g>
</svg>
