<?xml version="1.0" encoding="utf-8"?>
<!-- Generator: Adobe Illustrator 16.0.0, SVG Export Plug-In . SVG Version: 6.00 Build 0)  -->
<!DOCTYPE svg PUBLIC "-//W3C//DTD SVG 1.1//EN" "http://www.w3.org/Graphics/SVG/1.1/DTD/svg11.dtd">
<svg version="1.1" id="Layer_1" xmlns="http://www.w3.org/2000/svg" xmlns:xlink="http://www.w3.org/1999/xlink" x="0px" y="0px"
	 width="24px" height="24px" viewBox="0 0 24 24" enable-background="new 0 0 24 24" xml:space="preserve">
<g fill="#DCF3FC">
	<path d="M20.399,0h-0.349H18h-6H6H3.948H3.6H0c0,0,0,5.563,0,6.955c0,2.369,0.88,4.732,4.109,5.381
		c0.925,2.974,3.058,4.23,5.811,4.604v0.876c0,2.496-1.406,2.64-3.027,3.012C6.022,21.026,5.6,21.852,5.6,22.482
		c0,0.785,0,1.518,0,1.518h4.119h2.08h0.163h0.075h1.842h4.32H18.4c0,0,0-0.639,0-1.424c0-0.75-0.424-1.55-1.294-1.749
		c-1.622-0.372-3.026-0.516-3.026-3.012v-0.876c2.752-0.373,4.884-1.63,5.81-4.604C23.119,11.688,24,9.325,24,6.955
		C24,5.563,24,0,24,0H20.399z M1,6.955V1h2.6c0,1.658,0,5.048,0,7.537c0,1.016,0.089,1.906,0.24,2.706C1.921,10.7,1,9.309,1,6.955z
		 M16.584,21.734l0.299,0.067c0.229,0.053,0.349,0.206,0.42,0.361c0.012,0.024,0.025,0.046,0.034,0.07
		c0.057,0.16,0.063,0.311,0.063,0.343V23h-5.363h-0.075H6.6v-0.518c0-0.176,0.13-0.592,0.517-0.681l0.3-0.067
		c1.479-0.329,3.504-0.779,3.504-3.919v-0.777c0.354,0.021,0.712,0.036,1.08,0.036s0.727-0.015,1.08-0.036v0.777
		C13.08,20.955,15.105,21.406,16.584,21.734z M19.399,8.537c0,5.354-2.144,7.537-7.399,7.537s-7.4-2.184-7.4-7.537V1H5h7h7h0.399
		V8.537z M23,6.955c0,2.354-0.922,3.745-2.841,4.289c0.151-0.801,0.24-1.691,0.24-2.707c0-2.489,0-5.879,0-7.537H23V6.955z"/>
	<path d="M15.486,6.25l-0.332-0.048L13.49,5.961l-0.596-1.206l-0.15-0.302L12.595,4.15V4.148c-0.328-0.662-0.862-0.662-1.19,0
		l-0.148,0.305l-0.15,0.303L10.51,5.961L8.846,6.202L8.513,6.25C7.781,6.357,7.615,6.865,8.144,7.383h0.001l0.242,0.236l0.24,0.235
		L9.59,8.793l-0.227,1.326l-0.059,0.332l-0.056,0.33c-0.124,0.73,0.31,1.045,0.963,0.701c0.001,0,0.001,0,0.001,0l0.297-0.156
		l0.299-0.158L12,10.543l1.189,0.625l0.299,0.158l0.297,0.156c0.656,0.344,1.09,0.028,0.963-0.701l-0.056-0.33l-0.284-1.658
		l0.961-0.938l0.244-0.236l0.242-0.236c0,0,0,0,0.002,0C16.385,6.865,16.219,6.357,15.486,6.25z"/>
</g>
</svg>
