<?xml version="1.0" encoding="UTF-8" standalone="no"?>
<svg width="16px" height="16px" viewBox="0 0 16 16" version="1.1" xmlns="http://www.w3.org/2000/svg" xmlns:xlink="http://www.w3.org/1999/xlink">
    <!-- Generator: Sketch 3.7.2 (28276) - http://www.bohemiancoding.com/sketch -->
    <title>calendar</title>
    <desc>Created with Sketch.</desc>
    <defs></defs>
    <g id="16" stroke="none" stroke-width="1" fill="none" fill-rule="evenodd">
        <g id="calendar" fill="#999999">
            <g id="Group-4">
                <path d="M15,14 C15,14.551 14.551,15 14,15 L2,15 C1.447,15 1,14.551 1,14 L1,4 C1,3.449 1.447,3 2,3 L3.018,3 L3.018,4 C3.018,4.55 3.467,5 4.018,5 L5.018,5 C5.566,5 6.018,4.55 6.018,4 L6.018,3 L10,3 L10,4 C10,4.55 10.449,5 11,5 L12,5 C12.549,5 13,4.55 13,4 L13,3 L14,3 C14.551,3 15,3.449 15,4 L15,14 Z M4.018,4 L5.018,4 L5.018,1 L4.018,1 L4.018,4 Z M11,4 L12,4 L12,1 L11,1 L11,4 Z M14,2 L13,2 L13,1 C13,0.45 12.549,0 12,0 L11,0 C10.449,0 10,0.45 10,1 L10,2 L6.018,2 L6.018,1 C6.018,0.45 5.566,0 5.018,0 L4.018,0 C3.467,0 3.018,0.45 3.018,1 L3.018,2 L2,2 C0.9,2 0,2.9 0,4 L0,14 C0,15.1 0.9,16 2,16 L14,16 C15.1,16 16,15.1 16,14 L16,4 C16,2.9 15.1,2 14,2 L14,2 Z" id="Page-1"></path>
                <path d="M10.336,9.382 L13,9.382 L13,7 L10.336,7 L10.336,9.382 Z M10.336,13 L13,13 L13,10.382 L10.336,10.382 L10.336,13 Z M6.656,9.382 L9.336,9.382 L9.336,7 L6.656,7 L6.656,9.382 Z M6.656,13 L9.336,13 L9.336,10.382 L6.656,10.382 L6.656,13 Z M3,13 L5.656,13 L5.656,10.382 L3,10.382 L3,13 Z M3,9.382 L5.656,9.382 L5.656,7 L3,7 L3,9.382 Z M13,6 L3,6 C2.451,6 2,6.45 2,7 L2,13 C2,13.55 2.451,14 3,14 L13,14 C13.551,14 14,13.55 14,13 L14,7 C14,6.45 13.551,6 13,6 L13,6 Z" id="Page-1"></path>
            </g>
        </g>
    </g>
</svg>