<?xml version="1.0" encoding="UTF-8" standalone="no"?>
<svg width="20px" height="20px" viewBox="0 0 20 20" version="1.1" xmlns="http://www.w3.org/2000/svg" xmlns:xlink="http://www.w3.org/1999/xlink">
    <!-- Generator: Sketch 3.7.2 (28276) - http://www.bohemiancoding.com/sketch -->
    <title>caption</title>
    <desc>Created with Sketch.</desc>
    <defs></defs>
    <g id="20" stroke="none" stroke-width="1" fill="none" fill-rule="evenodd">
        <g id="caption">
            <g id="Page-1">
                <polygon id="Fill-1" fill="#FFFFFF" points="6 14.84 10 14.84 10 7 6 7"></polygon>
                <g id="Group-10">
                    <path d="M6,17 C6,17.551 6.449,18 7,18 L9,18 C9.551,18 10,17.551 10,17 L10,14.84 L6,14.84 L6,17 Z" id="Fill-2" fill="#EC4380"></path>
                    <path d="M2,6 L14,6 C14.551,6 15,5.551 15,5 L15,3 C15,2.448 14.551,2 14,2 L2,2 C1.449,2 1,2.448 1,3 L1,5 C1,5.132 1.029,5.256 1.075,5.371 C1.087,5.393 1.098,5.414 1.11,5.436 C1.15,5.516 1.201,5.59 1.26,5.656 C1.276,5.678 1.293,5.697 1.311,5.718 C1.49,5.891 1.732,6 2,6" id="Fill-4" fill="#F9AC1E"></path>
                    <path d="M15,5 C15,5.551 14.551,6 14,6 L2,6 C1.732,6 1.49,5.891 1.311,5.718 C1.291,5.699 1.278,5.677 1.26,5.656 C1.201,5.59 1.15,5.516 1.11,5.436 C1.099,5.413 1.084,5.395 1.075,5.371 C1.029,5.256 1,5.132 1,5 L1,3 C1,2.448 1.449,2 2,2 L14,2 C14.551,2 15,2.448 15,3 L15,5 Z M10,14.84 L10,17 C10,17.551 9.551,18 9,18 L7,18 C6.449,18 6,17.551 6,17 L6,14.84 L6,7 L10,7 L10,14.84 Z M14,1 L2,1 C0.9,1 0,1.899 0,3 L0,5 C0,6.1 0.9,7 2,7 L5,7 L5,17 C5,18.1 5.9,19 7,19 L9,19 C10.1,19 11,18.1 11,17 L11,7 L14,7 C15.1,7 16,6.1 16,5 L16,3 C16,1.899 15.1,1 14,1 L14,1 Z" id="Fill-6" fill="#455B65"></path>
                    <polygon id="Fill-8" fill="#455B65" points="20 1 20 0 17 0 17 1 18 1 18 19 17 19 17 20 20 20 20 19 19 19 19 1"></polygon>
                </g>
            </g>
        </g>
    </g>
</svg>