<?xml version="1.0" encoding="UTF-8" standalone="no"?>
<svg width="24px" height="24px" viewBox="0 0 24 24" version="1.1" xmlns="http://www.w3.org/2000/svg" xmlns:xlink="http://www.w3.org/1999/xlink">
    <!-- Generator: Sketch 3.7.2 (28276) - http://www.bohemiancoding.com/sketch -->
    <title>Friend request 1</title>
    <desc>Created with Sketch.</desc>
    <defs>
        <polygon id="path-1" points="23.9763 0 0.0003 0 0.0003 14.1846 23.9763 14.1846 23.9763 3.55271368e-15"></polygon>
    </defs>
    <g id="24" stroke="none" stroke-width="1" fill="none" fill-rule="evenodd">
        <g id="Friend-request-1">
            <g id="Page-1">
                <path d="M23,23 L21.031,23 L15.093,23 L14.385,23 L14.385,19.268 C14.385,18.846 14.298,18.445 14.162,18.068 C14.441,17.906 14.755,17.807 15.093,17.807 L21.031,17.807 C22.116,17.807 23,18.752 23,19.913 L23,23 Z M13.385,23 L13.186,23 L13.123,23 L10.789,23 L3.596,23 L1.198,23 L1,23 L1,19.268 C1,18.299 1.539,17.463 2.326,17.018 C2.52,16.907 2.727,16.82 2.948,16.764 L2.912,16.8 L6.155,20.043 C6.447,20.335 6.832,20.481 7.216,20.481 C7.6,20.481 7.984,20.335 8.276,20.043 L11.52,16.8 L11.504,16.784 C11.7,16.841 11.885,16.919 12.059,17.018 C12.4,17.211 12.699,17.473 12.923,17.795 C12.925,17.798 12.928,17.8 12.93,17.803 C13.158,18.136 13.3,18.528 13.352,18.948 C13.365,19.054 13.385,19.158 13.385,19.268 L13.385,23 Z M10.233,16.672 L10.105,16.8 L7.569,19.336 C7.382,19.523 7.05,19.523 6.862,19.336 L4.326,16.8 L4.198,16.672 L10.233,16.672 Z M23.436,18.11 C23.36,17.999 23.277,17.895 23.187,17.795 C22.646,17.19 21.881,16.807 21.031,16.807 L15.093,16.807 C14.59,16.807 14.122,16.951 13.706,17.184 C13.053,16.273 11.99,15.672 10.789,15.672 L3.596,15.672 C1.617,15.672 0,17.289 0,19.268 L0,23 C0,23.55 0.449,24 1,24 L3.596,24 L10.789,24 L13.123,24 L13.385,24 L15.093,24 L21.031,24 L23,24 C23.549,24 24,23.55 24,23 L24,19.913 C24,19.24 23.787,18.62 23.436,18.11 L23.436,18.11 Z" id="Fill-1" fill="#000000"></path>
                <g id="Group-5">
                    <mask id="mask-2" fill="white">
                        <use xlink:href="#path-1"></use>
                    </mask>
                    <g id="Clip-4"></g>
                    <path d="M2.6523,2.9326 C3.7813,4.0296 6.5213,5.9116 12.0843,5.9116 C12.3993,5.9116 12.7283,5.9016 13.0623,5.8896 C13.1413,6.2796 13.1833,6.6816 13.1833,7.0936 C13.1833,10.4526 10.4503,13.1846 7.0893,13.1846 C3.7313,13.1846 1.0003,10.4526 1.0003,7.0936 C1.0003,5.4846 1.6313,4.0236 2.6523,2.9326 M7.0893,0.9996 C9.6733,0.9996 11.8803,2.6186 12.7653,4.8916 C7.1943,5.0346 4.4643,3.2386 3.4043,2.2536 C4.4283,1.4706 5.7043,0.9996 7.0893,0.9996 M14.1833,7.0936 C14.1833,6.4336 14.0873,5.7966 13.9183,5.1896 C14.8233,3.9156 16.3013,3.0776 17.9793,3.0776 C20.7343,3.0776 22.9763,5.3186 22.9763,8.0726 C22.9763,10.8256 20.7343,13.0656 17.9793,13.0656 C15.9813,13.0656 14.2663,11.8776 13.4693,10.1776 C13.9233,9.2436 14.1833,8.2006 14.1833,7.0936 M7.0893,14.1846 C9.4793,14.1846 11.5873,13.0006 12.8723,11.1926 C13.9253,12.9116 15.8163,14.0656 17.9793,14.0656 C21.2953,14.0656 23.9763,11.3796 23.9763,8.0726 C23.9763,4.7616 21.2953,2.0776 17.9793,2.0776 C16.2013,2.0776 14.6073,2.8586 13.5093,4.0906 C12.3793,1.6756 9.9343,-0.0004 7.0893,-0.0004 C3.1753,-0.0004 0.0003,3.1756 0.0003,7.0936 C0.0003,11.0086 3.1753,14.1846 7.0893,14.1846" id="Fill-3" fill="#000000" mask="url(#mask-2)"></path>
                </g>
                <path d="M7.0918,11.5556 C8.5818,11.5556 9.7908,10.3476 9.7908,8.8576 L4.3938,8.8576 C4.3938,10.3476 5.6018,11.5556 7.0918,11.5556" id="Fill-6" fill="#000000"></path>
            </g>
        </g>
    </g>
</svg>