<?xml version="1.0" encoding="utf-8"?>
<!-- Generator: Adobe Illustrator 16.0.0, SVG Export Plug-In . SVG Version: 6.00 Build 0)  -->
<!DOCTYPE svg PUBLIC "-//W3C//DTD SVG 1.1//EN" "http://www.w3.org/Graphics/SVG/1.1/DTD/svg11.dtd">
<svg version="1.1" id="Layer_1" xmlns="http://www.w3.org/2000/svg" xmlns:xlink="http://www.w3.org/1999/xlink" x="0px" y="0px"
	 width="24px" height="24px" viewBox="0 0 24 24" enable-background="new 0 0 24 24" xml:space="preserve">
<g>
	<path fill="#F9AC1E" d="M6.861,19.336c0.188,0.188,0.52,0.188,0.707,0l2.537-2.535l0.129-0.129H4.197l0.129,0.129L6.861,19.336z"/>
	<path fill="#FFFFFF" d="M12.93,17.805c-0.002-0.004-0.006-0.006-0.008-0.01c-0.223-0.322-0.523-0.584-0.867-0.779
		c-0.172-0.098-0.355-0.174-0.551-0.23l0.016,0.016l-3.244,3.242c-0.281,0.283-0.658,0.438-1.061,0.438
		c-0.4,0-0.777-0.154-1.061-0.438l-3.242-3.242l0.037-0.037c-0.221,0.057-0.426,0.143-0.621,0.254
		C1.646,17.566,1.197,18.4,1.197,19.34V23h2.398h7.193h2.334h0.063h0.199v-3.73c0-0.109-0.02-0.215-0.031-0.32
		C13.301,18.529,13.158,18.137,12.93,17.805z"/>
	<path fill="#FFFFFF" d="M21.031,17.809h-5.939c-0.338,0-0.65,0.1-0.93,0.26c0.137,0.379,0.223,0.777,0.223,1.201V23h0.707h5.939H23
		v-3.086C23,18.754,22.117,17.809,21.031,17.809z"/>
	<path fill="#FFFFFF" d="M17.979,13.066c2.756,0,4.998-2.24,4.998-4.994s-2.242-4.994-4.998-4.994c-1.676,0-3.154,0.838-4.061,2.111
		c0.168,0.606,0.266,1.243,0.266,1.904c0,1.107-0.26,2.151-0.713,3.085C14.268,11.879,15.982,13.066,17.979,13.066z"/>
	<path fill="#F9AC1E" d="M12.766,4.894C11.881,2.62,9.674,1,7.09,1C5.703,1,4.428,1.471,3.402,2.254
		C4.463,3.243,7.193,5.047,12.766,4.894z"/>
	<path fill="#FFFFFF" d="M7.09,13.186c3.361,0,6.094-2.732,6.094-6.091c0-0.412-0.041-0.814-0.119-1.203
		c-0.336,0.012-0.664,0.021-0.98,0.021c-5.563,0-8.305-1.883-9.432-2.979C1.631,4.024,1,5.485,1,7.094
		C1,10.454,3.73,13.186,7.09,13.186z M9.791,8.858c0,1.49-1.209,2.699-2.699,2.699s-2.699-1.209-2.699-2.699H9.791z"/>
	<path fill="#455B65" d="M23.188,17.795c-0.543-0.604-1.307-0.986-2.156-0.986h-5.939c-0.502,0-0.969,0.145-1.385,0.377
		c-0.654-0.912-1.717-1.514-2.918-1.514H3.596C1.617,15.672,0,17.289,0,19.27V23c0,0.551,0.449,1,1,1c0,0,0.617,0,2.596,0h7.193
		c1.291,0,1.996,0,2.334,0c0,0,0.068,0,0.262,0c0.264,0,0.766,0,1.707,0h5.939C22.664,24,23,24,23,24c0.549,0,1-0.449,1-1v-3.086
		c0-0.672-0.213-1.293-0.564-1.803C23.359,18,23.275,17.895,23.188,17.795z M10.234,16.672l-0.129,0.129l-2.537,2.535
		c-0.188,0.188-0.52,0.188-0.707,0l-2.535-2.535l-0.129-0.129H10.234z M13.385,23h-0.199h-0.063h-2.334H3.596H1.197v-3.66
		c0-0.939,0.449-1.773,1.131-2.322c0.195-0.111,0.4-0.197,0.621-0.254l-0.037,0.037l3.242,3.242c0.283,0.283,0.66,0.438,1.061,0.438
		c0.402,0,0.779-0.154,1.061-0.438l3.244-3.242l-0.016-0.016c0.195,0.057,0.379,0.133,0.551,0.23
		c0.344,0.195,0.645,0.457,0.867,0.779c0.002,0.004,0.006,0.006,0.008,0.01c0.229,0.332,0.371,0.725,0.424,1.145
		c0.012,0.105,0.031,0.211,0.031,0.32V23z M23,23h-1.969h-5.939h-0.707v-3.73c0-0.424-0.086-0.822-0.223-1.201
		c0.279-0.16,0.592-0.26,0.93-0.26h5.939c1.086,0,1.969,0.945,1.969,2.105V23z"/>
	<path fill="#455B65" d="M7.09,14.186c2.389,0,4.496-1.184,5.781-2.992c1.055,1.721,2.945,2.873,5.107,2.873
		c3.316,0,5.998-2.685,5.998-5.994c0-3.311-2.682-5.994-5.998-5.994c-1.777,0-3.371,0.78-4.469,2.012C12.379,1.677,9.934,0,7.09,0
		C3.176,0,0,3.177,0,7.094C0,11.01,3.176,14.186,7.09,14.186z M14.184,7.094c0-0.661-0.098-1.298-0.266-1.904
		c0.906-1.273,2.385-2.111,4.061-2.111c2.756,0,4.998,2.24,4.998,4.994s-2.242,4.994-4.998,4.994c-1.996,0-3.711-1.187-4.508-2.887
		C13.924,9.246,14.184,8.202,14.184,7.094z M7.09,1c2.584,0,4.791,1.619,5.676,3.894c-5.572,0.153-8.303-1.651-9.363-2.64
		C4.428,1.471,5.703,1,7.09,1z M2.652,2.933c1.127,1.097,3.869,2.979,9.432,2.979c0.316,0,0.645-0.01,0.98-0.021
		c0.078,0.389,0.119,0.791,0.119,1.203c0,3.359-2.732,6.091-6.094,6.091C3.73,13.186,1,10.454,1,7.094
		C1,5.485,1.631,4.024,2.652,2.933z"/>
	<path fill="#229DD3" d="M7.092,11.557c1.49,0,2.699-1.209,2.699-2.699H4.393C4.393,10.348,5.602,11.557,7.092,11.557z"/>
</g>
</svg>
