<?xml version="1.0" encoding="utf-8"?>
<!-- Generator: Adobe Illustrator 16.0.0, SVG Export Plug-In . SVG Version: 6.00 Build 0)  -->
<!DOCTYPE svg PUBLIC "-//W3C//DTD SVG 1.1//EN" "http://www.w3.org/Graphics/SVG/1.1/DTD/svg11.dtd">
<svg version="1.1" id="Layer_1" xmlns="http://www.w3.org/2000/svg" xmlns:xlink="http://www.w3.org/1999/xlink" x="0px" y="0px"
	 width="24px" height="24px" viewBox="0 0 24 24" enable-background="new 0 0 24 24" xml:space="preserve">
<g fill="#DCF3FC">
	<path d="M23.437,18.111c-0.076-0.111-0.16-0.217-0.249-0.316c-0.543-0.604-1.307-0.987-2.156-0.987h-5.938
		c-0.502,0-0.97,0.145-1.386,0.378c-0.653-0.912-1.716-1.514-2.917-1.514H3.597C1.618,15.672,0,17.289,0,19.269V23
		c0,0.55,0.45,1,1,1c0,0,0.618,0,2.597,0h7.193c1.291,0,1.995,0,2.334,0c0,0,0.068,0,0.262,0c0.264,0,0.766,0,1.707,0h5.938
		C22.664,24,23,24,23,24c0.55,0,1-0.45,1-1v-3.086C24,19.241,23.787,18.621,23.437,18.111z M10.235,16.672l-0.129,0.129
		l-2.537,2.535c-0.188,0.188-0.52,0.188-0.707,0l-2.535-2.535l-0.129-0.129H10.235z M13.187,23h-0.063H10.79H3.597H1.198v-3.66
		c0-0.94,0.448-1.773,1.131-2.323c0.194-0.11,0.4-0.196,0.621-0.254l-0.037,0.038l3.242,3.242c0.282,0.282,0.659,0.438,1.061,0.438
		s0.778-0.155,1.061-0.438l3.244-3.242l-0.017-0.017c0.195,0.057,0.379,0.134,0.552,0.231c0.344,0.194,0.644,0.456,0.867,0.779
		c0.002,0.003,0.005,0.006,0.008,0.009c0.229,0.333,0.37,0.725,0.423,1.145c0.013,0.106,0.032,0.211,0.032,0.32V23H13.187z M23,23
		h-1.969h-5.938h-0.707v-3.731c0-0.423-0.087-0.822-0.223-1.2c0.278-0.161,0.592-0.261,0.93-0.261h5.938
		c1.086,0,1.969,0.945,1.969,2.106V23z"/>
	<path d="M7.09,14.186c2.39,0,4.497-1.184,5.782-2.992c1.054,1.721,2.944,2.873,5.107,2.873c3.315,0,5.997-2.686,5.997-5.994
		c0-3.311-2.682-5.994-5.997-5.994c-1.778,0-3.371,0.78-4.469,2.012C12.379,1.677,9.935,0,7.09,0C3.176,0,0,3.177,0,7.094
		C0,11.01,3.176,14.186,7.09,14.186z M14.185,7.094c0-0.661-0.098-1.298-0.267-1.904c0.906-1.273,2.385-2.111,4.062-2.111
		c2.756,0,4.997,2.24,4.997,4.994s-2.241,4.994-4.997,4.994c-1.997,0-3.712-1.188-4.509-2.888
		C13.924,9.245,14.185,8.201,14.185,7.094z M7.09,1c2.585,0,4.792,1.619,5.677,3.894c-5.572,0.153-8.303-1.651-9.363-2.64
		C4.429,1.471,5.704,1,7.09,1z M2.653,2.933c1.127,1.097,3.868,2.979,9.432,2.979c0.315,0,0.645-0.01,0.979-0.021
		c0.078,0.389,0.12,0.791,0.12,1.203c0,3.359-2.733,6.092-6.095,6.092C3.731,13.186,1,10.453,1,7.094
		C1,5.484,1.631,4.023,2.653,2.933z"/>
	<path d="M7.092,11.557c1.491,0,2.699-1.209,2.699-2.699H4.394C4.394,10.348,5.602,11.557,7.092,11.557z"/>
</g>
</svg>
