<?xml version="1.0" encoding="UTF-8" standalone="no"?>
<svg width="24px" height="24px" viewBox="0 0 24 24" version="1.1" xmlns="http://www.w3.org/2000/svg" xmlns:xlink="http://www.w3.org/1999/xlink">
    <!-- Generator: Sketch 3.7.2 (28276) - http://www.bohemiancoding.com/sketch -->
    <title>Friend request</title>
    <desc>Created with Sketch.</desc>
    <defs>
        <polygon id="path-1" points="-1.02139434e-14 14.1841 -1.02139434e-14 24 24 24 24 0 -1.02139434e-14 0 -1.02139434e-14 14.1841 23.9767 14.1841 23.9767 0.0001 -0.0003 0.0001 -0.0003 14.1841"></polygon>
    </defs>
    <g id="24" stroke="none" stroke-width="1" fill="none" fill-rule="evenodd">
        <g id="Friend-request">
            <g id="Page-1">
                <path d="M17.9795,13.0645 C20.7345,13.0645 22.9765,10.8255 22.9765,8.0725 C22.9765,5.3185 20.7345,3.0775 17.9795,3.0775 C16.3015,3.0775 14.8235,3.9165 13.9175,5.1895 C14.0865,5.7955 14.1835,6.4325 14.1835,7.0935 C14.1835,8.2005 13.9225,9.2445 13.4695,10.1775 C14.2665,11.8775 15.9815,13.0645 17.9795,13.0645" id="Fill-1" fill="#FFFFFF"></path>
                <path d="M9.791,8.8574 C9.791,10.3464 8.582,11.5544 7.092,11.5544 C5.602,11.5544 4.393,10.3464 4.393,8.8574 L9.791,8.8574 Z M7.09,13.1834 C10.45,13.1834 13.184,10.4524 13.184,7.0934 C13.184,6.5024 13.095,5.9314 12.936,5.3894 C6.984,5.5884 4.124,3.6504 3.013,2.5804 C1.78,3.6964 1,5.3034 1,7.0934 C1,10.4524 3.731,13.1834 7.09,13.1834 L7.09,13.1834 Z" id="Fill-3" fill="#FFFFFF"></path>
                <path d="M14.3847,23 L15.0927,23 L21.0307,23 L22.9997,23 L22.9997,19.912 C22.9997,18.752 22.1157,17.807 21.0307,17.807 L15.0927,17.807 C14.7547,17.807 14.4417,17.906 14.1627,18.068 C14.2977,18.445 14.3847,18.846 14.3847,19.268 L14.3847,23 Z" id="Fill-5" fill="#F9AC1E"></path>
                <path d="M13.123,23 L13.385,23 L13.385,19.268 C13.385,18.086 12.587,17.097 11.505,16.784 L11.519,16.799 L8.276,20.043 C7.984,20.335 7.6,20.482 7.216,20.482 C6.832,20.482 6.447,20.335 6.155,20.043 L2.912,16.799 L2.948,16.763 C1.831,17.053 1,18.061 1,19.268 L1,23 L3.596,23 L10.789,23 L13.123,23 Z" id="Fill-7" fill="#FFFFFF"></path>
                <path d="M7.5693,19.336 L10.2333,16.671 L4.1983,16.671 L6.8623,19.336 C7.0493,19.523 7.3823,19.523 7.5693,19.336" id="Fill-9" fill="#F9AC1E"></path>
                <path d="M12.9365,5.3897 C12.1975,2.8577 9.8585,0.9997 7.0895,0.9997 C5.5205,0.9997 4.0925,1.6017 3.0125,2.5797 C4.1235,3.6507 6.9845,5.5887 12.9365,5.3897" id="Fill-11" fill="#EC4380"></path>
                <path d="M23,23 L21.031,23 L15.093,23 L14.385,23 L14.385,19.268 C14.385,18.846 14.298,18.445 14.163,18.068 C14.441,17.906 14.755,17.807 15.093,17.807 L21.031,17.807 C22.116,17.807 23,18.752 23,19.912 L23,23 Z M13.123,23 L10.789,23 L3.596,23 L1,23 L1,19.268 C1,18.061 1.831,17.053 2.948,16.763 L2.912,16.799 L6.155,20.043 C6.447,20.335 6.832,20.482 7.216,20.482 C7.6,20.482 7.984,20.335 8.276,20.043 L11.52,16.799 L11.505,16.784 C12.587,17.097 13.385,18.086 13.385,19.268 L13.385,23 L13.123,23 Z M10.233,16.671 L7.569,19.336 C7.382,19.523 7.05,19.523 6.862,19.336 L4.198,16.671 L10.233,16.671 Z M23.436,18.11 C23.36,17.999 23.277,17.895 23.187,17.795 C22.646,17.191 21.881,16.807 21.031,16.807 L15.093,16.807 C14.59,16.807 14.123,16.951 13.706,17.185 C13.053,16.273 11.99,15.671 10.789,15.671 L3.596,15.671 C1.617,15.671 0,17.289 0,19.268 L0,23 C0,23.549 0.449,24 1,24 L3.596,24 L10.789,24 L13.123,24 L13.385,24 L15.093,24 L21.031,24 L23,24 C23.549,24 24,23.549 24,23 L24,19.912 C24,19.24 23.787,18.62 23.436,18.11 L23.436,18.11 Z" id="Fill-13" fill="#455B65"></path>
                <g id="Group-17">
                    <mask id="mask-2" fill="white">
                        <use xlink:href="#path-1"></use>
                    </mask>
                    <g id="Clip-16"></g>
                    <path d="M3.0127,2.5801 C4.0927,1.6011 5.5207,1.0001 7.0897,1.0001 C9.8587,1.0001 12.1977,2.8571 12.9367,5.3901 C13.0947,5.9321 13.1837,6.5021 13.1837,7.0941 C13.1837,10.4521 10.4497,13.1841 7.0897,13.1841 C3.7317,13.1841 0.9997,10.4521 0.9997,7.0941 C0.9997,5.3041 1.7807,3.6961 3.0127,2.5801 M14.1837,7.0941 C14.1837,6.4331 14.0867,5.7961 13.9177,5.1891 C14.8237,3.9161 16.3017,3.0771 17.9797,3.0771 C20.7347,3.0771 22.9767,5.3181 22.9767,8.0721 C22.9767,10.8251 20.7347,13.0641 17.9797,13.0641 C15.9817,13.0641 14.2667,11.8771 13.4697,10.1781 C13.9227,9.2441 14.1837,8.2001 14.1837,7.0941 M7.0897,14.1841 C9.4797,14.1841 11.5867,13.0001 12.8717,11.1911 C13.9257,12.9121 15.8167,14.0641 17.9797,14.0641 C21.2947,14.0641 23.9767,11.3801 23.9767,8.0721 C23.9767,4.7611 21.2947,2.0771 17.9797,2.0771 C16.2007,2.0771 14.6077,2.8571 13.5097,4.0901 C12.3787,1.6761 9.9337,0.0001 7.0897,0.0001 C3.1757,0.0001 -0.0003,3.1761 -0.0003,7.0941 C-0.0003,11.0091 3.1757,14.1841 7.0897,14.1841" id="Fill-15" fill="#455B65"></path>
                </g>
                <path d="M7.0918,11.5547 C8.5818,11.5547 9.7908,10.3467 9.7908,8.8577 L4.3938,8.8577 C4.3938,10.3467 5.6018,11.5547 7.0918,11.5547" id="Fill-18" fill="#EC4380"></path>
            </g>
        </g>
    </g>
</svg>