<?xml version="1.0" encoding="utf-8"?>
<!-- Generator: Adobe Illustrator 16.0.0, SVG Export Plug-In . SVG Version: 6.00 Build 0)  -->
<!DOCTYPE svg PUBLIC "-//W3C//DTD SVG 1.1//EN" "http://www.w3.org/Graphics/SVG/1.1/DTD/svg11.dtd">
<svg version="1.1" id="Layer_1" xmlns="http://www.w3.org/2000/svg" xmlns:xlink="http://www.w3.org/1999/xlink" x="0px" y="0px"
	 width="30px" height="30px" viewBox="0 0 30 30" enable-background="new 0 0 30 30" xml:space="preserve">
<g>
	<rect y="0" fill="none" width="30" height="30"/>
	<g>
		<path d="M27.234,8.456c0,3.666-5.499,5.637-4.738,11.033h2.488C24.434,14.646,30,12.813,30,8.283c0-3.423-2.352-5.533-5.914-5.533
			c-2.455,0-4.355,1.211-5.809,2.871l1.625,1.486c1.072-1.244,2.455-2.005,3.977-2.005C26.092,5.102,27.234,6.623,27.234,8.456z"/>
		<path d="M23.811,22.393c-1.143,0-2.041,0.898-2.041,2.213c0,1.244,0.898,2.145,2.041,2.145c1.141,0,2.075-0.9,2.075-2.145
			C25.886,23.292,24.951,22.393,23.811,22.393z"/>
	</g>
	<path d="M17.539,12.66c-0.009-0.017-0.022-0.027-0.032-0.042s-0.021-0.027-0.031-0.041c-0.058-0.071-0.128-0.126-0.212-0.156
		c-0.003-0.002-0.005-0.006-0.009-0.007l-7.4-2.518c-0.104-0.036-0.218-0.036-0.322,0l-7.404,2.518
		c-0.004,0.001-0.005,0.005-0.009,0.007c-0.086,0.031-0.155,0.088-0.211,0.155c-0.012,0.015-0.022,0.027-0.032,0.043
		c-0.01,0.015-0.023,0.024-0.031,0.041l-1.79,3.51c-0.065,0.129-0.072,0.279-0.019,0.412c0.053,0.135,0.162,0.238,0.299,0.287
		l1.455,0.511v5.092c0,1.139,0.842,2.326,1.916,2.703l5.818,2.047c0.055,0.02,0.111,0.029,0.167,0.029s0.112-0.01,0.167-0.029
		l5.816-2.047c1.076-0.377,1.918-1.564,1.918-2.703v-5.09l1.455-0.513c0.137-0.049,0.246-0.152,0.299-0.286
		c0.054-0.134,0.047-0.284-0.019-0.413L17.539,12.66z M9.693,10.897l5.87,1.997l-0.217,0.076c0,0-0.002,0-0.002,0.001l-4.236,1.487
		c-0.014,0.006-0.025,0.01-0.039,0.014l-1.378,0.484l-5.756-2.021l-0.116-0.041L9.693,10.897z M1.205,16.115l1.331-2.611l6.45,2.266
		l-1.331,2.612L1.205,16.115z M2.79,22.471v-4.74l4.947,1.738c0.054,0.02,0.109,0.029,0.165,0.029c0.184,0,0.358-0.102,0.445-0.273
		l0.844-1.656v8.475l-5.154-1.813C3.372,23.999,2.79,23.176,2.79,22.471z M16.593,22.471c0,0.705-0.584,1.527-1.249,1.76
		l-5.152,1.813v-8.475l0.845,1.656c0.087,0.172,0.262,0.273,0.445,0.273c0.055,0,0.111-0.01,0.166-0.029l4.945-1.738V22.471z
		 M11.728,18.381l-1.331-2.612l6.45-2.266l1.331,2.611L11.728,18.381z"/>
</g>
</svg>
