<?xml version="1.0" encoding="UTF-8" standalone="no"?>
<svg width="20px" height="20px" viewBox="0 0 20 20" version="1.1" xmlns="http://www.w3.org/2000/svg" xmlns:xlink="http://www.w3.org/1999/xlink">
    <!-- Generator: Sketch 3.7.2 (28276) - http://www.bohemiancoding.com/sketch -->
    <title>item 1</title>
    <desc>Created with Sketch.</desc>
    <defs>
        <polygon id="path-1" points="0 0.3004 0 16.4564 14.0774 16.4564 14.0774 0.3004 0 0.3004"></polygon>
        <polygon id="path-3" points="0.3265425 8 6.63982525 8 6.63982525 0.347015088 0.3265425 0.347015088"></polygon>
        <polygon id="path-5" points="9.83863427 0.393 0.3773 0.393 0.3773 5.2991 9.83863427 5.2991 9.83863427 0.393"></polygon>
    </defs>
    <g id="20" stroke="none" stroke-width="1" fill="none" fill-rule="evenodd">
        <g id="item-1">
            <g id="Page-1" transform="translate(0.000000, -1.000000)">
                <g id="Group-3" transform="translate(0.000000, 3.607100)">
                    <mask id="mask-2" fill="white">
                        <use xlink:href="#path-1"></use>
                    </mask>
                    <g id="Clip-2"></g>
                    <path d="M13.3934,15.7734 C13.5314,15.5344 13.8354,15.4524 14.0774,15.5904 L2.2744,8.7764 C1.4014,8.2724 0.9854,7.7004 1.0004,7.0284 C1.0084,6.7404 1.0934,6.4534 1.2044,6.1884 L1.0354,6.0904 C0.7954,5.9534 0.7134,5.6474 0.8524,5.4084 C0.9904,5.1694 1.2954,5.0864 1.5354,5.2254 L1.6694,5.3034 L4.0924,1.1064 L3.7414,1.0364 C3.7134,1.0304 3.6924,1.0154 3.6674,1.0054 C3.6424,0.9964 3.6164,0.9944 3.5924,0.9814 C3.5864,0.9784 3.5834,0.9724 3.5784,0.9684 C3.5444,0.9484 3.5194,0.9214 3.4924,0.8944 C3.4724,0.8754 3.4514,0.8594 3.4354,0.8374 C3.4144,0.8084 3.4034,0.7764 3.3894,0.7444 C3.3774,0.7174 3.3624,0.6924 3.3554,0.6644 C3.3484,0.6354 3.3504,0.6044 3.3484,0.5734 C3.3464,0.5384 3.3424,0.5034 3.3484,0.4684 C3.3494,0.4614 3.3474,0.4554 3.3484,0.4484 C3.3534,0.4224 3.3684,0.4024 3.3774,0.3784 C3.3874,0.3524 3.3894,0.3254 3.4034,0.3004 L0.7174,4.9504 C0.4404,5.4304 0.0224,6.1554 0.0004,7.0034 C-0.0246,8.0614 0.5724,8.9494 1.7744,9.6414 L13.5774,16.4564 C13.3384,16.3194 13.2554,16.0124 13.3934,15.7734" id="Fill-1" fill="#000000" mask="url(#mask-2)"></path>
                </g>
                <polygon id="Fill-4" fill="#FFFFFF" points="4.7078 3.6466 4.7018 3.6426 4.6138 3.7986 4.6198 3.7996"></polygon>
                <path d="M12.095,5.9064 C12.085,5.9294 12.079,5.9544 12.066,5.9744 C12.048,6.0044 12.023,6.0274 11.999,6.0514 C11.984,6.0674 11.972,6.0854 11.956,6.0994 C11.925,6.1234 11.889,6.1404 11.854,6.1564 C11.839,6.1634 11.826,6.1744 11.81,6.1804 C11.758,6.1994 11.701,6.2094 11.643,6.2094 C11.612,6.2094 11.579,6.2054 11.546,6.1994 L11.173,6.1254 C11.228,6.7974 11.507,7.5614 11.978,8.3824 L12.026,8.3444 C12.243,8.1704 12.556,8.2064 12.729,8.4224 C12.901,8.6374 12.866,8.9514 12.651,9.1254 L12.519,9.2314 C12.774,9.5964 13.063,9.9694 13.386,10.3494 L13.628,10.1544 C13.844,9.9834 14.159,10.0184 14.331,10.2334 C14.503,10.4474 14.469,10.7624 14.253,10.9364 L14.055,11.0944 C14.347,11.4054 14.654,11.7184 14.986,12.0334 L15.307,11.7764 C15.524,11.6034 15.839,11.6394 16.011,11.8544 C16.182,12.0694 16.148,12.3844 15.932,12.5574 L15.733,12.7164 C16.158,13.0924 16.606,13.4694 17.083,13.8464 C17.087,13.8494 17.093,13.8504 17.097,13.8544 C16.882,13.6934 16.828,13.3914 16.983,13.1694 C17.139,12.9434 17.452,12.8854 17.678,13.0434 C17.689,13.0504 17.698,13.0604 17.708,13.0684 C17.706,13.0664 17.706,13.0644 17.704,13.0634 C13.457,9.7024 11.88,6.8554 12.2,5.5234 L12.131,5.8214 C12.123,5.8524 12.107,5.8784 12.095,5.9064" id="Fill-6" fill="#000000"></path>
                <g id="Group-10" transform="translate(13.000000, 12.607100)">
                    <mask id="mask-4" fill="white">
                        <use xlink:href="#path-3"></use>
                    </mask>
                    <g id="Clip-9"></g>
                    <path d="M4.7083,0.4612 C4.6983,0.4542 4.6893,0.4442 4.6783,0.4362 C4.4523,0.2782 4.1393,0.3362 3.9833,0.5622 C3.8283,0.7842 3.8823,1.0862 4.0973,1.2472 C4.1013,1.2502 4.1033,1.2552 4.1083,1.2582 C5.3673,2.1332 6.1433,3.9462 5.2643,5.4692 C5.1993,5.5802 5.1193,5.6762 5.0423,5.7762 C5.2193,5.9302 5.2763,6.1862 5.1553,6.3962 C5.0613,6.5562 4.8933,6.6462 4.7213,6.6462 C4.6353,6.6462 4.5493,6.6252 4.4713,6.5792 L4.2983,6.4792 C3.3593,7.0992 2.1163,7.1902 1.0773,6.5912 C0.8353,6.4522 0.5313,6.5342 0.3933,6.7732 C0.2553,7.0122 0.3383,7.3192 0.5773,7.4562 C1.2153,7.8252 1.9143,8.0002 2.6033,8.0002 C4.0093,8.0002 5.3793,7.2702 6.1313,5.9692 C7.2903,3.9612 6.3203,1.6022 4.7083,0.4612" id="Fill-8" fill="#000000" mask="url(#mask-4)"></path>
                </g>
                <path d="M8.0955,6.7408 C7.2145,6.2328 6.0895,6.5338 5.5815,7.4148 C5.0725,8.2958 5.3745,9.4198 6.2555,9.9278 C7.1345,10.4358 8.2595,10.1348 8.7695,9.2538 C9.2775,8.3758 8.9765,7.2488 8.0955,6.7408" id="Fill-11" fill="#000000"></path>
                <path d="M1.6696,8.9103 L1.5346,8.8323 C1.2956,8.6943 0.9896,8.7763 0.8526,9.0153 C0.7136,9.2543 0.7956,9.5603 1.0346,9.6983 L1.2046,9.7953 L17.2986,19.0863 L17.4716,19.1863 C17.5496,19.2323 17.6356,19.2533 17.7216,19.2533 C17.8936,19.2533 18.0616,19.1633 18.1546,19.0033 C18.2766,18.7933 18.2196,18.5373 18.0426,18.3833 C18.0186,18.3623 17.9996,18.3373 17.9716,18.3213 L1.6696,8.9103 Z" id="Fill-13" fill="#000000"></path>
                <path d="M10.5555,10.1607 C10.6555,10.2837 10.7995,10.3477 10.9465,10.3477 C11.0555,10.3477 11.1665,10.3127 11.2585,10.2387 L12.5185,9.2317 L12.6515,9.1257 C12.8665,8.9517 12.9015,8.6377 12.7295,8.4227 C12.5565,8.2067 12.2425,8.1707 12.0265,8.3447 L11.9785,8.3827 L10.6335,9.4577 C10.4185,9.6307 10.3835,9.9447 10.5555,10.1607" id="Fill-15" fill="#000000"></path>
                <path d="M12.159,11.9732 C12.259,12.0962 12.403,12.1602 12.55,12.1602 C12.659,12.1602 12.77,12.1242 12.862,12.0512 L14.055,11.0942 L14.253,10.9362 C14.469,10.7622 14.503,10.4482 14.331,10.2332 C14.159,10.0182 13.844,9.9832 13.628,10.1552 L13.386,10.3492 L12.237,11.2702 C12.021,11.4442 11.987,11.7582 12.159,11.9732" id="Fill-17" fill="#000000"></path>
                <path d="M13.8367,13.5943 C13.9367,13.7173 14.0807,13.7813 14.2277,13.7813 C14.3367,13.7813 14.4477,13.7463 14.5397,13.6723 L15.7327,12.7163 L15.9327,12.5573 C16.1487,12.3843 16.1827,12.0693 16.0107,11.8543 C15.8387,11.6393 15.5237,11.6033 15.3077,11.7763 L14.9857,12.0333 L13.9147,12.8913 C13.6987,13.0643 13.6647,13.3793 13.8367,13.5943" id="Fill-19" fill="#000000"></path>
                <path id="Fill-21" fill="#FFFFFF"></path>
                <path id="Fill-23" fill="#FFFFFF"></path>
                <path id="Fill-25" fill="#FFFFFF"></path>
                <path id="Fill-27" fill="#FFFFFF"></path>
                <g id="Group-31" transform="translate(3.000000, 0.607100)">
                    <mask id="mask-6" fill="white">
                        <use xlink:href="#path-5"></use>
                    </mask>
                    <g id="Clip-30"></g>
                    <path d="M0.9363,3.0561 L1.6133,3.1911 L1.7013,3.0361 L2.6003,1.4461 L8.7323,2.5051 L8.2653,4.5171 L8.7413,4.6121 C9.0123,4.6651 9.1883,4.9291 9.1333,5.2001 C9.1263,5.2361 9.1093,5.2671 9.0953,5.2991 C9.1073,5.2711 9.1233,5.2461 9.1303,5.2151 L9.1993,4.9161 L9.8263,2.2151 C9.8563,2.0811 9.8313,1.9401 9.7543,1.8251 C9.6783,1.7111 9.5593,1.6331 9.4233,1.6091 L2.4233,0.4001 C2.2173,0.3641 2.0063,0.4631 1.9033,0.6471 L0.4033,3.3001 L0.4033,3.3011 C0.3893,3.3261 0.3873,3.3531 0.3773,3.3791 C0.4603,3.1511 0.6923,3.0061 0.9363,3.0561" id="Fill-29" fill="#000000" mask="url(#mask-6)"></path>
                </g>
                <path id="Fill-32" fill="#FFFFFF"></path>
                <path id="Fill-34" fill="#FFFFFF"></path>
                <path id="Fill-36" fill="#FFFFFF"></path>
                <path d="M11.5457,6.1998 C11.5787,6.2058 11.6117,6.2098 11.6437,6.2098 C11.7017,6.2098 11.7577,6.1988 11.8107,6.1808 C11.8257,6.1748 11.8387,6.1638 11.8537,6.1568 C11.8897,6.1398 11.9247,6.1238 11.9557,6.0988 C11.9727,6.0858 11.9837,6.0668 11.9987,6.0518 C12.0227,6.0268 12.0477,6.0038 12.0667,5.9748 C12.0787,5.9538 12.0847,5.9288 12.0947,5.9068 C12.1087,5.8738 12.1267,5.8438 12.1337,5.8068 C12.1887,5.5358 12.0127,5.2718 11.7407,5.2198 L11.2657,5.1248 L4.6197,3.7998 L4.6137,3.7988 L3.9367,3.6628 C3.6927,3.6138 3.4607,3.7588 3.3777,3.9858 C3.3687,4.0098 3.3537,4.0298 3.3487,4.0558 C3.3467,4.0618 3.3497,4.0688 3.3487,4.0748 C3.3427,4.1108 3.3467,4.1458 3.3487,4.1808 C3.3497,4.2118 3.3487,4.2418 3.3557,4.2718 C3.3627,4.2998 3.3777,4.3248 3.3887,4.3508 C3.4027,4.3838 3.4147,4.4158 3.4357,4.4448 C3.4517,4.4658 3.4727,4.4828 3.4917,4.5018 C3.5187,4.5288 3.5447,4.5558 3.5777,4.5758 C3.6047,4.5928 3.6367,4.6018 3.6677,4.6128 C3.6927,4.6218 3.7137,4.6378 3.7407,4.6428 L4.0917,4.7128 L11.1727,6.1258 L11.5457,6.1998 Z" id="Fill-38" fill="#000000"></path>
            </g>
        </g>
    </g>
</svg>