<?xml version="1.0" encoding="UTF-8" standalone="no"?>
<svg width="20px" height="20px" viewBox="0 0 20 20" version="1.1" xmlns="http://www.w3.org/2000/svg" xmlns:xlink="http://www.w3.org/1999/xlink">
    <!-- Generator: Sketch 3.7.2 (28276) - http://www.bohemiancoding.com/sketch -->
    <title>item</title>
    <desc>Created with Sketch.</desc>
    <defs>
        <polygon id="path-1" points="5.42101086e-20 0.3014 5.42101086e-20 16.4564 14.0764 16.4564 14.0764 0.3014 0 0.3014"></polygon>
        <polygon id="path-3" points="3.48189343 8 6.638 8 6.638 0.346562929 0.32578686 0.346562929 0.32578686 8 3.48189343 8"></polygon>
    </defs>
    <g id="20" stroke="none" stroke-width="1" fill="none" fill-rule="evenodd">
        <g id="item">
            <g id="Page-1">
                <path d="M8.7682,8.2529 C8.2582,9.1339 7.1332,9.4359 6.2542,8.9269 C5.3732,8.4189 5.0712,7.2939 5.5802,6.4139 C6.0882,5.5339 7.2132,5.2319 8.0942,5.7399 C8.9752,6.2489 9.2762,7.3749 8.7682,8.2529 M15.7322,11.7159 L14.5392,12.6719 C14.4472,12.7459 14.3372,12.7809 14.2262,12.7809 C14.0802,12.7809 13.9342,12.7169 13.8362,12.5939 C13.6642,12.3789 13.6982,12.0639 13.9142,11.8909 L14.9852,11.0339 C14.6532,10.7179 14.3462,10.4049 14.0542,10.0939 L12.8612,11.0499 C12.7692,11.1239 12.6592,11.1599 12.5492,11.1599 C12.4022,11.1599 12.2582,11.0959 12.1592,10.9729 C11.9862,10.7579 12.0202,10.4429 12.2362,10.2699 L13.3852,9.3489 C13.0622,8.9689 12.7732,8.5959 12.5172,8.2309 L11.2582,9.2379 C11.1652,9.3119 11.0542,9.3479 10.9452,9.3479 C10.7992,9.3479 10.6532,9.2829 10.5542,9.1599 C10.3832,8.9449 10.4172,8.6299 10.6332,8.4569 L11.9772,7.3819 C11.5062,6.5609 11.2272,5.7969 11.1712,5.1249 L4.0912,3.7129 L1.6682,7.9089 L17.9702,17.3199 C17.9992,17.3369 18.0182,17.3619 18.0422,17.3829 C18.1182,17.2829 18.2002,17.1869 18.2642,17.0749 C19.1422,15.5529 18.3662,13.7389 17.1072,12.8649 C17.1012,12.8609 17.0992,12.8549 17.0932,12.8499 C17.0902,12.8479 17.0852,12.8489 17.0822,12.8459 C16.6052,12.4689 16.1572,12.0919 15.7322,11.7159" id="Fill-1" fill="#FFFFFF"></path>
                <polygon id="Fill-3" fill="#FFFFFF" points="4.6188 2.7988 11.2648 4.1238 11.7318 2.1118 5.5998 1.0518 4.7008 2.6428 4.7068 2.6458"></polygon>
                <path d="M1.2032,8.7955 C1.0922,9.0605 1.0072,9.3465 1.0002,9.6345 C0.9842,10.3075 1.4002,10.8785 2.2732,11.3825 L14.0762,18.1965 C15.1142,18.7965 16.3572,18.7065 17.2972,18.0855 L1.2032,8.7955 Z" id="Fill-5" fill="#F9AC1E"></path>
                <g id="Group-9" transform="translate(0.000000, 2.606500)">
                    <mask id="mask-2" fill="white">
                        <use xlink:href="#path-1"></use>
                    </mask>
                    <g id="Clip-8"></g>
                    <path d="M13.3924,15.7734 C13.5304,15.5344 13.8344,15.4514 14.0764,15.5904 L2.2734,8.7754 C1.4004,8.2724 0.9844,7.7004 0.9994,7.0284 C1.0074,6.7404 1.0924,6.4534 1.2034,6.1894 L1.0344,6.0914 C0.7944,5.9534 0.7124,5.6474 0.8514,5.4084 C0.9894,5.1694 1.2954,5.0894 1.5344,5.2254 L1.6684,5.3024 L4.0904,1.1064 L3.7404,1.0364 C3.7124,1.0314 3.6914,1.0154 3.6654,1.0054 C3.6414,0.9964 3.6154,0.9944 3.5914,0.9814 C3.5854,0.9784 3.5824,0.9714 3.5764,0.9684 C3.5454,0.9494 3.5224,0.9244 3.4964,0.8994 C3.4754,0.8784 3.4514,0.8594 3.4334,0.8354 C3.4154,0.8104 3.4064,0.7824 3.3934,0.7544 C3.3784,0.7234 3.3624,0.6954 3.3544,0.6624 C3.3484,0.6354 3.3504,0.6074 3.3484,0.5794 C3.3454,0.5424 3.3414,0.5054 3.3474,0.4684 C3.3484,0.4614 3.3464,0.4554 3.3474,0.4484 C3.3524,0.4234 3.3674,0.4034 3.3764,0.3804 C3.3854,0.3544 3.3874,0.3264 3.4024,0.3014 L0.7174,4.9504 C0.4404,5.4304 0.0214,6.1554 0.0004,7.0034 C-0.0256,8.0614 0.5714,8.9494 1.7734,9.6424 L13.5764,16.4564 C13.3364,16.3184 13.2544,16.0124 13.3924,15.7734" id="Fill-7" fill="#455B65" mask="url(#mask-2)"></path>
                </g>
                <polygon id="Fill-10" fill="#455B65" points="4.7069 2.6461 4.7009 2.6421 4.6129 2.7981 4.6189 2.7991"></polygon>
                <path d="M12.0932,4.9078 C12.0832,4.9298 12.0772,4.9538 12.0652,4.9738 C12.0492,4.9998 12.0272,5.0188 12.0062,5.0408 C11.9892,5.0608 11.9742,5.0828 11.9532,5.0988 C11.9312,5.1168 11.9052,5.1268 11.8802,5.1408 C11.8562,5.1538 11.8342,5.1708 11.8082,5.1798 C11.7682,5.1938 11.7232,5.1988 11.6802,5.2018 C11.6672,5.2028 11.6562,5.2088 11.6432,5.2088 L11.6432,5.2088 L11.6422,5.2088 C11.6402,5.2088 11.6372,5.2078 11.6352,5.2078 C11.6052,5.2068 11.5752,5.2048 11.5452,5.1988 L11.5312,5.1958 L11.5292,5.1958 L11.5282,5.1958 L11.1712,5.1248 C11.2272,5.7968 11.5062,6.5608 11.9772,7.3818 L12.0252,7.3438 C12.2432,7.1718 12.5562,7.2068 12.7282,7.4218 C12.9002,7.6368 12.8662,7.9518 12.6502,8.1248 L12.5172,8.2308 C12.7732,8.5958 13.0622,8.9688 13.3852,9.3488 L13.6272,9.1548 C13.8412,8.9838 14.1562,9.0168 14.3292,9.2318 C14.5022,9.4478 14.4672,9.7618 14.2522,9.9348 L14.0542,10.0938 C14.3462,10.4048 14.6522,10.7178 14.9842,11.0338 L15.3062,10.7758 C15.5212,10.6038 15.8372,10.6368 16.0092,10.8538 C16.1812,11.0688 16.1472,11.3838 15.9312,11.5558 L15.7322,11.7158 C16.1562,12.0918 16.6052,12.4698 17.0822,12.8458 C17.0852,12.8488 17.0902,12.8478 17.0932,12.8498 C16.8812,12.6888 16.8282,12.3898 16.9822,12.1688 C17.1382,11.9408 17.4502,11.8848 17.6772,12.0438 C17.6892,12.0518 17.6982,12.0628 17.7102,12.0708 C17.7072,12.0678 17.7062,12.0648 17.7032,12.0618 C13.4552,8.7018 11.8782,5.8538 12.1992,4.5228 L12.1292,4.8218 C12.1222,4.8528 12.1062,4.8788 12.0932,4.9078" id="Fill-12" fill="#455B65"></path>
                <g id="Group-16" transform="translate(13.000000, 11.606500)">
                    <mask id="mask-4" fill="white">
                        <use xlink:href="#path-3"></use>
                    </mask>
                    <g id="Clip-15"></g>
                    <path d="M4.7101,0.464 C4.6991,0.456 4.6891,0.445 4.6781,0.437 C4.4501,0.278 4.1381,0.334 3.9821,0.563 C3.8281,0.783 3.8811,1.083 4.0931,1.244 C4.0991,1.248 4.1011,1.254 4.1071,1.258 C5.3661,2.133 6.1421,3.947 5.2641,5.469 C5.2001,5.581 5.1181,5.676 5.0421,5.777 C5.2191,5.931 5.2751,6.186 5.1531,6.396 C5.0611,6.557 4.8921,6.646 4.7201,6.646 C4.6361,6.646 4.5501,6.625 4.4701,6.58 L4.2971,6.479 C3.3571,7.099 2.1151,7.19 1.0761,6.59 C0.8351,6.451 0.5301,6.535 0.3921,6.773 C0.2551,7.013 0.3371,7.319 0.5761,7.457 C1.2151,7.825 1.9131,8 2.6021,8 C4.0091,8 5.3791,7.271 6.1301,5.969 C7.2881,3.962 6.3191,1.606 4.7101,0.464" id="Fill-14" fill="#455B65" mask="url(#mask-4)"></path>
                </g>
                <path d="M8.0943,5.7396 C7.2133,5.2316 6.0883,5.5336 5.5803,6.4136 C5.0713,7.2946 5.3733,8.4186 6.2543,8.9266 C7.1333,9.4356 8.2583,9.1336 8.7683,8.2526 C9.2763,7.3746 8.9753,6.2486 8.0943,5.7396" id="Fill-17" fill="#EC4380"></path>
                <path d="M1.6683,7.9091 L1.5343,7.8311 C1.2953,7.6961 0.9893,7.7761 0.8513,8.0151 C0.7123,8.2541 0.7943,8.5601 1.0343,8.6981 L1.2033,8.7951 L17.2973,18.0861 L17.4703,18.1861 C17.5493,18.2311 17.6353,18.2531 17.7203,18.2531 C17.8923,18.2531 18.0613,18.1631 18.1533,18.0031 C18.2753,17.7921 18.2183,17.5371 18.0423,17.3831 C18.0183,17.3621 17.9993,17.3361 17.9703,17.3201 L1.6683,7.9091 Z" id="Fill-19" fill="#455B65"></path>
                <path d="M10.5546,9.1602 C10.6536,9.2832 10.7986,9.3472 10.9456,9.3472 C11.0546,9.3472 11.1646,9.3122 11.2576,9.2382 L12.5176,8.2312 L12.6506,8.1242 C12.8666,7.9522 12.9006,7.6372 12.7286,7.4212 C12.5566,7.2062 12.2426,7.1722 12.0256,7.3432 L11.9766,7.3822 L10.6326,8.4572 C10.4166,8.6302 10.3826,8.9442 10.5546,9.1602" id="Fill-21" fill="#455B65"></path>
                <path d="M12.159,10.9732 C12.258,11.0962 12.402,11.1602 12.549,11.1602 C12.659,11.1602 12.769,11.1242 12.861,11.0502 L14.054,10.0942 L14.252,9.9352 C14.468,9.7622 14.502,9.4482 14.329,9.2322 C14.156,9.0162 13.842,8.9842 13.627,9.1552 L13.385,9.3492 L12.236,10.2702 C12.02,10.4432 11.986,10.7572 12.159,10.9732" id="Fill-23" fill="#455B65"></path>
                <path d="M13.8358,12.5938 C13.9348,12.7178 14.0798,12.7808 14.2268,12.7808 C14.3368,12.7808 14.4468,12.7458 14.5388,12.6718 L15.7318,11.7158 L15.9318,11.5558 C16.1478,11.3838 16.1818,11.0688 16.0098,10.8538 C15.8368,10.6368 15.5218,10.6038 15.3068,10.7758 L14.9848,11.0338 L13.9138,11.8908 C13.6978,12.0638 13.6638,12.3788 13.8358,12.5938" id="Fill-25" fill="#455B65"></path>
                <path id="Fill-27" fill="#455B65"></path>
                <path id="Fill-29" fill="#455B65"></path>
                <path id="Fill-31" fill="#455B65"></path>
                <path d="M3.9354,2.6627 L4.6134,2.7977 L4.7004,2.6427 L5.5994,1.0527 L11.7314,2.1117 L11.2644,4.1237 L11.7404,4.2187 C12.0104,4.2717 12.1864,4.5357 12.1324,4.8067 C12.1254,4.8437 12.1074,4.8747 12.0934,4.9077 C12.1064,4.8797 12.1224,4.8527 12.1294,4.8217 L12.1994,4.5227 L12.8254,1.8217 C12.8564,1.6877 12.8304,1.5467 12.7544,1.4327 C12.6784,1.3177 12.5584,1.2397 12.4224,1.2157 L5.4224,0.0067 C5.2174,-0.0273 5.0064,0.0697 4.9024,0.2537 L3.4024,2.9067 L3.4024,2.9077 C3.3874,2.9327 3.3854,2.9607 3.3764,2.9867 C3.4594,2.7577 3.6914,2.6127 3.9354,2.6627" id="Fill-33" fill="#455B65"></path>
                <path id="Fill-35" fill="#455B65"></path>
                <path id="Fill-37" fill="#455B65"></path>
                <path id="Fill-39" fill="#455B65"></path>
                <path id="Fill-41" fill="#455B65"></path>
                <path id="Fill-43" fill="#455B65"></path>
                <path id="Fill-45" fill="#455B65"></path>
                <path d="M11.5284,5.1956 L11.5314,5.1966 L11.5444,5.1986 C11.5754,5.2046 11.6044,5.2076 11.6354,5.2076 C11.6374,5.2076 11.6404,5.2086 11.6424,5.2086 L11.6434,5.2086 C11.6564,5.2086 11.6674,5.2036 11.6794,5.2026 C11.7234,5.1986 11.7674,5.1946 11.8084,5.1796 C11.8344,5.1706 11.8564,5.1536 11.8804,5.1406 C11.9044,5.1266 11.9314,5.1166 11.9534,5.0996 C11.9744,5.0826 11.9884,5.0606 12.0064,5.0406 C12.0264,5.0186 12.0494,4.9996 12.0654,4.9746 C12.0774,4.9536 12.0834,4.9296 12.0934,4.9076 C12.1074,4.8746 12.1254,4.8436 12.1324,4.8066 C12.1864,4.5356 12.0104,4.2716 11.7404,4.2186 L11.2644,4.1236 L4.6184,2.7986 L4.6134,2.7976 L3.9354,2.6626 C3.6914,2.6136 3.4594,2.7576 3.3764,2.9866 C3.3674,3.0106 3.3524,3.0296 3.3474,3.0556 C3.3464,3.0616 3.3484,3.0676 3.3474,3.0746 C3.3414,3.1126 3.3454,3.1496 3.3484,3.1866 C3.3504,3.2146 3.3484,3.2416 3.3544,3.2686 C3.3624,3.3016 3.3794,3.3306 3.3934,3.3606 C3.4064,3.3886 3.4154,3.4176 3.4334,3.4416 C3.4514,3.4666 3.4754,3.4846 3.4974,3.5056 C3.5224,3.5306 3.5454,3.5556 3.5764,3.5746 C3.6034,3.5916 3.6354,3.6006 3.6654,3.6116 C3.6914,3.6216 3.7124,3.6376 3.7404,3.6436 L4.0914,3.7136 L11.1714,5.1246 L11.5284,5.1956 Z" id="Fill-47" fill="#455B65"></path>
            </g>
        </g>
    </g>
</svg>