<?xml version="1.0" encoding="utf-8"?>
<!-- Generator: Adobe Illustrator 16.0.0, SVG Export Plug-In . SVG Version: 6.00 Build 0)  -->
<!DOCTYPE svg PUBLIC "-//W3C//DTD SVG 1.1//EN" "http://www.w3.org/Graphics/SVG/1.1/DTD/svg11.dtd">
<svg version="1.1" id="Layer_1" xmlns="http://www.w3.org/2000/svg" xmlns:xlink="http://www.w3.org/1999/xlink" x="0px" y="0px"
	 width="36px" height="36px" viewBox="0 0 36 36" enable-background="new 0 0 36 36" xml:space="preserve">
<g>
	<g>
		<path fill="#F9AC1E" d="M19.6,1H16.4c-0.623,0-1.311,0.556-1.441,1.165l-1.146,5.35c1.297-0.52,2.708-0.813,4.188-0.813
			c1.48,0,2.891,0.294,4.188,0.813l-1.146-5.35C20.91,1.555,20.223,1,19.6,1z"/>
		<path fill="#F9AC1E" d="M13.813,28.487l1.146,5.347C15.09,34.444,15.777,35,16.4,35H19.6c0.623,0,1.311-0.555,1.441-1.165
			l1.146-5.348c-1.297,0.52-2.707,0.813-4.188,0.813C16.521,29.301,15.109,29.007,13.813,28.487z"/>
		<path fill="#F9AC1E" d="M5.426,7.393c-0.539,0-1.105,0.304-1.348,0.723l-1.6,2.772c-0.313,0.54-0.175,1.413,0.288,1.831
			l4.063,3.669c0.422-2.932,1.966-5.501,4.19-7.256L5.809,7.449C5.689,7.411,5.562,7.393,5.426,7.393z"/>
		<path fill="#F9AC1E" d="M30.576,28.609c0.539,0,1.105-0.304,1.346-0.723l1.6-2.771c0.313-0.54,0.176-1.413-0.287-1.831
			l-4.063-3.669c-0.424,2.931-1.967,5.499-4.189,7.254l5.211,1.684C30.311,28.591,30.439,28.609,30.576,28.609z"/>
		<path fill="#F9AC1E" d="M2.479,25.115l1.6,2.771c0.242,0.419,0.809,0.723,1.347,0.723c0.136,0,0.265-0.019,0.382-0.057
			l5.213-1.685c-2.225-1.754-3.768-4.322-4.19-7.253l-4.063,3.669C2.304,23.702,2.166,24.575,2.479,25.115z"/>
		<path fill="#F9AC1E" d="M33.523,10.888l-1.6-2.772c-0.242-0.419-0.809-0.723-1.346-0.723c-0.137,0-0.266,0.019-0.383,0.057
			l-5.213,1.685c2.225,1.755,3.768,4.323,4.189,7.254l4.063-3.669C33.697,12.301,33.834,11.428,33.523,10.888z"/>
		<path fill="#FFFFFF" d="M18,28.301c5.68,0,10.301-4.621,10.301-10.301c0-5.679-4.621-10.299-10.301-10.299S7.7,12.321,7.7,18
			C7.7,23.68,12.32,28.301,18,28.301z M12.913,18c0-2.81,2.278-5.086,5.087-5.086S23.088,15.19,23.088,18S20.809,23.088,18,23.088
			S12.913,20.81,12.913,18z"/>
		<path fill="#455B65" d="M29.281,18.367c0.004-0.123,0.02-0.243,0.02-0.367c0-0.123-0.016-0.242-0.02-0.363l4.623-4.176
			c0.816-0.737,1.035-2.12,0.484-3.073l-1.6-2.772c-0.434-0.751-1.336-1.223-2.213-1.223c-0.234,0-0.467,0.034-0.689,0.105
			l-5.932,1.917c-0.209-0.13-0.416-0.261-0.633-0.377L22.02,1.955C21.789,0.88,20.699,0,19.6,0H16.4c-1.1,0-2.188,0.88-2.419,1.956
			l-1.304,6.082c-0.216,0.116-0.422,0.246-0.63,0.376L6.115,6.498C5.894,6.427,5.66,6.393,5.426,6.393
			c-0.877,0-1.78,0.472-2.214,1.223l-1.601,2.772c-0.55,0.953-0.332,2.336,0.484,3.073l4.623,4.175C6.715,17.758,6.7,17.877,6.7,18
			c0,0.124,0.015,0.244,0.019,0.367l-4.623,4.175c-0.816,0.737-1.033,2.12-0.484,3.073l1.601,2.771
			c0.434,0.751,1.337,1.223,2.213,1.223c0.235,0,0.468-0.034,0.69-0.105l5.932-1.917c0.208,0.13,0.414,0.261,0.631,0.377l1.304,6.08
			C14.212,35.12,15.301,36,16.4,36H19.6c1.1,0,2.189-0.88,2.42-1.955l1.303-6.081c0.217-0.116,0.424-0.247,0.631-0.377l5.932,1.917
			c0.223,0.071,0.455,0.105,0.691,0.105c0.875,0,1.779-0.472,2.213-1.223l1.6-2.771c0.551-0.953,0.332-2.336-0.484-3.073
			L29.281,18.367z M30.195,7.449c0.117-0.038,0.246-0.057,0.383-0.057c0.537,0,1.104,0.304,1.346,0.723l1.6,2.772
			c0.311,0.54,0.174,1.413-0.289,1.831l-4.063,3.669c-0.422-2.931-1.965-5.499-4.189-7.254L30.195,7.449z M14.959,2.165
			C15.09,1.556,15.777,1,16.4,1H19.6c0.623,0,1.311,0.555,1.441,1.165l1.146,5.35C20.891,6.995,19.48,6.701,18,6.701
			c-1.479,0-2.891,0.294-4.188,0.813L14.959,2.165z M2.767,12.719c-0.463-0.418-0.601-1.291-0.288-1.831l1.6-2.772
			C4.32,7.696,4.887,7.393,5.426,7.393c0.136,0,0.264,0.019,0.383,0.057l5.211,1.683c-2.225,1.755-3.769,4.324-4.19,7.256
			L2.767,12.719z M5.807,28.553c-0.117,0.038-0.246,0.057-0.382,0.057c-0.538,0-1.104-0.304-1.347-0.723l-1.6-2.771
			c-0.313-0.54-0.175-1.413,0.288-1.831l4.063-3.669c0.423,2.931,1.966,5.499,4.19,7.253L5.807,28.553z M21.041,33.835
			C20.91,34.445,20.223,35,19.6,35H16.4c-0.623,0-1.311-0.556-1.441-1.166l-1.146-5.347c1.296,0.52,2.707,0.813,4.187,0.813
			c1.48,0,2.891-0.294,4.188-0.813L21.041,33.835z M18,28.301C12.32,28.301,7.7,23.68,7.7,18c0-5.679,4.62-10.299,10.3-10.299
			S28.301,12.321,28.301,18C28.301,23.68,23.68,28.301,18,28.301z M33.521,25.115l-1.6,2.771c-0.24,0.419-0.807,0.723-1.346,0.723
			c-0.137,0-0.266-0.019-0.383-0.057l-5.211-1.684c2.223-1.755,3.766-4.323,4.189-7.254l4.063,3.669
			C33.697,23.702,33.834,24.575,33.521,25.115z"/>
		<circle fill="#229DD3" cx="18" cy="18" r="5.087"/>
	</g>
	<rect fill="none" width="36" height="36"/>
</g>
</svg>
