<?xml version="1.0" encoding="utf-8"?>
<!-- Generator: Adobe Illustrator 16.0.0, SVG Export Plug-In . SVG Version: 6.00 Build 0)  -->
<!DOCTYPE svg PUBLIC "-//W3C//DTD SVG 1.1//EN" "http://www.w3.org/Graphics/SVG/1.1/DTD/svg11.dtd">
<svg version="1.1" id="Layer_1" xmlns="http://www.w3.org/2000/svg" xmlns:xlink="http://www.w3.org/1999/xlink" x="0px" y="0px"
	 width="35.999px" height="36px" viewBox="0 0 35.999 36" enable-background="new 0 0 35.999 36" xml:space="preserve">
<g>
	<path fill="none" d="M27,34.586V35h4.398v-0.488c-0.113,0.045-0.234,0.074-0.365,0.074H27z"/>
	<path fill="none" d="M9,34.586H4.965c-0.129,0-0.252-0.029-0.365-0.074V35H9c0-0.001,0-0.002,0-0.003V34.586z"/>
	<path fill="#FFFFFF" d="M4.965,34.586H9V24.439c0-0.55,0.449-1,1-1h16c0.549,0,1,0.45,1,1v10.146h4.033
		c0.131,0,0.252-0.029,0.365-0.074v-14.71H18H4.6v14.71C4.713,34.557,4.836,34.586,4.965,34.586z"/>
	<path fill="#FFFFFF" d="M29.699,1H6.3C5.361,1,4.6,1.763,4.6,2.701v3.572h1.819h23.399h1.58V2.701C31.398,1.763,30.637,1,29.699,1z
		"/>
	<rect x="8.279" y="7.29" fill="#FFFFFF" width="6.48" height="11.49"/>
	<rect x="21.238" y="7.29" fill="#FFFFFF" width="6.482" height="11.49"/>
	<rect x="18.5" y="24.439" fill="#F9AC1E" width="7.5" height="10.56"/>
	<rect x="10" y="24.439" fill="#F9AC1E" width="7.5" height="10.558"/>
	<polygon fill="#455B65" points="18.5,35 26,35 18.5,34.999 	"/>
	<path fill="#229DD3" d="M27.721,18.78h3.678c0.039,0,0.07,0.018,0.105,0.021h1.795c0.938,0,1.701-0.688,1.701-1.534v-1.69v-2.281
		L31.799,7.29h-4.078V18.78z"/>
	<polygon fill="#229DD3" points="14.76,18.78 21.238,18.78 21.238,7.29 18,7.29 14.76,7.29 	"/>
	<path fill="#229DD3" d="M2.699,18.802h1.795C4.529,18.798,4.562,18.78,4.6,18.78h3.68V7.29h-4.08L1,13.296v2.281v1.69
		C1,18.113,1.762,18.802,2.699,18.802z"/>
	<path fill="#455B65" d="M27.721,18.78h-6.482H14.76h-6.48H4.6c-0.038,0-0.07,0.018-0.105,0.021H18h13.504
		c-0.035-0.004-0.066-0.021-0.105-0.021H27.721z"/>
	<path fill="#455B65" d="M32.398,6.29V2.701C32.398,1.216,31.184,0,29.699,0H6.3C4.814,0,3.6,1.216,3.6,2.701V6.29L0,13.046
		c0,0,0,1.14,0,2.531v1.69c0,1.394,1.214,2.534,2.699,2.534h0.9V35c0,0.55,0.449,1,1,1h26.799c0.551,0,1-0.45,1-1V19.802h0.9
		c1.486,0,2.701-1.141,2.701-2.534v-1.69c0-1.392,0-2.531,0-2.531L32.398,6.29z M4.6,2.701C4.6,1.763,5.361,1,6.3,1h23.399
		c0.938,0,1.699,0.763,1.699,1.701v3.572h-1.58H6.419H4.6V2.701z M17.5,34.998L10,34.997V24.439h7.5V34.998z M18.5,35L18.5,35
		V24.439H26V35H18.5z M31.398,34.512V35H27v-0.414V24.439c0-0.55-0.451-1-1-1H10c-0.551,0-1,0.45-1,1v10.146v0.411
		C9,34.998,9,34.999,9,35H4.6v-0.488v-14.71H18h13.398V34.512z M35,15.577v1.69c0,0.846-0.764,1.534-1.701,1.534h-1.795H18H4.494
		H2.699C1.762,18.802,1,18.113,1,17.268v-1.69v-2.281L4.199,7.29h4.08h6.48H18h3.238h6.482h4.078L35,13.296V15.577z"/>
</g>
</svg>
