<?xml version="1.0" encoding="utf-8"?>
<!-- Generator: Adobe Illustrator 16.0.0, SVG Export Plug-In . SVG Version: 6.00 Build 0)  -->
<!DOCTYPE svg PUBLIC "-//W3C//DTD SVG 1.1//EN" "http://www.w3.org/Graphics/SVG/1.1/DTD/svg11.dtd">
<svg version="1.1" id="Layer_1" xmlns="http://www.w3.org/2000/svg" xmlns:xlink="http://www.w3.org/1999/xlink" x="0px" y="0px"
	 width="36px" height="36px" viewBox="0 0 36 36" enable-background="new 0 0 36 36" xml:space="preserve">
<g>
	<path fill="#F9AC1E" d="M11.014,32.113l-0.45,0.101C9.761,32.397,9.4,33.207,9.4,33.723V35h8.543h0.113H26.6v-1.137
		c0-0.688-0.359-1.465-1.163-1.649l-0.451-0.101c-2.28-0.508-4.865-1.082-4.865-5.392v-1.203c-0.688,0.058-1.393,0.093-2.121,0.093
		s-1.432-0.035-2.119-0.093v1.203C15.88,31.031,13.294,31.605,11.014,32.113z"/>
	<path fill="#FFFFFF" d="M18,24.611c8.13,0,11.599-3.53,11.599-11.806V1h-1.6H18H8H6.4v11.806C6.4,21.081,9.869,24.611,18,24.611z
		 M12.769,9.375l0.5-0.073l2.497-0.36l0.892-1.808l0.227-0.454l0.223-0.457c0,0,0,0,0.001,0c0.492-0.993,1.292-0.993,1.784,0v0.003
		l0.226,0.454l0.226,0.451l0.893,1.811l2.496,0.36l0.499,0.073c1.097,0.161,1.347,0.923,0.556,1.699c-0.002,0-0.002,0-0.004,0
		l-0.361,0.354l-0.366,0.354l-1.441,1.406l0.425,2.487l0.085,0.495c0.19,1.093-0.46,1.566-1.444,1.052l-0.447-0.234l-0.447-0.237
		L18,15.814l-1.787,0.938l-0.446,0.237l-0.446,0.234c0,0,0,0-0.002,0c-0.98,0.515-1.631,0.044-1.443-1.052l0.084-0.495l0.086-0.498
		l0.342-1.989l-1.444-1.409l-0.362-0.352l-0.363-0.354l0,0C11.423,10.298,11.671,9.536,12.769,9.375z"/>
	<path fill="#455B65" d="M30.598,0h-0.523h-3.076H18H9H5.923H5.4H0c0,0,0,8.344,0,10.433c0,3.554,1.321,7.099,6.166,8.071
		c1.387,4.46,4.586,6.345,8.715,6.904v1.313c0,3.744-2.108,3.96-4.54,4.518c-1.306,0.299-1.94,1.536-1.94,2.483
		C8.4,34.9,8.4,36,8.4,36h6.178h3.121h0.244h0.113h2.764h6.478H27.6c0,0,0-0.959,0-2.137c0-1.125-0.637-2.325-1.94-2.624
		c-2.432-0.558-4.539-0.773-4.539-4.518v-1.313c4.129-0.56,7.325-2.444,8.714-6.903c4.844-0.973,6.164-4.519,6.164-8.072
		c0-2.089,0-10.433,0-10.433H30.598z M1,10.433V1h4.4c0,2.235,0,7.798,0,11.806c0,1.753,0.169,3.266,0.467,4.594
		C2.616,16.569,1,14.283,1,10.433z M24.986,32.113l0.451,0.101c0.804,0.185,1.163,0.961,1.163,1.649V35h-8.544h-0.113H9.4v-1.277
		c0-0.516,0.361-1.325,1.164-1.509l0.45-0.101c2.28-0.508,4.866-1.082,4.866-5.392v-1.203c0.688,0.058,1.391,0.093,2.119,0.093
		s1.433-0.035,2.121-0.093v1.203C20.121,31.031,22.706,31.605,24.986,32.113z M29.598,12.806c0,8.275-3.469,11.806-11.599,11.806
		c-8.131,0-11.6-3.53-11.6-11.806V1H8h10h9.999h1.6V12.806z M34.999,10.433c0,3.851-1.615,6.137-4.867,6.968
		c0.299-1.329,0.467-2.842,0.467-4.595c0-4.008,0-9.57,0-11.806h4.4V10.433z"/>
	<path fill="#229DD3" d="M12.216,11.074l0.363,0.354l0.362,0.352l1.444,1.409l-0.342,1.989l-0.086,0.498l-0.084,0.495
		c-0.188,1.096,0.463,1.566,1.443,1.052c0.002,0,0.002,0,0.002,0l0.446-0.234l0.446-0.237L18,15.814l1.785,0.938l0.447,0.237
		l0.447,0.234c0.984,0.515,1.635,0.041,1.444-1.052l-0.085-0.495l-0.425-2.487l1.441-1.406l0.366-0.354l0.361-0.354
		c0.002,0,0.002,0,0.004,0c0.791-0.776,0.541-1.538-0.556-1.699l-0.499-0.073l-2.496-0.36l-0.893-1.811L19.118,6.68l-0.226-0.454
		V6.223c-0.492-0.993-1.292-0.993-1.784,0c-0.001,0-0.001,0-0.001,0L16.884,6.68l-0.227,0.454l-0.892,1.808l-2.497,0.36l-0.5,0.073
		C11.671,9.536,11.423,10.298,12.216,11.074L12.216,11.074z"/>
</g>
</svg>
