<?xml version="1.0" encoding="utf-8"?>
<!-- Generator: Adobe Illustrator 16.0.0, SVG Export Plug-In . SVG Version: 6.00 Build 0)  -->
<!DOCTYPE svg PUBLIC "-//W3C//DTD SVG 1.1//EN" "http://www.w3.org/Graphics/SVG/1.1/DTD/svg11.dtd">
<svg version="1.1" id="Layer_1" xmlns="http://www.w3.org/2000/svg" xmlns:xlink="http://www.w3.org/1999/xlink" x="0px" y="0px"
	 width="20px" height="20px" viewBox="0 0 20 20" enable-background="new 0 0 20 20" xml:space="preserve">
<g>
	<path fill="#F9AC1E" d="M6.217,18.274L5.969,18.33c-0.231,0.053-0.303,0.314-0.303,0.404V19h4.303h0.063h4.303v-0.188
		c0-0.042-0.009-0.415-0.302-0.482l-0.25-0.056c-1.214-0.271-3.05-0.68-3.05-3.429v-0.635c-0.24,0.012-0.484,0.018-0.732,0.018
		c-0.249,0-0.494-0.006-0.734-0.018v0.635C9.266,17.595,7.432,18.004,6.217,18.274z"/>
	<path fill="#FFFFFF" d="M10,13.229c4.262,0,6-1.771,6-6.114V1h-6H4v6.114C4,11.457,5.738,13.229,10,13.229z M7.094,5.208
		l0.277-0.04l1.387-0.2l0.496-1.005l0.125-0.252l0.124-0.254h0.001c0.273-0.552,0.719-0.552,0.992,0v0.002l0.125,0.252l0.125,0.251
		l0.496,1.006l1.387,0.2l0.277,0.04c0.609,0.09,0.748,0.513,0.309,0.944c-0.002,0-0.002,0-0.002,0L13.012,6.35l-0.203,0.196
		l-0.801,0.781l0.236,1.382l0.047,0.275c0.105,0.607-0.256,0.87-0.803,0.584l-0.248-0.13l-0.25-0.132L10,8.786L9.007,9.307
		L8.758,9.438l-0.247,0.13c0,0,0,0-0.001,0C7.965,9.854,7.604,9.593,7.707,8.984l0.047-0.275l0.049-0.276l0.189-1.105L7.189,6.545
		L6.988,6.35L6.787,6.152H6.786C6.346,5.721,6.484,5.298,7.094,5.208z"/>
	<path fill="#455B65" d="M17,0h-0.291H15h-5H5H3.29H3H0c0,0,0,4.636,0,5.796C0,7.771,0.733,9.74,3.424,10.28
		c0.771,2.478,2.549,3.524,4.842,3.836v0.729c0,2.08-1.17,2.199-2.521,2.51c-0.726,0.166-1.078,0.854-1.078,1.379
		c0,0.654,0,1.266,0,1.266h3.433h1.733h0.137h0.063h1.535h3.6h0.168c0,0,0-0.533,0-1.188c0-0.625-0.354-1.291-1.078-1.457
		c-1.352-0.311-2.523-0.43-2.523-2.51v-0.729c2.295-0.312,4.071-1.358,4.842-3.836C19.266,9.74,20,7.771,20,5.796
		C20,4.636,20,0,20,0H17z M1,5.796V1h2c0,1.434,0,4.121,0,6.114c0,0.767,0.059,1.45,0.162,2.068C1.701,8.729,1,7.626,1,5.796z
		 M13.782,18.274l0.25,0.056c0.293,0.067,0.302,0.44,0.302,0.482V19h-4.303H9.969H5.666v-0.266c0-0.09,0.071-0.352,0.303-0.404
		l0.248-0.056c1.215-0.271,3.049-0.68,3.049-3.429v-0.635c0.24,0.012,0.485,0.018,0.734,0.018c0.248,0,0.492-0.006,0.732-0.018
		v0.635C10.732,17.595,12.568,18.004,13.782,18.274z M16,7.114c0,4.343-1.738,6.114-6,6.114s-6-1.771-6-6.114V1h6h6V7.114z
		 M19,5.796c0,1.83-0.701,2.933-2.163,3.387C16.941,8.564,17,7.881,17,7.114C17,5.121,17,2.434,17,1h2V5.796z"/>
	<path fill="#229DD3" d="M6.787,6.152L6.988,6.35l0.201,0.195l0.803,0.782L7.803,8.433L7.754,8.709L7.707,8.984
		C7.604,9.593,7.965,9.854,8.51,9.568c0.001,0,0.001,0,0.001,0l0.247-0.13l0.249-0.132L10,8.786l0.99,0.521l0.25,0.132l0.248,0.13
		c0.547,0.286,0.908,0.023,0.803-0.584l-0.047-0.275l-0.236-1.382l0.801-0.781l0.203-0.196l0.201-0.197c0,0,0,0,0.002,0
		c0.439-0.432,0.301-0.854-0.309-0.944l-0.277-0.04l-1.387-0.2l-0.496-1.006l-0.125-0.251l-0.125-0.252V3.457
		c-0.273-0.552-0.719-0.552-0.992,0H9.503L9.379,3.711L9.254,3.963L8.758,4.968l-1.387,0.2l-0.277,0.04
		C6.484,5.298,6.346,5.721,6.787,6.152L6.787,6.152z"/>
</g>
</svg>
