<?xml version="1.0" encoding="utf-8"?>
<!-- Generator: Adobe Illustrator 16.0.0, SVG Export Plug-In . SVG Version: 6.00 Build 0)  -->
<!DOCTYPE svg PUBLIC "-//W3C//DTD SVG 1.1//EN" "http://www.w3.org/Graphics/SVG/1.1/DTD/svg11.dtd">
<svg version="1.1" id="Layer_1" xmlns="http://www.w3.org/2000/svg" xmlns:xlink="http://www.w3.org/1999/xlink" x="0px" y="0px"
	 width="35.999px" height="36px" viewBox="0 0 35.999 36" enable-background="new 0 0 35.999 36" xml:space="preserve">
<g>
	<path fill="#F9AC1E" d="M25.521,35c0.654,0,1.262-0.246,1.709-0.694c0.461-0.46,0.708-1.085,0.695-1.758
		c-0.012-0.687-0.29-1.336-0.783-1.829l-1.096-1.097h-6.994l4.593,4.593C24.151,34.722,24.816,35,25.521,35z"/>
	<path fill="#F9AC1E" d="M8.767,34.307C9.214,34.754,9.822,35,10.477,35c0.705,0,1.37-0.278,1.875-0.784l4.596-4.594H9.951
		l-1.096,1.097C7.842,31.731,7.803,33.341,8.767,34.307z"/>
	<path fill="#FFFFFF" d="M2.8,25.622c0,1.654,1.346,3,3,3h24.399c1.654,0,3-1.346,3-3V7.601c0-0.137-0.022-0.269-0.041-0.4H2.84
		C2.822,7.332,2.8,7.464,2.8,7.601V25.622z M23.479,10.611H28v14h-4.521V10.611z M20.258,14.965v9.646h-4.516v-9.646H20.258z
		 M8,19.35h4.521v5.262H8V19.35z"/>
	<path fill="#FFFFFF" d="M32.23,29.046h0.406c0.55,0,1-0.45,1-1v-0.417C33.293,28.213,32.813,28.698,32.23,29.046z"/>
	<path fill="#FFFFFF" d="M2.717,28.136c0.049,0.506,0.465,0.91,0.982,0.91h0.068C3.365,28.806,3.014,28.497,2.717,28.136z"/>
	<path fill="#F9AC1E" d="M34,1H2C1.448,1,1,1.448,1,2v3.2c0,0.552,0.448,1,1,1h32c0.551,0,1-0.448,1-1V2C35,1.448,34.551,1,34,1z"/>
	<path fill="#455B65" d="M34,0H2C0.899,0,0,0.9,0,2v3.2c0,1.046,0.816,1.901,1.842,1.984C1.828,7.323,1.8,7.458,1.8,7.601v18.021
		c0,0.955,0.354,1.824,0.917,2.514c0.297,0.361,0.648,0.67,1.051,0.91c0.599,0.357,1.289,0.576,2.032,0.576h2.737l-0.389,0.39
		c-1.399,1.398-1.439,3.648-0.09,5.001C8.719,35.672,9.592,36,10.477,36c0.928,0,1.867-0.36,2.583-1.078L18,29.983l4.938,4.938
		C23.654,35.64,24.594,36,25.521,36c0.884,0,1.758-0.328,2.416-0.987c1.354-1.353,1.312-3.603-0.088-5.001l-0.389-0.39h2.738
		c0.744,0,1.434-0.219,2.031-0.576c0.582-0.348,1.063-0.833,1.406-1.417c0.348-0.593,0.563-1.273,0.563-2.007V7.601
		c0-0.143-0.027-0.277-0.043-0.416C35.184,7.102,36,6.246,36,5.2V2C36,0.9,35.1,0,34,0z M12.352,34.216
		C11.847,34.722,11.182,35,10.477,35c-0.654,0-1.263-0.246-1.71-0.693c-0.964-0.966-0.925-2.575,0.089-3.588l1.096-1.097h6.996
		L12.352,34.216z M27.143,30.719c0.493,0.493,0.771,1.143,0.783,1.829c0.013,0.673-0.234,1.298-0.695,1.758
		C26.783,34.754,26.176,35,25.521,35c-0.705,0-1.37-0.278-1.876-0.785l-4.593-4.593h6.994L27.143,30.719z M33.199,25.622
		c0,1.654-1.346,3-3,3H5.8c-1.654,0-3-1.346-3-3V7.601c0-0.137,0.022-0.269,0.04-0.4h30.318c0.019,0.132,0.041,0.264,0.041,0.4
		V25.622z M35,5.2c0,0.552-0.449,1-1,1H2c-0.552,0-1-0.448-1-1V2c0-0.552,0.448-1,1-1h32c0.551,0,1,0.448,1,1V5.2z"/>
	<rect x="23.479" y="10.611" fill="#229DD3" width="4.521" height="14"/>
	<rect x="15.742" y="14.965" fill="#229DD3" width="4.516" height="9.646"/>
	<rect x="8" y="19.35" fill="#229DD3" width="4.521" height="5.262"/>
</g>
</svg>
