<?xml version="1.0" encoding="utf-8"?>
<!-- Generator: Adobe Illustrator 16.0.0, SVG Export Plug-In . SVG Version: 6.00 Build 0)  -->
<!DOCTYPE svg PUBLIC "-//W3C//DTD SVG 1.1//EN" "http://www.w3.org/Graphics/SVG/1.1/DTD/svg11.dtd">
<svg version="1.1" id="Layer_1" xmlns="http://www.w3.org/2000/svg" xmlns:xlink="http://www.w3.org/1999/xlink" x="0px" y="0px"
	 width="22px" height="22px" viewBox="0 0 22 22" enable-background="new 0 0 22 22" xml:space="preserve">
<g>
	<path d="M20,0H2C0.9,0,0,0.9,0,2v1c0,1.1,0.9,2,2,2h18c1.1,0,2-0.9,2-2V2C22,0.9,21.1,0,20,0z M21,3c0,0.552-0.449,1-1,1H2
		C1.449,4,1,3.552,1,3V2c0-0.552,0.449-1,1-1h18c0.551,0,1,0.448,1,1V3z"/>
	<path d="M20,8.501H2c-1.101,0-2,0.9-2,2V11.5c0,1.1,0.899,2,2,2h18c1.1,0,2-0.9,2-2v-0.999C22,9.401,21.1,8.501,20,8.501z M21,11.5
		c0,0.552-0.449,1-1,1H2c-0.552,0-1-0.448-1-1v-0.999c0-0.552,0.448-1,1-1h18c0.551,0,1,0.448,1,1V11.5z"/>
	<path d="M20,17H2c-1.101,0-2,0.9-2,2v1c0,1.1,0.899,2,2,2h18c1.1,0,2-0.9,2-2v-1C22,17.9,21.1,17,20,17z M21,20
		c0,0.552-0.449,1-1,1H2c-0.552,0-1-0.448-1-1v-1c0-0.552,0.448-1,1-1h18c0.551,0,1,0.448,1,1V20z"/>
</g>
</svg>
