<?xml version="1.0" encoding="utf-8"?>
<!-- Generator: Adobe Illustrator 16.0.0, SVG Export Plug-In . SVG Version: 6.00 Build 0)  -->
<!DOCTYPE svg PUBLIC "-//W3C//DTD SVG 1.1//EN" "http://www.w3.org/Graphics/SVG/1.1/DTD/svg11.dtd">
<svg version="1.1" id="Layer_1" xmlns="http://www.w3.org/2000/svg" xmlns:xlink="http://www.w3.org/1999/xlink" x="0px" y="0px"
	 width="24px" height="24px" viewBox="0 0 24 24" enable-background="new 0 0 24 24" xml:space="preserve">
<g>
	<g>
		<path fill="none" d="M2.111,20v-1c0-0.552,0.449-1,1-1h0c-0.551,0-1,0.448-1,1L2.111,20c0,0.552,0.448,1,1,1h0
			C2.56,21,2.111,20.551,2.111,20z"/>
		<path fill="none" d="M2.112,5V4c0-0.552,0.449-1,1-1h0c-0.551,0-1,0.448-1,1L2.112,5c0,0.552,0.448,1,1,1h0
			C2.561,6,2.112,5.551,2.112,5z"/>
		<path fill="none" d="M2.111,12.5V11.5c0-0.552,0.449-1,1-1h0c-0.551,0-1,0.448-1,1L2.111,12.5c0,0.552,0.448,1,1,1h0
			C2.56,13.5,2.111,13.051,2.111,12.5z"/>
		<path fill="#455B65" d="M21.111,2h-18c-1.1,0-2,0.9-2,2v1c0,1.1,0.9,2,2,2h18c1.1,0,2-0.9,2-2V4C23.111,2.9,22.211,2,21.111,2z
			 M22.112,5c0,0.552-0.449,1-1,1h0h-18h0c-0.551,0-1-0.448-1-1V4c0-0.552,0.449-1,1-1h0h18h0c0.551,0,1,0.448,1,1V5z"/>
		<path fill="#455B65" d="M21.111,9.5h-18c-1.1,0-2,0.9-2,2V12.5c0,1.1,0.9,2,2,2h18c1.1,0,2-0.9,2-2V11.5
			C23.111,10.401,22.211,9.5,21.111,9.5z M22.112,12.5c0,0.552-0.449,1-1,1h0h-18h0c-0.551,0-1-0.448-1-1V11.5c0-0.552,0.449-1,1-1
			h0h18h0c0.551,0,1,0.448,1,1V12.5z"/>
		<path fill="#455B65" d="M21.111,17h-18c-1.1,0-2,0.9-2,2v1c0,1.1,0.9,2,2,2h18c1.1,0,2-0.9,2-2v-1
			C23.111,17.9,22.211,17,21.111,17z M22.112,20c0,0.552-0.449,1-1,1h0h-18h0c-0.551,0-1-0.448-1-1v-1c0-0.552,0.449-1,1-1h0h18h0
			c0.551,0,1,0.448,1,1V20z"/>
		<path fill="#229DD3" d="M21.112,3L21.112,3h-18c-0.551,0-1,0.448-1,1v1c0,0.552,0.449,1,1,1h18h0c0.551,0,1-0.448,1-1V4
			C22.112,3.448,21.663,3,21.112,3z"/>
		<path fill="#F9AC1E" d="M21.112,10.5L21.112,10.5h-18c-0.551,0-1,0.448-1,1V12.5c0,0.552,0.449,1,1,1h18h0c0.551,0,1-0.448,1-1
			V11.5C22.112,10.949,21.663,10.5,21.112,10.5z"/>
		<path fill="#FFFFFF" d="M21.112,18L21.112,18h-18c-0.551,0-1,0.448-1,1v1c0,0.552,0.449,1,1,1h18h0c0.551,0,1-0.448,1-1v-1
			C22.112,18.448,21.663,18,21.112,18z"/>
	</g>
	<rect fill="none" width="24" height="24"/>
</g>
</svg>
