<?xml version="1.0" encoding="utf-8"?>
<!-- Generator: Adobe Illustrator 16.0.0, SVG Export Plug-In . SVG Version: 6.00 Build 0)  -->
<!DOCTYPE svg PUBLIC "-//W3C//DTD SVG 1.1//EN" "http://www.w3.org/Graphics/SVG/1.1/DTD/svg11.dtd">
<svg version="1.1" id="Layer_1" xmlns="http://www.w3.org/2000/svg" xmlns:xlink="http://www.w3.org/1999/xlink" x="0px" y="0px"
	 width="24px" height="24px" viewBox="0 0 24 24" enable-background="new 0 0 24 24" xml:space="preserve">
<g>
	<rect fill="none" width="24" height="24"/>
	<g>
		<path fill="none" d="M12,2.364c0.512,0,0.994,0.053,1.449,0.148c0-0.02,0.006-0.038,0.006-0.058C13.455,1.652,12.803,1,12,1
			c-0.801,0-1.453,0.652-1.453,1.455c0,0.02,0.004,0.038,0.006,0.058C11.008,2.417,11.49,2.364,12,2.364z"/>
		<path fill="#FFFFFF" d="M17.547,12.121v-2.12c0-3.062-1.453-6.637-5.547-6.637s-5.545,3.575-5.545,6.637v2.12
			c0,1.493-1.451,2.723-2.596,3.465h16.318C19.031,14.83,17.547,13.574,17.547,12.121z"/>
		<path fill="#229DD3" d="M9.447,20.271c-0.004,0.055-0.016,0.105-0.016,0.16C9.432,21.848,10.584,23,12,23
			c1.418,0,2.57-1.152,2.57-2.568c0-0.055-0.014-0.105-0.018-0.16H9.447z"/>
		<path fill="#F9AC1E" d="M3.182,19.182c0,0.047,0.043,0.09,0.092,0.09h17.455c0.047,0,0.09-0.043,0.09-0.09v-2.596H3.182V19.182z"
			/>
		<path fill="#455B65" d="M18.547,12.121c0-0.75,0-2.12,0-2.12c0-3.323-1.451-6.143-4.127-7.192
			c0.016-0.116,0.035-0.232,0.035-0.354C14.455,1.099,13.355,0,12,0c-1.354,0-2.453,1.099-2.453,2.455
			c0,0.121,0.018,0.237,0.035,0.354c-2.678,1.049-4.127,3.869-4.127,7.192c0,0,0,1.282,0,2.12c0,1.696-3.273,3.274-3.273,3.274
			v3.787c0,0.598,0.49,1.09,1.092,1.09h5.174c-0.002,0.055-0.016,0.105-0.016,0.16C8.432,22.4,10.031,24,12,24
			c1.971,0,3.57-1.6,3.57-3.568c0-0.055-0.014-0.105-0.018-0.16h5.176c0.598,0,1.09-0.492,1.09-1.09v-3.787
			C21.818,15.395,18.547,13.736,18.547,12.121z M12,1c0.803,0,1.455,0.652,1.455,1.455c0,0.02-0.006,0.038-0.006,0.058
			C12.994,2.417,12.512,2.364,12,2.364c-0.51,0-0.992,0.053-1.447,0.148c-0.002-0.02-0.006-0.038-0.006-0.058
			C10.547,1.652,11.199,1,12,1z M12,23c-1.416,0-2.568-1.152-2.568-2.568c0-0.055,0.012-0.105,0.016-0.16h5.105
			c0.004,0.055,0.018,0.105,0.018,0.16C14.57,21.848,13.418,23,12,23z M20.818,19.182c0,0.047-0.043,0.09-0.09,0.09H3.273
			c-0.049,0-0.092-0.043-0.092-0.09v-2.596h17.637V19.182z M3.859,15.586c1.145-0.742,2.596-1.973,2.596-3.465v-2.12
			c0-3.062,1.451-6.637,5.545-6.637s5.547,3.575,5.547,6.637v2.12c0,1.454,1.484,2.709,2.631,3.465H3.859z"/>
	</g>
</g>
</svg>
