<?xml version="1.0" encoding="UTF-8" standalone="no"?>
<svg width="24px" height="24px" viewBox="0 0 24 24" version="1.1" xmlns="http://www.w3.org/2000/svg" xmlns:xlink="http://www.w3.org/1999/xlink">
    <!-- Generator: Sketch 3.7.2 (28276) - http://www.bohemiancoding.com/sketch -->
    <title>Notification 1</title>
    <desc>Created with Sketch.</desc>
    <defs>
        <polygon id="path-1" points="20 23.9996 20 0 0.0004 0 0.0004 23.9996 20 23.9996"></polygon>
    </defs>
    <g id="24" stroke="none" stroke-width="1" fill="none" fill-rule="evenodd">
        <g id="Notification-1">
            <g id="Page-1" transform="translate(2.000000, 0.000000)">
                <mask id="mask-2" fill="white">
                    <use xlink:href="#path-1"></use>
                </mask>
                <g id="Clip-2"></g>
                <path d="M18.9814,19.1796 C18.9814,19.2266 18.9354,19.2716 18.8874,19.2716 L1.1114,19.2716 C1.0624,19.2716 1.0184,19.2276 1.0184,19.1796 L1.0184,16.5856 L18.9814,16.5856 L18.9814,19.1796 Z M12.6164,20.4306 C12.6164,21.8476 11.4424,22.9996 10.0004,22.9996 C8.5554,22.9996 7.3814,21.8476 7.3814,20.4306 C7.3814,20.3756 7.3954,20.3256 7.3984,20.2716 L12.5994,20.2716 C12.6024,20.3256 12.6164,20.3756 12.6164,20.4306 L12.6164,20.4306 Z M4.3514,12.1206 L4.3514,9.9996 C4.3514,6.9386 5.8304,3.3636 10.0004,3.3636 C14.1694,3.3636 15.6474,6.9386 15.6474,9.9996 L15.6474,12.1206 C15.6474,13.5736 17.1614,14.8296 18.3294,15.5856 L1.7074,15.5856 C2.8724,14.8436 4.3514,13.6146 4.3514,12.1206 L4.3514,12.1206 Z M8.5174,2.4546 C8.5174,1.6526 9.1824,0.9996 10.0004,0.9996 C10.8164,0.9996 11.4814,1.6526 11.4814,2.4546 C11.4814,2.4746 11.4754,2.4926 11.4744,2.5116 C11.0114,2.4156 10.5214,2.3636 10.0004,2.3636 C9.4784,2.3636 8.9874,2.4156 8.5244,2.5116 C8.5234,2.4926 8.5174,2.4746 8.5174,2.4546 L8.5174,2.4546 Z M16.6664,12.1206 L16.6664,9.9996 C16.6664,6.6776 15.1874,3.8576 12.4634,2.8076 C12.4804,2.6916 12.4994,2.5756 12.4994,2.4546 C12.4994,1.0976 11.3794,-0.0004 10.0004,-0.0004 C8.6194,-0.0004 7.4994,1.0976 7.4994,2.4546 C7.4994,2.5756 7.5184,2.6916 7.5354,2.8076 C4.8094,3.8576 3.3334,6.6776 3.3334,9.9996 L3.3334,12.1206 C3.3334,13.8166 0.0004,15.3926 0.0004,15.3926 L0.0004,19.1796 C0.0004,19.7796 0.4994,20.2716 1.1114,20.2716 L6.3794,20.2716 C6.3774,20.3256 6.3634,20.3756 6.3634,20.4306 C6.3634,22.4006 7.9934,23.9996 10.0004,23.9996 C12.0054,23.9996 13.6344,22.4006 13.6344,20.4306 C13.6344,20.3756 13.6204,20.3256 13.6184,20.2716 L18.8874,20.2716 C19.4994,20.2716 20.0004,19.7796 20.0004,19.1796 L20.0004,15.3926 C20.0004,15.3926 16.6664,13.7356 16.6664,12.1206 L16.6664,12.1206 Z" id="Fill-1" fill="#DCF3FC" mask="url(#mask-2)"></path>
            </g>
        </g>
    </g>
</svg>