<?xml version="1.0" encoding="UTF-8" standalone="no"?>
<svg width="24px" height="24px" viewBox="0 0 24 24" version="1.1" xmlns="http://www.w3.org/2000/svg" xmlns:xlink="http://www.w3.org/1999/xlink">
    <!-- Generator: Sketch 3.7.2 (28276) - http://www.bohemiancoding.com/sketch -->
    <title>Other 1</title>
    <desc>Created with Sketch.</desc>
    <defs></defs>
    <g id="24" stroke="none" stroke-width="1" fill="none" fill-rule="evenodd">
        <g id="Other-1" fill="#000000">
            <g id="Page-1" transform="translate(1.000000, 2.000000)">
                <path d="M21,3 C21,3.551 20.552,4 20,4 L2.001,4 C1.449,4 1.001,3.551 1.001,3 L1.001,2 C1.001,1.449 1.449,1 2.001,1 L20,1 C20.552,1 21,1.449 21,2 L21,3 Z M20,0 L2.001,0 C0.9,0 0.001,0.9 0.001,2 L0.001,3 C0.001,4.1 0.9,5 2.001,5 L20,5 C21.101,5 22,4.1 22,3 L22,2 C22,0.9 21.101,0 20,0 L20,0 Z" id="Fill-1"></path>
                <path d="M21,10.5 C21,11.052 20.552,11.5 20,11.5 L2,11.5 C1.449,11.5 1,11.052 1,10.5 L1,9.5 C1,8.948 1.449,8.5 2,8.5 L20,8.5 C20.552,8.5 21,8.948 21,9.5 L21,10.5 Z M20,7.5 L2,7.5 C0.9,7.5 0,8.4 0,9.5 L0,10.5 C0,11.6 0.9,12.5 2,12.5 L20,12.5 C21.101,12.5 22,11.6 22,10.5 L22,9.5 C22,8.4 21.101,7.5 20,7.5 L20,7.5 Z" id="Fill-3"></path>
                <path d="M21,18 C21,18.552 20.552,19 20,19 L2,19 C1.449,19 1,18.552 1,18 L1,17 C1,16.448 1.449,16 2,16 L20,16 C20.552,16 21,16.448 21,17 L21,18 Z M20,15 L2,15 C0.9,15 0,15.9 0,17 L0,18 C0,19.1 0.9,20 2,20 L20,20 C21.101,20 22,19.1 22,18 L22,17 C22,15.9 21.101,15 20,15 L20,15 Z" id="Fill-5"></path>
            </g>
        </g>
    </g>
</svg>