<?xml version="1.0" encoding="utf-8"?>
<!-- Generator: Adobe Illustrator 16.0.0, SVG Export Plug-In . SVG Version: 6.00 Build 0)  -->
<!DOCTYPE svg PUBLIC "-//W3C//DTD SVG 1.1//EN" "http://www.w3.org/Graphics/SVG/1.1/DTD/svg11.dtd">
<svg version="1.1" id="Layer_1" xmlns="http://www.w3.org/2000/svg" xmlns:xlink="http://www.w3.org/1999/xlink" x="0px" y="0px"
	 width="30px" height="30px" viewBox="0 0 30 30" enable-background="new 0 0 30 30" xml:space="preserve">
<g>
	<g>
		<path d="M27.234,8.707c0,3.666-5.498,5.637-4.738,11.031h2.489C24.434,14.896,30,13.063,30,8.533C30,5.111,27.648,3,24.087,3
			c-2.455,0-4.356,1.211-5.809,2.871l1.624,1.486c1.073-1.244,2.456-2.005,3.977-2.005C26.092,5.352,27.234,6.873,27.234,8.707z"/>
		<path d="M23.811,22.642c-1.143,0-2.041,0.898-2.041,2.213c0,1.246,0.898,2.145,2.041,2.145c1.141,0,2.076-0.898,2.076-2.145
			C25.887,23.541,24.951,22.642,23.811,22.642z"/>
		<path d="M7.838,3C3.51,3,0,6.543,0,10.915c0,0.363,0.035,0.719,0.082,1.069c0.01,0.085,0.023,0.172,0.039,0.257
			c0.029,0.193,0.07,0.385,0.117,0.576c0.625,2.851,2.475,5.843,4.191,8.155H4.115c-0.549,0-1.205,0.4-1.459,0.889l-2.197,4.25
			C0.207,26.599,0.451,27,1,27h5.785c0.551,0,1.451,0,2,0h5.786c0.551,0,0.793-0.4,0.541-0.889l-2.196-4.25
			c-0.254-0.488-0.91-0.889-1.459-0.889h-0.215c1.717-2.313,3.563-5.307,4.188-8.157c0.049-0.189,0.09-0.381,0.117-0.574
			c0.016-0.085,0.029-0.172,0.043-0.257c0.045-0.352,0.078-0.706,0.078-1.069C15.669,6.543,12.158,3,7.838,3z M11.457,21.972
			c0.176,0,0.49,0.191,0.57,0.348L13.929,26H8.785h-2H1.643l1.902-3.68c0.082-0.156,0.396-0.348,0.57-0.348h1.08
			c1.451,1.838,2.643,3.047,2.643,3.047s1.189-1.209,2.641-3.047H11.457z M14.601,11.836c-0.01,0.075-0.021,0.15-0.043,0.265
			c-0.021,0.158-0.057,0.314-0.104,0.5c-0.641,2.928-2.696,6.074-4.468,8.371c-0.275,0.357-0.541,0.689-0.797,1
			c-0.523,0.641-0.996,1.184-1.354,1.58c-0.357-0.396-0.83-0.939-1.354-1.58c-0.256-0.311-0.521-0.643-0.797-1
			c-1.773-2.297-3.83-5.449-4.477-8.392c-0.039-0.164-0.074-0.329-0.104-0.517C1.094,12,1.084,11.935,1.072,11.848
			C1.023,11.487,1,11.19,1,10.915C1,7.102,4.068,4,7.838,4c3.766,0,6.831,3.103,6.831,6.915
			C14.669,11.192,14.646,11.491,14.601,11.836z"/>
		<path d="M7.834,7.254c-2.025,0-3.674,1.641-3.674,3.668c0,2.028,1.648,3.671,3.674,3.671c2.029,0,3.676-1.643,3.676-3.671
			C11.51,8.895,9.863,7.254,7.834,7.254z"/>
	</g>
	<rect y="0" fill="none" width="30" height="30"/>
</g>
</svg>
