<?xml version="1.0" encoding="utf-8"?>
<!-- Generator: Adobe Illustrator 16.0.0, SVG Export Plug-In . SVG Version: 6.00 Build 0)  -->
<!DOCTYPE svg PUBLIC "-//W3C//DTD SVG 1.1//EN" "http://www.w3.org/Graphics/SVG/1.1/DTD/svg11.dtd">
<svg version="1.1" id="Layer_1" xmlns="http://www.w3.org/2000/svg" xmlns:xlink="http://www.w3.org/1999/xlink" x="0px" y="0px"
	 width="24px" height="24px" viewBox="0 0 24 24" enable-background="new 0 0 24 24" xml:space="preserve">
<g>
	<path fill="none" d="M18.907,16.779c0,0.001-0.001,0.001-0.002,0.002l3.658,3.658c0.283,0.281,0.439,0.654,0.44,1.053
		c0,0.4-0.156,0.779-0.443,1.064C22.275,22.841,21.9,22.999,21.5,23c0.001,0,0.002,0,0.002,0c0.401,0,0.777-0.158,1.063-0.443
		c0.287-0.285,0.443-0.664,0.443-1.064c0-0.398-0.157-0.771-0.44-1.053L18.907,16.779z"/>
	<path fill="none" d="M20.006,10.498c0-2.537-0.987-4.922-2.782-6.716C15.429,1.988,13.042,1,10.503,1c0,0-0.001,0-0.002,0
		c2.539,0,4.924,0.989,6.719,2.782c1.794,1.794,2.782,4.179,2.782,6.716c0,5.238-4.261,9.499-9.505,9.502c0.001,0,0.002,0,0.002,0
		C15.744,19.998,20.006,15.736,20.006,10.498z"/>
	<path fill="#F9AC1E" d="M10.506,4h-0.002c0,0-0.001,0-0.001,0c3.583,0,6.498,2.917,6.498,6.5c0.001,1.735-0.675,3.367-1.903,4.596
		C13.871,16.323,12.238,17,10.5,17c0.001,0,0.002,0,0.002,0c1.738,0,3.372-0.677,4.6-1.904c1.228-1.229,1.904-2.86,1.903-4.596
		C17.005,6.916,14.09,4,10.506,4z"/>
	<path fill="#F9AC1E" d="M20.002,10.498c0-2.537-0.987-4.922-2.782-6.716C15.425,1.989,13.04,1,10.501,1
		C7.963,1,5.577,1.989,3.782,3.782C1.988,5.576,1,7.961,1,10.498c-0.002,2.538,0.983,4.924,2.776,6.717
		C5.571,19.011,7.957,20,10.497,20C15.741,19.997,20.002,15.736,20.002,10.498z M10.502,18c-4.143,0-7.504-3.359-7.501-7.499
		C3,6.359,6.359,3,10.501,3c0.001,0,0.002,0,0.003,0h0.002c4.142,0,7.5,3.357,7.5,7.499C18.008,14.641,14.649,17.999,10.502,18z"/>
	<path fill="#229DD3" d="M23.003,21.492c0-0.398-0.157-0.771-0.44-1.053l-3.658-3.658c-0.603,0.804-1.315,1.517-2.12,2.119
		l3.657,3.656c0.286,0.285,0.662,0.442,1.057,0.443c0.4,0,0.776-0.158,1.061-0.443C22.847,22.271,23.004,21.893,23.003,21.492z"/>
	<path fill="#FFFFFF" d="M17.001,10.5c0-3.583-2.915-6.5-6.498-6.5C8.765,4,7.132,4.676,5.905,5.904
		C4.677,7.133,4.001,8.765,4.001,10.5C4,12.236,4.676,13.867,5.904,15.096C7.132,16.324,8.765,17,10.5,17
		c1.738,0,3.371-0.677,4.598-1.904C16.326,13.867,17.002,12.235,17.001,10.5z"/>
	<path fill="#455B65" d="M19.477,15.936c0.964-1.588,1.53-3.443,1.53-5.438C21.008,4.701,16.306,0,10.503,0
		C4.701,0-0.001,4.701,0,10.498C-0.006,16.299,4.696,21,10.5,21c0.002,0,0.003,0,0.005,0c1.993,0,3.85-0.566,5.437-1.529
		l3.793,3.793C20.224,23.75,20.862,24,21.502,24c0.001,0,0.003,0,0.004,0c0.038,0,0.076-0.01,0.113-0.012
		c0.603-0.027,1.195-0.268,1.653-0.725c0.461-0.459,0.697-1.054,0.725-1.654c0.031-0.678-0.205-1.364-0.725-1.88L19.477,15.936z
		 M10.5,20c0,0-0.001,0-0.002,0c-2.54,0-4.926-0.989-6.721-2.785C1.983,15.422,0.998,13.036,1,10.498
		c0-2.537,0.987-4.922,2.782-6.716C5.577,1.989,7.963,1,10.501,1c0.001,0,0.002,0,0.002,0c2.539,0,4.926,0.988,6.721,2.782
		c1.794,1.794,2.782,4.179,2.782,6.716C20.006,15.736,15.744,19.998,10.5,20z M22.565,22.557C22.279,22.842,21.903,23,21.502,23
		c0,0-0.001,0-0.002,0c-0.395,0-0.771-0.158-1.057-0.443L16.786,18.9c0.804-0.602,1.517-1.315,2.12-2.119
		c0-0.001,0.001-0.001,0.002-0.002l3.661,3.66c0.283,0.281,0.439,0.654,0.44,1.053C23.008,21.893,22.852,22.271,22.565,22.557z"/>
	<path fill="#455B65" d="M10.506,3h-0.002c-0.001,0-0.002,0-0.003,0C6.359,3,3,6.359,3.001,10.501C2.998,14.641,6.359,18,10.502,18
		c4.147-0.001,7.505-3.359,7.503-7.501C18.006,6.357,14.648,3,10.506,3z M15.103,15.096C13.875,16.323,12.241,17,10.502,17
		c0,0-0.001,0-0.002,0c-1.735,0-3.368-0.676-4.596-1.904C4.676,13.867,4,12.236,4.001,10.5c0-1.735,0.675-3.367,1.903-4.596
		C7.132,4.676,8.765,4,10.503,4c0,0,0.001,0,0.001,0h0.002c3.583,0,6.499,2.916,6.499,6.5
		C17.006,12.235,16.331,13.867,15.103,15.096z"/>
</g>
</svg>
