<?xml version="1.0" encoding="utf-8"?>
<!-- Generator: Adobe Illustrator 16.0.0, SVG Export Plug-In . SVG Version: 6.00 Build 0)  -->
<!DOCTYPE svg PUBLIC "-//W3C//DTD SVG 1.1//EN" "http://www.w3.org/Graphics/SVG/1.1/DTD/svg11.dtd">
<svg version="1.1" id="Layer_1" xmlns="http://www.w3.org/2000/svg" xmlns:xlink="http://www.w3.org/1999/xlink" x="0px" y="0px"
	 width="24px" height="24px" viewBox="0 0 24 24" enable-background="new 0 0 24 24" xml:space="preserve">
<g>
	<path d="M23.269,19.729l-3.794-3.794c0.964-1.588,1.529-3.443,1.529-5.438C21.005,4.701,16.305,0,10.504,0
		c-5.8,0-10.501,4.701-10.5,10.498C-0.002,16.299,4.698,21,10.5,21c0.002,0,0.003,0,0.005,0c1.992,0,3.849-0.566,5.436-1.529
		l3.792,3.793C20.221,23.75,20.858,24,21.499,24c0.002,0,0.003,0,0.004,0c0.037,0,0.075-0.01,0.113-0.012
		c0.603-0.027,1.195-0.268,1.652-0.725c0.461-0.459,0.697-1.054,0.725-1.654C24.024,20.932,23.788,20.245,23.269,19.729z M10.5,20
		c-2.54,0-4.927-0.988-6.721-2.785c-1.792-1.793-2.778-4.179-2.775-6.717c0-2.537,0.987-4.922,2.781-6.716
		C5.58,1.988,7.966,1,10.504,1s4.925,0.988,6.719,2.782s2.782,4.179,2.781,6.716C20.004,15.736,15.743,19.998,10.5,20z
		 M22.562,22.557C22.276,22.842,21.899,23,21.499,23c-0.396,0-0.773-0.158-1.06-0.443L16.784,18.9
		c0.805-0.603,1.518-1.316,2.121-2.121l3.659,3.66c0.283,0.281,0.439,0.654,0.44,1.053C23.005,21.893,22.849,22.271,22.562,22.557z"
		/>
	<path d="M10.507,3h-0.002c-0.002,0-0.002,0-0.004,0c-4.14,0-7.498,3.359-7.497,7.501C3.001,14.641,6.361,18,10.503,18
		c4.146-0.001,7.503-3.359,7.501-7.501C18.004,6.357,14.647,3,10.507,3z M15.102,15.096C13.874,16.323,12.241,17,10.503,17
		c-1.736,0-3.369-0.676-4.597-1.904c-1.228-1.229-1.903-2.859-1.902-4.596c0-1.735,0.675-3.367,1.903-4.596
		C7.134,4.676,8.767,4,10.505,4h0.002c3.582,0,6.497,2.916,6.497,6.5C17.005,12.235,16.329,13.867,15.102,15.096z"/>
</g>
</svg>
