<?xml version="1.0" encoding="utf-8"?>
<!-- Generator: Adobe Illustrator 16.0.0, SVG Export Plug-In . SVG Version: 6.00 Build 0)  -->
<!DOCTYPE svg PUBLIC "-//W3C//DTD SVG 1.1//EN" "http://www.w3.org/Graphics/SVG/1.1/DTD/svg11.dtd">
<svg version="1.1" id="Layer_1" xmlns="http://www.w3.org/2000/svg" xmlns:xlink="http://www.w3.org/1999/xlink" x="0px" y="0px"
	 width="16px" height="16px" viewBox="0 0 16 16" enable-background="new 0 0 16 16" xml:space="preserve">
<g>
	<g>
		<path d="M12.5,4.617V3.5C12.5,1.57,10.93,0,9,0H7C5.07,0,3.5,1.57,3.5,3.5v1.108C3.479,4.611,3.458,4.61,3.438,4.614
			C2.054,4.88,1,6.1,1,7.558V13c0,1.65,1.35,3,3,3h8c1.65,0,3-1.35,3-3V7.558C15,6.08,13.912,4.858,12.5,4.617z M7,1h2
			c1.379,0,2.5,1.122,2.5,2.5v1.058h-0.063H10.5V3.5C10.5,2.688,9.813,2,9,2H7C6.187,2,5.5,2.688,5.5,3.5v1.058H5.438H4.5V3.5
			C4.5,2.122,5.621,1,7,1z M9.5,4.558H9.438H6.5V3.5C6.5,3.234,6.733,3,7,3h2c0.267,0,0.5,0.234,0.5,0.5V4.558z M14,13
			c0,1.104-0.897,2-2,2H4c-1.103,0-2-0.896-2-2V7.558c0-1.104,0.897-2,2-2h8c1.103,0,2,0.896,2,2V13z"/>
		<path d="M8,7.169c-0.896,0-1.62,0.727-1.62,1.62c0,0.623,0.354,1.158,0.87,1.43v1.887c0,0.551,0.338,1,0.75,1s0.75-0.449,0.75-1
			v-1.887c0.516-0.271,0.871-0.807,0.871-1.43C9.621,7.896,8.895,7.169,8,7.169z"/>
	</g>
	<rect fill="none" width="16" height="16"/>
</g>
</svg>
