<?xml version="1.0" encoding="utf-8"?>
<!-- Generator: Adobe Illustrator 16.0.0, SVG Export Plug-In . SVG Version: 6.00 Build 0)  -->
<!DOCTYPE svg PUBLIC "-//W3C//DTD SVG 1.1//EN" "http://www.w3.org/Graphics/SVG/1.1/DTD/svg11.dtd">
<svg version="1.1" id="Layer_1" xmlns="http://www.w3.org/2000/svg" xmlns:xlink="http://www.w3.org/1999/xlink" x="0px" y="0px"
	 width="24px" height="24px" viewBox="0 0 24 24" enable-background="new 0 0 24 24" xml:space="preserve">
<rect fill="none" width="24" height="24"/>
<g fill="#DCF3FC">
	<path d="M22.479,15.366l-2.074-1.874l-0.725-0.654c0.006-0.13,0.02-0.258,0.02-0.389c0-0.13-0.014-0.258-0.02-0.386l0.725-0.655
		l2.074-1.873l0.223-0.201c0.49-0.442,0.621-1.272,0.291-1.844l-0.6-1.039l-0.449-0.78c0-0.001-0.002-0.003-0.002-0.004
		l-0.148-0.256c-0.26-0.45-0.801-0.733-1.326-0.733c-0.143,0-0.281,0.104-0.414,0.147L19.771,5c-0.002,0-0.004,0-0.006,0
		l-2.66,0.777L16.18,6.034c-0.219-0.142-0.443-0.292-0.676-0.412L15.299,4.66l-0.586-2.744L14.65,1.401
		C14.514,0.755,13.859,0,13.199,0H12.9H11.1h-0.299c-0.66,0-1.314,0.753-1.453,1.398L8.699,4.537L8.496,5.546
		C8.264,5.665,8.039,5.822,7.822,5.963L6.895,5.761L4.234,5C4.232,5,4.23,5,4.229,5L3.949,4.825
		C3.816,4.782,3.676,4.719,3.535,4.719c-0.525,0-1.068,0.262-1.328,0.712L2.061,5.677C2.059,5.679,2.059,5.674,2.057,5.675
		L1.607,6.453l-0.6,1.039c-0.33,0.571-0.199,1.4,0.291,1.843l0.223,0.201l2.074,1.873l0.723,0.653
		c-0.006,0.13-0.02,0.257-0.02,0.388c0,0.132,0.014,0.26,0.02,0.39l-0.723,0.653l-2.074,1.874l-0.223,0.201
		c-0.49,0.442-0.621,1.272-0.291,1.844l0.6,1.04l0.449,0.779c0.002,0.001,0.002,0.002,0.002,0.003l0.148,0.257
		c0.26,0.45,0.803,0.733,1.328,0.733c0.141,0,0.281-0.056,0.414-0.099L4.229,20c0.002,0,0.004,0,0.006,0l2.66-0.826l0.928-0.283
		c0.217,0.143,0.441,0.279,0.674,0.398l0.367,1.715l0.484,2.045C9.486,23.694,10.141,24,10.801,24H11.1H12.9h0.299
		c0.66,0,1.314-0.304,1.451-0.949l0.063-0.175c0-0.002,0.002,0.052,0.002,0.05l0.584-2.704l0.205-0.937
		c0.232-0.119,0.457-0.242,0.674-0.384l0.926,0.269l2.66,0.83c0.002,0,0.004,0,0.008,0l0.279,0.125
		c0.133,0.043,0.271,0.081,0.414,0.081c0.525,0,1.066-0.389,1.326-0.839L21.939,19c0.002,0,0.002,0,0.002,0l0.451-0.664l0.6-0.982
		c0.33-0.571,0.199-1.373-0.291-1.815L22.479,15.366z M20.359,5.692c0.031-0.01,0.066-0.015,0.107-0.015
		c0.18,0,0.387,0.104,0.461,0.233l1.199,2.079c0.094,0.162,0.043,0.477-0.096,0.602l-2.5,2.267
		c-0.342-1.624-1.201-3.055-2.393-4.126L20.359,5.692z M10.326,1.608C10.365,1.422,10.609,1,10.801,1h2.398
		c0.188,0,0.436,0.425,0.475,0.608l0.705,3.409C13.629,4.773,12.83,4.694,12,4.694S10.369,4.746,9.619,4.99L10.326,1.608z
		 M1.969,8.592C1.83,8.467,1.779,8.152,1.873,7.99l1.201-2.08c0.074-0.129,0.281-0.233,0.461-0.233c0.039,0,0.076,0.005,0.105,0.015
		l3.219,1.042C5.672,7.803,4.813,9.23,4.469,10.85L1.969,8.592z M3.641,19.209c-0.029,0.01-0.066,0.015-0.105,0.015
		c-0.18,0-0.387-0.104-0.461-0.233l-1.201-2.079c-0.094-0.162-0.043-0.477,0.096-0.602l2.502-2.257
		c0.344,1.619,1.201,3.046,2.391,4.115L3.641,19.209z M13.672,22.842C13.635,23.024,13.387,23,13.199,23h-2.398
		c-0.191,0-0.436,0.027-0.475-0.159l-0.705-3.184c0.75,0.245,1.549,0.437,2.379,0.437c0.832,0,1.629-0.22,2.379-0.465L13.672,22.842
		z M12,19.15c-3.695,0-6.701-3.006-6.701-6.701C5.299,8.755,8.305,5.75,12,5.75s6.699,3.005,6.699,6.699
		C18.699,16.145,15.695,19.15,12,19.15z M20.926,18.99c-0.074,0.129-0.281,0.233-0.461,0.233c-0.041,0-0.076-0.005-0.107-0.015
		l-3.217-1.042c1.188-1.069,2.045-2.497,2.389-4.117l2.502,2.26c0.139,0.125,0.189,0.439,0.096,0.602L20.926,18.99z"/>
	<path d="M12,8.559c-2.146,0-3.893,1.745-3.893,3.891c0,2.146,1.746,3.893,3.893,3.893s3.891-1.746,3.891-3.893
		C15.891,10.304,14.146,8.559,12,8.559z M12,15.342c-1.594,0-2.893-1.298-2.893-2.893c0-1.594,1.299-2.891,2.893-2.891
		s2.891,1.297,2.891,2.891C14.891,14.044,13.594,15.342,12,15.342z"/>
</g>
</svg>
