<?xml version="1.0" encoding="utf-8"?>
<!-- Generator: Adobe Illustrator 16.0.0, SVG Export Plug-In . SVG Version: 6.00 Build 0)  -->
<!DOCTYPE svg PUBLIC "-//W3C//DTD SVG 1.1//EN" "http://www.w3.org/Graphics/SVG/1.1/DTD/svg11.dtd">
<svg version="1.1" id="Layer_1" xmlns="http://www.w3.org/2000/svg" xmlns:xlink="http://www.w3.org/1999/xlink" x="0px" y="0px"
	 width="24px" height="24px" viewBox="0 0 24 24" enable-background="new 0 0 24 24" xml:space="preserve">
<g>
	<path fill="none" d="M13.673,1.383C13.634,1.199,13.386,1,13.2,1h-0.002C13.386,1,13.634,1.199,13.673,1.383z"/>
	<path fill="none" d="M6.858,6.283c-1.188,1.069-2.046,2.496-2.391,4.115L4.47,10.4C4.813,8.781,5.671,7.354,6.86,6.283L3.642,5.242
		C3.61,5.232,3.575,5.227,3.534,5.227c0.039,0,0.076,0.006,0.105,0.016L6.858,6.283z"/>
	<path fill="none" d="M3.534,18.773c0.041,0,0.076-0.004,0.107-0.014l3.219-1.041L3.64,18.76C3.61,18.77,3.573,18.773,3.534,18.773z
		"/>
	<path fill="none" d="M22.03,8.143l-2.498,2.265c0,0.001,0,0.001,0,0.001l2.5-2.266c0.139-0.125,0.188-0.439,0.094-0.602
		C22.22,7.703,22.169,8.018,22.03,8.143z"/>
	<path fill="none" d="M9.62,4.681L9.62,4.681c0.75-0.243,1.548-0.38,2.38-0.38h-0.001C11.17,4.301,10.37,4.438,9.62,4.681z"/>
	<path fill="none" d="M19.53,13.6c0,0.001,0,0.002,0,0.002l2.5,2.258c0.139,0.125,0.189,0.439,0.096,0.602
		c0.094-0.162,0.045-0.477-0.094-0.602L19.53,13.6z"/>
	<path fill="none" d="M12.001,5.301L12.001,5.301c3.694,0,6.697,3.005,6.697,6.699S15.695,18.7,12,18.701h0.001
		c3.693,0,6.699-3.006,6.699-6.701S15.694,5.301,12.001,5.301z"/>
	<path fill="none" d="M12,19.701c-0.83,0-1.628-0.137-2.378-0.381l0,0C10.372,19.564,11.17,19.701,12,19.701L12,19.701z"/>
	<path fill="none" d="M6.86,17.719c-1.188-1.07-2.047-2.496-2.391-4.115C4.813,15.223,5.671,16.648,6.86,17.719z"/>
	<path fill="none" d="M13.671,22.617C13.634,22.799,13.386,23,13.198,23H13.2c0.186,0,0.434-0.201,0.473-0.383l0.707-3.297
		c-0.001,0-0.001,0-0.002,0L13.671,22.617z"/>
	<path fill="#FFFFFF" d="M18.698,12c0-3.694-3.003-6.699-6.698-6.699S5.3,8.306,5.3,12s3.005,6.7,6.7,6.701
		C15.695,18.7,18.698,15.694,18.698,12z M12.001,14.893L12.001,14.893h-0.002c-1.594,0-2.893-1.299-2.893-2.893
		s1.299-2.891,2.893-2.891H12h0.001c1.594,0,2.891,1.297,2.891,2.891S13.595,14.893,12.001,14.893z"/>
	<path fill="#F9AC1E" d="M17.14,6.283c1.189,1.07,2.05,2.5,2.393,4.124l2.498-2.265c0.139-0.125,0.189-0.439,0.096-0.602
		l-1.199-2.08c-0.074-0.129-0.281-0.232-0.461-0.232c-0.039,0-0.076,0.004-0.105,0.014L17.14,6.283z"/>
	<path fill="#F9AC1E" d="M11.999,4.301L11.999,4.301h0.002c0.83,0,1.627,0.135,2.377,0.379l-0.705-3.297
		C13.634,1.199,13.386,1,13.198,1H10.8c-0.189,0-0.434,0.197-0.475,0.383L9.62,4.681C10.37,4.438,11.17,4.301,11.999,4.301z"/>
	<path fill="#F9AC1E" d="M6.858,6.283L3.64,5.242C3.61,5.232,3.573,5.227,3.534,5.227c-0.18,0-0.387,0.105-0.461,0.234l-1.199,2.08
		C1.78,7.703,1.829,8.018,1.968,8.143l2.5,2.256C4.813,8.779,5.671,7.353,6.858,6.283z"/>
	<path fill="#F9AC1E" d="M1.968,15.859c-0.139,0.125-0.188,0.439-0.094,0.602l1.199,2.08c0.074,0.129,0.281,0.232,0.461,0.232
		c0.039,0,0.076-0.004,0.105-0.014l3.221-1.041c-1.189-1.07-2.047-2.496-2.391-4.115L1.968,15.859z"/>
	<path fill="#F9AC1E" d="M13.671,22.617l0.707-3.297c-0.75,0.244-1.548,0.381-2.377,0.381H12h-0.001
		c-0.829,0-1.627-0.137-2.377-0.381l0.703,3.295C10.366,22.803,10.61,23,10.8,23h2.398C13.386,23,13.634,22.799,13.671,22.617z"/>
	<path fill="#F9AC1E" d="M22.03,15.859l-2.5-2.258c-0.345,1.619-1.203,3.047-2.391,4.115l3.219,1.043
		c0.029,0.01,0.066,0.014,0.105,0.014c0.18,0,0.387-0.104,0.461-0.232l1.201-2.08C22.22,16.299,22.169,15.984,22.03,15.859z"/>
	<path fill="#0079B8" d="M9.108,12c0-1.594,1.296-2.891,2.892-2.891h-0.001c-1.594,0-2.893,1.297-2.893,2.891
		s1.299,2.893,2.893,2.893H12C10.404,14.892,9.108,13.594,9.108,12z"/>
	<polygon fill="#0079B8" points="14.714,22.533 15.3,19.801 14.712,22.539 	"/>
	<polygon fill="#0079B8" points="4.235,4.383 4.229,4.381 6.896,5.242 	"/>
	<polygon fill="#0079B8" points="21.942,18.781 22.392,18.002 21.94,18.783 	"/>
	<polygon fill="#0079B8" points="19.765,19.619 19.771,19.619 17.104,18.758 	"/>
	<polygon fill="#0079B8" points="2.058,18.781 2.06,18.783 1.608,18.002 	"/>
	<polygon fill="#0079B8" points="4.235,19.619 6.896,18.758 4.228,19.619 	"/>
	<polygon fill="#0079B8" points="21.944,5.221 21.94,5.217 22.394,6.002 	"/>
	<polygon fill="#0079B8" points="19.767,4.383 17.106,5.244 19.772,4.383 	"/>
	<path fill="#455B65" d="M22.479,14.916l-2.074-1.873l-0.725-0.654c0.006-0.131,0.02-0.258,0.02-0.389s-0.014-0.258-0.02-0.387
		l0.725-0.654l2.074-1.873l0.223-0.201c0.49-0.443,0.621-1.273,0.291-1.844l-0.6-1.039L21.94,5.217l-0.146-0.256
		c-0.26-0.449-0.803-0.732-1.328-0.732c-0.141,0-0.281,0.02-0.414,0.063l-0.279,0.092l-2.666,0.861l-0.928,0.299
		c-0.217-0.143-0.443-0.271-0.674-0.391L15.3,4.199l-0.588-2.738l-0.061-0.287C14.513,0.527,13.86,0,13.2,0h-0.301h-1.799H10.8
		c-0.66,0-1.313,0.527-1.451,1.174L8.7,4.199L8.495,5.152C8.265,5.271,8.04,5.4,7.821,5.541L6.896,5.242L4.229,4.381l-0.281-0.09
		C3.815,4.248,3.677,4.227,3.534,4.227c-0.525,0-1.066,0.283-1.326,0.734L2.06,5.217L1.608,6L1.007,7.041
		c-0.33,0.57-0.199,1.4,0.291,1.844l0.223,0.201l2.074,1.873l0.725,0.652C4.313,11.742,4.3,11.869,4.3,12s0.014,0.26,0.02,0.389
		l-0.725,0.654l-2.074,1.873l-0.223,0.201c-0.49,0.443-0.621,1.273-0.291,1.844l0.602,1.041l0.451,0.781l0.148,0.258
		c0.26,0.449,0.801,0.732,1.326,0.732c0.143,0,0.281-0.02,0.414-0.063l0.279-0.092l2.668-0.861l0.926-0.299
		c0.217,0.141,0.443,0.27,0.674,0.389l0.367,1.711l0.486,2.268C9.487,23.471,10.14,24,10.8,24h0.301h1.799H13.2
		c0.66,0,1.313-0.529,1.451-1.174l0.061-0.287l0.588-2.738l0.203-0.951c0.232-0.119,0.457-0.25,0.676-0.391l0.926,0.299l2.666,0.861
		l0.279,0.092c0.133,0.043,0.273,0.063,0.414,0.063c0.525,0,1.068-0.283,1.328-0.732l0.148-0.258l0.451-0.781l0.602-1.041
		c0.33-0.57,0.199-1.4-0.291-1.844L22.479,14.916z M20.927,5.461l1.199,2.08c0.094,0.162,0.045,0.477-0.094,0.602l-2.5,2.266
		c0,0,0,0,0-0.001c-0.343-1.624-1.203-3.054-2.393-4.124l3.221-1.041c0.029-0.01,0.066-0.014,0.105-0.014
		C20.646,5.229,20.853,5.332,20.927,5.461z M10.8,1h2.398H13.2c0.186,0,0.434,0.199,0.473,0.383l0.705,3.297
		c-0.75-0.244-1.547-0.379-2.377-0.379H12c-0.832,0-1.63,0.137-2.38,0.381V4.681l0.705-3.298C10.366,1.197,10.61,1,10.8,1z
		 M1.874,7.541l1.199-2.08c0.074-0.129,0.281-0.234,0.461-0.234c0.041,0,0.076,0.006,0.107,0.016L6.86,6.283
		C5.671,7.354,4.813,8.781,4.47,10.4l-0.002-0.002l-2.5-2.256C1.829,8.018,1.78,7.703,1.874,7.541z M3.642,18.76
		c-0.031,0.01-0.066,0.014-0.107,0.014c-0.18,0-0.387-0.104-0.461-0.232l-1.199-2.08c-0.094-0.162-0.045-0.477,0.094-0.602
		l2.502-2.256c0.344,1.619,1.203,3.045,2.391,4.115L3.642,18.76z M13.673,22.617C13.634,22.799,13.386,23,13.2,23h-0.002H10.8
		c-0.189,0-0.434-0.197-0.475-0.385L9.622,19.32l0,0c0.75,0.244,1.548,0.381,2.378,0.381h0.001c0.829,0,1.627-0.137,2.377-0.381
		c0.001,0,0.001,0,0.002,0L13.673,22.617z M12.001,18.701L12.001,18.701C8.305,18.7,5.3,15.694,5.3,12S8.305,5.301,12,5.301h0.001
		c3.693,0,6.699,3.004,6.699,6.699S15.694,18.701,12.001,18.701z M22.126,16.461l-1.201,2.08c-0.074,0.129-0.281,0.232-0.461,0.232
		c-0.039,0-0.076-0.004-0.105-0.014l-3.219-1.043c1.188-1.068,2.046-2.496,2.391-4.115c0,0,0-0.001,0-0.002l2.502,2.26
		C22.171,15.984,22.22,16.299,22.126,16.461z"/>
	<path fill="#229DD3" d="M12.001,9.109L12.001,9.109c-1.597,0-2.893,1.297-2.893,2.891s1.296,2.892,2.892,2.893h0.001
		c1.594,0,2.891-1.299,2.891-2.893S13.595,9.109,12.001,9.109z"/>
</g>
</svg>
