<?xml version="1.0" encoding="utf-8"?>
<!-- Generator: Adobe Illustrator 16.0.0, SVG Export Plug-In . SVG Version: 6.00 Build 0)  -->
<!DOCTYPE svg PUBLIC "-//W3C//DTD SVG 1.1//EN" "http://www.w3.org/Graphics/SVG/1.1/DTD/svg11.dtd">
<svg version="1.1" id="Layer_1" xmlns="http://www.w3.org/2000/svg" xmlns:xlink="http://www.w3.org/1999/xlink" x="0px" y="0px"
	 width="16px" height="16px" viewBox="0 0 16 16" enable-background="new 0 0 16 16" xml:space="preserve">
<g>
	<path d="M8.625,8.25C8.625,8.662,8.344,9,8,9S7.375,8.662,7.375,8.25v-7.5C7.375,0.338,7.656,0,8,0s0.625,0.338,0.625,0.75V8.25z
		 M15,9c0-2.261-1.101-4.394-2.942-5.705c-0.298-0.212-0.617-0.403-0.949-0.568c-0.31-0.154-0.684-0.028-0.838,0.281
		c-0.153,0.31-0.027,0.685,0.281,0.838c0.273,0.136,0.536,0.293,0.78,0.467C12.846,5.391,13.75,7.143,13.75,9
		c0,3.171-2.579,5.75-5.75,5.75c-3.17,0-5.75-2.579-5.75-5.75c0-1.855,0.903-3.607,2.416-4.686c0.238-0.169,0.488-0.32,0.743-0.449
		c0.308-0.156,0.431-0.532,0.275-0.84C5.529,2.717,5.152,2.595,4.845,2.75C4.533,2.907,4.23,3.091,3.941,3.297
		C2.1,4.609,1,6.741,1,9c0,3.859,3.141,7,7,7S15,12.859,15,9z"/>
	<rect fill="none" width="16" height="16"/>
</g>
</svg>
