<?xml version="1.0" encoding="utf-8"?>
<!-- Generator: Adobe Illustrator 16.0.0, SVG Export Plug-In . SVG Version: 6.00 Build 0)  -->
<!DOCTYPE svg PUBLIC "-//W3C//DTD SVG 1.1//EN" "http://www.w3.org/Graphics/SVG/1.1/DTD/svg11.dtd">
<svg version="1.1" id="Layer_1" xmlns="http://www.w3.org/2000/svg" xmlns:xlink="http://www.w3.org/1999/xlink" x="0px" y="0px"
	 width="24px" height="24px" viewBox="0 0 24 24" enable-background="new 0 0 24 24" xml:space="preserve">
   <g fill="#DCF3FC">
<path d="M21.6,4.193V1.801C21.6,0.811,20.789,0,19.799,0h-15.6c-0.99,0-1.8,0.811-1.8,1.801v2.393L0,8.697c0,0,0,0.76,0,1.688v1.126
	c0,0.93,0.809,1.689,1.799,1.689h0.601V23c0,0.55,0.45,1,1,1h17.2c0.55,0,1-0.45,1-1v-9.799h0.6c0.99,0,1.801-0.76,1.801-1.689
	v-1.126c0-0.929,0-1.688,0-1.688L21.6,4.193z M3.399,1.801C3.399,1.359,3.758,1,4.199,1h15.6C20.24,1,20.6,1.359,20.6,1.801v2.393
	H12H3.399V1.801z M14.659,12.201V5.193h3.321v7.008H14.659z M9.34,5.193v7.008H6.02V5.193H9.34z M10.34,5.193H12h1.659v7.008H12
	h-1.66V5.193z M1.799,12.201C1.366,12.201,1,11.886,1,11.512v-1.126V8.947l1.909-3.584L3,5.193h2.02v7.008H3.255H1.799z
	 M11.5,22.999L7,22.998v-6.371h4.5V22.999z M12.5,23L12.5,23v-6.373H17V23H12.5z M20.6,23H18v-6.373c0-0.55-0.45-1-1-1H7
	c-0.55,0-1,0.45-1,1v6.371c0,0.001,0,0.001,0,0.001L3.399,23v-9.799H12h8.6V23z M23,10.386v1.126c0,0.374-0.367,0.689-0.801,0.689
	h-1.455H18.98V5.193h2.019l0.091,0.17L23,8.947V10.386z"/>
</g>
</svg>
