<?xml version="1.0" encoding="utf-8"?>
<!-- Generator: Adobe Illustrator 16.0.0, SVG Export Plug-In . SVG Version: 6.00 Build 0)  -->
<!DOCTYPE svg PUBLIC "-//W3C//DTD SVG 1.1//EN" "http://www.w3.org/Graphics/SVG/1.1/DTD/svg11.dtd">
<svg version="1.1" id="Layer_1" xmlns="http://www.w3.org/2000/svg" xmlns:xlink="http://www.w3.org/1999/xlink" x="0px" y="0px"
	 width="24px" height="24px" viewBox="0 0 24 24" enable-background="new 0 0 24 24" xml:space="preserve">
<g>
	<path fill="#FFFFFF" d="M20.6,4.193V1.801C20.6,1.359,20.24,1,19.799,1h-15.6C3.758,1,3.4,1.359,3.4,1.801v2.393H12H20.6z"/>
	<g>
		<path fill="#FFFFFF" d="M3.4,23H6v-0.002v-6.371c0-0.551,0.451-1,1-1h10c0.551,0,1,0.449,1,1V23h2.6v-9.795H3.4V23z"/>
		<rect x="14.16" y="5.193" fill="#FFFFFF" width="4.32" height="7.008"/>
		<rect x="5.52" y="5.193" fill="#FFFFFF" width="4.32" height="7.008"/>
		<rect x="7" y="16.627" fill="#F9AC1E" width="4.5" height="6.371"/>
		<rect x="12.5" y="16.627" fill="#F9AC1E" width="4.5" height="6.373"/>
		<polygon fill="#006D92" points="12.5,23 17,23 12.5,23 		"/>
		<path fill="#229DD3" d="M21,5.193h-2.52v7.008h3.719c0.434,0,0.801-0.316,0.801-0.689v-1.127V8.947l-1.91-3.584L21,5.193z"/>
		<polygon fill="#229DD3" points="12,5.193 9.84,5.193 9.84,12.201 12,12.201 14.16,12.201 14.16,5.193 		"/>
		<path fill="#229DD3" d="M3,5.193l-0.09,0.17L1,8.947v1.438v1.127c0,0.373,0.367,0.689,0.799,0.689H5.52V5.193H3z"/>
		<path fill="#455B65" d="M21.6,1.801C21.6,0.811,20.789,0,19.799,0h-15.6C3.209,0,2.4,0.811,2.4,1.801v2.393L0,8.697
			c0,0,0,0.76,0,1.688v1.127c0,0.929,0.809,1.689,1.799,1.689H2.4c0,0.002,0,0.004,0,0.004V23c0,0.551,0.449,1,1,1H20.6
			c0.551,0,1-0.449,1-1v-9.795c0,0,0-0.002,0-0.004h0.6c0.99,0,1.801-0.761,1.801-1.689v-1.127c0-0.928,0-1.688,0-1.688l-2.4-4.504
			V1.801z M3.4,1.801C3.4,1.359,3.758,1,4.199,1h15.6C20.24,1,20.6,1.359,20.6,1.801v2.393H12H3.4V1.801z M11.5,22.998H7v-6.371h4.5
			V22.998z M17,23h-4.5l0,0v-6.373H17V23z M20.6,23H18v-6.373c0-0.551-0.449-1-1-1H7c-0.549,0-1,0.449-1,1v6.371V23H3.4v-9.795H20.6
			V23z M23,10.385v1.127c0,0.373-0.367,0.689-0.801,0.689H18.48h-4.32H12H9.84H5.52H1.799C1.367,12.201,1,11.885,1,11.512v-1.127
			V8.947l1.91-3.584L3,5.193h2.52h4.32H12h2.16h4.32H21l0.09,0.17L23,8.947V10.385z"/>
	</g>
</g>
</svg>
