<?xml version="1.0" encoding="utf-8"?>
<!-- Generator: Adobe Illustrator 16.0.0, SVG Export Plug-In . SVG Version: 6.00 Build 0)  -->
<!DOCTYPE svg PUBLIC "-//W3C//DTD SVG 1.1//EN" "http://www.w3.org/Graphics/SVG/1.1/DTD/svg11.dtd">
<svg version="1.1" id="Layer_1" xmlns="http://www.w3.org/2000/svg" xmlns:xlink="http://www.w3.org/1999/xlink" x="0px" y="0px"
	 width="24px" height="24px" viewBox="0 0 24 24" enable-background="new 0 0 24 24" xml:space="preserve">
<g fill="#DCF3FC">
	<circle cx="6.803" cy="10.281" r="1.373"/>
	<circle cx="4.8" cy="3.569" r="1.2"/>
	<rect x="7.2" y="2.969" width="10.682" height="1.2"/>
	<path d="M21.601,13.521V2c0-1.1-0.9-2-2-2H2C0.899,0,0,0.9,0,2v17.6c0,1.1,0.899,2,2,2h11.519c1.052,1.452,2.757,2.4,4.688,2.4
		C21.405,24,24,21.408,24,18.209C24,16.279,23.052,14.574,21.601,13.521z M1,2c0-0.552,0.448-1,1-1h17.601
		c0.501,0,0.9,0.377,0.971,0.86c0.008,0.048,0.029,0.09,0.029,0.14v3.969h-0.029H1V2z M2,20.6c-0.552,0-1-0.448-1-1V7.169h19.571
		h0.029v5.77c-0.73-0.333-1.54-0.522-2.395-0.522c-0.518,0-1.017,0.074-1.494,0.201l-1.547-2.516
		c-0.531-0.863-1.424-0.879-1.98-0.029l-2.119,3.221c-0.557,0.85-1.658,1.031-2.448,0.406l-0.262-0.205
		c-0.79-0.625-1.927-0.468-2.526,0.35l-1.953,2.658c-0.602,0.818-0.274,1.486,0.723,1.486h7.828
		c-0.003,0.074-0.012,0.146-0.012,0.221c0,0.854,0.189,1.661,0.521,2.391H2z M18.206,23c-2.642,0-4.791-2.149-4.791-4.791
		c0-2.643,2.149-4.793,4.791-4.793c2.644,0,4.794,2.15,4.794,4.793C23,20.851,20.85,23,18.206,23z"/>
	<path d="M18.206,14.785c-0.276,0-0.5,0.224-0.5,0.5v2.644l-1.865,1.142c-0.236,0.145-0.311,0.452-0.166,0.688
		c0.094,0.154,0.258,0.239,0.427,0.239c0.089,0,0.179-0.023,0.261-0.073l2.104-1.288c0.149-0.091,0.239-0.253,0.239-0.427v-2.924
		C18.706,15.009,18.482,14.785,18.206,14.785z"/>
</g>
</svg>
