<?xml version="1.0" encoding="utf-8"?>
<!-- Generator: Adobe Illustrator 16.0.0, SVG Export Plug-In . SVG Version: 6.00 Build 0)  -->
<!DOCTYPE svg PUBLIC "-//W3C//DTD SVG 1.1//EN" "http://www.w3.org/Graphics/SVG/1.1/DTD/svg11.dtd">
<svg version="1.1" id="Layer_1" xmlns="http://www.w3.org/2000/svg" xmlns:xlink="http://www.w3.org/1999/xlink" x="0px" y="0px"
	 width="24px" height="24px" viewBox="0 0 24 24" enable-background="new 0 0 24 24" xml:space="preserve">
<g>
	<path fill="none" d="M20.601,12.939V7.168h-0.028v5.757C20.582,12.929,20.591,12.934,20.601,12.939z"/>
	<path fill="none" d="M20.572,5.968h0.028V2c0-0.05-0.021-0.092-0.028-0.14v1.25V5.968z"/>
	<path fill="#FFFFFF" d="M12.428,17.987H4.6c-0.998,0-1.324-0.668-0.724-1.484l1.954-2.658c0.599-0.818,1.735-0.975,2.525-0.352
		l0.262,0.206c0.79,0.625,1.893,0.442,2.449-0.405l2.118-3.222c0.557-0.849,1.45-0.834,1.981,0.03l1.547,2.516
		c0.478-0.127,0.977-0.201,1.494-0.201c0.844,0,1.643,0.185,2.365,0.509V7.168H1v12.43c0,0.552,0.449,1,1,1h10.936
		c-0.33-0.729-0.52-1.536-0.52-2.39C12.416,18.133,12.424,18.061,12.428,17.987z M6.803,8.909c0.758,0,1.373,0.612,1.373,1.372
		c0,0.758-0.615,1.373-1.373,1.373S5.43,11.039,5.43,10.281C5.43,9.521,6.045,8.909,6.803,8.909z"/>
	<path fill="#F9AC1E" d="M20.572,3.111v-1.25C20.502,1.377,20.102,1,19.601,1H2C1.449,1,1,1.449,1,2v3.968h19.572V3.111z
		 M4.801,4.769c-0.663,0-1.2-0.538-1.2-1.2c0-0.663,0.537-1.2,1.2-1.2C5.463,2.369,6,2.906,6,3.569C6,4.231,5.463,4.769,4.801,4.769
		z M17.883,4.168H7.201v-1.2h10.682V4.168z"/>
	<path fill="#229DD3" d="M13.185,10.072l-2.118,3.222c-0.557,0.848-1.659,1.03-2.449,0.405l-0.262-0.206
		c-0.79-0.623-1.927-0.467-2.525,0.352l-1.954,2.658c-0.601,0.816-0.274,1.484,0.724,1.484h7.828
		c0.098-2.582,1.881-4.728,4.285-5.369l-1.547-2.516C14.635,9.238,13.741,9.223,13.185,10.072z"/>
	<circle fill="#229DD3" cx="6.803" cy="10.281" r="1.373"/>
	<circle fill="#455B65" cx="4.801" cy="3.569" r="1.2"/>
	<rect x="7.201" y="2.968" fill="#455B65" width="10.682" height="1.2"/>
	<path fill="#FFFFFF" d="M18.207,13.417c-2.643,0-4.791,2.149-4.791,4.792S15.564,23,18.207,23S23,20.851,23,18.208
		S20.85,13.417,18.207,13.417z M18.707,18.208c0,0.174-0.091,0.336-0.24,0.427l-2.104,1.288c-0.081,0.05-0.171,0.073-0.261,0.073
		c-0.168,0-0.332-0.085-0.426-0.239c-0.145-0.235-0.07-0.543,0.165-0.688l1.866-1.142v-2.643c0-0.276,0.223-0.5,0.5-0.5
		c0.275,0,0.5,0.224,0.5,0.5V18.208z"/>
	<path fill="#455B65" d="M21.601,13.522V2c0-1.1-0.899-2-2-2H2c-1.1,0-2,0.9-2,2v17.598c0,1.1,0.9,2,2,2h11.518
		C14.57,23.051,16.275,24,18.207,24C21.406,24,24,21.408,24,18.208C24,16.279,23.053,14.575,21.601,13.522z M1,2
		c0-0.552,0.449-1,1-1h17.601c0.501,0,0.901,0.377,0.972,0.86c0.007,0.048,0.028,0.09,0.028,0.14v3.968h-0.028H1V2z M2,20.598
		c-0.551,0-1-0.448-1-1V7.168h19.572h0.028v5.771c-0.01-0.005-0.019-0.01-0.028-0.014c-0.723-0.324-1.521-0.509-2.365-0.509
		c-0.518,0-1.017,0.074-1.494,0.201c-2.404,0.642-4.188,2.787-4.285,5.369c-0.004,0.074-0.012,0.146-0.012,0.222
		c0,0.854,0.189,1.66,0.52,2.39H2z M18.207,23c-2.643,0-4.791-2.149-4.791-4.792s2.148-4.792,4.791-4.792S23,15.566,23,18.208
		S20.85,23,18.207,23z"/>
	<path fill="#455B65" d="M18.207,14.786c-0.277,0-0.5,0.224-0.5,0.5v2.643l-1.866,1.142c-0.235,0.145-0.31,0.452-0.165,0.688
		c0.094,0.154,0.258,0.239,0.426,0.239c0.09,0,0.18-0.023,0.261-0.073l2.104-1.288c0.149-0.091,0.24-0.253,0.24-0.427v-2.923
		C18.707,15.009,18.482,14.786,18.207,14.786z"/>
</g>
</svg>
