<?xml version="1.0" encoding="utf-8"?>
<!-- Generator: Adobe Illustrator 16.0.0, SVG Export Plug-In . SVG Version: 6.00 Build 0)  -->
<!DOCTYPE svg PUBLIC "-//W3C//DTD SVG 1.1//EN" "http://www.w3.org/Graphics/SVG/1.1/DTD/svg11.dtd">
<svg version="1.1" id="Layer_1" xmlns="http://www.w3.org/2000/svg" xmlns:xlink="http://www.w3.org/1999/xlink" x="0px" y="0px"
	 width="24px" height="24px" viewBox="0 0 24 24" enable-background="new 0 0 24 24" xml:space="preserve">
<g>
	<path fill="#F9AC1E" d="M7.582,19.749l-0.967,0.966c-0.545,0.546-0.57,1.407-0.059,1.92c0.236,0.236,0.557,0.366,0.904,0.366
		c0.381,0,0.74-0.151,1.016-0.425l2.826-2.827H7.582z"/>
	<path fill="#F9AC1E" d="M18.686,22.951c0.021-0.028,0.027-0.062,0.044-0.09c-0.018,0.031-0.029,0.064-0.048,0.094
		C18.683,22.954,18.685,22.953,18.686,22.951z"/>
	<path fill="#F9AC1E" d="M6.326,23.703c0.024,0.016,0.054,0.019,0.078,0.032c-0.032-0.017-0.065-0.033-0.098-0.051
		C6.314,23.69,6.318,23.697,6.326,23.703z"/>
	<path fill="#F9AC1E" d="M12.922,19.749l2.826,2.826c0.275,0.274,0.635,0.426,1.014,0.426c0.348,0,0.67-0.13,0.904-0.366
		c0.244-0.242,0.373-0.572,0.367-0.93c-0.006-0.371-0.158-0.723-0.426-0.99l-0.965-0.966H12.922z"/>
	<path fill="#FFFFFF" d="M21.799,17.749V4.801h-19.6v12.948c0,0.552,0.449,1,1,1h17.6C21.35,18.749,21.799,18.301,21.799,17.749z
		 M10.49,9.973h3.018v5.789H10.49V9.973z M5.314,12.604h3.021v3.158H5.314V12.604z M18.686,15.762h-3.023v-8.4h3.023V15.762z"/>
	<rect x="1" y="1" fill="#F9AC1E" width="22" height="2.801"/>
	<path fill="#455B65" d="M23,0H1C0.449,0,0,0.45,0,1v2.801c0,0.55,0.449,1,1,1h0.199v12.948c0,1.1,0.9,2,2,2h2.969l-0.26,0.259
		c-0.932,0.934-0.959,2.434-0.059,3.334c0.139,0.139,0.295,0.248,0.457,0.342c0.032,0.019,0.065,0.034,0.098,0.051
		c0.33,0.17,0.689,0.266,1.057,0.266c0.619,0,1.244-0.24,1.723-0.719l2.93-2.929l2.928,2.929c0.479,0.479,1.104,0.719,1.721,0.719
		c0.59,0,1.174-0.219,1.613-0.659c0.119-0.119,0.219-0.25,0.307-0.387c0.019-0.03,0.03-0.063,0.048-0.094
		c0.506-0.892,0.368-2.07-0.413-2.853l-0.26-0.259h2.742c1.1,0,2-0.9,2-2V4.801H23c0.549,0,1-0.45,1-1V1C24,0.45,23.549,0,23,0z
		 M7.461,23.001c-0.348,0-0.668-0.13-0.904-0.366c-0.512-0.513-0.486-1.374,0.059-1.92l0.967-0.966h3.721l-2.826,2.827
		C8.201,22.85,7.842,23.001,7.461,23.001z M18.033,21.705c0.006,0.357-0.123,0.688-0.367,0.93c-0.234,0.236-0.557,0.366-0.904,0.366
		c-0.379,0-0.738-0.151-1.014-0.426l-2.826-2.826h3.721l0.965,0.966C17.875,20.982,18.027,21.334,18.033,21.705z M3.199,18.749
		c-0.551,0-1-0.448-1-1V4.801h19.6v12.948c0,0.552-0.449,1-1,1H3.199z M23,3.801H1V1h22V3.801z"/>
	<rect x="15.662" y="7.361" fill="#229DD3" width="3.023" height="8.4"/>
	<rect x="10.49" y="9.973" fill="#229DD3" width="3.018" height="5.789"/>
	<rect x="5.314" y="12.604" fill="#229DD3" width="3.021" height="3.158"/>
</g>
</svg>
