<svg xmlns="http://www.w3.org/2000/svg" width="24" height="24" viewBox="0 0 24 24"><g fill="#DCF3FC"><path d="M23 0H1C.45 0 0 .45 0 1v2.8c0 .55.45 1 1 1h.2V17.75c0 1.1.9 2 2 2h2.968l-.26.26c-.93.932-.96 2.432-.058 3.333.44.44 1.02.66 1.61.66.62 0 1.245-.24 1.724-.72l2.93-2.928 2.928 2.93c.478.478 1.103.718 1.72.718.59 0 1.174-.22 1.613-.66.902-.9.873-2.4-.06-3.333l-.26-.26H20.8c1.1 0 2-.9 2-2V4.802H23c.55 0 1-.45 1-1V1c0-.55-.45-1-1-1zM8.477 22.575C8.2 22.85 7.842 23 7.46 23c-.347 0-.667-.13-.903-.366-.512-.513-.486-1.374.06-1.92l.966-.966h3.72l-2.826 2.827zm9.13-1.86c.268.267.42.618.426.99.006.356-.123.687-.367.93-.234.235-.557.365-.904.365-.38 0-.738-.15-1.014-.426l-2.826-2.826h3.72l.965.966zm4.192-2.967c0 .552-.45 1-1 1H3.2c-.552 0-1-.448-1-1V4.8h19.6V17.75zM23 3.8H1V1h22v2.8z"/><path d="M15.662 7.36h3.023v8.402h-3.023zM10.49 9.972h3.018v5.79H10.49zM5.314 12.603h3.02v3.16h-3.02z"/></g></svg>