<?xml version="1.0" encoding="UTF-8" standalone="no"?>
<svg width="20px" height="20px" viewBox="0 0 20 20" version="1.1" xmlns="http://www.w3.org/2000/svg" xmlns:xlink="http://www.w3.org/1999/xlink">
    <!-- Generator: Sketch 3.7.2 (28276) - http://www.bohemiancoding.com/sketch -->
    <title>with</title>
    <desc>Created with Sketch.</desc>
    <defs>
        <polygon id="path-1" points="0.0003 7 11.9883 7 11.9883 0.0602 0.0003 0.0602 0.0003 7"></polygon>
        <polygon id="path-3" points="11.8206 0.001 0 0.001 0 11.8219 11.8206 11.8219 11.8206 0.001"></polygon>
        <polygon id="path-5" points="9.994 8.9998 9.994 -0.0002 0.9941 -0.0002 0.9941 8.9998 9.994 8.9998"></polygon>
    </defs>
    <g id="20" stroke="none" stroke-width="1" fill="none" fill-rule="evenodd">
        <g id="with">
            <g id="Group-19">
                <path d="M8.1582,7.4814 C8.1582,8.7214 7.1522,9.7294 5.9102,9.7294 C4.6682,9.7294 3.6622,8.7214 3.6622,7.4814 L8.1582,7.4814 Z M5.9082,10.8224 C8.6172,10.8224 10.8202,8.6194 10.8202,5.9124 C10.8202,5.4164 10.7242,4.9474 10.5872,4.4954 C5.9782,4.6074 3.6382,3.1704 2.6412,2.2744 C1.6422,3.1734 1.0002,4.4634 1.0002,5.9124 C1.0002,8.6194 3.2022,10.8224 5.9082,10.8224 L5.9082,10.8224 Z" id="Fill-2" fill="#FFFFFF"></path>
                <path d="M8.9902,14.0605 L2.9962,14.0605 C2.0402,14.0605 1.2412,14.7375 1.0472,15.6365 C1.0172,15.7855 1.0012,15.9395 1.0002,16.0975 L1.0002,19.0005 L2.9962,19.0005 L8.9902,19.0005 L10.9882,19.0005 L10.9882,16.1175 C10.9882,15.9495 10.9702,15.7855 10.9382,15.6275 C10.7402,14.7325 9.9432,14.0605 8.9902,14.0605" id="Fill-4" fill="#FFFFFF"></path>
                <path d="M10.5872,4.4955 C9.9742,2.4805 8.1212,1.0005 5.9082,1.0005 C4.6492,1.0005 3.5112,1.4915 2.6412,2.2735 C3.6382,3.1705 5.9782,4.6075 10.5872,4.4955" id="Fill-6" fill="#EC4380"></path>
                <g id="Group-10" transform="translate(0.000000, 13.000000)">
                    <mask id="mask-2" fill="white">
                        <use xlink:href="#path-1"></use>
                    </mask>
                    <g id="Clip-9"></g>
                    <path d="M10.9883,3.1172 L10.9883,6.0002 L8.9903,6.0002 L2.9963,6.0002 L1.0003,6.0002 L1.0003,3.0972 L1.0003,3.0582 C1.0003,2.9132 1.0173,2.7732 1.0473,2.6362 C1.2413,1.7372 2.0403,1.0602 2.9963,1.0602 L8.9903,1.0602 C9.9433,1.0602 10.7403,1.7332 10.9383,2.6272 C10.9693,2.7662 10.9883,2.9102 10.9883,3.0582 L10.9883,3.1172 Z M8.9903,0.0602 L2.9963,0.0602 C1.3473,0.0602 0.0003,1.4102 0.0003,3.0582 L0.0003,6.0002 C0.0003,6.5502 0.4503,7.0002 1.0003,7.0002 L2.9963,7.0002 L8.9903,7.0002 L10.9883,7.0002 C11.5383,7.0002 11.9883,6.5502 11.9883,6.0002 L11.9883,3.0582 C11.9883,1.4102 10.6383,0.0602 8.9903,0.0602 L8.9903,0.0602 Z" id="Fill-8" fill="#455B65" mask="url(#mask-2)"></path>
                </g>
                <g id="Group-13">
                    <mask id="mask-4" fill="white">
                        <use xlink:href="#path-3"></use>
                    </mask>
                    <g id="Clip-12"></g>
                    <path d="M2.6416,2.2739 C3.5116,1.4909 4.6496,1.0009 5.9086,1.0009 C8.1216,1.0009 9.9746,2.4809 10.5876,4.4959 C10.7246,4.9469 10.8206,5.4159 10.8206,5.9119 C10.8206,8.6199 8.6176,10.8219 5.9086,10.8219 C3.2026,10.8219 0.9996,8.6199 0.9996,5.9119 C0.9996,4.4639 1.6416,3.1739 2.6416,2.2739 M5.9086,11.8219 C9.1736,11.8219 11.8206,9.1749 11.8206,5.9119 C11.8206,2.6479 9.1736,0.0009 5.9086,0.0009 C2.6466,0.0009 -0.0004,2.6479 -0.0004,5.9119 C-0.0004,9.1749 2.6466,11.8219 5.9086,11.8219" id="Fill-11" fill="#455B65" mask="url(#mask-4)"></path>
                </g>
                <g id="Group-16" transform="translate(10.000000, 7.000000)">
                    <mask id="mask-6" fill="white">
                        <use xlink:href="#path-5"></use>
                    </mask>
                    <g id="Clip-15"></g>
                    <path d="M8.9941,5.2998 L7.2931,5.2998 L6.2931,5.2998 L6.2931,6.2998 L6.2931,7.9998 L4.6931,7.9998 L4.6931,6.2998 L4.6931,5.2998 L3.6931,5.2998 L1.9941,5.2998 L1.9941,3.6998 L3.6931,3.6998 L4.6931,3.6998 L4.6931,2.6998 L4.6931,0.9998 L6.2931,0.9998 L6.2931,2.6998 L6.2931,3.6998 L7.2931,3.6998 L8.9941,3.6998 L8.9941,5.2998 Z M9.0941,2.6998 L7.2931,2.6998 L7.2931,0.9008 C7.2931,0.4048 6.8891,-0.0002 6.3941,-0.0002 L4.5941,-0.0002 C4.0991,-0.0002 3.6931,0.4048 3.6931,0.9008 L3.6931,2.6998 L1.8941,2.6998 C1.3981,2.6998 0.9941,3.1058 0.9941,3.5998 L0.9941,5.4008 C0.9941,5.8948 1.3981,6.2998 1.8941,6.2998 L3.6931,6.2998 L3.6931,8.0998 C3.6931,8.5948 4.0991,8.9998 4.5941,8.9998 L6.3941,8.9998 C6.8891,8.9998 7.2931,8.5948 7.2931,8.0998 L7.2931,6.2998 L9.0941,6.2998 C9.5881,6.2998 9.9941,5.8948 9.9941,5.4008 L9.9941,3.5998 C9.9941,3.1058 9.5881,2.6998 9.0941,2.6998 L9.0941,2.6998 Z" id="Fill-14" fill="#455B65" mask="url(#mask-6)"></path>
                </g>
                <path d="M5.9102,9.7295 C7.1522,9.7295 8.1582,8.7215 8.1582,7.4815 L3.6622,7.4815 C3.6622,8.7215 4.6682,9.7295 5.9102,9.7295" id="Fill-17" fill="#EC4380"></path>
                <polygon id="Fill-1" fill="#F9AC1E" points="16.293 10.7002 16.293 9.7002 16.293 8.0002 14.693 8.0002 14.693 9.7002 14.693 10.7002 13.693 10.7002 11.994 10.7002 11.994 12.3002 13.693 12.3002 14.693 12.3002 14.693 13.3002 14.693 15.0002 16.293 15.0002 16.293 13.3002 16.293 12.3002 17.293 12.3002 18.994 12.3002 18.994 10.7002 17.293 10.7002"></polygon>
            </g>
        </g>
    </g>
</svg>