<?xml version="1.0" encoding="utf-8"?>
<!-- Generator: Adobe Illustrator 16.0.0, SVG Export Plug-In . SVG Version: 6.00 Build 0)  -->
<!DOCTYPE svg PUBLIC "-//W3C//DTD SVG 1.1//EN" "http://www.w3.org/Graphics/SVG/1.1/DTD/svg11.dtd">
<svg version="1.1" id="Layer_1" xmlns="http://www.w3.org/2000/svg" xmlns:xlink="http://www.w3.org/1999/xlink" x="0px" y="0px"
	 width="30px" height="30px" viewBox="0 0 30 30" enable-background="new 0 0 30 30" xml:space="preserve">
<g>
	<g>
		<path d="M23.811,22.644c-1.143,0-2.041,0.897-2.041,2.213c0,1.245,0.898,2.144,2.041,2.144c1.141,0,2.076-0.898,2.076-2.144
			C25.887,23.541,24.951,22.644,23.811,22.644z"/>
		<path d="M27.234,8.707c0,3.666-5.498,5.637-4.738,11.031h2.489C24.434,14.896,30,13.063,30,8.533C30,5.111,27.648,3,24.087,3
			c-2.455,0-4.356,1.211-5.809,2.871l1.624,1.486c1.073-1.244,2.456-2.005,3.977-2.005C26.092,5.353,27.234,6.873,27.234,8.707z"/>
		<path d="M10.791,18.672H3.598C1.619,18.672,0,20.289,0,22.268V26c0,0.551,0.451,1,1,1c0,0,0.619,0,2.598,0h7.193
			c1.979,0,2.594,0,2.594,0c0.551,0,1-0.449,1-1v-3.732C14.385,20.289,12.77,18.672,10.791,18.672z M10.236,19.672L7.57,22.336
			c-0.188,0.188-0.52,0.188-0.707,0l-2.664-2.664H10.236z M13.385,26h-2.594H3.598H1v-3.732c0-1.207,0.832-2.215,1.951-2.504
			l-0.037,0.037l3.242,3.242c0.293,0.293,0.676,0.439,1.061,0.439s0.768-0.146,1.061-0.439l3.244-3.242l-0.018-0.016
			c1.082,0.313,1.881,1.301,1.881,2.482V26z"/>
		<path d="M7.092,17.186c3.92,0,7.092-3.176,7.092-7.092C14.184,6.176,11.012,3,7.092,3C3.178,3,0,6.176,0,10.094
			C0,14.01,3.178,17.186,7.092,17.186z M3.014,5.581c1.109,1.069,3.971,3.009,9.924,2.81c0.158,0.541,0.246,1.111,0.246,1.703
			c0,3.359-2.732,6.092-6.092,6.092S1,13.453,1,10.094C1,8.305,1.781,6.697,3.014,5.581z"/>
		<path d="M7.094,14.557c1.49,0,2.699-1.209,2.699-2.699H4.395C4.395,13.348,5.604,14.557,7.094,14.557z"/>
	</g>
	<rect fill="none" width="30" height="30"/>
</g>
</svg>
