<?xml version="1.0" encoding="UTF-8" standalone="no"?>
<svg width="20px" height="20px" viewBox="0 0 20 20" version="1.1" xmlns="http://www.w3.org/2000/svg" xmlns:xlink="http://www.w3.org/1999/xlink">
    <!-- Generator: Sketch 3.7.2 (28276) - http://www.bohemiancoding.com/sketch -->
    <title>with 1</title>
    <desc>Created with Sketch.</desc>
    <defs>
        <rect id="path-1" x="0" y="0" width="20" height="20"></rect>
    </defs>
    <g id="20" stroke="none" stroke-width="1" fill="none" fill-rule="evenodd">
        <g id="with-1">
            <g id="Group">
                <mask id="mask-2" fill="white">
                    <use xlink:href="#path-1"></use>
                </mask>
                <g id="Mask"></g>
                <g mask="url(#mask-2)" fill="#000000">
                    <path d="M10.992,19 L8.993,19 L2.997,19 L1.001,19 L1.001,16.059 C1.001,14.956 1.896,14.06 2.997,14.06 L8.993,14.06 C10.095,14.06 10.992,14.956 10.992,16.059 L10.992,19 Z M8.993,13.06 L2.997,13.06 C1.348,13.06 0,14.409 0,16.059 L0,19 C0,19.551 0.45,20 1.001,20 L2.997,20 L8.993,20 L10.992,20 C11.541,20 11.992,19.551 11.992,19 L11.992,16.059 C11.992,14.409 10.642,13.06 8.993,13.06 L8.993,13.06 Z" id="Fill-1"></path>
                    <path d="M2.2855,2.627 C3.3155,3.564 5.6235,5.009 10.0765,5.009 C10.2875,5.009 10.5105,5.001 10.7305,4.995 C10.7875,5.293 10.8235,5.598 10.8235,5.911 C10.8235,8.619 8.6185,10.821 5.9105,10.821 C3.2025,10.821 1.0005,8.619 1.0005,5.911 C1.0005,4.644 1.4955,3.499 2.2855,2.627 M5.9105,1 C7.9405,1 9.6865,2.237 10.4345,3.997 C6.1765,4.069 3.9805,2.763 3.0385,1.946 C3.8475,1.357 4.8345,1 5.9105,1 M5.9105,11.821 C9.1775,11.821 11.8235,9.175 11.8235,5.911 C11.8235,2.647 9.1775,0 5.9105,0 C4.2425,0 2.7395,0.694 1.6635,1.806 L1.5945,1.85 C1.5955,1.852 1.6035,1.863 1.6065,1.869 C0.6135,2.926 0.0005,4.345 0.0005,5.911 C0.0005,9.175 2.6475,11.821 5.9105,11.821" id="Fill-4"></path>
                    <path d="M18.9998,12.2998 L17.2978,12.2998 L16.2978,12.2998 L16.2978,13.2998 L16.2978,14.9988 L14.6978,14.9988 L14.6978,13.2998 L14.6978,12.2998 L13.6978,12.2998 L11.9978,12.2998 L11.9978,10.6998 L13.6978,10.6998 L14.6978,10.6998 L14.6978,9.6998 L14.6978,7.9988 L16.2978,7.9988 L16.2978,9.6998 L16.2978,10.6998 L17.2978,10.6998 L18.9998,10.6998 L18.9998,12.2998 Z M19.0998,9.6998 L17.2978,9.6998 L17.2978,7.8998 C17.2978,7.4048 16.8938,6.9988 16.3998,6.9988 L14.5988,6.9988 C14.1038,6.9988 13.6978,7.4048 13.6978,7.8998 L13.6978,9.6998 L11.8978,9.6998 C11.4018,9.6998 10.9978,10.1048 10.9978,10.5988 L10.9978,12.3998 C10.9978,12.8938 11.4018,13.2998 11.8978,13.2998 L13.6978,13.2998 L13.6978,15.0998 C13.6978,15.5958 14.1038,15.9998 14.5988,15.9998 L16.3998,15.9998 C16.8938,15.9998 17.2978,15.5958 17.2978,15.0998 L17.2978,13.2998 L19.0998,13.2998 C19.5938,13.2998 20.0008,12.8938 20.0008,12.3998 L20.0008,10.5988 C20.0008,10.1048 19.5938,9.6998 19.0998,9.6998 L19.0998,9.6998 Z" id="Fill-6"></path>
                    <path d="M5.9124,9.7295 C7.1544,9.7295 8.1614,8.7215 8.1614,7.4815 L3.6634,7.4815 C3.6634,8.7215 4.6694,9.7295 5.9124,9.7295" id="Fill-9"></path>
                </g>
            </g>
        </g>
    </g>
</svg>