<?xml version="1.0" encoding="utf-8"?>
<!-- Generator: Adobe Illustrator 16.0.0, SVG Export Plug-In . SVG Version: 6.00 Build 0)  -->
<!DOCTYPE svg PUBLIC "-//W3C//DTD SVG 1.1//EN" "http://www.w3.org/Graphics/SVG/1.1/DTD/svg11.dtd">
<svg version="1.1" id="Layer_1" xmlns="http://www.w3.org/2000/svg" xmlns:xlink="http://www.w3.org/1999/xlink" x="0px" y="0px"
	 width="50px" height="50px" viewBox="0 0 50 50" enable-background="new 0 0 50 50" xml:space="preserve">
<path d="M25,0C11.193,0,0,11.192,0,25s11.193,25,25,25c13.808,0,25-11.192,25-25S38.808,0,25,0 M33,25.221
	c0,0.365-0.296,0.66-0.66,0.66h-6.458v6.458c0,0.365-0.296,0.661-0.661,0.661h-0.441c-0.365,0-0.661-0.296-0.661-0.661v-6.458
	h-6.457c-0.365,0-0.661-0.295-0.661-0.66v-0.442c0-0.365,0.296-0.66,0.661-0.66h6.457V17.66c0-0.365,0.296-0.66,0.661-0.66h0.441
	c0.365,0,0.661,0.295,0.661,0.66v6.458h6.458c0.364,0,0.66,0.295,0.66,0.66V25.221z"/>
</svg>
