<?xml version="1.0" encoding="utf-8"?>
<!-- Generator: Adobe Illustrator 16.0.0, SVG Export Plug-In . SVG Version: 6.00 Build 0)  -->
<!DOCTYPE svg PUBLIC "-//W3C//DTD SVG 1.1//EN" "http://www.w3.org/Graphics/SVG/1.1/DTD/svg11.dtd">
<svg version="1.1" id="Layer_1" xmlns="http://www.w3.org/2000/svg" xmlns:xlink="http://www.w3.org/1999/xlink" x="0px" y="0px"
	 width="24px" height="24px" viewBox="0 0 24 24" enable-background="new 0 0 24 24" xml:space="preserve">
<path d="M24,4c0-2.209-1.791-4-4-4H4C1.791,0,0,1.791,0,4v16c0,2.209,1.791,4,4,4h16c2.209,0,4-1.791,4-4V4 M8.833,12.572
	c-0.316-0.316-0.316-0.826,0-1.144l5.191-5.192c0.316-0.314,0.827-0.314,1.143,0c0.315,0.315,0.315,0.828,0,1.143l-4.621,4.623
	l4.621,4.619c0.315,0.316,0.315,0.828,0,1.142C15.009,17.922,14.803,18,14.596,18c-0.206,0-0.413-0.078-0.571-0.237L8.833,12.572"/>
</svg>
