<?xml version="1.0" encoding="utf-8"?>
<!-- Generator: Adobe Illustrator 16.0.0, SVG Export Plug-In . SVG Version: 6.00 Build 0)  -->
<!DOCTYPE svg PUBLIC "-//W3C//DTD SVG 1.1//EN" "http://www.w3.org/Graphics/SVG/1.1/DTD/svg11.dtd">
<svg version="1.1" id="Layer_1" xmlns="http://www.w3.org/2000/svg" xmlns:xlink="http://www.w3.org/1999/xlink" x="0px" y="0px"
	 width="10.462px" height="8.958px" viewBox="0 0 10.462 8.958" enable-background="new 0 0 10.462 8.958" xml:space="preserve">
<g>
	<g>
		<path d="M0.75,3.809c-0.192,0-0.384-0.073-0.53-0.22c-0.293-0.293-0.293-0.768,0-1.061L2.528,0.22
			c0.293-0.293,0.768-0.293,1.061,0s0.293,0.768,0,1.061L1.28,3.589C1.134,3.735,0.942,3.809,0.75,3.809z"/>
	</g>
	<g>
		<path d="M3.059,6.118c-0.192,0-0.384-0.073-0.53-0.22L0.22,3.589c-0.293-0.293-0.293-0.768,0-1.061
			c0.293-0.293,0.768-0.293,1.061,0l2.309,2.31c0.293,0.293,0.293,0.768,0,1.061C3.442,6.045,3.25,6.118,3.059,6.118z"/>
	</g>
	<g>
		<path d="M7.137,8.958H0.75C0.336,8.958,0,8.622,0,8.208s0.336-0.75,0.75-0.75h6.387c1.006,0,1.825-0.818,1.825-1.824
			S8.143,3.81,7.137,3.81H1.304c-0.414,0-0.75-0.336-0.75-0.75s0.336-0.75,0.75-0.75h5.833c1.833,0,3.325,1.491,3.325,3.324
			S8.97,8.958,7.137,8.958z"/>
	</g>
</g>
</svg>
