<?xml version="1.0" encoding="utf-8"?>
<!-- Generator: Adobe Illustrator 16.0.0, SVG Export Plug-In . SVG Version: 6.00 Build 0)  -->
<!DOCTYPE svg PUBLIC "-//W3C//DTD SVG 1.1//EN" "http://www.w3.org/Graphics/SVG/1.1/DTD/svg11.dtd">
<svg version="1.1" id="Layer_1" xmlns="http://www.w3.org/2000/svg" xmlns:xlink="http://www.w3.org/1999/xlink" x="0px" y="0px"
	 width="17.999px" height="15.383px" viewBox="0 0 17.999 15.383" enable-background="new 0 0 17.999 15.383" xml:space="preserve">
<g>
	<path fill="#FFFFFF" d="M6.895,0.468h1.912v12.427c0,1.053-0.861,1.912-1.912,1.912H6.605c-1.051,0-1.912-0.859-1.912-1.912V0.468
		h1.912H6.895z"/>
	<path fill="#455B64" d="M7.371,15.276H6.127c-1.049,0-1.901-0.854-1.901-1.902V0.467C4.226,0.209,4.435,0,4.693,0h4.112
		c0.259,0,0.468,0.209,0.468,0.467v12.907C9.273,14.422,8.421,15.276,7.371,15.276 M5.16,0.935v12.438
		c0,0.533,0.435,0.967,0.967,0.967h1.244c0.533,0,0.968-0.434,0.968-0.967V0.935H5.16z"/>
	<path fill="#455B64" d="M17.299,15.383h-2.39c-0.388,0-0.701-0.314-0.701-0.701c0-0.389,0.313-0.701,0.701-0.701h2.39
		c0.387,0,0.7,0.313,0.7,0.701C17.999,15.069,17.686,15.383,17.299,15.383"/>
	<path fill="#455B64" d="M17.299,1.645h-2.39c-0.388,0-0.701-0.314-0.701-0.701c0-0.387,0.313-0.702,0.701-0.702h2.39
		c0.387,0,0.7,0.315,0.7,0.702C17.999,1.331,17.686,1.645,17.299,1.645"/>
	<path fill="#455B64" d="M16.104,15.383c-0.387,0-0.701-0.314-0.701-0.701V0.943c0-0.387,0.314-0.701,0.701-0.701
		s0.701,0.314,0.701,0.701v13.739C16.805,15.069,16.49,15.383,16.104,15.383"/>
	<path fill="#59C1EE" d="M13.033,2.581c0,1.1-0.9,2-2,2H2.467c-1.1,0-2-0.9-2-2V2.467c0-1.1,0.9-2,2-2h8.566c1.1,0,2,0.9,2,2V2.581z
		"/>
	<path fill="#455B64" d="M11.631,5.049H1.869C0.839,5.049,0,4.21,0,3.179V1.87C0,0.839,0.839,0,1.869,0h9.762
		C12.662,0,13.5,0.839,13.5,1.87v1.309C13.5,4.21,12.662,5.049,11.631,5.049 M1.869,0.935c-0.516,0-0.935,0.42-0.935,0.935v1.309
		c0,0.515,0.419,0.935,0.935,0.935h9.762c0.516,0,0.935-0.42,0.935-0.935V1.87c0-0.515-0.419-0.935-0.935-0.935H1.869z"/>
</g>
</svg>
