<?xml version="1.0" encoding="utf-8"?>
<!-- Generator: Adobe Illustrator 16.0.0, SVG Export Plug-In . SVG Version: 6.00 Build 0)  -->
<!DOCTYPE svg PUBLIC "-//W3C//DTD SVG 1.1//EN" "http://www.w3.org/Graphics/SVG/1.1/DTD/svg11.dtd">
<svg version="1.1" id="Layer_1" xmlns="http://www.w3.org/2000/svg" xmlns:xlink="http://www.w3.org/1999/xlink" x="0px" y="0px"
	 width="18px" height="15.384px" viewBox="0 0 18 15.384" enable-background="new 0 0 18 15.384" xml:space="preserve">
<g>
	<path d="M17.299,13.98h-0.492V1.645h0.492C17.686,1.645,18,1.331,18,0.943c0-0.387-0.314-0.701-0.701-0.701h-1.193H14.91
		c-0.387,0-0.701,0.314-0.701,0.701c0,0.387,0.314,0.701,0.701,0.701h0.492V13.98H14.91c-0.387,0-0.701,0.313-0.701,0.701
		s0.314,0.702,0.701,0.702h1.195h1.193c0.387,0,0.701-0.314,0.701-0.702S17.686,13.98,17.299,13.98"/>
	<path d="M13.035,0.647c-0.057-0.064-0.117-0.124-0.18-0.179C12.527,0.18,12.102,0,11.631,0H8.807H4.694H1.87
		C1.4,0,0.975,0.18,0.646,0.468C0.583,0.523,0.523,0.583,0.468,0.646C0.18,0.975,0,1.4,0,1.87v1.309c0,0.47,0.18,0.895,0.468,1.224
		c0.055,0.064,0.115,0.123,0.178,0.179C0.975,4.869,1.4,5.049,1.87,5.049h2.356v8.325c0,1.049,0.853,1.9,1.901,1.9h1.245
		c1.049,0,1.902-0.852,1.902-1.9V5.049h2.356c0.471,0,0.896-0.18,1.225-0.467c0.063-0.056,0.123-0.116,0.18-0.179
		c0.287-0.329,0.467-0.754,0.467-1.224V1.87C13.502,1.4,13.322,0.976,13.035,0.647 M8.339,13.374c0,0.533-0.434,0.966-0.967,0.966
		H6.127c-0.532,0-0.966-0.433-0.966-0.966V5.049h3.178V13.374z M8.339,4.114H5.161H4.694H4.226H1.87
		c-0.516,0-0.935-0.42-0.935-0.935V1.87c0-0.515,0.419-0.935,0.935-0.935h2.356h0.468h0.467h3.178h0.468h0.467h2.356
		c0.516,0,0.936,0.42,0.936,0.935v1.309c0,0.515-0.42,0.935-0.936,0.935H9.274H8.807H8.339z"/>
</g>
</svg>
