<?xml version="1.0" encoding="utf-8"?>
<!-- Generator: Adobe Illustrator 16.0.0, SVG Export Plug-In . SVG Version: 6.00 Build 0)  -->
<!DOCTYPE svg PUBLIC "-//W3C//DTD SVG 1.1//EN" "http://www.w3.org/Graphics/SVG/1.1/DTD/svg11.dtd">
<svg version="1.1" id="Layer_1" xmlns="http://www.w3.org/2000/svg" xmlns:xlink="http://www.w3.org/1999/xlink" x="0px" y="0px"
	 width="8.111px" height="8.111px" viewBox="0 0 8.111 8.111" enable-background="new 0 0 8.111 8.111" xml:space="preserve">
<g>
	<path d="M5.611,8.111H2.5c-1.378,0-2.5-1.121-2.5-2.5V2.5C0,1.121,1.122,0,2.5,0h3.111c1.378,0,2.5,1.121,2.5,2.5v3.111
		C8.111,6.99,6.99,8.111,5.611,8.111z M2.5,1C1.673,1,1,1.673,1,2.5v3.111c0,0.827,0.673,1.5,1.5,1.5h3.111
		c0.827,0,1.5-0.673,1.5-1.5V2.5c0-0.827-0.673-1.5-1.5-1.5H2.5z"/>
</g>
</svg>
