<?xml version="1.0" encoding="utf-8"?>
<!-- Generator: Adobe Illustrator 16.0.0, SVG Export Plug-In . SVG Version: 6.00 Build 0)  -->
<!DOCTYPE svg PUBLIC "-//W3C//DTD SVG 1.1//EN" "http://www.w3.org/Graphics/SVG/1.1/DTD/svg11.dtd">
<svg version="1.1" id="Layer_1" xmlns="http://www.w3.org/2000/svg" xmlns:xlink="http://www.w3.org/1999/xlink" x="0px" y="0px"
	 width="40px" height="40.003px" viewBox="0 0 40 40.003" enable-background="new 0 0 40 40.003" xml:space="preserve">
<g>
	<path fill="#EE4481" d="M7.035,16.767c0,0,0.007,0.008,0.012,0.011c1.304,1.304,2.872,1.979,4.697,2.026
		c0.069,0.003,0.139,0.003,0.21,0.003c0.072,0,0.144,0,0.222-0.003c0.547-0.017,1.071-0.09,1.568-0.22
		c0.272-0.071,0.48-0.229,0.626-0.473c0.083-0.142,0.13-0.288,0.141-0.437v-0.146c-0.005-0.064-0.017-0.128-0.034-0.196
		c-0.071-0.271-0.231-0.481-0.475-0.624c-0.246-0.146-0.507-0.179-0.781-0.109c-0.35,0.094-0.717,0.143-1.103,0.151
		c-0.055,0.005-0.111,0.005-0.164,0.005c-1.348,0-2.501-0.477-3.455-1.429c-0.004-0.003-0.007-0.007-0.011-0.01
		c-0.951-0.956-1.426-2.102-1.426-3.442c0-1.342,0.477-2.491,1.43-3.442V8.429l0.007-0.004c0.954-0.952,2.107-1.429,3.455-1.429
		c0.053,0,0.109,0,0.164,0.003c0.386,0.011,0.757,0.063,1.106,0.154c0.278,0.069,0.537,0.03,0.78-0.116
		c0.245-0.142,0.404-0.352,0.473-0.624c0.019-0.076,0.029-0.144,0.034-0.215V6.1c-0.007-0.158-0.056-0.314-0.144-0.466
		c-0.146-0.243-0.354-0.399-0.628-0.471c-0.496-0.129-1.019-0.2-1.563-0.217c-0.078,0-0.15-0.001-0.222-0.001
		c-1.916,0-3.552,0.675-4.907,2.027v0.004L7.038,6.983H7.035c-1.354,1.354-2.029,2.981-2.029,4.891
		C5.005,13.781,5.681,15.41,7.035,16.767"/>
	<path fill="#F89B1F" d="M18.045,18.901c0.282,0,0.523-0.101,0.725-0.3v-0.003c0.201-0.199,0.302-0.438,0.303-0.724l0.004-11.832
		c-0.005-0.269-0.106-0.504-0.302-0.697l-0.002-0.003c-0.202-0.198-0.442-0.3-0.723-0.3h-0.007c-0.28,0-0.519,0.102-0.717,0.3
		c-0.201,0.201-0.305,0.442-0.306,0.727l-0.003,11.806c0,0.283,0.099,0.523,0.303,0.724C17.522,18.799,17.76,18.899,18.045,18.901"
		/>
	<path fill="#02679E" d="M18.821,21.217c-0.279,0-0.519,0.099-0.721,0.295l-5.193,5.181l-5.179-5.167
		c-0.201-0.204-0.445-0.304-0.729-0.304c-0.283,0-0.526,0.1-0.725,0.304c-0.203,0.198-0.302,0.439-0.302,0.719
		c0,0.285,0.099,0.527,0.302,0.729l5.605,5.594v5.477c0,0.283,0.101,0.523,0.304,0.727c0.199,0.199,0.442,0.299,0.724,0.299
		c0.285,0,0.527-0.1,0.729-0.299c0.2-0.203,0.3-0.443,0.3-0.727V28.57l5.618-5.602c0.193-0.195,0.294-0.43,0.301-0.699v-0.053
		c-0.005-0.272-0.107-0.502-0.301-0.696l-0.002-0.002c-0.202-0.203-0.441-0.302-0.724-0.302H18.821z"/>
	<path fill="#49AFE3" d="M22.031,33.046c1.309,1.311,2.887,1.986,4.729,2.027h0.359c1.838-0.041,3.414-0.717,4.728-2.031h0.003
		v-0.002c1.32-1.318,1.999-2.926,2.035-4.826v-0.072V27.96c-0.059-1.848-0.738-3.422-2.034-4.717v0.002l-0.001-0.002
		c-1.357-1.352-2.995-2.03-4.912-2.03c-1.919,0-3.557,0.678-4.91,2.03h-0.002c-1.355,1.352-2.033,2.986-2.033,4.898
		c0,1.914,0.678,3.549,2.035,4.9L22.031,33.046z M23.479,24.693c0.955-0.951,2.106-1.428,3.458-1.428
		c1.354,0,2.505,0.477,3.458,1.428l0.002,0.002c0.955,0.955,1.433,2.102,1.433,3.447s-0.478,2.498-1.435,3.449h-0.004
		c-0.952,0.957-2.104,1.432-3.454,1.432s-2.502-0.475-3.453-1.426l-0.005-0.006c-0.955-0.949-1.429-2.104-1.429-3.449
		S22.524,25.646,23.479,24.693"/>
	<path fill="#49AFE3" d="M38.279,18.885h-0.338v15.019c0,0.688-0.146,1.32-0.438,1.875c-0.193,0.365-0.451,0.707-0.768,1.023
		c-0.809,0.811-1.76,1.205-2.906,1.205H13.951v1.191v0.805h20.05c3.301,0,5.999-2.701,5.999-6.002V18.885H38.279z"/>
	<path fill="#EE4481" d="M6.002,0C2.701,0,0.001,2.701,0.001,6v10.678l1.248,1.246l0.694,0.691V6.216c0-0.686,0.15-1.317,0.44-1.877
		C2.574,3.975,2.831,3.63,3.147,3.318c0.812-0.812,1.761-1.2,2.908-1.2h22.739l0.514-1.035L29.845,0H6.002z"/>
	<path fill="#F89B1F" d="M34.001,0h-1.134h-3.021l-0.537,1.083l-0.515,1.035h4.073h0.963c1.146,0,2.098,0.389,2.907,1.196
		c0.315,0.318,0.573,0.66,0.767,1.022c0.291,0.562,0.438,1.193,0.438,1.879v9.019v3.65h0.338H40v-2.193V6
		C40,2.701,37.303,0,34.001,0"/>
	<path fill="#02679E" d="M8.592,38.007H6.055c-0.69,0-1.323-0.152-1.881-0.443c-0.366-0.191-0.714-0.447-1.028-0.762
		c-0.81-0.809-1.204-1.754-1.204-2.898V19.9v-1.285l-0.693-0.691L0,16.679V19.9v14.101c0,3.301,2.701,6,6.002,6h3.33h4.619v-0.803
		v-1.191H8.592z"/>
	<path fill="#F89B1F" d="M35.094,17.454L29.043,5.61c-0.371-0.727-1.41-0.727-1.781,0L21.21,17.454
		c-0.34,0.665,0.144,1.455,0.891,1.455h12.102C34.949,18.909,35.434,18.119,35.094,17.454 M23.94,16.642l4.211-8.244l4.212,8.244
		H23.94z"/>
</g>
</svg>
