<?xml version="1.0" encoding="utf-8"?>
<!-- Generator: Adobe Illustrator 16.0.0, SVG Export Plug-In . SVG Version: 6.00 Build 0)  -->
<!DOCTYPE svg PUBLIC "-//W3C//DTD SVG 1.1//EN" "http://www.w3.org/Graphics/SVG/1.1/DTD/svg11.dtd">
<svg version="1.1" id="Layer_1" xmlns="http://www.w3.org/2000/svg" xmlns:xlink="http://www.w3.org/1999/xlink" x="0px" y="0px"
	 width="8.056px" height="8.055px" viewBox="0 0 8.056 8.055" enable-background="new 0 0 8.056 8.055" xml:space="preserve">
<path d="M7.836,6.774L5.088,4.027L7.835,1.28c0.293-0.293,0.293-0.768,0-1.061s-0.768-0.293-1.061,0L4.027,2.967L1.28,0.22
	c-0.293-0.293-0.768-0.293-1.061,0s-0.293,0.768,0,1.061l2.747,2.747L0.22,6.774c-0.293,0.293-0.293,0.768,0,1.061
	c0.146,0.146,0.338,0.22,0.53,0.22s0.384-0.073,0.53-0.22l2.748-2.747l2.748,2.747c0.146,0.146,0.338,0.22,0.53,0.22
	s0.384-0.073,0.53-0.22C8.129,7.542,8.129,7.067,7.836,6.774z"/>
</svg>
