<?xml version="1.0" encoding="utf-8"?>
<!-- Generator: Adobe Illustrator 16.0.0, SVG Export Plug-In . SVG Version: 6.00 Build 0)  -->
<!DOCTYPE svg PUBLIC "-//W3C//DTD SVG 1.1//EN" "http://www.w3.org/Graphics/SVG/1.1/DTD/svg11.dtd">
<svg version="1.1" id="Layer_1" xmlns="http://www.w3.org/2000/svg" xmlns:xlink="http://www.w3.org/1999/xlink" x="0px" y="0px"
	 width="12.018px" height="11.58px" viewBox="0 0 12.018 11.58" enable-background="new 0 0 12.018 11.58" xml:space="preserve">
<g>
	<g>
		<path d="M3.205,11.58c-0.123,0-0.242-0.026-0.355-0.078c-0.301-0.141-0.494-0.442-0.494-0.771V9.556C0.968,9.154,0,7.892,0,6.406
			V3.287C0,1.475,1.475,0,3.287,0h5.446c1.812,0,3.285,1.475,3.285,3.287v3.119c0,1.812-1.474,3.286-3.285,3.286H5.752l-2,1.688
			C3.597,11.51,3.403,11.58,3.205,11.58z M3.287,1C2.026,1,1,2.026,1,3.287v3.119C1,7.541,1.813,8.488,2.932,8.66l0.424,0.064v1.681
			l2.03-1.713h3.346c1.26,0,2.285-1.025,2.285-2.286V3.287C11.018,2.026,9.993,1,8.733,1H3.287z"/>
	</g>
	<g>
		<path d="M8.991,6.663H3.029c-0.288,0-0.523-0.234-0.523-0.523s0.235-0.523,0.523-0.523h5.961c0.289,0,0.523,0.234,0.523,0.523
			S9.28,6.663,8.991,6.663"/>
	</g>
	<g>
		<path d="M8.991,4.176H3.029c-0.288,0-0.523-0.233-0.523-0.522S2.741,3.13,3.029,3.13h5.961c0.289,0,0.523,0.234,0.523,0.523
			S9.28,4.176,8.991,4.176"/>
	</g>
</g>
</svg>
