<?xml version="1.0" encoding="utf-8"?>
<!-- Generator: Adobe Illustrator 16.0.0, SVG Export Plug-In . SVG Version: 6.00 Build 0)  -->
<!DOCTYPE svg PUBLIC "-//W3C//DTD SVG 1.1//EN" "http://www.w3.org/Graphics/SVG/1.1/DTD/svg11.dtd">
<svg version="1.1" id="Layer_1" xmlns="http://www.w3.org/2000/svg" xmlns:xlink="http://www.w3.org/1999/xlink" x="0px" y="0px"
	 width="17.989px" height="17.316px" viewBox="0 0 17.989 17.316" enable-background="new 0 0 17.989 17.316" xml:space="preserve">
<g>
	<path d="M4.687,17.316c-0.153,0-0.31-0.034-0.45-0.101c-0.378-0.176-0.621-0.557-0.621-0.971v-1.984C1.495,13.729,0,11.838,0,9.604
		V4.814C0,2.16,2.159,0,4.814,0h8.362c2.654,0,4.813,2.16,4.813,4.814v4.789c0,2.654-2.158,4.814-4.813,4.814H8.513l-3.136,2.646
		C5.184,17.227,4.939,17.316,4.687,17.316 M4.814,1.07c-2.063,0-3.743,1.681-3.743,3.744v4.789c0,1.857,1.33,3.409,3.161,3.69
		l0.455,0.069v2.882l3.435-2.898h5.055c2.063,0,3.74-1.68,3.74-3.743V4.814c0-2.063-1.678-3.744-3.74-3.744H4.814z"/>
	<path d="M13.571,9.998H4.417c-0.442,0-0.804-0.36-0.804-0.804s0.361-0.804,0.804-0.804h9.153c0.443,0,0.804,0.36,0.804,0.804
		S14.014,9.998,13.571,9.998"/>
	<path d="M13.571,6.179H4.417c-0.442,0-0.804-0.359-0.804-0.803c0-0.444,0.361-0.804,0.804-0.804h9.153
		c0.443,0,0.804,0.359,0.804,0.804C14.375,5.819,14.014,6.179,13.571,6.179"/>
</g>
</svg>
