<?xml version="1.0" encoding="utf-8"?>
<!-- Generator: Adobe Illustrator 16.0.0, SVG Export Plug-In . SVG Version: 6.00 Build 0)  -->
<!DOCTYPE svg PUBLIC "-//W3C//DTD SVG 1.1//EN" "http://www.w3.org/Graphics/SVG/1.1/DTD/svg11.dtd">
<svg version="1.1" id="Layer_1" xmlns="http://www.w3.org/2000/svg" xmlns:xlink="http://www.w3.org/1999/xlink" x="0px" y="0px"
	 width="18px" height="18px" viewBox="0 0 18 18" enable-background="new 0 0 18 18" xml:space="preserve">
<g>
	<path d="M9.186,12.575c-0.274,0-0.498-0.091-0.498-0.091c-0.243-0.086-0.461-0.233-0.623-0.427l-4.292-3.9
		c-0.413-0.49-0.491-1.016-0.264-1.532c0.326-0.724,1.067-0.72,1.301-0.724l1.924,0.004v-4.8c0-0.404,0.161-0.65,0.299-0.786
		C7.243,0.107,7.545,0,7.924,0h0.004h2.506h0.004c0.382,0,0.681,0.107,0.894,0.319c0.138,0.136,0.3,0.382,0.3,0.786v4.8l1.922-0.004
		c0.24-0.002,0.974-0.003,1.299,0.721v0.003c0.229,0.517,0.15,1.042-0.217,1.484l-4.383,3.996c-0.134,0.164-0.341,0.299-0.578,0.381
		C9.674,12.486,9.424,12.575,9.186,12.575 M4.802,6.876c-0.337,0-0.373,0.081-0.402,0.146C4.323,7.193,4.345,7.328,4.475,7.484
		l4.293,3.899c0.127,0.146,0.268,0.211,0.414,0.214c0.145-0.003,0.285-0.067,0.367-0.165l4.383-3.996
		c0.084-0.108,0.105-0.242,0.029-0.416c-0.029-0.065-0.068-0.145-0.4-0.145h-0.006l-2.899,0.006V1.105
		c0-0.07-0.015-0.096-0.015-0.099c0,0-0.051-0.031-0.203-0.031h-0.002H7.924l0,0c-0.152,0-0.199,0.03-0.203,0.034
		c0,0-0.014,0.027-0.014,0.096v5.776L4.808,6.876H4.802z"/>
	<path d="M13.979,18H4.021C1.804,18,0,16.196,0,13.979v-1.927c0-0.868,0.707-1.575,1.575-1.575h0.544
		c0.868,0,1.574,0.707,1.574,1.575v1.927c0,0.173,0.156,0.329,0.328,0.329h9.957c0.172,0,0.328-0.156,0.328-0.329v-1.927
		c0-0.868,0.707-1.575,1.574-1.575h0.545c0.868,0,1.574,0.707,1.574,1.575v1.927C18,16.196,16.195,18,13.979,18 M1.575,11.451
		c-0.325,0-0.601,0.275-0.601,0.601v1.927c0,1.68,1.367,3.047,3.047,3.047h9.957c1.681,0,3.047-1.367,3.047-3.047v-1.927
		c0-0.325-0.275-0.601-0.6-0.601h-0.545c-0.324,0-0.6,0.275-0.6,0.601v1.927c0,0.707-0.596,1.304-1.303,1.304H4.021
		c-0.707,0-1.303-0.597-1.303-1.304v-1.927c0-0.325-0.275-0.601-0.6-0.601H1.575z"/>
</g>
</svg>
