<?xml version="1.0" encoding="utf-8"?>
<!-- Generator: Adobe Illustrator 16.0.0, SVG Export Plug-In . SVG Version: 6.00 Build 0)  -->
<!DOCTYPE svg PUBLIC "-//W3C//DTD SVG 1.1//EN" "http://www.w3.org/Graphics/SVG/1.1/DTD/svg11.dtd">
<svg version="1.1" id="Layer_1" xmlns="http://www.w3.org/2000/svg" xmlns:xlink="http://www.w3.org/1999/xlink" x="0px" y="0px"
	 width="16.221px" height="23.521px" viewBox="0 0 16.221 23.521" enable-background="new 0 0 16.221 23.521" xml:space="preserve">
<g>
	<path d="M16.156,19.716l-3.045-5.275c1.877-1.482,3.087-3.774,3.087-6.351C16.198,3.622,12.577,0,8.111,0
		C3.643,0,0.022,3.622,0.022,8.089c0,2.577,1.21,4.869,3.089,6.351l-3.046,5.275c-0.092,0.158-0.085,0.354,0.015,0.506
		c0.101,0.152,0.278,0.23,0.459,0.211l3.478-0.434l1.363,3.229c0.071,0.168,0.231,0.281,0.412,0.291
		c0.01,0.002,0.03,0.002,0.03,0.002c0.171,0,0.33-0.092,0.416-0.24l1.873-3.244l1.873,3.244c0.085,0.148,0.245,0.24,0.415,0.24
		c0.009,0,0.02,0,0.03-0.002c0.182-0.01,0.341-0.123,0.413-0.291l1.363-3.229l3.477,0.434c0.184,0.023,0.359-0.059,0.459-0.211
		C16.242,20.069,16.248,19.874,16.156,19.716 M11.963,19.001c-0.212-0.025-0.417,0.092-0.502,0.289l-1.128,2.674l-1.668-2.887
		l1.891-3.275c0.626-0.199,1.214-0.479,1.763-0.814l2.524,4.373L11.963,19.001z M5.889,21.964L4.76,19.29
		c-0.076-0.18-0.251-0.293-0.442-0.293c-0.02,0-0.04,0.002-0.059,0.004l-2.88,0.359l2.523-4.373c0.55,0.336,1.138,0.615,1.764,0.814
		c0.214,0.066,0.432,0.123,0.653,0.172c0.203,0.047,0.41,0.082,0.619,0.111c0.384,0.057,0.774,0.096,1.173,0.096
		c0.4,0,0.79-0.039,1.173-0.096l-1.173,2.031l-0.277,0.48l-0.277,0.479L5.889,21.964z M15.238,8.089
		c0,2.219-1.019,4.203-2.612,5.511c-0.124,0.102-0.255,0.197-0.387,0.291c-0.13,0.092-0.264,0.18-0.4,0.264
		c-0.162,0.1-0.325,0.193-0.494,0.279c-0.448,0.23-0.924,0.412-1.42,0.543C9.344,15.13,8.739,15.22,8.111,15.22
		c-0.627,0-1.233-0.09-1.813-0.242c-0.231-0.061-0.457-0.133-0.679-0.217c-0.254-0.094-0.502-0.203-0.741-0.324
		c-0.17-0.088-0.334-0.182-0.495-0.281c-0.274-0.17-0.54-0.35-0.788-0.555C2,12.292,0.983,10.308,0.983,8.089
		c0-3.931,3.197-7.129,7.128-7.129C12.041,0.96,15.238,4.158,15.238,8.089"/>
	<path d="M7.771,10.239c0.094,0.094,0.217,0.141,0.339,0.141c0.123,0,0.246-0.047,0.34-0.141l2.632-2.631
		c0.187-0.187,0.187-0.491,0-0.678c-0.188-0.188-0.492-0.188-0.679,0L8.109,9.221L5.817,6.93c-0.187-0.188-0.491-0.188-0.678,0
		c-0.188,0.187-0.188,0.491,0,0.678L7.771,10.239z"/>
</g>
</svg>
