<?xml version="1.0" encoding="utf-8"?>
<!-- Generator: Adobe Illustrator 16.0.0, SVG Export Plug-In . SVG Version: 6.00 Build 0)  -->
<!DOCTYPE svg PUBLIC "-//W3C//DTD SVG 1.1//EN" "http://www.w3.org/Graphics/SVG/1.1/DTD/svg11.dtd">
<svg version="1.1" id="Layer_1" xmlns="http://www.w3.org/2000/svg" xmlns:xlink="http://www.w3.org/1999/xlink" x="0px" y="0px"
	 width="24px" height="23.946px" viewBox="0 0 24 23.946" enable-background="new 0 0 24 23.946" xml:space="preserve">
<g>
	<path fill="#FDC516" d="M17.854,21.524l-4.392-6.045c-0.292-0.402-0.784-0.57-1.241-0.474c-0.457-0.097-0.952,0.071-1.242,0.474
		l-4.392,6.045c-0.399,0.547-0.275,1.313,0.27,1.71c0.217,0.156,0.468,0.232,0.717,0.232c0.38,0,0.753-0.174,0.991-0.504l3.656-5.03
		l3.655,5.03c0.238,0.33,0.611,0.504,0.989,0.504c0.251,0,0.502-0.076,0.719-0.232C18.128,22.837,18.252,22.071,17.854,21.524"/>
	<path fill="#455B64" d="M16.865,23.946c-0.545,0-1.06-0.264-1.378-0.702l-3.267-4.496l-3.268,4.497
		c-0.525,0.726-1.64,0.908-2.377,0.377c-0.369-0.27-0.611-0.664-0.681-1.115c-0.072-0.45,0.038-0.898,0.306-1.265l4.391-6.045
		c0.37-0.514,1.002-0.776,1.629-0.68c0.626-0.098,1.257,0.166,1.629,0.68l4.392,6.046c0.268,0.366,0.376,0.814,0.305,1.264
		c-0.07,0.451-0.312,0.846-0.68,1.114C17.572,23.834,17.226,23.946,16.865,23.946 M12.22,17.453c0.154,0,0.298,0.073,0.388,0.198
		l3.655,5.029c0.235,0.323,0.717,0.4,1.04,0.164c0.16-0.116,0.266-0.29,0.297-0.485c0.03-0.197-0.017-0.394-0.133-0.553
		l-0.001-0.001l-4.392-6.045c-0.171-0.234-0.472-0.35-0.755-0.287c-0.065,0.014-0.133,0.014-0.198,0
		c-0.291-0.061-0.585,0.054-0.754,0.285l-4.393,6.047c-0.117,0.16-0.164,0.356-0.134,0.554c0.031,0.195,0.137,0.369,0.298,0.486
		c0.324,0.236,0.806,0.155,1.038-0.164l3.656-5.03C11.922,17.526,12.066,17.453,12.22,17.453"/>
	<path fill="#FFFFFF" d="M3.729,19.014c-1.1,0-2-0.9-2-2V4.075c0-1.1,0.9-2,2-2h16.511c1.1,0,2,0.9,2,2v12.938c0,1.1-0.9,2-2,2
		H3.729z"/>
	<path fill="#455B64" d="M20.321,19.493H3.646c-1.322,0-2.397-1.075-2.397-2.398V3.993c0-1.322,1.075-2.397,2.397-2.397h16.675
		c1.323,0,2.398,1.075,2.398,2.397v13.102C22.719,18.418,21.645,19.493,20.321,19.493 M3.646,2.555
		c-0.793,0-1.438,0.646-1.438,1.438v13.102c0,0.794,0.645,1.439,1.438,1.439h16.675c0.794,0,1.439-0.646,1.439-1.439V3.993
		c0-0.793-0.645-1.438-1.439-1.438H3.646z"/>
	<rect x="0.7" y="0.48" fill="#FDC516" width="23.039" height="3.189"/>
	<path fill="#455B64" d="M23.521,4.149H0.479C0.214,4.149,0,3.936,0,3.67v-3.19C0,0.214,0.214,0,0.479,0h23.042
		C23.786,0,24,0.214,24,0.479v3.19C24,3.936,23.786,4.149,23.521,4.149 M0.959,3.19h22.082V0.959H0.959V3.19z"/>
	<path fill="#FDC516" d="M8.641,7.813l-0.5,0.877L8.641,7.813z"/>
	<polygon fill="#FDC516" points="10.913,8.693 10.636,8.207 10.915,8.694 	"/>
	<polygon fill="#FDC516" points="7.824,15.237 8.783,14.807 8.777,14.809 	"/>
	<polygon fill="#FDC516" points="10.25,14.812 11.205,15.244 10.25,14.811 	"/>
	<polygon fill="#FDC516" points="12.156,15.678 12.156,15.678 11.205,15.244 	"/>
	<polygon fill="#FDC516" points="6.875,15.669 7.824,15.237 6.871,15.669 	"/>
	<path fill="#FDC516" d="M9.146,6.938L8.641,7.813L9.146,6.938z"/>
	<polygon fill="#FDC516" points="9.913,6.937 9.913,6.937 10.636,8.208 	"/>
	<path fill="#F06392" d="M13.43,11.262l0.736-0.717c0.309-0.304,0.204-0.611-0.234-0.684l-2.086-0.356h-0.002l-0.802-0.138
		L10.66,8.693l0.002,0.001l-0.279-0.487L9.66,6.937C9.447,6.568,9.104,6.569,8.894,6.938L8.388,7.812l-0.5,0.877l-0.389,0.67
		L6.701,9.496L4.613,9.842c-0.442,0.073-0.549,0.382-0.238,0.687l0.734,0.72L6.4,12.52l-0.255,1.741l-0.148,0.986
		c-0.064,0.412,0.219,0.604,0.622,0.422l0.953-0.431l0.953-0.43l0.004-0.002l0.732-0.331l0.736,0.336l0.002-0.001l0.953,0.434
		l0.952,0.434c0.4,0.185,0.68-0.006,0.621-0.421l-0.144-0.985l-0.249-1.743L13.43,11.262z"/>
	<path fill="#455B64" d="M7.958,9.168c-0.081,0-0.164-0.021-0.239-0.064c-0.154-0.089-0.24-0.25-0.24-0.415
		c0-0.082,0.02-0.164,0.063-0.238l0.504-0.878C8.177,7.343,8.47,7.265,8.701,7.396c0.154,0.089,0.24,0.25,0.24,0.416
		c0,0.082-0.02,0.164-0.063,0.239L8.374,8.927C8.285,9.082,8.124,9.168,7.958,9.168"/>
	<path fill="#455B64" d="M10.731,9.173c-0.167,0-0.329-0.087-0.417-0.242l-0.277-0.486c-0.035-0.063-0.055-0.129-0.061-0.195V8.247
		V8.246c0-0.001,0-0.001-0.001-0.002V8.243V8.241V8.24V8.238V8.237V8.236V8.235V8.234V8.233V8.232V8.231V8.23H9.975V8.229V8.229
		V8.228V8.227V8.226V8.225V8.224V8.223V8.222V8.221V8.22V8.219V8.218V8.216V8.215V8.214V8.213V8.212V8.21V8.209V8.208V8.207V8.205
		V8.204V8.202V8.201V8.199c0.002-0.101,0.036-0.2,0.098-0.282V7.916l0.001-0.001l0.001-0.001c0,0,0.001,0,0.001-0.001l0.001-0.001
		V7.911l0.001-0.001V7.909c0,0,0.001,0,0.001-0.001l0.001-0.001l0.001-0.001l0.001-0.001V7.904h0.001V7.903l0.001-0.001l0.001-0.001
		L10.085,7.9c0,0,0.001-0.001,0.001,0V7.899h0.001V7.898c0,0,0.001,0,0.001-0.001c0.001,0,0.001-0.001,0.001-0.001l0.001-0.001
		V7.895l0.001-0.001V7.893c0,0,0.001,0,0.001-0.001h0.001V7.891l0.001-0.001l0.001-0.001l0.001-0.001l0.001-0.001
		c0-0.001,0.001-0.001,0.001-0.001H10.1V7.885c0,0,0.001,0,0.001-0.001c0,0,0.001,0,0.001-0.002l0.001-0.001l0.001-0.001
		c0.001-0.001,0.002-0.002,0.002-0.002s0,0,0-0.001l0.001-0.001l0.001-0.001c0.031-0.032,0.068-0.062,0.11-0.085l0.001-0.001
		c0.001,0,0.001,0,0.002-0.001l0.002-0.001c0,0,0.001,0,0.001-0.001c0,0,0.001,0,0.001-0.001h0.001l0.001-0.001h0.001l0.001-0.001
		c0.001,0,0.001,0,0.002-0.001c0,0,0.001,0,0.002,0c0,0,0.001,0,0.002-0.001c0,0,0.002-0.002,0.002-0.001l0.002-0.001
		c0,0,0,0,0-0.001h0.001l0.001-0.001h0.001h0.001V7.776h0.002l0.001-0.001h0.001l0.001-0.001h0.001c0,0-0.003-0.001,0.002-0.001
		l0.001-0.001h0.001V7.771h0.001l0.001-0.001h0.001l0.001-0.001h0.001c0,0,0.001-0.002,0.002-0.001h0.001
		c0-0.001,0.001-0.001,0.001-0.001h0.001h0.001h0.001h0.001c0-0.001,0.001-0.001,0.001-0.001h0.001V7.766h0.001
		c0,0,0.001,0,0.001-0.001h0.001c0,0-0.003-0.001,0.002-0.001h0.001l0.001-0.001h0.001l0.002-0.001c0,0,0.001,0,0.002-0.001h0.002
		V7.76h0.001l0.001-0.001h0.001c0,0,0.001,0,0.002-0.002h0.002c0.001,0-0.001-0.001,0.002-0.001l0.002-0.001
		c0,0,0.001,0,0.002-0.001h0.002c0-0.001,0.001-0.001,0.001-0.001s0.001,0,0.002-0.001h0.002h0.001h0.001c0,0,0.001,0,0.002-0.001
		h0.002c0-0.001,0.001-0.001,0.002-0.001c0,0,0.001,0,0.002-0.001c0.188-0.057,0.41,0.008,0.532,0.179c0,0.001,0,0.001,0.001,0.002
		h0.001v0.001l0.001,0.001c0,0,0-0.002,0.002,0.002c0,0.001,0,0.001,0.001,0.002c0,0.001,0.001,0.001,0.001,0.001v0.001l0.001,0.001
		c0,0.001,0.001,0.001,0.001,0.001V7.94l0.001,0.001l0.001,0.001v0.001c0,0,0.001,0,0.001,0.001h0.001c0,0.001,0,0.001,0,0.002
		c0,0,0.001,0.001,0.001,0.002c0.005,0.007,0.009,0.013,0.013,0.021l0.279,0.486l-0.001,0.002c0.131,0.229,0.05,0.522-0.18,0.653
		C10.894,9.152,10.813,9.173,10.731,9.173"/>
	<path fill="#455B64" d="M7.645,15.717c-0.183,0-0.357-0.104-0.437-0.283c-0.109-0.239-0.001-0.524,0.24-0.634L8.4,14.371
		c0.267-0.12,0.61,0.048,0.671,0.336c0.047,0.221-0.066,0.444-0.272,0.537l-0.957,0.431C7.778,15.704,7.711,15.717,7.645,15.717"/>
	<path fill="#455B64" d="M11.021,15.723c-0.066,0-0.134-0.015-0.199-0.043L9.87,15.246c-0.177-0.08-0.281-0.254-0.281-0.437
		c0-0.066,0.014-0.133,0.043-0.198c0.11-0.24,0.395-0.345,0.635-0.237l0.954,0.433c0.177,0.081,0.28,0.255,0.28,0.437
		c0,0.067-0.014,0.134-0.043,0.198C11.379,15.617,11.204,15.723,11.021,15.723"/>
	<path fill="#455B64" d="M11.975,16.157c-0.066,0-0.134-0.015-0.199-0.043l-0.953-0.436c-0.177-0.08-0.281-0.254-0.281-0.436
		c0-0.066,0.014-0.135,0.043-0.198c0.111-0.242,0.396-0.345,0.635-0.238l0.954,0.435c0.177,0.081,0.28,0.255,0.28,0.437
		c0,0.066-0.014,0.134-0.043,0.198C12.331,16.053,12.157,16.157,11.975,16.157"/>
	<path fill="#455B64" d="M6.693,16.147L6.693,16.147H6.691c-0.182,0-0.356-0.104-0.435-0.282c-0.108-0.236-0.005-0.516,0.227-0.629
		c0.004-0.002,0.009-0.004,0.012-0.005l0.952-0.431c0.239-0.109,0.524-0.001,0.634,0.239c0.109,0.24,0.003,0.525-0.239,0.634
		l-0.951,0.431C6.828,16.134,6.76,16.147,6.693,16.147"/>
	<path fill="#455B64" d="M8.461,8.291c-0.081,0-0.164-0.021-0.239-0.063c-0.154-0.09-0.24-0.25-0.24-0.416
		c0-0.081,0.02-0.163,0.063-0.238l0.504-0.876C8.682,6.466,8.977,6.39,9.205,6.521c0.154,0.089,0.24,0.25,0.24,0.417
		c0,0.081-0.02,0.163-0.063,0.237L8.877,8.05C8.789,8.205,8.627,8.291,8.461,8.291"/>
	<path fill="#455B64" d="M10.454,8.687c-0.167,0-0.329-0.087-0.417-0.243l-0.723-1.27C9.272,7.099,9.252,7.018,9.252,6.938
		c0-0.167,0.087-0.33,0.242-0.418c0.23-0.13,0.524-0.05,0.654,0.18l0.723,1.271c0.042,0.074,0.062,0.154,0.062,0.235
		c0,0.166-0.087,0.329-0.242,0.417C10.616,8.665,10.535,8.687,10.454,8.687"/>
	<path fill="#455B64" d="M12.259,16.227c-0.155,0-0.319-0.038-0.485-0.114l-2.442-1.11L8.8,15.243
		c-0.01,0.005-0.02,0.009-0.03,0.012l-1.881,0.851c-0.369,0.164-0.727,0.145-0.987-0.052c-0.252-0.191-0.365-0.511-0.31-0.879
		l0.369-2.485l-1.853-1.82c-0.277-0.271-0.383-0.603-0.288-0.907C3.918,9.65,4.204,9.435,4.604,9.369l2.663-0.445l1.282-2.226
		C8.736,6.37,9.026,6.181,9.345,6.181L9.346,6.18c0.319,0,0.611,0.188,0.8,0.518l1.272,2.234l0.577,0.099
		c0.013,0.003,0.025,0.005,0.038,0.009l2.048,0.349c0.397,0.066,0.68,0.281,0.778,0.59c0.096,0.305-0.008,0.637-0.286,0.908
		l-1.861,1.815l0.359,2.486c0.053,0.369-0.062,0.69-0.316,0.879C12.613,16.174,12.443,16.227,12.259,16.227 M9.333,13.996
		c0.067,0,0.136,0.014,0.199,0.043l2.57,1.17l-0.373-2.613c-0.021-0.152,0.03-0.304,0.14-0.412l1.298-1.266h0.001l0.615-0.601
		l-1.946-0.34c-0.013-0.003-0.025-0.005-0.038-0.009l-0.765-0.13c-0.142-0.024-0.265-0.111-0.337-0.236L9.353,7.239L7.985,9.599
		C7.914,9.722,7.792,9.807,7.65,9.832l-2.753,0.461l1.91,1.884c0.109,0.107,0.16,0.26,0.138,0.412l-0.387,2.603l1.841-0.82
		c0.007-0.002,0.013-0.005,0.021-0.009l0.713-0.323C9.197,14.01,9.265,13.996,9.333,13.996"/>
	<path fill="#455B64" d="M17.458,16.335c-0.265,0-0.479-0.214-0.479-0.479v-2.999c0-0.265,0.214-0.479,0.479-0.479
		s0.479,0.214,0.479,0.479v2.999C17.938,16.121,17.724,16.335,17.458,16.335"/>
	<path fill="#455B64" d="M19.665,16.335c-0.265,0-0.479-0.214-0.479-0.479v-4.089c0-0.265,0.214-0.479,0.479-0.479
		c0.265,0,0.479,0.214,0.479,0.479v4.089C20.144,16.121,19.93,16.335,19.665,16.335"/>
	<path fill="#455B64" d="M15.252,16.335c-0.265,0-0.479-0.214-0.479-0.479v-1.501c0-0.265,0.214-0.479,0.479-0.479
		c0.265,0,0.479,0.214,0.479,0.479v1.501C15.731,16.121,15.517,16.335,15.252,16.335"/>
</g>
</svg>
