<?xml version="1.0" encoding="utf-8"?>
<!-- Generator: Adobe Illustrator 16.0.0, SVG Export Plug-In . SVG Version: 6.00 Build 0)  -->
<!DOCTYPE svg PUBLIC "-//W3C//DTD SVG 1.1//EN" "http://www.w3.org/Graphics/SVG/1.1/DTD/svg11.dtd">
<svg version="1.1" id="Layer_1" xmlns="http://www.w3.org/2000/svg" xmlns:xlink="http://www.w3.org/1999/xlink" x="0px" y="0px"
	 width="24px" height="21.256px" viewBox="0 0 24 21.256" enable-background="new 0 0 24 21.256" xml:space="preserve">
<g>
	<path d="M21.415,0H2.586C1.16,0,0,1.16,0,2.586v11.352c0,1.425,1.16,2.585,2.586,2.585h11.403l5.316,4.615
		c0.089,0.078,0.202,0.118,0.315,0.118c0.067,0,0.135-0.014,0.199-0.043c0.172-0.078,0.281-0.25,0.281-0.438v-4.253h1.315
		c1.425,0,2.585-1.16,2.585-2.585V2.586C24,1.16,22.84,0,21.415,0 M2.586,0.96h18.829c0.333,0,0.642,0.103,0.9,0.274l-9.121,7.678
		c-0.323,0.274-0.658,0.557-1.089,0.557c-0.447,0-0.878-0.357-1.23-0.647L1.693,1.23C1.95,1.061,2.256,0.96,2.586,0.96
		 M1.213,14.799c-0.158-0.25-0.253-0.545-0.253-0.861V2.586c0-0.218,0.045-0.426,0.123-0.615L8.146,7.81l-6.891,6.925
		C1.237,14.753,1.228,14.777,1.213,14.799 M21.415,15.563H19.62c-0.265,0-0.48,0.214-0.48,0.479v3.682l-4.657-4.044
		c-0.088-0.076-0.2-0.117-0.316-0.117H2.586c-0.236,0-0.459-0.053-0.661-0.145c0.003-0.003,0.008-0.004,0.011-0.007l6.953-6.986
		l1.379,1.14c0.416,0.344,1.045,0.864,1.837,0.864c0.781,0,1.317-0.452,1.731-0.801L15.294,8.4l6.878,6.966
		C21.945,15.487,21.689,15.563,21.415,15.563 M23.04,13.938c0,0.271-0.073,0.522-0.191,0.749L16.031,7.78l6.889-5.8
		c0.076,0.187,0.12,0.391,0.12,0.605V13.938z"/>
</g>
</svg>
