<?xml version="1.0" encoding="utf-8"?>
<!-- Generator: Adobe Illustrator 16.0.0, SVG Export Plug-In . SVG Version: 6.00 Build 0)  -->
<!DOCTYPE svg PUBLIC "-//W3C//DTD SVG 1.1//EN" "http://www.w3.org/Graphics/SVG/1.1/DTD/svg11.dtd">
<svg version="1.1" id="Layer_1" xmlns="http://www.w3.org/2000/svg" xmlns:xlink="http://www.w3.org/1999/xlink" x="0px" y="0px"
	 width="23.922px" height="22.876px" viewBox="0 0 23.922 22.876" enable-background="new 0 0 23.922 22.876" xml:space="preserve">
<g>
	<path fill="#FFFFFF" d="M22.219,8.251c0-1.1-0.9-2-2-2H3.969c-1.1,0-2,0.9-2,2v12.625c0,1.1,0.9,2,2,2h16.25c1.1,0,2-0.9,2-2V8.251
		z"/>
	<path fill="#455B64" d="M20.299,7.212c0.529,0,0.96,0.431,0.96,0.96v12.783c0,0.529-0.431,0.96-0.96,0.96H3.889
		c-0.529,0-0.96-0.431-0.96-0.96V8.172c0-0.529,0.431-0.96,0.96-0.96H20.299 M20.299,6.251H3.889c-1.056,0-1.92,0.864-1.92,1.921
		v12.783c0,1.057,0.864,1.921,1.92,1.921h16.41c1.056,0,1.92-0.864,1.92-1.921V8.172C22.219,7.115,21.354,6.251,20.299,6.251"/>
	<path fill="#F06392" d="M18.596,15.788c0-0.55-0.45-1-1-1h-3.623c-0.55,0-1,0.45-1,1v5.758c0,0.55,0.45,1,1,1h3.623
		c0.55,0,1-0.45,1-1V15.788z"/>
	<path fill="#455B64" d="M17.839,21.915h-4.376V15.15h4.376V21.915z M17.839,14.19h-4.376c-0.528,0-0.96,0.432-0.96,0.96v6.765
		c0,0.528,0.432,0.96,0.96,0.96h4.376c0.528,0,0.96-0.432,0.96-0.96V15.15C18.799,14.622,18.367,14.19,17.839,14.19"/>
	<path fill="#FDC516" d="M23.52,9.467L22.579,3.93c-0.19-0.72-0.182-1.309-1.167-1.309H3.793c-0.985,0-1.944,0.589-2.133,1.309
		L0.578,9.467c0,1.296,1.299,2.347,2.9,2.347c1.436,0,2.62-0.846,2.854-1.95c0.232,1.104,1.415,1.95,2.852,1.95
		c1.522,0,2.756-0.951,2.878-2.156c0.12,1.205,1.355,2.156,2.878,2.156c1.435,0,2.619-0.846,2.851-1.95
		c0.233,1.104,1.417,1.95,2.854,1.95C22.247,11.813,23.52,10.763,23.52,9.467"/>
	<path fill="#455B64" d="M20.708,12.293c-1.189,0-2.25-0.516-2.853-1.313c-0.603,0.798-1.663,1.313-2.851,1.313
		c-1.221,0-2.288-0.532-2.88-1.351c-0.59,0.818-1.657,1.351-2.878,1.351c-1.189,0-2.25-0.516-2.852-1.313
		c-0.602,0.797-1.663,1.313-2.852,1.313C1.689,12.293,0,10.871,0,9.31C0,9.272,0.005,9.235,0.014,9.2l1.32-5.625
		c0.26-0.995,0.882-1.434,2.018-1.434h17.545c1.137,0,1.759,0.438,2.016,1.421c0.004,0.014,0.006,0.025,0.008,0.038l1.001,5.625
		C23.929,10.955,22.484,12.293,20.708,12.293 M17.856,9.383L17.856,9.383c0.227,0,0.423,0.159,0.47,0.381
		c0.188,0.895,1.212,1.569,2.382,1.569c1.397,0,2.261-1.05,2.261-2.023L21.98,3.789c-0.13-0.484-0.315-0.688-1.083-0.688H3.352
		c-0.776,0-0.956,0.207-1.087,0.704L0.961,9.36c0.041,1.021,1.276,1.973,2.581,1.973c1.17,0,2.194-0.675,2.382-1.569
		c0.047-0.222,0.243-0.381,0.47-0.381s0.423,0.159,0.47,0.381c0.188,0.895,1.212,1.569,2.382,1.569c1.249,0,2.303-0.757,2.401-1.725
		c0.024-0.244,0.231-0.431,0.477-0.431c0.247,0,0.453,0.187,0.477,0.431c0.099,0.968,1.153,1.725,2.403,1.725
		c1.168,0,2.193-0.675,2.382-1.569C17.433,9.541,17.629,9.383,17.856,9.383"/>
	<path fill="#455B64" d="M6.333,10.343H6.315c-0.264-0.009-0.471-0.232-0.463-0.497l0.251-7.241C6.114,2.34,6.355,2.121,6.6,2.142
		C6.865,2.15,7.072,2.373,7.063,2.639L6.813,9.88C6.803,10.139,6.59,10.343,6.333,10.343"/>
	<path fill="#455B64" d="M17.916,10.343c-0.258,0-0.471-0.204-0.48-0.463l-0.251-7.241c-0.009-0.266,0.198-0.488,0.463-0.497
		c0.26-0.039,0.487,0.198,0.497,0.463l0.251,7.241c0.008,0.265-0.199,0.488-0.463,0.497H17.916z"/>
	<path fill="#455B64" d="M12.087,10.343L12.087,10.343c-0.266,0-0.481-0.216-0.48-0.481l0.015-7.24
		c0.001-0.266,0.216-0.479,0.48-0.479h0.001c0.265,0,0.48,0.216,0.479,0.481l-0.015,7.241
		C12.566,10.129,12.351,10.343,12.087,10.343"/>
	<path fill="#FFFFFF" d="M19.232,1.48c0-0.55-0.45-1-1-1H5.941c-0.55,0-1,0.45-1,1v3.701c0,0.55,0.45,1,1,1h12.291
		c0.55,0,1-0.45,1-1V1.48z"/>
	<path fill="#455B64" d="M18.258,6.661H5.886c-0.794,0-1.44-0.646-1.44-1.439V1.44C4.446,0.646,5.092,0,5.886,0h12.372
		c0.794,0,1.44,0.646,1.44,1.44v3.781C19.698,6.016,19.052,6.661,18.258,6.661 M5.886,0.96c-0.264,0-0.48,0.215-0.48,0.48v3.781
		c0,0.265,0.216,0.479,0.48,0.479h12.372c0.265,0,0.48-0.215,0.48-0.479V1.44c0-0.266-0.215-0.48-0.48-0.48H5.886z"/>
	<path fill="#455B64" d="M6.627,18.516c-0.265,0-0.48-0.215-0.48-0.479v-3.022c0-0.265,0.215-0.479,0.48-0.479
		c0.265,0,0.48,0.215,0.48,0.479v3.022C7.107,18.301,6.892,18.516,6.627,18.516"/>
	<path fill="#455B64" d="M9.167,18.516c-0.265,0-0.48-0.215-0.48-0.479v-3.022c0-0.265,0.215-0.479,0.48-0.479
		s0.48,0.215,0.48,0.479v3.022C9.646,18.301,9.432,18.516,9.167,18.516"/>
</g>
</svg>
