<?xml version="1.0" encoding="utf-8"?>
<!-- Generator: Adobe Illustrator 16.0.0, SVG Export Plug-In . SVG Version: 6.00 Build 0)  -->
<!DOCTYPE svg PUBLIC "-//W3C//DTD SVG 1.1//EN" "http://www.w3.org/Graphics/SVG/1.1/DTD/svg11.dtd">
<svg version="1.1" id="Layer_1" xmlns="http://www.w3.org/2000/svg" xmlns:xlink="http://www.w3.org/1999/xlink" x="0px" y="0px"
	 width="16.221px" height="23.521px" viewBox="0 0 16.221 23.521" enable-background="new 0 0 16.221 23.521" xml:space="preserve">
<g>
	<polygon fill="#F06392" points="15.74,19.956 11.903,19.477 10.398,23.04 5.139,13.931 10.481,10.845 	"/>
	<path fill="#455B64" d="M10.398,23.521c-0.171,0-0.33-0.092-0.415-0.24l-5.26-9.109c-0.133-0.23-0.054-0.523,0.176-0.656
		l5.342-3.085c0.109-0.063,0.242-0.081,0.363-0.048c0.124,0.033,0.229,0.114,0.292,0.224l5.259,9.111
		c0.092,0.157,0.086,0.354-0.015,0.506c-0.1,0.151-0.275,0.233-0.459,0.211l-3.477-0.435l-1.363,3.228
		c-0.072,0.168-0.231,0.283-0.413,0.293C10.418,23.519,10.407,23.521,10.398,23.521 M5.794,14.106l4.538,7.857l1.128-2.674
		c0.085-0.197,0.29-0.314,0.502-0.29l2.88,0.36l-4.537-7.859L5.794,14.106z"/>
	<path fill="#FDC516" d="M8.758,15.804c-0.279,0-1.438-0.002-1.709-0.029c-1.748-0.184-2.062-0.307-3.266-1.454l-3.304,5.636
		l3.837-0.479l1.505,3.563l2.288-3.963l1.906-3.303C9.833,15.788,8.945,15.804,8.758,15.804"/>
	<path fill="#455B64" d="M5.822,23.52c0,0-0.02,0-0.03,0c-0.182-0.012-0.342-0.125-0.413-0.293l-1.363-3.229l-3.477,0.435
		c-0.182,0.021-0.358-0.06-0.46-0.211c-0.1-0.151-0.106-0.347-0.015-0.505l5.26-9.111c0.063-0.11,0.168-0.19,0.291-0.223
		c0.125-0.033,0.255-0.016,0.364,0.048l5.343,3.085c0.23,0.133,0.308,0.426,0.175,0.656l-5.26,9.109
		C6.152,23.429,5.992,23.52,5.822,23.52 M4.317,18.997c0.191,0,0.367,0.113,0.442,0.293l1.129,2.675l4.539-7.858l-4.513-2.605
		L1.378,19.36l2.88-0.359C4.278,18.997,4.297,18.997,4.317,18.997"/>
	<path fill="#FFFFFF" d="M15.871,8.089c0,4.285-3.475,7.764-7.762,7.764c-4.287,0-7.761-3.479-7.761-7.764
		c0-4.288,3.474-7.762,7.761-7.762C12.396,0.327,15.871,3.801,15.871,8.089"/>
	<path fill="#455B64" d="M8.11,0.96c3.93,0,7.127,3.198,7.127,7.129c0,3.932-3.197,7.131-7.127,7.131
		c-3.931,0-7.129-3.199-7.129-7.131C0.981,4.158,4.18,0.96,8.11,0.96 M8.11,0C3.643,0,0.021,3.622,0.021,8.089
		s3.621,8.09,8.089,8.09c4.466,0,8.087-3.623,8.087-8.09S12.577,0,8.11,0"/>
	<path fill="#455B64" d="M8.11,10.379c-0.123,0-0.246-0.047-0.339-0.141l-2.632-2.63c-0.187-0.188-0.187-0.492,0-0.679
		c0.188-0.188,0.491-0.188,0.679,0L8.449,9.56c0.188,0.187,0.188,0.491,0,0.678C8.356,10.332,8.233,10.379,8.11,10.379"/>
	<path fill="#455B64" d="M8.11,10.379c-0.123,0-0.246-0.047-0.339-0.141c-0.188-0.187-0.188-0.491,0-0.678l2.631-2.631
		c0.188-0.188,0.491-0.188,0.679,0c0.187,0.187,0.187,0.491,0,0.679l-2.632,2.63C8.356,10.332,8.233,10.379,8.11,10.379"/>
</g>
</svg>
