<?xml version="1.0" encoding="utf-8"?>
<!-- Generator: Adobe Illustrator 16.0.0, SVG Export Plug-In . SVG Version: 6.00 Build 0)  -->
<!DOCTYPE svg PUBLIC "-//W3C//DTD SVG 1.1//EN" "http://www.w3.org/Graphics/SVG/1.1/DTD/svg11.dtd">
<svg version="1.1" id="Layer_1" xmlns="http://www.w3.org/2000/svg" xmlns:xlink="http://www.w3.org/1999/xlink" x="0px" y="0px"
	 width="21.14px" height="21.543px" viewBox="0 0 21.14 21.543" enable-background="new 0 0 21.14 21.543" xml:space="preserve">
<g>
	<path d="M5.777,14.032c1.396,0,2.536-1.136,2.536-2.539c0-1.396-1.14-2.529-2.536-2.529c-1.397,0-2.532,1.133-2.532,2.529
		C3.245,12.896,4.38,14.032,5.777,14.032 M5.777,9.923c0.869,0,1.576,0.705,1.576,1.569c0,0.87-0.707,1.579-1.576,1.579
		c-0.867,0-1.572-0.709-1.572-1.579C4.205,10.628,4.91,9.923,5.777,9.923"/>
	<path d="M20.18,0.027H6.431c-0.528,0-0.96,0.433-0.96,0.96v2.132c0,0.527,0.432,0.96,0.96,0.96H20.18c0.528,0,0.96-0.433,0.96-0.96
		V0.987C21.14,0.459,20.708,0.027,20.18,0.027 M20.18,3.119H6.431V0.987H20.18V3.119z"/>
	<path d="M19.22,5.479H1.92C0.865,5.479,0,6.343,0,7.399v12.225c0,0.663,0.341,1.249,0.856,1.595
		c0.075,0.051,0.157,0.092,0.24,0.131c0.251,0.121,0.528,0.194,0.824,0.194h17.3c0.296,0,0.574-0.073,0.825-0.194
		c0.082-0.039,0.165-0.08,0.24-0.131c0.035-0.023,0.064-0.054,0.098-0.078c0.457-0.353,0.757-0.898,0.757-1.517V7.399
		C21.14,6.343,20.276,5.479,19.22,5.479 M0.96,19.624V7.399c0-0.528,0.431-0.96,0.96-0.96h17.3c0.529,0,0.96,0.432,0.96,0.96v8.648
		l-5.272-6.163c-0.083-0.097-0.203-0.157-0.331-0.166c-0.124-0.011-0.255,0.034-0.352,0.118L2.105,20.525
		c-0.019,0.018-0.029,0.039-0.044,0.059H1.92C1.391,20.583,0.96,20.152,0.96,19.624 M20.18,19.624c0,0.528-0.431,0.96-0.96,0.96
		H3.491l11.004-9.704l5.685,6.646V19.624z"/>
	<path d="M0.96,4.079h2.159c0.529,0,0.96-0.433,0.96-0.96V0.96C4.079,0.432,3.648,0,3.119,0H0.96C0.432,0,0,0.432,0,0.96v2.158
		C0,3.646,0.432,4.079,0.96,4.079 M0.96,0.96h2.159v2.158H0.96V0.96z"/>
</g>
</svg>
