<?xml version="1.0" encoding="utf-8"?>
<!-- Generator: Adobe Illustrator 16.0.0, SVG Export Plug-In . SVG Version: 6.00 Build 0)  -->
<!DOCTYPE svg PUBLIC "-//W3C//DTD SVG 1.1//EN" "http://www.w3.org/Graphics/SVG/1.1/DTD/svg11.dtd">
<svg version="1.1" id="Layer_1" xmlns="http://www.w3.org/2000/svg" xmlns:xlink="http://www.w3.org/1999/xlink" x="0px" y="0px"
	 width="16.002px" height="16px" viewBox="0 0 16.002 16" enable-background="new 0 0 16.002 16" xml:space="preserve">
<path d="M2.056,0h11.893c1.13,0,2.054,0.924,2.054,2.054v11.894c0,1.13-0.924,2.053-2.054,2.053H2.056C0.925,16,0,15.077,0,13.947
	V2.054C0,0.924,0.925,0,2.056,0 M11.657,1.777c-0.397,0-0.721,0.325-0.721,0.722v1.723c0,0.397,0.323,0.721,0.721,0.721h1.808
	c0.397,0,0.722-0.323,0.722-0.721V2.499c0-0.396-0.324-0.722-0.722-0.722H11.657z M14.192,6.767h-1.407
	c0.133,0.436,0.205,0.896,0.205,1.373c0,2.662-2.228,4.819-4.974,4.819S3.042,10.802,3.042,8.14c0-0.478,0.073-0.938,0.206-1.373
	h-1.47v6.76c0,0.35,0.287,0.635,0.637,0.635h11.143c0.35,0,0.635-0.285,0.635-0.635V6.767z M8.017,4.853
	c-1.774,0-3.213,1.394-3.213,3.113c0,1.719,1.438,3.114,3.213,3.114s3.213-1.396,3.213-3.114C11.229,6.246,9.791,4.853,8.017,4.853"
	/>
</svg>
