<?xml version="1.0" encoding="utf-8"?>
<!-- Generator: Adobe Illustrator 16.0.0, SVG Export Plug-In . SVG Version: 6.00 Build 0)  -->
<!DOCTYPE svg PUBLIC "-//W3C//DTD SVG 1.1//EN" "http://www.w3.org/Graphics/SVG/1.1/DTD/svg11.dtd">
<svg version="1.1" id="Layer_1" xmlns="http://www.w3.org/2000/svg" xmlns:xlink="http://www.w3.org/1999/xlink" x="0px" y="0px"
	 width="18px" height="16.143px" viewBox="0 0 18 16.143" enable-background="new 0 0 18 16.143" xml:space="preserve">
<path d="M17.948,5.851l-1.659-3.257c-0.008-0.015-0.021-0.025-0.03-0.039c-0.008-0.014-0.02-0.026-0.029-0.039
	c-0.053-0.065-0.12-0.12-0.202-0.149c-0.003-0.001-0.004-0.005-0.009-0.006L9.155,0.025c-0.1-0.034-0.206-0.034-0.307,0L1.981,2.361
	C1.977,2.362,1.976,2.365,1.973,2.367c-0.082,0.03-0.149,0.084-0.201,0.149c-0.011,0.013-0.021,0.025-0.03,0.039
	C1.733,2.569,1.719,2.579,1.711,2.594L0.052,5.851C-0.01,5.973-0.017,6.115,0.034,6.242c0.051,0.127,0.154,0.226,0.282,0.271
	L1.66,6.985V11.7c0,1.061,0.784,2.166,1.784,2.518l5.398,1.898C8.893,16.135,8.947,16.143,9,16.143c0.053,0,0.105-0.008,0.156-0.026
	l5.396-1.898c1.002-0.352,1.787-1.457,1.787-2.518V6.985l1.344-0.473c0.128-0.045,0.23-0.144,0.281-0.271S18.01,5.973,17.948,5.851
	 M16.34,5.98l-0.476,0.167l-0.474,0.166l-4.498,1.581L9.678,5.51c0.246-0.098,0.564-0.221,0.914-0.345l0.006-0.002l0.099-0.035
	l3.858-1.356l0.914-0.32l0.164-0.058l0.707,1.387l0.519,1.018L16.34,5.98z M15.391,11.7c0,0.65-0.536,1.408-1.151,1.623
	l-4.767,1.678V7.194l0.765,1.5c0.082,0.162,0.248,0.258,0.422,0.258c0.054,0,0.104-0.008,0.157-0.026l4.574-1.608V11.7z
	 M9.002,0.975l5.414,1.842L14.24,2.879l-3.929,1.38c-0.012,0.004-0.023,0.009-0.035,0.013L9,4.72L7.724,4.271
	C7.712,4.268,7.701,4.263,7.689,4.259l-1.965-0.69L4.921,3.287L4.86,3.265L3.583,2.816L9.002,0.975z M1.66,4.782l0.707-1.388
	L2.53,3.451l2.879,1.012l1.912,0.672l0.081,0.028l0.005,0.002c0.35,0.124,0.669,0.247,0.915,0.345L7.106,7.895L2.607,6.313
	L2.132,6.146L1.66,5.98L1.141,5.799L1.66,4.782z M2.607,7.317l4.576,1.608C7.235,8.944,7.288,8.952,7.34,8.952
	c0.174,0,0.34-0.096,0.422-0.258l0.764-1.5v7.807l-4.767-1.678C3.145,13.108,2.607,12.35,2.607,11.7V7.317z"/>
</svg>
