<?xml version="1.0" encoding="utf-8"?>
<!-- Generator: Adobe Illustrator 16.0.0, SVG Export Plug-In . SVG Version: 6.00 Build 0)  -->
<!DOCTYPE svg PUBLIC "-//W3C//DTD SVG 1.1//EN" "http://www.w3.org/Graphics/SVG/1.1/DTD/svg11.dtd">
<svg version="1.1" id="Layer_1" xmlns="http://www.w3.org/2000/svg" xmlns:xlink="http://www.w3.org/1999/xlink" x="0px" y="0px"
	 width="12.596px" height="16px" viewBox="0 0 12.596 16" enable-background="new 0 0 12.596 16" xml:space="preserve">
<g>
	<path d="M8.899,13.044c-0.219,0-0.418-0.145-0.48-0.365c-0.234-0.834-1.106-1.416-2.121-1.416c-1.01,0-1.881,0.58-2.118,1.41
		c-0.076,0.264-0.352,0.418-0.617,0.342c-0.265-0.076-0.418-0.352-0.343-0.617c0.359-1.256,1.624-2.133,3.078-2.133
		c1.46,0,2.727,0.883,3.082,2.145c0.074,0.266-0.081,0.541-0.346,0.615C8.989,13.039,8.944,13.044,8.899,13.044"/>
	<path d="M4.628,8.83c0,0.538-0.435,0.975-0.973,0.975c-0.539,0-0.974-0.437-0.974-0.975s0.435-0.974,0.974-0.974
		C4.193,7.856,4.628,8.292,4.628,8.83"/>
	<path d="M9.884,8.83c0,0.538-0.436,0.975-0.975,0.975c-0.537,0-0.973-0.437-0.973-0.975s0.436-0.974,0.973-0.974
		C9.448,7.856,9.884,8.292,9.884,8.83"/>
	<path d="M6.298,16C2.826,16,0,13.175,0,9.703c0-0.289,0.027-0.57,0.063-0.849l0.029-0.19C0.126,8.471,0.165,8.28,0.214,8.096
		c1.02-4.168,5.572-7.835,5.765-7.989C6.069,0.034,6.176,0,6.282,0h0.016c0.106,0,0.214,0.034,0.303,0.106
		c0.18,0.143,4.402,3.543,5.636,7.521c0.235,0.662,0.358,1.366,0.358,2.075C12.596,13.175,9.769,16,6.298,16 M6.29,1.116
		C5.275,1.994,1.957,5.068,1.157,8.337C1.114,8.504,1.08,8.663,1.053,8.826L1.029,8.981C0.997,9.219,0.974,9.457,0.974,9.703
		c0,2.935,2.388,5.324,5.324,5.324s5.323-2.389,5.323-5.324c0-0.597-0.104-1.192-0.309-1.769C10.345,4.811,7.262,1.957,6.29,1.116"
		/>
</g>
</svg>
