<?xml version="1.0" encoding="utf-8"?>
<!-- Generator: Adobe Illustrator 16.0.0, SVG Export Plug-In . SVG Version: 6.00 Build 0)  -->
<!DOCTYPE svg PUBLIC "-//W3C//DTD SVG 1.1//EN" "http://www.w3.org/Graphics/SVG/1.1/DTD/svg11.dtd">
<svg version="1.1" id="Layer_1" xmlns="http://www.w3.org/2000/svg" xmlns:xlink="http://www.w3.org/1999/xlink" x="0px" y="0px"
	 width="16px" height="15.265px" viewBox="0 0 16 15.265" enable-background="new 0 0 16 15.265" xml:space="preserve">
<g>
	<path d="M8.002,11.284c-1.492,0-2.785-0.901-3.148-2.191C4.779,8.822,4.937,8.541,5.208,8.465c0.271-0.076,0.553,0.082,0.628,0.353
		c0.239,0.852,1.13,1.447,2.166,1.447c1.033,0,1.923-0.592,2.165-1.439c0.076-0.27,0.359-0.427,0.63-0.35
		c0.271,0.078,0.428,0.359,0.351,0.63C10.781,10.388,9.488,11.284,8.002,11.284"/>
	<path d="M6.31,6.638c0,0.55-0.445,0.994-0.994,0.994c-0.55,0-0.995-0.444-0.995-0.994c0-0.55,0.445-0.994,0.995-0.994
		C5.864,5.644,6.31,6.087,6.31,6.638"/>
	<path d="M11.68,6.638c0,0.55-0.445,0.994-0.994,0.994c-0.551,0-0.996-0.444-0.996-0.994c0-0.55,0.445-0.994,0.996-0.994
		C11.234,5.644,11.68,6.087,11.68,6.638"/>
	<path d="M5.681,15.265c-0.178,0-0.35-0.097-0.439-0.265l-1.095-2.065l-2.302-0.403c-0.264-0.045-0.445-0.293-0.407-0.56
		l0.327-2.314L0.14,7.978c-0.187-0.193-0.187-0.499,0-0.692l1.625-1.68L1.438,3.292C1.4,3.026,1.581,2.778,1.845,2.732l2.302-0.404
		l1.095-2.064C5.368,0.026,5.662-0.066,5.9,0.05L8,1.076l2.1-1.026c0.237-0.116,0.53-0.024,0.657,0.214l1.097,2.064l2.303,0.404
		c0.264,0.046,0.443,0.294,0.406,0.56l-0.328,2.314l1.625,1.68c0.188,0.193,0.188,0.499,0,0.692l-1.625,1.679l0.328,2.314
		c0.037,0.267-0.143,0.515-0.406,0.56l-2.303,0.403L10.757,15c-0.127,0.238-0.42,0.33-0.657,0.214L8,14.187l-2.1,1.027
		C5.83,15.248,5.755,15.265,5.681,15.265 M2.49,11.636l2.068,0.362c0.151,0.026,0.281,0.122,0.353,0.257l0.984,1.855l1.887-0.924
		c0.138-0.067,0.299-0.067,0.437,0l1.885,0.923l0.985-1.854c0.072-0.136,0.202-0.23,0.353-0.257l2.069-0.362l-0.294-2.08
		c-0.021-0.153,0.028-0.306,0.135-0.416l1.459-1.508l-1.459-1.509c-0.106-0.111-0.156-0.264-0.135-0.416l0.294-2.078l-2.069-0.364
		c-0.15-0.026-0.28-0.12-0.353-0.256l-0.985-1.854L8.219,2.077c-0.138,0.068-0.299,0.068-0.437,0L5.895,1.154L4.911,3.009
		c-0.072,0.135-0.202,0.23-0.353,0.256L2.49,3.629l0.294,2.078c0.022,0.152-0.028,0.306-0.135,0.416L1.19,7.632L2.649,9.14
		c0.107,0.11,0.157,0.263,0.135,0.416L2.49,11.636z"/>
</g>
</svg>
