<?xml version="1.0" encoding="utf-8"?>
<!-- Generator: Adobe Illustrator 16.0.0, SVG Export Plug-In . SVG Version: 6.00 Build 0)  -->
<!DOCTYPE svg PUBLIC "-//W3C//DTD SVG 1.1//EN" "http://www.w3.org/Graphics/SVG/1.1/DTD/svg11.dtd">
<svg version="1.1" id="Layer_1" xmlns="http://www.w3.org/2000/svg" xmlns:xlink="http://www.w3.org/1999/xlink" x="0px" y="0px"
	 width="12.851px" height="17.117px" viewBox="0 0 12.851 17.117" enable-background="new 0 0 12.851 17.117" xml:space="preserve">
<g>
	<path d="M6.426,0C2.883,0,0,2.882,0,6.425C0,6.686,0.02,6.941,0.049,7.18c0.486,5.302,5.817,9.644,6.044,9.828
		c0.092,0.074,0.203,0.109,0.313,0.109s0.222-0.035,0.313-0.109c0.222-0.176,5.428-4.396,6.048-9.574
		c0.058-0.362,0.084-0.692,0.084-1.009C12.851,2.882,9.969,0,6.426,0 M11.777,7.297c-0.49,4.085-4.251,7.675-5.37,8.664
		c-1.134-1.004-4.979-4.695-5.363-8.887C1.018,6.86,1,6.645,1,6.425C1,3.433,3.434,1,6.426,1s5.425,2.434,5.425,5.426
		C11.851,6.69,11.828,6.969,11.777,7.297"/>
	<path d="M8.938,4.207C8.246,3.511,7.336,3.165,6.427,3.165s-1.818,0.347-2.51,1.04c-1.394,1.39-1.396,3.647-0.01,5.031
		c0.694,0.692,1.605,1.041,2.519,1.041c0.911,0,1.824-0.347,2.52-1.043C10.332,7.849,10.324,5.591,8.938,4.207 M4.614,8.528
		c-0.479-0.48-0.743-1.12-0.743-1.802c0-0.686,0.267-1.33,0.754-1.815c0.479-0.482,1.12-0.747,1.802-0.747S7.75,4.431,8.232,4.914
		C8.715,5.396,8.98,6.038,8.981,6.722c0.001,0.684-0.263,1.325-0.742,1.805C7.756,9.01,7.11,9.275,6.426,9.275
		C5.739,9.275,5.097,9.01,4.614,8.528"/>
</g>
</svg>
