<?xml version="1.0" encoding="utf-8"?>
<!-- Generator: Adobe Illustrator 16.0.0, SVG Export Plug-In . SVG Version: 6.00 Build 0)  -->
<!DOCTYPE svg PUBLIC "-//W3C//DTD SVG 1.1//EN" "http://www.w3.org/Graphics/SVG/1.1/DTD/svg11.dtd">
<svg version="1.1" id="Layer_1" xmlns="http://www.w3.org/2000/svg" xmlns:xlink="http://www.w3.org/1999/xlink" x="0px" y="0px"
	 width="14.977px" height="16.063px" viewBox="0 0 14.977 16.063" enable-background="new 0 0 14.977 16.063" xml:space="preserve">
<g>
	<g>
		<path d="M5.582,13.485c-0.062,0-0.125-0.012-0.187-0.036c-0.524-0.211-1.033-0.521-1.512-0.922
			c-0.212-0.178-0.24-0.493-0.063-0.705c0.176-0.211,0.491-0.239,0.704-0.063c0.399,0.334,0.817,0.591,1.244,0.762
			c0.256,0.103,0.38,0.395,0.277,0.65C5.967,13.367,5.779,13.485,5.582,13.485z"/>
	</g>
	<g>
		<path d="M2.396,9.223c-0.254,0-0.472-0.193-0.497-0.451L1.879,8.617C1.862,8.484,1.845,8.353,1.845,8.215
			c0-0.329,0.044-0.64,0.092-0.927c0.045-0.272,0.302-0.461,0.575-0.411C2.785,6.922,2.969,7.18,2.923,7.452
			C2.876,7.734,2.845,7.973,2.845,8.215c0,0.092,0.013,0.18,0.025,0.269l0.023,0.19c0.027,0.275-0.174,0.52-0.449,0.547
			C2.428,9.222,2.412,9.223,2.396,9.223z"/>
	</g>
	<g>
		<path d="M10.458,4.525c-0.1,0-0.202-0.03-0.29-0.093C9.867,4.218,9.578,4.054,9.284,3.931C9.029,3.824,8.909,3.532,9.016,3.277
			c0.106-0.256,0.4-0.376,0.654-0.269c0.363,0.151,0.715,0.351,1.079,0.609c0.225,0.16,0.277,0.473,0.117,0.697
			C10.768,4.452,10.614,4.525,10.458,4.525z"/>
	</g>
	<g>
		<path d="M12.582,9.222c-0.016,0-0.033-0.001-0.049-0.002c-0.275-0.027-0.476-0.272-0.449-0.547l0.023-0.188
			c0.012-0.089,0.025-0.179,0.025-0.271c0-0.241-0.031-0.479-0.078-0.763c-0.045-0.272,0.139-0.53,0.412-0.575
			c0.273-0.051,0.53,0.14,0.575,0.411c0.048,0.288,0.092,0.6,0.092,0.927c0,0.138-0.017,0.271-0.034,0.403l-0.019,0.153
			C13.054,9.028,12.836,9.222,12.582,9.222z"/>
	</g>
	<g>
		<path d="M4.521,4.525c-0.157,0-0.312-0.073-0.409-0.211c-0.16-0.226-0.106-0.538,0.12-0.697c0.367-0.26,0.719-0.458,1.077-0.607
			c0.255-0.105,0.548,0.013,0.654,0.269c0.106,0.255-0.014,0.547-0.269,0.653c-0.29,0.121-0.58,0.285-0.886,0.502
			C4.721,4.496,4.62,4.525,4.521,4.525z"/>
	</g>
	<g>
		<path d="M9.396,13.486c-0.198,0-0.385-0.118-0.464-0.313c-0.103-0.256,0.021-0.547,0.277-0.65
			c0.429-0.173,0.848-0.429,1.245-0.762c0.212-0.176,0.528-0.148,0.704,0.063c0.177,0.212,0.149,0.527-0.063,0.705
			c-0.478,0.399-0.987,0.71-1.513,0.922C9.521,13.475,9.458,13.486,9.396,13.486z"/>
	</g>
	<g>
		<path d="M12.547,7.87c-0.056,0-0.113-0.01-0.167-0.028c-0.171-0.062-0.296-0.21-0.326-0.39c-0.204-1.227-0.873-2.299-1.886-3.02
			c-0.153-0.108-0.232-0.295-0.205-0.48C9.992,3.766,10.122,3.61,10.3,3.551l2.251-0.752c0.543-0.184,1.234,0.077,1.523,0.576
			l0.739,1.281c0.296,0.513,0.18,1.219-0.265,1.608l-1.67,1.479C12.786,7.827,12.667,7.87,12.547,7.87z M11.464,4.221
			c0.628,0.625,1.095,1.384,1.371,2.227l1.053-0.933c0.089-0.078,0.118-0.258,0.06-0.358l-0.739-1.28
			c-0.045-0.078-0.164-0.139-0.271-0.139L11.464,4.221z"/>
	</g>
	<g>
		<path d="M5.501,3.971c-0.114,0-0.226-0.039-0.317-0.113C5.041,3.74,4.975,3.553,5.012,3.371l0.476-2.339
			C5.605,0.453,6.16,0,6.75,0h1.478C8.817,0,9.372,0.453,9.49,1.031L9.966,3.37c0.037,0.182-0.029,0.368-0.172,0.486
			c-0.144,0.117-0.34,0.146-0.51,0.074C8.138,3.451,6.835,3.452,5.695,3.932C5.633,3.958,5.567,3.971,5.501,3.971z M6.75,1
			C6.633,1,6.49,1.117,6.467,1.232L6.163,2.729c0.864-0.21,1.787-0.21,2.652-0.001L8.511,1.231C8.487,1.117,8.345,1,8.228,1H6.75z"
			/>
	</g>
	<g>
		<path d="M8.228,16.063H6.75c-0.591,0-1.146-0.454-1.263-1.034l-0.396-1.943c-0.037-0.18,0.028-0.366,0.169-0.483
			c0.141-0.118,0.336-0.149,0.507-0.08c1.117,0.447,2.318,0.448,3.442,0.001c0.17-0.07,0.365-0.037,0.506,0.08
			c0.141,0.118,0.207,0.304,0.169,0.483L9.49,15.029C9.372,15.609,8.817,16.063,8.228,16.063z M6.241,13.717l0.227,1.113
			c0.023,0.115,0.166,0.232,0.283,0.232h1.478c0.116,0,0.259-0.117,0.283-0.233l0.227-1.112C7.914,13.908,7.063,13.908,6.241,13.717
			z"/>
	</g>
	<g>
		<path d="M2.042,13.326c-0.467,0-0.914-0.251-1.138-0.639l-0.739-1.281c-0.294-0.508-0.181-1.215,0.259-1.607l1.64-1.451
			c0.141-0.125,0.34-0.158,0.514-0.092c0.175,0.068,0.297,0.229,0.315,0.416c0.121,1.211,0.701,2.308,1.632,3.09
			c0.139,0.116,0.204,0.299,0.17,0.477s-0.161,0.323-0.333,0.381l-1.937,0.646C2.304,13.306,2.175,13.326,2.042,13.326z
			 M2.065,9.683l-0.976,0.863c-0.086,0.077-0.116,0.259-0.058,0.359l0.74,1.282c0.056,0.097,0.237,0.165,0.34,0.129l1.16-0.387
			C2.7,11.281,2.289,10.516,2.065,9.683z"/>
	</g>
	<g>
		<path d="M2.431,7.869c-0.12,0-0.238-0.043-0.331-0.125L0.426,6.265c-0.444-0.393-0.559-1.1-0.26-1.61l0.737-1.279
			c0.292-0.5,0.976-0.76,1.525-0.576L4.68,3.551c0.178,0.061,0.308,0.215,0.336,0.401S4.964,4.324,4.811,4.434
			c-1.013,0.718-1.683,1.79-1.886,3.018C2.895,7.631,2.77,7.779,2.599,7.84C2.544,7.859,2.487,7.869,2.431,7.869z M2.073,3.745
			c-0.156,0-0.262,0.059-0.305,0.132L1.031,5.156c-0.059,0.1-0.029,0.283,0.057,0.358l1.055,0.933
			c0.276-0.845,0.745-1.605,1.375-2.23L2.11,3.747C2.098,3.746,2.085,3.745,2.073,3.745z"/>
	</g>
	<g>
		<path d="M12.936,13.326L12.936,13.326c-0.133,0-0.262-0.021-0.383-0.061l-1.935-0.646c-0.171-0.058-0.299-0.203-0.333-0.381
			c-0.034-0.179,0.031-0.36,0.17-0.477c0.931-0.782,1.51-1.879,1.629-3.089c0.019-0.188,0.14-0.348,0.315-0.417
			c0.174-0.067,0.373-0.034,0.514,0.092l1.638,1.45c0.441,0.392,0.557,1.098,0.263,1.608l-0.739,1.281
			C13.849,13.076,13.402,13.326,12.936,13.326z M11.71,11.93l1.226,0.396c0.107,0,0.228-0.062,0.273-0.14l0.739-1.28
			c0.058-0.101,0.028-0.282-0.06-0.36l-0.974-0.862C12.69,10.517,12.28,11.282,11.71,11.93z"/>
	</g>
	<g>
		<path d="M5.501,3.971c-0.195,0-0.38-0.115-0.461-0.307C4.934,3.41,5.053,3.116,5.308,3.01c1.387-0.582,2.971-0.583,4.361-0.001
			c0.255,0.106,0.375,0.399,0.269,0.654c-0.107,0.254-0.4,0.374-0.654,0.268C8.138,3.451,6.835,3.452,5.695,3.932
			C5.632,3.958,5.566,3.971,5.501,3.971z"/>
	</g>
	<g>
		<path d="M12.547,7.87c-0.24,0-0.452-0.174-0.493-0.418c-0.204-1.227-0.873-2.299-1.886-3.02c-0.225-0.16-0.277-0.472-0.117-0.697
			c0.159-0.226,0.47-0.278,0.697-0.117c1.231,0.876,2.045,2.179,2.292,3.67c0.045,0.272-0.139,0.53-0.412,0.575
			C12.602,7.868,12.574,7.87,12.547,7.87z"/>
	</g>
	<g>
		<path d="M7.49,13.86c-0.711,0-1.416-0.139-2.095-0.411c-0.256-0.103-0.38-0.394-0.277-0.65c0.103-0.257,0.394-0.381,0.65-0.277
			c1.117,0.447,2.317,0.448,3.442,0.001c0.254-0.102,0.547,0.022,0.65,0.278s-0.022,0.547-0.279,0.649
			C8.902,13.723,8.198,13.86,7.49,13.86z"/>
	</g>
	<g>
		<path d="M4.204,12.645c-0.113,0-0.227-0.038-0.321-0.117c-1.133-0.95-1.837-2.284-1.985-3.756
			c-0.027-0.274,0.173-0.52,0.448-0.547c0.279-0.031,0.52,0.173,0.547,0.447c0.121,1.211,0.701,2.308,1.632,3.09
			c0.212,0.178,0.239,0.493,0.062,0.704C4.489,12.584,4.347,12.645,4.204,12.645z"/>
	</g>
	<g>
		<path d="M2.432,7.869c-0.027,0-0.055-0.002-0.083-0.007C2.077,7.817,1.893,7.56,1.938,7.287C2.186,5.795,3,4.492,4.231,3.617
			C4.457,3.46,4.769,3.511,4.929,3.736c0.16,0.225,0.107,0.537-0.118,0.697c-1.013,0.718-1.683,1.79-1.886,3.018
			C2.884,7.695,2.672,7.869,2.432,7.869z"/>
	</g>
	<g>
		<path d="M9.25,8.715H5.728c-0.276,0-0.5-0.224-0.5-0.5s0.224-0.5,0.5-0.5H9.25c0.276,0,0.5,0.224,0.5,0.5S9.527,8.715,9.25,8.715z
			"/>
	</g>
</g>
</svg>
