<?xml version="1.0" encoding="utf-8"?>
<!-- Generator: Adobe Illustrator 16.0.0, SVG Export Plug-In . SVG Version: 6.00 Build 0)  -->
<!DOCTYPE svg PUBLIC "-//W3C//DTD SVG 1.1//EN" "http://www.w3.org/Graphics/SVG/1.1/DTD/svg11.dtd">
<svg version="1.1" id="Layer_1" xmlns="http://www.w3.org/2000/svg" xmlns:xlink="http://www.w3.org/1999/xlink" x="0px" y="0px"
	 width="16.34px" height="18px" viewBox="0 0 16.34 18" enable-background="new 0 0 16.34 18" xml:space="preserve">
<path d="M12.982,11.287c-1.071,0-2.019,0.517-2.633,1.303l-3.896-2.294c0.168-0.398,0.262-0.837,0.262-1.297
	c0-0.399-0.084-0.777-0.211-1.134l3.951-2.325c0.614,0.713,1.514,1.176,2.526,1.176c1.853,0,3.358-1.508,3.358-3.359
	C16.34,1.506,14.834,0,12.982,0c-1.851,0-3.354,1.506-3.354,3.356c0,0.453,0.092,0.885,0.256,1.279L5.981,6.932
	C5.366,6.152,4.424,5.643,3.357,5.643C1.506,5.643,0,7.148,0,8.999c0,1.853,1.506,3.359,3.357,3.359
	c1.007,0,1.901-0.456,2.519-1.161l3.957,2.329c-0.125,0.351-0.205,0.724-0.205,1.118c0,1.851,1.504,3.355,3.354,3.355
	c1.853,0,3.358-1.505,3.358-3.355C16.34,12.793,14.834,11.287,12.982,11.287 M10.698,3.356c0-1.26,1.024-2.285,2.284-2.285
	c1.263,0,2.289,1.025,2.289,2.285c0,1.262-1.026,2.288-2.289,2.288c-0.62,0-1.183-0.25-1.594-0.653
	c-0.257-0.25-0.446-0.563-0.562-0.91C10.749,3.853,10.698,3.611,10.698,3.356 M1.071,8.999c0-1.26,1.026-2.287,2.286-2.287
	c0.675,0,1.276,0.301,1.694,0.766c0.24,0.266,0.416,0.587,0.51,0.941c0.049,0.188,0.083,0.38,0.083,0.58
	c0,0.262-0.054,0.51-0.134,0.743c-0.12,0.347-0.314,0.656-0.572,0.904c-0.412,0.395-0.967,0.641-1.581,0.641
	C2.097,11.287,1.071,10.262,1.071,8.999 M10.698,14.645c0-0.196,0.031-0.382,0.078-0.563c0.092-0.356,0.266-0.678,0.503-0.945
	c0.419-0.474,1.022-0.777,1.703-0.777c1.263,0,2.289,1.026,2.289,2.286s-1.026,2.286-2.289,2.286
	C11.722,16.931,10.698,15.904,10.698,14.645"/>
</svg>
