<?xml version="1.0" encoding="utf-8"?>
<!-- Generator: Adobe Illustrator 16.0.0, SVG Export Plug-In . SVG Version: 6.00 Build 0)  -->
<!DOCTYPE svg PUBLIC "-//W3C//DTD SVG 1.1//EN" "http://www.w3.org/Graphics/SVG/1.1/DTD/svg11.dtd">
<svg version="1.1" id="Layer_1" xmlns="http://www.w3.org/2000/svg" xmlns:xlink="http://www.w3.org/1999/xlink" x="0px" y="0px"
	 width="10.824px" height="11.999px" viewBox="0 0 10.824 11.999" enable-background="new 0 0 10.824 11.999" xml:space="preserve">
<path d="M8.823,7.999c-0.572,0-1.085,0.243-1.449,0.629l-3.48-2.011c0.064-0.196,0.107-0.401,0.107-0.619
	c0-0.173-0.029-0.338-0.07-0.497L7.465,3.46C7.821,3.793,8.297,4,8.823,4c1.106,0,2.001-0.895,2.001-2.001
	C10.824,0.894,9.93,0,8.823,0C7.719,0,6.824,0.894,6.824,1.999c0,0.216,0.043,0.42,0.106,0.615L3.449,4.625
	C3.085,4.24,2.572,3.998,2,3.998c-1.104,0-2,0.895-2,2C0,7.104,0.896,8,2,8c0.526,0,1-0.207,1.357-0.538l3.529,2.039l0.017-0.028
	C6.856,9.642,6.824,9.815,6.824,9.999c0,1.106,0.895,2,1.999,2c1.106,0,2.001-0.894,2.001-2C10.824,8.895,9.93,7.999,8.823,7.999z"
	/>
</svg>
