<?xml version="1.0" encoding="utf-8"?>
<!-- Generator: Adobe Illustrator 16.0.0, SVG Export Plug-In . SVG Version: 6.00 Build 0)  -->
<!DOCTYPE svg PUBLIC "-//W3C//DTD SVG 1.1//EN" "http://www.w3.org/Graphics/SVG/1.1/DTD/svg11.dtd">
<svg version="1.1" id="Layer_1" xmlns="http://www.w3.org/2000/svg" xmlns:xlink="http://www.w3.org/1999/xlink" x="0px" y="0px"
	 width="30px" height="29.999px" viewBox="0 0 30 29.999" enable-background="new 0 0 30 29.999" xml:space="preserve">
<path d="M29.932,11.397c-0.46-1.501-2.991-1.843-5.674-2.212c-1.47-0.204-3.138-0.432-3.643-0.821
	c-0.505-0.385-1.214-1.979-1.841-3.384c-1.137-2.561-2.214-4.971-3.718-4.975L15.028,0c-1.496,0.028-2.583,2.411-3.742,4.941
	c-0.637,1.4-1.363,2.984-1.867,3.365C8.908,8.691,7.236,8.905,5.763,9.09c-2.678,0.342-5.214,0.659-5.688,2.155
	c-0.472,1.49,1.378,3.327,3.343,5.269c1.072,1.068,2.29,2.279,2.486,2.901c0.191,0.621-0.136,2.345-0.418,3.863
	c-0.518,2.769-1.009,5.383,0.205,6.317c0.291,0.22,0.654,0.328,1.086,0.318c1.237-0.018,3.024-1.025,4.746-2.002
	c1.292-0.736,2.756-1.566,3.406-1.576c0.632,0,2.1,0.854,3.396,1.608c1.765,1.021,3.587,2.08,4.829,2.055
	c0.386-0.003,0.718-0.108,0.985-0.312c1.224-0.916,0.76-3.533,0.269-6.309c-0.272-1.52-0.571-3.252-0.382-3.873
	c0.196-0.623,1.427-1.813,2.514-2.873C28.518,14.711,30.386,12.902,29.932,11.397"/>
</svg>
