<?xml version="1.0" encoding="utf-8"?>
<!-- Generator: Adobe Illustrator 16.0.0, SVG Export Plug-In . SVG Version: 6.00 Build 0)  -->
<!DOCTYPE svg PUBLIC "-//W3C//DTD SVG 1.1//EN" "http://www.w3.org/Graphics/SVG/1.1/DTD/svg11.dtd">
<svg version="1.1" id="Layer_1" xmlns="http://www.w3.org/2000/svg" xmlns:xlink="http://www.w3.org/1999/xlink" x="0px" y="0px"
	 width="41px" height="41px" viewBox="0 0 41 41" enable-background="new 0 0 41 41" xml:space="preserve">
<path d="M40.906,15.575c-0.628-2.051-4.088-2.518-7.754-3.022c-2.008-0.278-4.287-0.591-4.978-1.122
	c-0.69-0.527-1.658-2.706-2.517-4.626c-1.554-3.497-3.025-6.792-5.082-6.799L20.538,0c-2.044,0.038-3.529,3.295-5.114,6.752
	c-0.87,1.915-1.863,4.081-2.553,4.601c-0.696,0.524-2.981,0.817-4.996,1.069c-3.66,0.468-7.126,0.901-7.772,2.946
	c-0.646,2.035,1.883,4.547,4.567,7.201c1.465,1.459,3.131,3.113,3.398,3.965c0.261,0.848-0.187,3.203-0.571,5.278
	c-0.708,3.783-1.379,7.358,0.28,8.636c0.396,0.299,0.894,0.447,1.483,0.435c1.691-0.024,4.133-1.401,6.486-2.737
	c1.767-1.007,3.768-2.141,4.654-2.154c0.864,0,2.871,1.168,4.642,2.199c2.411,1.396,4.902,2.842,6.6,2.809
	c0.527-0.006,0.981-0.148,1.347-0.428c1.672-1.252,1.039-4.828,0.368-8.621c-0.374-2.076-0.783-4.445-0.522-5.293
	c0.268-0.852,1.95-2.479,3.437-3.926C38.973,20.103,41.526,17.632,40.906,15.575"/>
</svg>
