<?xml version="1.0" encoding="utf-8"?>
<!-- Generator: Adobe Illustrator 16.0.0, SVG Export Plug-In . SVG Version: 6.00 Build 0)  -->
<!DOCTYPE svg PUBLIC "-//W3C//DTD SVG 1.1//EN" "http://www.w3.org/Graphics/SVG/1.1/DTD/svg11.dtd">
<svg version="1.1" id="Layer_1" xmlns="http://www.w3.org/2000/svg" xmlns:xlink="http://www.w3.org/1999/xlink" x="0px" y="0px"
	 width="16px" height="16.002px" viewBox="0 0 16 16.002" enable-background="new 0 0 16 16.002" xml:space="preserve">
<g>
	<g>
		<path d="M5.951,7.588c0,0.516-0.416,0.932-0.931,0.932c-0.516,0-0.932-0.416-0.932-0.932c0-0.515,0.416-0.932,0.932-0.932
			C5.535,6.656,5.951,7.073,5.951,7.588"/>
	</g>
	<g>
		<path d="M11.912,7.588c0,0.516-0.415,0.932-0.932,0.932c-0.514,0-0.932-0.416-0.932-0.932c0-0.515,0.418-0.932,0.932-0.932
			C11.497,6.656,11.912,7.073,11.912,7.588"/>
	</g>
	<g>
		<path d="M7.88,11.961c-0.276,0-0.5-0.224-0.5-0.5s0.224-0.5,0.5-0.5c1.809,0,2.474-0.747,2.501-0.779
			c0.179-0.207,0.493-0.234,0.702-0.061c0.21,0.175,0.243,0.482,0.072,0.694C11.117,10.862,10.205,11.961,7.88,11.961z"/>
	</g>
	<g>
		<path d="M8,11.961c-2.324,0-3.237-1.098-3.275-1.145c-0.173-0.215-0.14-0.53,0.075-0.703c0.213-0.174,0.524-0.141,0.698,0.069
			c0.035,0.04,0.704,0.778,2.501,0.778c0.276,0,0.5,0.224,0.5,0.5S8.276,11.961,8,11.961z"/>
	</g>
	<g>
		<path d="M10.338,1.438C9.967,1.068,9.664,0.67,9.664,1.193V5.26c0,0.524,0.427,0.953,0.953,0.953h4.203
			c0.521,0-0.011-0.303-0.382-0.674L10.338,1.438z"/>
	</g>
	<g>
		<path d="M8.002,1c0.63,0,1.254,0.085,1.857,0.252l4.837,4.699C14.898,6.613,15,7.302,15,8c0,3.861-3.14,7.002-6.998,7.002
			C4.142,15.002,1,11.861,1,8C1,4.141,4.142,1,8.002,1 M8.002,0C3.582,0,0,3.582,0,8c0,4.42,3.582,8.002,8.002,8.002
			C12.419,16.002,16,12.42,16,8c0-0.908-0.15-1.779-0.429-2.594L10.38,0.361C9.628,0.128,8.829,0,8.002,0"/>
	</g>
</g>
</svg>
