<?xml version="1.0" encoding="utf-8"?>
<!-- Generator: Adobe Illustrator 16.0.0, SVG Export Plug-In . SVG Version: 6.00 Build 0)  -->
<!DOCTYPE svg PUBLIC "-//W3C//DTD SVG 1.1//EN" "http://www.w3.org/Graphics/SVG/1.1/DTD/svg11.dtd">
<svg version="1.1" id="Layer_1" xmlns="http://www.w3.org/2000/svg" xmlns:xlink="http://www.w3.org/1999/xlink" x="0px" y="0px"
	 width="9.333px" height="16.001px" viewBox="0 0 9.333 16.001" enable-background="new 0 0 9.333 16.001" xml:space="preserve">
<g>
	<path d="M4.407,0.135l-4.35,5.7c-0.146,0.21,0.004,0.498,0.26,0.498H2v6.017c0,0.175,0.143,0.316,0.317,0.316h4.7
		c0.175,0,0.315-0.142,0.315-0.316V6.333h1.683c0.257,0,0.406-0.288,0.261-0.498l-4.351-5.7C4.799-0.045,4.533-0.045,4.407,0.135"/>
	<path d="M2,14.222v1.557c0,0.122,0.085,0.223,0.19,0.223h4.952c0.105,0,0.19-0.101,0.19-0.223v-1.557
		c0-0.123-0.085-0.221-0.19-0.221H2.19C2.084,14.001,2,14.099,2,14.222"/>
</g>
</svg>
