<?xml version="1.0" encoding="utf-8"?>
<!-- Generator: Adobe Illustrator 16.0.0, SVG Export Plug-In . SVG Version: 6.00 Build 0)  -->
<!DOCTYPE svg PUBLIC "-//W3C//DTD SVG 1.1//EN" "http://www.w3.org/Graphics/SVG/1.1/DTD/svg11.dtd">
<svg version="1.1" id="Layer_1" xmlns="http://www.w3.org/2000/svg" xmlns:xlink="http://www.w3.org/1999/xlink" x="0px" y="0px"
	 width="13px" height="11.594px" viewBox="0 0 13 11.594" enable-background="new 0 0 13 11.594" xml:space="preserve">
<g>
	<path d="M5.442,9.008V7.787C2.794,7.598,0.922,6.736,0,6.207v3.772c0,0.888,0.726,1.614,1.614,1.614h9.771
		c0.889,0,1.614-0.727,1.614-1.614V6.207c-0.921,0.529-2.794,1.391-5.442,1.58v1.221H5.442z"/>
	<path d="M7.558,5.705v1.268C10.526,6.743,12.457,5.617,13,5.26V4.549c0-0.887-0.726-1.613-1.614-1.613H9.619V1.613
		C9.619,0.723,8.896,0,8.005,0H4.994C4.105,0,3.38,0.723,3.38,1.613v1.322H1.614C0.726,2.936,0,3.662,0,4.549V5.26
		c0.546,0.357,2.485,1.482,5.442,1.713V5.705H7.558z M4.994,1.613h3.011v1.322H4.994V1.613z"/>
</g>
</svg>
