<?xml version="1.0" encoding="utf-8"?>
<!-- Generator: Adobe Illustrator 16.0.0, SVG Export Plug-In . SVG Version: 6.00 Build 0)  -->
<!DOCTYPE svg PUBLIC "-//W3C//DTD SVG 1.1//EN" "http://www.w3.org/Graphics/SVG/1.1/DTD/svg11.dtd">
<svg version="1.1" id="Layer_1" xmlns="http://www.w3.org/2000/svg" xmlns:xlink="http://www.w3.org/1999/xlink" x="0px" y="0px"
	 width="11.999px" height="12px" viewBox="0 0 11.999 12" enable-background="new 0 0 11.999 12" xml:space="preserve">
<path d="M3.954,12h6.76c0.705,0,1.285-0.604,1.285-1.312V4.644c0-0.709-0.58-1.644-1.285-1.644H7.999V1.315
	C7.999,0.606,7.14,0,6.431,0H4.697C3.988,0,3,0.606,3,1.315V3H0.543C0.243,3,0,3.243,0,3.543v7.914C0,11.757,0.243,12,0.543,12
	h2.914 M10.999,10.685c0,0.107-0.08,0.315-0.502,0.315H4V4V3.543V1.524C4,1.274,4.14,1,4.697,1h1.733
	c0.494,0,0.568,0.305,0.568,0.555v1.604C6.999,3.868,7.208,4,7.915,4h2.52c0.564,0,0.564,0.537,0.564,0.647V10.685z"/>
</svg>
