<?xml version="1.0" encoding="utf-8"?>
<!-- Generator: Adobe Illustrator 16.0.0, SVG Export Plug-In . SVG Version: 6.00 Build 0)  -->
<!DOCTYPE svg PUBLIC "-//W3C//DTD SVG 1.1//EN" "http://www.w3.org/Graphics/SVG/1.1/DTD/svg11.dtd">
<svg version="1.1" id="Layer_1" xmlns="http://www.w3.org/2000/svg" xmlns:xlink="http://www.w3.org/1999/xlink" x="0px" y="0px"
	 width="9.83px" height="14px" viewBox="0 0 9.83 14" enable-background="new 0 0 9.83 14" xml:space="preserve">
<path d="M4.915,0C2.2,0,0,2.2,0,4.915c0,0.31,0.04,0.634,0.097,0.963C0.1,5.896,0.104,5.912,0.107,5.93
	c0.421,2.34,2.13,5.067,3.391,6.831C3.942,13.363,4.428,14,4.915,14s0.973-0.637,1.417-1.239c1.261-1.764,2.97-4.491,3.391-6.831
	C9.727,5.912,9.73,5.896,9.733,5.878C9.79,5.549,9.83,5.225,9.83,4.915C9.83,2.2,7.63,0,4.915,0 M4.915,8.161
	c-1.793,0-3.247-1.454-3.247-3.247s1.454-3.247,3.247-3.247s3.247,1.454,3.247,3.247S6.708,8.161,4.915,8.161"/>
</svg>
