<?xml version="1.0" encoding="utf-8"?>
<!-- Generator: Adobe Illustrator 19.2.0, SVG Export Plug-In . SVG Version: 6.00 Build 0)  -->
<svg version="1.1" id="Layer_1" xmlns="http://www.w3.org/2000/svg" xmlns:xlink="http://www.w3.org/1999/xlink" x="0px" y="0px"
	 viewBox="0 0 12 12" style="enable-background:new 0 0 12 12;" xml:space="preserve">
		<path d="M3.2,12c-0.1,0-0.2,0-0.4-0.1c-0.3-0.1-0.5-0.5-0.5-0.8V9.9C1,9.5,0,8.2,0,6.6V3.4C0,1.5,1.5,0,3.3,0h5.4
			C10.5,0,12,1.5,12,3.4v3.2c0,1.9-1.5,3.4-3.3,3.4h-3l-2,1.7C3.6,11.9,3.4,12,3.2,12z M3.3,1C2,1,1,2.1,1,3.4v3.2
			C1,7.8,1.8,8.8,2.9,9L3.4,9v1.7l2-1.8h3.3C10,9,11,7.9,11,6.6V3.4C11,2.1,10,1,8.7,1H3.3z"/>
		<path d="M9,6.9H3c-0.3,0-0.5-0.2-0.5-0.5S2.7,5.8,3,5.8h6c0.3,0,0.5,0.2,0.5,0.5S9.3,6.9,9,6.9"/>
		<path d="M9,4.3H3c-0.3,0-0.5-0.2-0.5-0.5S2.7,3.2,3,3.2h6c0.3,0,0.5,0.2,0.5,0.5S9.3,4.3,9,4.3"/>
</svg>
