<?xml version="1.0" encoding="utf-8"?>
<!-- Generator: Adobe Illustrator 19.2.0, SVG Export Plug-In . SVG Version: 6.00 Build 0)  -->
<svg version="1.1" id="Layer_1" xmlns="http://www.w3.org/2000/svg" xmlns:xlink="http://www.w3.org/1999/xlink" x="0px" y="0px"
	 viewBox="0 0 18 18" style="enable-background:new 0 0 18 18;" xml:space="preserve">
	<path d="M9.2,12.6c-0.3,0-0.5-0.1-0.5-0.1c-0.2-0.1-0.5-0.2-0.6-0.4L3.8,8.2c-0.4-0.5-0.5-1-0.3-1.5c0.3-0.7,1.1-0.7,1.3-0.7l1.9,0
		V1.1c0-0.4,0.2-0.6,0.3-0.8C7.2,0.1,7.5,0,7.9,0h0h2.5h0c0.4,0,0.7,0.1,0.9,0.3c0.1,0.1,0.3,0.4,0.3,0.8v4.8l1.9,0
		c0.2,0,1,0,1.3,0.7v0c0.2,0.5,0.1,1-0.2,1.5l-4.4,4c-0.1,0.2-0.3,0.3-0.6,0.4C9.7,12.5,9.4,12.6,9.2,12.6 M4.8,6.9
		C4.5,6.9,4.4,7,4.4,7C4.3,7.2,4.3,7.3,4.5,7.5l4.3,3.9c0.1,0.1,0.3,0.2,0.4,0.2c0.1,0,0.3-0.1,0.4-0.2l4.4-4C14,7.3,14,7.2,14,7
		c0-0.1-0.1-0.1-0.4-0.1h0l-2.9,0V1.1c0-0.1,0-0.1,0-0.1c0,0-0.1,0-0.2,0h0H7.9l0,0C7.8,1,7.7,1,7.7,1c0,0,0,0,0,0.1v5.8L4.8,6.9
		L4.8,6.9z"/>
	<path d="M14,18H4c-2.2,0-4-1.8-4-4v-1.9c0-0.9,0.7-1.6,1.6-1.6h0.5c0.9,0,1.6,0.7,1.6,1.6V14c0,0.2,0.2,0.3,0.3,0.3h10
		c0.2,0,0.3-0.2,0.3-0.3v-1.9c0-0.9,0.7-1.6,1.6-1.6h0.5c0.9,0,1.6,0.7,1.6,1.6V14C18,16.2,16.2,18,14,18 M1.6,11.5
		c-0.3,0-0.6,0.3-0.6,0.6V14c0,1.7,1.4,3,3,3h10c1.7,0,3-1.4,3-3v-1.9c0-0.3-0.3-0.6-0.6-0.6h-0.5c-0.3,0-0.6,0.3-0.6,0.6V14
		c0,0.7-0.6,1.3-1.3,1.3H4c-0.7,0-1.3-0.6-1.3-1.3v-1.9c0-0.3-0.3-0.6-0.6-0.6C2.1,11.5,1.6,11.5,1.6,11.5z"/>
</svg>
