<?xml version="1.0" encoding="utf-8"?>
<!-- Generator: Adobe Illustrator 19.2.0, SVG Export Plug-In . SVG Version: 6.00 Build 0)  -->
<svg version="1.1" id="Layer_1" xmlns="http://www.w3.org/2000/svg" xmlns:xlink="http://www.w3.org/1999/xlink" x="0px" y="0px"
	 viewBox="0 0 11 12" style="enable-background:new 0 0 11 12;" xml:space="preserve">
<path d="M9,8C8.4,8,7.9,8.2,7.5,8.6L4,6.6C4,6.4,4.1,6.2,4.1,6c0-0.2,0-0.3-0.1-0.5l3.6-2C7.9,3.8,8.4,4,9,4c1.1,0,2-0.9,2-2
	c0-1.1-0.9-2-2-2c-1.1,0-2,0.9-2,2c0,0.2,0,0.4,0.1,0.6l-3.5,2C3.1,4.2,2.6,4,2,4C0.9,4,0,4.9,0,6c0,1.1,0.9,2,2,2
	c0.5,0,1-0.2,1.4-0.5l3.6,2l0,0C7,9.6,6.9,9.8,6.9,10c0,1.1,0.9,2,2,2c1.1,0,2-0.9,2-2C11,8.9,10.1,8,9,8z"/>
</svg>
