<?xml version="1.0" encoding="utf-8"?>
<!-- Generator: Adobe Illustrator 19.2.0, SVG Export Plug-In . SVG Version: 6.00 Build 0)  -->
<svg version="1.1" id="Layer_1" xmlns="http://www.w3.org/2000/svg" xmlns:xlink="http://www.w3.org/1999/xlink" x="0px" y="0px"
	 viewBox="0 0 16.5 18" style="enable-background:new 0 0 16.5 18;" xml:space="preserve">
<path d="M13.1,11.3c-1.1,0-2,0.5-2.7,1.3l-3.9-2.3C6.7,9.9,6.8,9.5,6.8,9c0-0.4-0.1-0.8-0.2-1.1l4-2.3c0.6,0.7,1.5,1.2,2.6,1.2
	c1.9,0,3.4-1.5,3.4-3.4C16.5,1.5,15,0,13.1,0c-1.9,0-3.4,1.5-3.4,3.4c0,0.5,0.1,0.9,0.3,1.3L6,6.9C5.4,6.2,4.5,5.6,3.4,5.6
	C1.5,5.6,0,7.1,0,9c0,1.9,1.5,3.4,3.4,3.4c1,0,1.9-0.5,2.5-1.2l4,2.3c-0.1,0.4-0.2,0.7-0.2,1.1c0,1.9,1.5,3.4,3.4,3.4
	c1.9,0,3.4-1.5,3.4-3.4C16.5,12.8,15,11.3,13.1,11.3 M10.8,3.4c0-1.3,1-2.3,2.3-2.3c1.3,0,2.3,1,2.3,2.3c0,1.3-1,2.3-2.3,2.3
	c-0.6,0-1.2-0.2-1.6-0.7c-0.3-0.2-0.5-0.6-0.6-0.9C10.9,3.9,10.8,3.6,10.8,3.4 M1.1,9c0-1.3,1-2.3,2.3-2.3c0.7,0,1.3,0.3,1.7,0.8
	c0.2,0.3,0.4,0.6,0.5,0.9c0,0.2,0.1,0.4,0.1,0.6c0,0.3-0.1,0.5-0.1,0.7c-0.1,0.3-0.3,0.7-0.6,0.9c-0.4,0.4-1,0.6-1.6,0.6
	C2.1,11.3,1.1,10.3,1.1,9 M10.8,14.6c0-0.2,0-0.4,0.1-0.6c0.1-0.4,0.3-0.7,0.5-0.9c0.4-0.5,1-0.8,1.7-0.8c1.3,0,2.3,1,2.3,2.3
	s-1,2.3-2.3,2.3C11.8,16.9,10.8,15.9,10.8,14.6"/>
</svg>
