<?xml version="1.0" encoding="utf-8"?>
<!-- Generator: Adobe Illustrator 19.2.0, SVG Export Plug-In . SVG Version: 6.00 Build 0)  -->
<svg version="1.1" id="Layer_1" xmlns="http://www.w3.org/2000/svg" xmlns:xlink="http://www.w3.org/1999/xlink" x="0px" y="0px"
	 viewBox="0 0 16 16" style="enable-background:new 0 0 16 16;" xml:space="preserve">
		<path d="M6,7.6C6,8.1,5.5,8.5,5,8.5c-0.5,0-0.9-0.4-0.9-0.9c0-0.5,0.4-0.9,0.9-0.9C5.5,6.7,6,7.1,6,7.6"/>
		<path d="M11.9,7.6c0,0.5-0.4,0.9-0.9,0.9c-0.5,0-0.9-0.4-0.9-0.9c0-0.5,0.4-0.9,0.9-0.9C11.5,6.7,11.9,7.1,11.9,7.6"/>
		<path d="M7.9,12c-0.3,0-0.5-0.2-0.5-0.5S7.6,11,7.9,11c1.8,0,2.5-0.7,2.5-0.8c0.2-0.2,0.5-0.2,0.7-0.1c0.2,0.2,0.2,0.5,0.1,0.7
			C11.1,10.9,10.2,12,7.9,12z"/>
		<path d="M8,12c-2.3,0-3.2-1.1-3.3-1.1c-0.2-0.2-0.1-0.5,0.1-0.7C5,9.9,5.3,10,5.5,10.2c0,0,0.7,0.8,2.5,0.8c0.3,0,0.5,0.2,0.5,0.5
			S8.3,12,8,12z"/>
		<path d="M10.3,1.4C10,1.1,9.7,0.7,9.7,1.2v4.1c0,0.5,0.4,1,1,1h4.2c0.5,0,0-0.3-0.4-0.7L10.3,1.4z"/>
		<path d="M8,1c0.6,0,1.3,0.1,1.9,0.3L14.7,6C14.9,6.6,15,7.3,15,8c0,3.9-3.1,7-7,7c-3.9,0-7-3.1-7-7C1,4.1,4.1,1,8,1 M8,0
			C3.6,0,0,3.6,0,8c0,4.4,3.6,8,8,8c4.4,0,8-3.6,8-8c0-0.9-0.1-1.8-0.4-2.6l-5.2-5C9.6,0.1,8.8,0,8,0"/>
</svg>
