<?xml version="1.0" encoding="utf-8"?>
<!-- Generator: Adobe Illustrator 16.0.0, SVG Export Plug-In . SVG Version: 6.00 Build 0)  -->
<!DOCTYPE svg PUBLIC "-//W3C//DTD SVG 1.1//EN" "http://www.w3.org/Graphics/SVG/1.1/DTD/svg11.dtd">
<svg version="1.1" id="Layer_1" xmlns="http://www.w3.org/2000/svg" xmlns:xlink="http://www.w3.org/1999/xlink" x="0px" y="0px"
	 width="23.453px" height="23.027px" viewBox="0 0 23.453 23.027" enable-background="new 0 0 23.453 23.027" xml:space="preserve">
<g>
	<path d="M22.718,0.294c-0.467-0.326-1.092-0.385-1.714-0.156L8.925,4.546H2.4c-1.324,0-2.4,1.077-2.4,2.4v7.896
		c0,1.322,1.076,2.4,2.4,2.4h1.904v4.345c0,0.794,0.646,1.44,1.439,1.44h2.326c0.794,0,1.44-0.646,1.44-1.44v-4.142l11.492,4.037
		c0.245,0.086,0.489,0.127,0.724,0.127c0.366,0,0.709-0.103,0.994-0.305c0.466-0.33,0.734-0.898,0.734-1.561V1.85
		C23.453,1.188,23.185,0.62,22.718,0.294 M4.784,16.272c-0.016,0-0.028,0.009-0.042,0.009H2.4c-0.794,0-1.44-0.646-1.44-1.439V6.946
		c0-0.794,0.646-1.44,1.44-1.44h6.131v10.775H4.826C4.811,16.281,4.798,16.272,4.784,16.272 M8.548,21.587
		c0,0.265-0.215,0.479-0.479,0.479H5.743c-0.264,0-0.479-0.215-0.479-0.479v-4.345h3.284V21.587z M18.91,19.729l-9.419-3.308V5.362
		l9.419-3.438V19.729z M22.493,19.744c0,0.352-0.117,0.627-0.33,0.777c-0.213,0.152-0.515,0.17-0.843,0.055l-1.451-0.51V1.574
		L20.896,1.2l0.61-0.19c0.255-0.057,0.491-0.049,0.661,0.071c0.21,0.147,0.326,0.419,0.326,0.769V19.744z"/>
	<path d="M5.856,10.219H3.711c-0.265,0-0.48,0.215-0.48,0.48s0.215,0.48,0.48,0.48h2.145c0.266,0,0.48-0.215,0.48-0.48
		S6.122,10.219,5.856,10.219"/>
	<path d="M5.856,13.119H3.711c-0.265,0-0.48,0.215-0.48,0.48s0.215,0.48,0.48,0.48h2.145c0.266,0,0.48-0.215,0.48-0.48
		S6.122,13.119,5.856,13.119"/>
	<path d="M5.856,7.32H3.711c-0.265,0-0.48,0.215-0.48,0.48c0,0.265,0.215,0.48,0.48,0.48h2.145c0.266,0,0.48-0.215,0.48-0.48
		C6.336,7.535,6.122,7.32,5.856,7.32"/>
</g>
</svg>
