<?xml version="1.0" encoding="utf-8"?>
<!-- Generator: Adobe Illustrator 16.0.0, SVG Export Plug-In . SVG Version: 6.00 Build 0)  -->
<!DOCTYPE svg PUBLIC "-//W3C//DTD SVG 1.1//EN" "http://www.w3.org/Graphics/SVG/1.1/DTD/svg11.dtd">
<svg version="1.1" id="Layer_1" xmlns="http://www.w3.org/2000/svg" xmlns:xlink="http://www.w3.org/1999/xlink" x="0px" y="0px"
	 width="24px" height="23.946px" viewBox="0 0 24 23.946" enable-background="new 0 0 24 23.946" xml:space="preserve">
<g>
	<path d="M23.521,0H0.479C0.214,0,0,0.214,0,0.479V3.67c0,0.265,0.214,0.479,0.479,0.479h0.77v12.946
		c0,0.535,0.182,1.025,0.479,1.424c0.14,0.189,0.306,0.355,0.495,0.494c0.399,0.297,0.889,0.479,1.423,0.479H7.47l-1.27,1.75
		c-0.268,0.367-0.378,0.816-0.306,1.266c0.07,0.451,0.312,0.846,0.681,1.115c0.737,0.531,1.852,0.35,2.377-0.377l2.727-3.754h1.082
		l2.726,3.752c0.317,0.439,0.833,0.703,1.377,0.703c0.362,0,0.708-0.113,1.001-0.324c0.369-0.27,0.611-0.664,0.681-1.115
		c0.07-0.449-0.037-0.898-0.305-1.266l-1.272-1.75h3.353c0.535,0,1.024-0.182,1.423-0.479c0.188-0.139,0.354-0.305,0.494-0.494
		c0.297-0.398,0.48-0.889,0.48-1.424V4.149h0.802C23.785,4.149,24,3.935,24,3.67V0.479C24,0.214,23.785,0,23.521,0 M23.041,3.19
		h-0.47h-0.332h-0.724H2.453H1.728H1.397H0.959v-2.23h22.082V3.19z M7.138,22.845c-0.161-0.117-0.267-0.289-0.298-0.486
		c-0.03-0.195,0.017-0.393,0.134-0.553l1.681-2.314h1.838l-2.317,3.191C7.945,23.001,7.462,23.081,7.138,22.845 M17.467,21.808
		c0.116,0.158,0.163,0.355,0.133,0.551c-0.031,0.197-0.137,0.369-0.297,0.486c-0.323,0.236-0.805,0.16-1.04-0.164l-2.317-3.189
		h1.839l1.681,2.314L17.467,21.808z M21.76,17.095c0,0.793-0.645,1.438-1.438,1.438h-4.049H15.68h-0.592h-1.839h-0.593h-0.873
		h-0.592h-1.84H8.76H8.167H3.646c-0.793,0-1.438-0.645-1.438-1.438V4.149H21.76V17.095z"/>
	<path d="M5.961,12.69l-0.369,2.484c-0.055,0.367,0.058,0.688,0.31,0.879c0.26,0.195,0.618,0.217,0.987,0.053l1.13-0.512l0.778-0.35
		l0.001-0.002H8.8l0.532-0.242l0.536,0.244c0.001,0,0.001,0.002,0.001,0.002l0.497,0.225l0.019,0.01l0.445,0.201l0.445,0.203
		l0.421,0.191l0.08,0.037h0.001c0.165,0.074,0.328,0.113,0.482,0.113c0.183,0,0.354-0.055,0.496-0.16
		c0.124-0.092,0.212-0.217,0.267-0.359c0.058-0.154,0.077-0.33,0.049-0.52l-0.006-0.045l-0.08-0.555L12.712,12.7l1.861-1.814
		c0.278-0.271,0.382-0.604,0.285-0.908c-0.097-0.309-0.38-0.523-0.777-0.59l-2.049-0.35c-0.011-0.004-0.024-0.006-0.037-0.008
		l-0.577-0.1l-0.27-0.474l0.001-0.002L10.888,8l-0.372-0.654L10.148,6.7l-0.001-0.001l-0.001-0.002
		C9.957,6.368,9.665,6.179,9.347,6.179c0,0-0.001,0-0.002,0.001c-0.32,0-0.61,0.189-0.796,0.518L7.267,8.925L4.604,9.368
		C4.203,9.435,3.918,9.651,3.82,9.962c-0.095,0.305,0.011,0.637,0.288,0.908L5.961,12.69z M7.65,9.831
		c0.141-0.023,0.263-0.109,0.334-0.232l1.368-2.36l0.511,0.898l0.833,1.465c0.072,0.125,0.195,0.213,0.336,0.236l0.766,0.131
		c0.013,0.002,0.025,0.004,0.038,0.008l1.946,0.34l-0.615,0.6h-0.001l-1.298,1.266c-0.11,0.109-0.161,0.262-0.14,0.412l0.274,1.92
		l0.068,0.48l0.031,0.213l-0.409-0.186l-0.472-0.217l-0.121-0.055l-0.513-0.23L9.53,14.038c-0.062-0.029-0.13-0.043-0.198-0.043
		c-0.067,0-0.135,0.014-0.199,0.043L8.42,14.362c-0.008,0.004-0.014,0.006-0.02,0.01l-1.842,0.82l0.387-2.604
		c0.021-0.152-0.029-0.305-0.138-0.412l-1.91-1.885L7.65,9.831z"/>
	<path d="M17.458,16.335c0.265,0,0.479-0.215,0.479-0.479v-3c0-0.264-0.214-0.479-0.479-0.479c-0.265,0-0.479,0.215-0.479,0.479v3
		C16.979,16.12,17.193,16.335,17.458,16.335"/>
	<path d="M19.664,16.335c0.265,0,0.479-0.215,0.479-0.479v-4.09c0-0.266-0.214-0.479-0.479-0.479c-0.265,0-0.479,0.213-0.479,0.479
		v4.09C19.185,16.12,19.399,16.335,19.664,16.335"/>
	<path d="M14.772,15.854c0,0.266,0.214,0.48,0.479,0.48c0.265,0,0.48-0.215,0.48-0.48v-1.5c0-0.264-0.215-0.479-0.48-0.479
		c-0.265,0-0.479,0.215-0.479,0.479V15.854z"/>
</g>
</svg>
