<?xml version="1.0" encoding="utf-8"?>
<!-- Generator: Adobe Illustrator 16.0.0, SVG Export Plug-In . SVG Version: 6.00 Build 0)  -->
<!DOCTYPE svg PUBLIC "-//W3C//DTD SVG 1.1//EN" "http://www.w3.org/Graphics/SVG/1.1/DTD/svg11.dtd">
<svg version="1.1" id="Layer_1" xmlns="http://www.w3.org/2000/svg" xmlns:xlink="http://www.w3.org/1999/xlink" x="0px" y="0px"
	 width="21.589px" height="21.565px" viewBox="0 0 21.589 21.565" enable-background="new 0 0 21.589 21.565" xml:space="preserve">
<g>
	<path fill="#F06392" d="M19.547,21.085c-0.401,0-0.801-0.155-1.106-0.459l-7.862-7.861c-0.609-0.612,0.669-0.175,1.281-0.784
		c0.607-0.609,0.316-2.036,0.928-1.425l7.862,7.861c0.611,0.607,0.611,1.598,0,2.209C20.346,20.93,19.946,21.085,19.547,21.085"/>
	<path fill="#455B64" d="M19.548,21.565c-0.544,0-1.058-0.213-1.445-0.6l-7.863-7.862c-0.109-0.109-0.396-0.397-0.271-0.765
		c0.124-0.364,0.497-0.412,0.796-0.452c0.262-0.034,0.586-0.077,0.757-0.246c0.168-0.17,0.244-0.523,0.305-0.808
		c0.08-0.378,0.163-0.769,0.551-0.882c0.249-0.077,0.499,0.016,0.75,0.265l7.862,7.862c0.385,0.383,0.598,0.894,0.599,1.438
		c0.001,0.547-0.212,1.062-0.599,1.449C20.602,21.352,20.091,21.565,19.548,21.565 M11.278,12.776l7.503,7.511
		c0.411,0.41,1.118,0.412,1.53,0c0.205-0.205,0.318-0.479,0.318-0.769c0-0.288-0.113-0.558-0.317-0.761l-7.578-7.578
		c-0.082,0.366-0.208,0.813-0.533,1.139C11.925,12.593,11.583,12.713,11.278,12.776"/>
	<path fill="#FDC516" d="M15.574,3.07c-3.454-3.454-9.052-3.454-12.504,0c-3.456,3.454-3.456,9.053-0.002,12.504
		c3.454,3.458,9.052,3.458,12.506,0C19.028,12.121,19.026,6.524,15.574,3.07"/>
	<path fill="#455B64" d="M9.322,18.648H9.32c-2.49-0.001-4.83-0.972-6.59-2.734C0.97,14.154,0,11.813,0,9.323s0.97-4.831,2.73-6.592
		C4.491,0.97,6.833,0,9.322,0c2.49,0,4.831,0.97,6.591,2.731c3.634,3.634,3.636,9.548,0.002,13.183
		C14.154,17.677,11.812,18.648,9.322,18.648 M9.322,0.96c-2.233,0-4.333,0.87-5.913,2.45c-1.58,1.579-2.45,3.679-2.45,5.913
		c0,2.233,0.87,4.334,2.45,5.912c1.579,1.581,3.678,2.452,5.911,2.453h0.002c2.234,0,4.334-0.871,5.915-2.453
		c3.258-3.262,3.258-8.566-0.003-11.825C13.655,1.83,11.555,0.96,9.322,0.96"/>
	<path fill="#FFFFFF" d="M13.88,13.882c-2.517,2.52-6.6,2.52-9.113,0c-2.519-2.518-2.519-6.6,0-9.117
		c2.514-2.517,6.596-2.517,9.113,0C16.398,7.282,16.398,11.363,13.88,13.882"/>
	<path fill="#455B64" d="M9.322,16.175H9.32c-1.829,0-3.548-0.713-4.84-2.008c-1.295-1.292-2.008-3.013-2.008-4.843
		c0-1.831,0.713-3.552,2.008-4.845c1.293-1.294,3.013-2.007,4.843-2.007c1.829,0,3.549,0.713,4.842,2.007
		c1.295,1.293,2.008,3.014,2.008,4.844c0,1.829-0.713,3.55-2.008,4.845C12.872,15.463,11.152,16.175,9.322,16.175 M9.323,3.433
		c-1.574,0-3.052,0.613-4.164,1.726C4.045,6.271,3.432,7.75,3.432,9.324c0,1.572,0.613,3.053,1.727,4.165
		c1.111,1.112,2.589,1.726,4.162,1.726h0.001c1.573,0.001,3.053-0.613,4.164-1.726c1.114-1.113,1.727-2.594,1.727-4.166
		c0-1.573-0.613-3.053-1.727-4.165C12.375,4.046,10.896,3.433,9.323,3.433"/>
</g>
</svg>
