<?xml version="1.0" encoding="utf-8"?>
<!-- Generator: Adobe Illustrator 16.0.0, SVG Export Plug-In . SVG Version: 6.00 Build 0)  -->
<!DOCTYPE svg PUBLIC "-//W3C//DTD SVG 1.1//EN" "http://www.w3.org/Graphics/SVG/1.1/DTD/svg11.dtd">
<svg version="1.1" id="Layer_1" xmlns="http://www.w3.org/2000/svg" xmlns:xlink="http://www.w3.org/1999/xlink" x="0px" y="0px"
	 width="21.14px" height="21.543px" viewBox="0 0 21.14 21.543" enable-background="new 0 0 21.14 21.543" xml:space="preserve">
<g>
	<path fill="#FFFFFF" d="M20.285,8.062c0-1.1-0.9-2-2-2H2.855c-1.1,0-2,0.9-2,2v11.287c0,1.1,0.9,2,2,2h15.43c1.1,0,2-0.9,2-2V8.062
		z"/>
	<path fill="#F06392" d="M7.833,11.522c0,1.121-0.909,2.029-2.028,2.029c-1.117,0-2.025-0.908-2.025-2.029
		c0-1.118,0.908-2.025,2.025-2.025C6.924,9.497,7.833,10.404,7.833,11.522"/>
	<path fill="#455B64" d="M5.777,9.923c0.869,0,1.576,0.704,1.576,1.569c0,0.87-0.707,1.579-1.576,1.579
		c-0.867,0-1.572-0.709-1.572-1.579C4.205,10.627,4.91,9.923,5.777,9.923 M5.777,8.963c-1.398,0-2.532,1.133-2.532,2.529
		c0,1.403,1.134,2.539,2.532,2.539c1.396,0,2.536-1.136,2.536-2.539C8.313,10.096,7.173,8.963,5.777,8.963"/>
	<polygon fill="#FDC516" points="2.422,20.885 14.958,10.197 20.655,16.858 20.369,21.348 4.483,21.348 	"/>
	<path fill="#F06392" d="M20.78,2.418c0,0.55-0.45,1-1,1H6.768c-0.55,0-1-0.45-1-1V1.686c0-0.55,0.45-1,1-1H19.78c0.55,0,1,0.45,1,1
		V2.418z"/>
	<path fill="#455B64" d="M20.18,3.118H6.431V0.987H20.18V3.118z M20.18,0.027H6.431c-0.528,0-0.96,0.432-0.96,0.96v2.131
		c0,0.528,0.432,0.959,0.96,0.959H20.18c0.528,0,0.96-0.431,0.96-0.959V0.987C21.14,0.459,20.708,0.027,20.18,0.027"/>
	<path fill="#455B64" d="M19.22,6.439c0.529,0,0.96,0.431,0.96,0.96v12.225c0,0.529-0.431,0.959-0.96,0.959H1.92
		c-0.529,0-0.96-0.43-0.96-0.959V7.399c0-0.529,0.431-0.96,0.96-0.96H19.22 M19.22,5.479H1.92C0.864,5.479,0,6.343,0,7.399v12.225
		c0,1.056,0.864,1.92,1.92,1.92h17.3c1.056,0,1.92-0.864,1.92-1.92V7.399C21.14,6.343,20.276,5.479,19.22,5.479"/>
	<path fill="#455B64" d="M2.422,21.364c-0.133,0-0.265-0.055-0.36-0.162c-0.175-0.198-0.157-0.502,0.042-0.678L14.225,9.836
		c0.097-0.085,0.228-0.13,0.352-0.119c0.128,0.009,0.247,0.069,0.331,0.166l6.112,7.146c0.173,0.201,0.149,0.504-0.052,0.676
		s-0.504,0.148-0.677-0.053l-5.796-6.774L2.74,21.245C2.648,21.326,2.535,21.364,2.422,21.364"/>
	<path fill="#FFFFFF" d="M4.079,1c0-0.55-0.45-1-1-1H1C0.45,0,0,0.45,0,1v2.078c0,0.55,0.45,1,1,1h2.079c0.55,0,1-0.45,1-1V1z"/>
	<path fill="#455B64" d="M3.119,3.118H0.96V0.96h2.159V3.118z M3.119,0H0.96C0.432,0,0,0.432,0,0.96v2.158
		c0,0.528,0.432,0.96,0.96,0.96h2.159c0.528,0,0.96-0.432,0.96-0.96V0.96C4.079,0.432,3.647,0,3.119,0"/>
</g>
</svg>
