<?xml version="1.0" encoding="utf-8"?>
<!-- Generator: Adobe Illustrator 16.0.0, SVG Export Plug-In . SVG Version: 6.00 Build 0)  -->
<!DOCTYPE svg PUBLIC "-//W3C//DTD SVG 1.1//EN" "http://www.w3.org/Graphics/SVG/1.1/DTD/svg11.dtd">
<svg version="1.1" id="Layer_1" xmlns="http://www.w3.org/2000/svg" xmlns:xlink="http://www.w3.org/1999/xlink" x="0px" y="0px"
	 width="22.345px" height="24px" viewBox="0 0 22.345 24" enable-background="new 0 0 22.345 24" xml:space="preserve">
<g>
	<path fill="#FDC516" d="M17.985,11.909c0.002-0.064,0.009-0.128,0.009-0.193c0-0.063-0.007-0.126-0.009-0.188l3.483-3.085
		c0.407-0.358,0.517-1.037,0.246-1.505l-1.13-1.958c-0.271-0.469-0.913-0.712-1.426-0.54l-4.412,1.476
		c-0.111-0.069-0.219-0.141-0.336-0.203l-0.926-4.549c-0.108-0.531-0.639-0.965-1.181-0.965h-2.261
		c-0.542,0-1.073,0.434-1.182,0.965L7.934,5.712C7.82,5.774,7.711,5.846,7.6,5.915L3.187,4.439c-0.513-0.172-1.155,0.071-1.426,0.54
		l-1.13,1.958C0.359,7.405,0.47,8.084,0.875,8.442l3.485,3.085c-0.002,0.063-0.009,0.125-0.009,0.188
		c0,0.065,0.007,0.129,0.009,0.193l-3.485,3.084c-0.405,0.36-0.516,1.037-0.244,1.506l1.131,1.958
		c0.27,0.468,0.912,0.712,1.425,0.541L7.6,17.523c0.111,0.066,0.22,0.139,0.334,0.199l0.926,4.55
		c0.109,0.532,0.64,0.966,1.182,0.966h2.261c0.542,0,1.073-0.434,1.181-0.966l0.926-4.548c0.117-0.063,0.223-0.135,0.336-0.201
		l4.412,1.475c0.514,0.171,1.155-0.073,1.426-0.541l1.13-1.958c0.271-0.469,0.161-1.146-0.246-1.506L17.985,11.909z"/>
	<path fill="#455B64" d="M12.302,24h-2.261c-0.771,0-1.496-0.593-1.652-1.35L7.512,18.34l-4.174,1.396
		C2.61,19.979,1.73,19.647,1.347,18.98l-1.131-1.959c-0.387-0.666-0.237-1.591,0.341-2.104L3.853,12L0.558,9.084
		c-0.58-0.512-0.73-1.437-0.342-2.105l1.129-1.957C1.73,4.353,2.607,4.021,3.339,4.267l4.173,1.395L8.39,1.351
		C8.545,0.594,9.271,0,10.042,0h2.261c0.773,0,1.499,0.594,1.652,1.351l0.877,4.312l4.175-1.396C19.734,4.021,20.612,4.352,21,5.021
		l1.13,1.959c0.388,0.668,0.238,1.593-0.345,2.104L18.494,12l3.292,2.916c0.581,0.514,0.731,1.438,0.343,2.106L21,18.98
		c-0.388,0.666-1.265,1-1.993,0.756l-4.176-1.396l-0.877,4.311C13.801,23.407,13.076,24,12.302,24 M7.601,17.325
		c0.087,0,0.173,0.024,0.25,0.07l0.09,0.056c0.072,0.045,0.145,0.09,0.22,0.13c0.126,0.067,0.215,0.188,0.244,0.328l0.927,4.55
		c0.062,0.31,0.395,0.581,0.71,0.581h2.261c0.316,0,0.648-0.271,0.711-0.581l0.925-4.548c0.029-0.14,0.119-0.26,0.244-0.328
		c0.07-0.037,0.135-0.078,0.201-0.119l0.116-0.07c0.121-0.072,0.267-0.087,0.399-0.043l4.411,1.475
		c0.299,0.1,0.701-0.052,0.859-0.326l1.129-1.958c0.159-0.272,0.09-0.695-0.147-0.905l-3.483-3.084
		c-0.107-0.096-0.166-0.231-0.162-0.374c0-0.005,0.004-0.091,0.004-0.096v-0.165c-0.008-0.146,0.047-0.37,0.158-0.468l3.483-3.084
		c0.233-0.206,0.303-0.636,0.148-0.904l-1.131-1.96c-0.157-0.273-0.555-0.428-0.857-0.324l-4.412,1.476
		c-0.136,0.046-0.286,0.028-0.407-0.048c-0.14-0.088-0.22-0.141-0.306-0.186c-0.128-0.066-0.218-0.188-0.247-0.329l-0.925-4.549
		c-0.063-0.31-0.395-0.581-0.711-0.581h-2.261c-0.315,0-0.648,0.272-0.71,0.582L8.404,6.09c-0.029,0.14-0.117,0.26-0.242,0.327
		C8.08,6.461,8,6.513,7.92,6.563C7.797,6.64,7.579,6.696,7.448,6.652L3.035,5.177c-0.301-0.101-0.7,0.053-0.858,0.324L1.047,7.46
		c-0.157,0.27-0.087,0.7,0.145,0.905l3.486,3.084c0.109,0.096,0.168,0.236,0.162,0.381l-0.009,0.168
		c0,0.003,0.008,0.169,0.009,0.173c0.006,0.145-0.053,0.284-0.162,0.381l-3.486,3.084c-0.235,0.21-0.305,0.633-0.146,0.904
		l1.131,1.96c0.155,0.269,0.568,0.421,0.857,0.325l4.414-1.475C7.499,17.333,7.548,17.325,7.601,17.325"/>
	<path fill="#FFFFFF" d="M11.173,4.104C6.812,4.104,3.275,7.64,3.275,12s3.537,7.896,7.898,7.896c4.363,0,7.896-3.536,7.896-7.896
		S15.536,4.104,11.173,4.104"/>
	<path fill="#455B64" d="M11.173,20.633c-4.604,0-8.349-3.747-8.349-8.353c0-4.604,3.745-8.349,8.349-8.349
		c4.603,0,8.347,3.745,8.347,8.349C19.52,16.886,15.776,20.633,11.173,20.633 M11.173,4.892c-4.074,0-7.389,3.315-7.389,7.389
		c0,4.077,3.315,7.393,7.389,7.393c4.073,0,7.387-3.315,7.387-7.393C18.56,8.207,15.246,4.892,11.173,4.892"/>
	<path fill="#455B64" d="M13.868,12.763h-5.39c-0.265,0-0.48-0.215-0.48-0.48c0-0.265,0.215-0.479,0.48-0.479h5.39
		c0.265,0,0.48,0.215,0.48,0.479C14.348,12.548,14.133,12.763,13.868,12.763"/>
	<path fill="#455B64" d="M13.868,14.983h-5.39c-0.265,0-0.48-0.215-0.48-0.48c0-0.265,0.215-0.479,0.48-0.479h5.39
		c0.265,0,0.48,0.215,0.48,0.479C14.348,14.769,14.133,14.983,13.868,14.983"/>
	<path fill="#455B64" d="M13.868,10.259h-5.39c-0.265,0-0.48-0.215-0.48-0.479s0.215-0.48,0.48-0.48h5.39
		c0.265,0,0.48,0.216,0.48,0.48S14.133,10.259,13.868,10.259"/>
</g>
</svg>
