<?xml version="1.0" standalone="no"?>
<!DOCTYPE svg PUBLIC "-//W3C//DTD SVG 1.1//EN" "http://www.w3.org/Graphics/SVG/1.1/DTD/svg11.dtd" >
<svg xmlns="http://www.w3.org/2000/svg" xmlns:xlink="http://www.w3.org/1999/xlink" version="1.1">
<metadata>
Created by FontForge 20150824 at Sat Aug  6 22:10:27 2016
 By Everything Fonts
Copyright (c) 2011 by Jos Buivenga. All rights reserved.
</metadata>
<defs>
<font id="MuseoSansRounded1000" horiz-adv-x="612" >
  <font-face 
    font-family="MuseoSansRounded1000"
    font-weight="900"
    font-stretch="normal"
    units-per-em="1000"
    panose-1="2 0 0 0 0 0 0 0 0 0"
    ascent="750"
    descent="-250"
    x-height="519"
    cap-height="719"
    bbox="-120.449 -238 1298 930"
    underline-thickness="50"
    underline-position="-150"
    unicode-range="U+0020-FB04"
  />
<missing-glyph horiz-adv-x="510" 
d="M5 65v570q0 65 65 65h370q65 0 65 -65v-570q0 -65 -65 -65h-370q-65 0 -65 65zM255 395l170 255h-340zM285 350l170 -255v510zM55 95l170 255l-170 255v-510zM85 50h340l-170 255z" />
    <glyph glyph-name="f_f" unicode="ff" horiz-adv-x="772" 
d="M82 65v293h-4q-65 0 -65 65v31q0 65 65 65h4v15q0 47 19 83t46 55.5t62 31.5t59.5 15.5t45.5 3.5h19q65 0 65 -66v-45q0 -59 -64 -65q-38 -5 -42 -20q-1 -2 -1 -5v-3h177v15q0 47 19 83t46 55.5t62 31.5t59.5 15.5t45.5 3.5h19q65 0 65 -66v-45q0 -59 -64 -65
q-38 -5 -42 -20q-1 -2 -1 -5v-3h18q65 0 65 -65v-31q0 -65 -55 -65h-28v-293q0 -65 -66 -65h-78q-65 0 -65 65v293h-177v-293q0 -65 -66 -65h-78q-65 0 -65 65z" />
    <glyph glyph-name="fi" unicode="fi" horiz-adv-x="667" 
d="M82 65v293h-4q-65 0 -65 65v31q0 65 65 65h4v15q0 47 19 83t46 55.5t62 31.5t59.5 15.5t45.5 3.5h19q65 0 65 -66v-45q0 -59 -64 -65q-38 -5 -42 -20q-1 -2 -1 -5v-3h272q66 0 66 -65v-389q0 -65 -66 -65h-78q-65 0 -65 65v293h-129v-293q0 -65 -66 -65h-78q-65 0 -65 65
zM489 567q-65 0 -65 66v21q0 65 65 65h71q65 0 65 -65v-21q0 -66 -65 -66h-71z" />
    <glyph glyph-name="fl" unicode="fl" horiz-adv-x="708" 
d="M82 65v282h-4q-65 0 -65 65v31q0 65 65 65h4v26q0 47 19 83t46 55.5t62 31.5t59.5 15.5t45.5 3.5h19q65 0 65 -66v-45q0 -31 -16 -46t-48 -19q-43 -5 -43 -25v-14h18q65 0 65 -65v-31q0 -65 -65 -65h-18v-282q0 -65 -66 -65h-78q-65 0 -65 65zM424 214v440q0 65 66 65h78
q65 0 65 -65v-433q0 -41 21 -44q46 -5 46 -55v-61q0 -66 -66 -66q-36 0 -63 4t-56 17.5t-48 36.5t-31 64t-12 97z" />
    <glyph glyph-name="f_f_i" unicode="ffi" horiz-adv-x="1053" 
d="M82 65v293q-69 0 -69 65v31q0 31 18.5 48t50.5 17v15q0 47 19 83t46 55.5t62 31.5t59.5 15.5t45.5 3.5h19q65 0 65 -66v-45q0 -31 -16 -46t-48 -19q-38 -5 -42 -20q-1 -2 -1 -5v-3h177v15q0 47 19 83t46 55.5t62 31.5t59.5 15.5t45.5 3.5h19q65 0 65 -66v-45
q0 -31 -16 -46t-48 -19q-38 -5 -42 -20q-1 -2 -1 -5v-3h273q65 0 65 -65v-389q0 -65 -65 -65h-78q-65 0 -65 65v293h-130v-293q0 -65 -66 -65h-78q-65 0 -65 65v293h-177v-293q0 -65 -66 -65h-78q-65 0 -65 65zM810 633v21q0 65 66 65h70q66 0 66 -65v-21q0 -66 -66 -66h-70
q-66 0 -66 66z" />
    <glyph glyph-name="f_f_l" unicode="ffl" horiz-adv-x="1094" 
d="M82 65v293q-32 0 -50.5 17t-18.5 48v31q0 31 18.5 48t50.5 17v15q0 47 19 83t46 55.5t62 31.5t59.5 15.5t45.5 3.5h19q65 0 65 -66v-45q0 -31 -16 -46t-48 -19q-38 -5 -42 -20q-1 -2 -1 -5v-3h177v15q0 47 19 83t46 55.5t62 31.5t59.5 15.5t45.5 3.5h19q65 0 65 -66v-45
q0 -60 -64 -65q-38 -5 -42 -20q-1 -2 -1 -5v-3h18q65 0 65 -65v-31q0 -65 -55 -65h-28v-293q0 -65 -66 -65h-78q-65 0 -65 65v293h-177v-293q0 -65 -66 -65h-78q-65 0 -65 65zM809 214v440q0 65 65 65h78q66 0 66 -65v-433q0 -41 21 -44q46 -5 46 -55v-61q0 -66 -66 -66
q-36 0 -63 4t-56 17.5t-48 36.5t-31 64t-12 97z" />
    <glyph glyph-name="f_j" unicode="fj" horiz-adv-x="671" 
d="M82 65v293h-4q-65 0 -65 65v31q0 65 65 65h4v15q0 47 19 83t46 55.5t62 31.5t59.5 15.5t45.5 3.5h19q65 0 65 -66v-45q0 -59 -64 -65q-38 -5 -42 -20q-1 -2 -1 -5v-3h275q65 0 65 -65v-460q0 -48 -19 -85.5t-46.5 -59t-61 -35.5t-59 -18.5t-44.5 -4.5h-21q-65 0 -65 66
v42q0 31 16 46t49 19q42 5 42 42v352h-131v-293q0 -65 -66 -65h-78q-65 0 -65 65zM491 567q-65 0 -65 66v21q0 65 65 65h71q65 0 65 -65v-21q0 -66 -65 -66h-71z" />
    <glyph glyph-name=".notdef" horiz-adv-x="510" 
d="M5 65v570q0 65 65 65h370q65 0 65 -65v-570q0 -65 -65 -65h-370q-65 0 -65 65zM255 395l170 255h-340zM285 350l170 -255v510zM55 95l170 255l-170 255v-510zM85 50h340l-170 255z" />
    <glyph glyph-name=".null" horiz-adv-x="0" 
 />
    <glyph glyph-name="nonmarkingreturn" horiz-adv-x="333" 
 />
    <glyph glyph-name="space" unicode=" " horiz-adv-x="250" 
 />
    <glyph glyph-name="exclam" unicode="!" horiz-adv-x="288" 
d="M120 234q-63 0 -66 64l-16 354q-2 29 15.5 48t48.5 19h84q30 0 47.5 -17.5t16.5 -49.5l-15 -354q-3 -64 -66 -64h-49zM52 65v44q0 65 65 65h54q66 0 66 -65v-44q0 -65 -66 -65h-54q-65 0 -65 65z" />
    <glyph glyph-name="quotedbl" unicode="&#x22;" horiz-adv-x="419" 
d="M310 482q-65 0 -65 66v122q0 66 65 66h13q66 0 66 -66v-122q0 -66 -66 -66h-13zM96 482q-66 0 -66 66v122q0 66 66 66h13q65 0 65 -66v-122q0 -66 -65 -66h-13z" />
    <glyph glyph-name="numbersign" unicode="#" horiz-adv-x="676" 
d="M86 70l18 105h-16q-34 0 -49 18.5t-10 51.5l2 12q9 60 70 60h27l11 60h-14q-34 0 -49 18.5t-10 51.5l2 13q9 59 69 59h25l25 141q11 59 71 59h27q34 0 49.5 -18.5t9.5 -51.5l-23 -130h86l24 141q11 59 72 59h27q34 0 49.5 -18.5t9.5 -51.5l-23 -130h22q34 0 49 -18.5
t10 -51.5l-2 -12q-9 -60 -70 -60h-33l-11 -60h20q34 0 49 -18.5t10 -52.5l-2 -12q-9 -59 -70 -59h-30l-20 -115q-11 -60 -71 -60h-27q-34 0 -49.5 18.5t-9.5 51.5l18 105h-86l-19 -115q-11 -60 -71 -60h-28q-34 0 -49 18.5t-10 51.5zM287 317h85l12 60h-86z" />
    <glyph glyph-name="dollar" unicode="$" horiz-adv-x="582" 
d="M65 55q-50 37 -13 91l36 53q34 49 92 17q66 -35 110 -35q56 0 56 32q0 18 -23.5 33t-58.5 26t-75.5 30t-75.5 42t-58.5 64.5t-23.5 94.5q0 83 52 142.5t141 78.5v28q0 66 62 66h5q60 0 60 -53v-37q86 -12 141 -47q51 -32 21 -89l-30 -57q-10 -18 -20.5 -27.5t-23.5 -9
t-21.5 3t-22.5 9.5q-59 27 -99 27q-55 0 -55 -30q0 -21 32.5 -38t78.5 -33.5t92.5 -39.5t79 -68t32.5 -108q0 -83 -53.5 -147t-151.5 -81v-25q0 -66 -60 -66h-5q-62 0 -62 53v38q-46 8 -91 26.5t-68 35.5z" />
    <glyph glyph-name="percent" unicode="%" horiz-adv-x="896" 
d="M220 363q-82 0 -138.5 53.5t-56.5 130.5q0 75 57 129.5t138 54.5q80 0 137 -54.5t57 -129.5q0 -77 -56.5 -130.5t-137.5 -53.5zM138 80l466 600q30 39 80 39h28q42 0 53.5 -23t-14.5 -56l-466 -601q-30 -39 -80 -39h-28q-42 0 -53.5 23.5t14.5 56.5zM220 505
q18 0 32 12.5t14 30.5q0 16 -14 28.5t-32 12.5q-19 0 -33 -12.5t-14 -28.5q0 -18 14 -30.5t33 -12.5zM482 171q0 76 57 130.5t138 54.5q80 0 137 -55t57 -130q0 -76 -57 -129.5t-137 -53.5q-82 0 -138.5 53t-56.5 130zM631 173q0 -18 13.5 -30.5t32.5 -12.5q18 0 32 12.5
t14 30.5q0 16 -14 28.5t-32 12.5q-19 0 -32.5 -12t-13.5 -29z" />
    <glyph glyph-name="ampersand" unicode="&#x26;" horiz-adv-x="675" 
d="M23 211q0 53 30.5 99t78.5 68v2q-3 2 -8.5 5t-19 16t-24 29t-19 43.5t-8.5 59.5q0 71 38 117.5t90.5 63.5t115.5 17h32q65 0 65 -65v-43q0 -65 -65 -65h-12q-51 0 -51 -58q0 -23 14.5 -36.5t31.5 -13.5h66v19q0 65 66 65h76q65 0 65 -51v-33h22q65 0 65 -65v-49
q0 -66 -65 -66h-22v-57q0 -91 -76.5 -158t-209.5 -67q-125 0 -200.5 64t-75.5 159zM238 225q0 -18 18.5 -32t42.5 -14q39 0 59 18.5t20 48.5v24h-81q-59 0 -59 -45z" />
    <glyph glyph-name="quotesingle" unicode="'" horiz-adv-x="207" 
d="M95 472q-65 0 -65 65v133q0 66 65 66h17q65 0 65 -66v-133q0 -65 -65 -65h-17z" />
    <glyph glyph-name="parenleft" unicode="(" horiz-adv-x="314" 
d="M130 -56q-105 185 -105 406q0 188 100 363q25 44 79 44h29q39 0 51.5 -21.5t-4.5 -55.5q-72 -161 -72 -329q0 -183 77 -369q15 -34 2 -55.5t-50 -21.5h-33q-52 0 -74 39z" />
    <glyph glyph-name="parenright" unicode=")" horiz-adv-x="313" 
d="M31 -14q74 187 74 365q0 171 -72 329q-17 34 -5.5 55.5t48.5 21.5h33q54 0 79 -44q100 -172 100 -363q0 -221 -101 -401q-26 -44 -77 -44h-33q-38 0 -50 22t4 59z" />
    <glyph glyph-name="asterisk" unicode="*" horiz-adv-x="459" 
d="M126 340l-33 24q-56 40 -11 90l23 21v2l-29 2q-68 16 -47 80l12 39q23 65 82 39l27 -16l-5 29q-4 33 12.5 51t49.5 18h42q33 0 49.5 -17.5t12.5 -49.5l-7 -31l26 15q64 29 84 -36l14 -40q20 -65 -44 -78l-34 -4v-2l24 -19q47 -50 -10 -92l-33 -25q-56 -40 -89 18l-13 29
h-2l-11 -26q-34 -62 -90 -21z" />
    <glyph glyph-name="plus" unicode="+" horiz-adv-x="638" 
d="M107 211q-65 0 -65 65v24q0 65 65 65h131v147q0 65 66 65h30q66 0 66 -65v-147h131q65 0 65 -65v-24q0 -65 -65 -65h-131v-146q0 -65 -66 -65h-30q-66 0 -66 65v146h-131z" />
    <glyph glyph-name="comma" unicode="," horiz-adv-x="262" 
d="M9 -31l42 170q13 56 74 56h54q37 0 51 -21t0 -55l-70 -173q-20 -51 -75 -51h-20q-36 0 -51 19.5t-5 54.5z" />
    <glyph glyph-name="hyphen" unicode="-" horiz-adv-x="396" 
d="M101 198q-65 0 -65 65v50q0 65 65 65h194q65 0 65 -65v-50q0 -65 -65 -65h-194z" />
    <glyph glyph-name="period" unicode="." horiz-adv-x="258" 
d="M33 65v61q0 65 65 65h61q66 0 66 -65v-61q0 -65 -66 -65h-61q-65 0 -65 65z" />
    <glyph glyph-name="slash" unicode="/" horiz-adv-x="434" 
d="M27 32l215 667q18 54 75 54h36q35 0 50 -20.5t4 -54.5l-215 -667q-17 -53 -75 -53h-35q-36 0 -50.5 20t-4.5 54z" />
    <glyph glyph-name="zero" unicode="0" horiz-adv-x="618" 
d="M309 -12q-76 0 -131.5 29t-86.5 81.5t-45.5 117.5t-14.5 145q0 81 14.5 145.5t46 116t86.5 80t131 28.5t131.5 -28t86.5 -80t45.5 -116.5t14.5 -145.5t-14.5 -145.5t-45.5 -117t-86.5 -81.5t-131.5 -29zM309 180q62 0 62 181q0 178 -62 178q-61 0 -61 -178
q0 -181 61 -181z" />
    <glyph glyph-name="one" unicode="1" horiz-adv-x="543" 
d="M32 65v50q0 65 65 65h85v224l3 59h-2q-10 -15 -16 -21q-18 -19 -42.5 -18t-45.5 24l-31 35q-46 46 3 92l122 112q35 32 81 32h68q66 0 66 -65v-474h87q65 0 65 -65v-50q0 -65 -65 -65h-378q-65 0 -65 65z" />
    <glyph glyph-name="two" unicode="2" horiz-adv-x="583" 
d="M28 65v23q0 75 30 136.5t72.5 99t85.5 66t73 51.5t30 42q0 27 -17 38.5t-36 11.5q-31 0 -54 -22q-50 -48 -92 -14l-49 39q-52 41 -16 88q81 107 231 107q44 0 87 -12.5t81.5 -38t62 -71t23.5 -104.5q0 -52 -20 -96t-49.5 -72.5t-65 -53.5t-66.5 -41t-53 -32.5t-24 -29.5
h223q66 0 66 -65v-50q0 -65 -66 -65h-388q-31 0 -50 17t-19 48z" />
    <glyph glyph-name="three" unicode="3" horiz-adv-x="558" 
d="M49 42q-48 35 -15 91l32 53q31 53 89 18q42 -18 82 -18q82 0 82 47q0 52 -91 52h-27q-47 0 -70 45l-6 11q-20 39 16 85l32 40q17 21 34.5 40.5t26.5 27.5l9 9v2q-24 -6 -72 -6h-74q-65 0 -65 65v50q0 65 65 65h334q65 0 65 -65v-19q0 -46 -29 -81l-100 -115
q80 -21 122 -77t42 -122q0 -102 -70.5 -177t-206.5 -75q-117 0 -205 54z" />
    <glyph glyph-name="four" unicode="4" horiz-adv-x="619" 
d="M68 166q-65 0 -65 65v18q0 41 23 80l202 347q25 43 78 43h145q65 0 65 -65v-315h15q65 0 65 -65v-43q0 -65 -64 -65h-16v-101q0 -65 -65 -65h-78q-65 0 -65 65v101h-240zM213 339h95v115q0 19 2 40t4 32l1 12h-2q-17 -48 -35 -81l-65 -116v-2z" />
    <glyph glyph-name="five" unicode="5" horiz-adv-x="569" 
d="M61 43q-50 33 -17 89l33 54q30 53 89 19q43 -19 85 -19q28 0 51.5 15.5t23.5 47.5q0 31 -25 48t-66 17q-23 0 -42 -4q-56 -14 -88 -1l-13 5q-53 21 -49 77l17 265q4 63 68 63h292q65 0 65 -65v-50q0 -65 -65 -65h-172l-2 -32l-3 -27h2q21 3 36 3q129 0 195.5 -65.5
t66.5 -166.5q0 -116 -75.5 -189.5t-197.5 -73.5q-123 0 -209 55z" />
    <glyph glyph-name="six" unicode="6" horiz-adv-x="606" 
d="M27 327q0 168 96.5 286t259.5 118q66 0 105 -11q61 -18 41 -82l-18 -57q-10 -33 -26.5 -40.5t-48.5 -4.5q-26 3 -38 3q-52 0 -83.5 -19.5t-51.5 -61.5h2q36 19 92 19q103 0 163.5 -69t60.5 -159q0 -98 -67.5 -179.5t-184.5 -81.5q-55 0 -107 20t-96.5 59.5t-71.5 107
t-27 152.5zM243 277q0 -42 25 -72t56 -30q23 0 37 17t14 45q0 12 -3 23t-11.5 24.5t-28 21.5t-48.5 8q-22 0 -31.5 -7.5t-9.5 -29.5z" />
    <glyph glyph-name="seven" unicode="7" horiz-adv-x="546" 
d="M71 77l203 398q12 24 23 40t15 21l5 4v2q-12 -3 -38 -3h-202q-66 0 -66 65v50q0 65 66 65h401q65 0 65 -66v-38q0 -43 -19 -81l-248 -486q-24 -48 -77 -48h-81q-38 0 -51 21.5t4 55.5z" />
    <glyph glyph-name="eight" unicode="8" horiz-adv-x="607" 
d="M26 204q0 97 103 174q-75 59 -75 140q0 86 64 149.5t182 63.5q110 0 185 -55.5t75 -147.5q0 -83 -75 -163q95 -59 95 -156q0 -88 -71.5 -154.5t-204.5 -66.5t-205.5 66.5t-72.5 149.5zM339 438q23 30 23 59q0 59 -58 59q-50 0 -50 -43q0 -25 19.5 -41.5t65.5 -33.5z
M232 234q0 -32 18.5 -51.5t54.5 -19.5q31 0 47.5 15t16.5 39q0 21 -21.5 37t-88.5 43q-27 -27 -27 -63z" />
    <glyph glyph-name="nine" unicode="9" horiz-adv-x="606" 
d="M25 470q0 98 67.5 179.5t184.5 81.5q55 0 107 -20t96.5 -59.5t71.5 -107t27 -152.5q0 -168 -96.5 -286t-259.5 -118q-66 0 -105 11q-61 18 -41 82l18 57q11 33 27 41t48 4q26 -3 38 -3q52 0 83.5 19.5t51.5 61.5h-2q-36 -19 -92 -19q-103 0 -163.5 69t-60.5 159zM231 482
q0 -12 3 -23t11.5 -24.5t28 -21.5t48.5 -8q22 0 31.5 7.5t9.5 29.5q0 42 -25 72t-56 30q-23 0 -37 -17t-14 -45z" />
    <glyph glyph-name="colon" unicode=":" horiz-adv-x="285" 
d="M112 327q-66 0 -66 65v62q0 65 66 65h62q65 0 65 -65v-62q0 -65 -65 -65h-62zM46 65v62q0 66 66 66h62q65 0 65 -66v-62q0 -65 -65 -65h-62q-66 0 -66 65z" />
    <glyph glyph-name="semicolon" unicode=";" horiz-adv-x="298" 
d="M150 328q-66 0 -66 65v61q0 65 66 65h53q66 0 66 -65v-61q0 -65 -66 -65h-53zM25 -32l38 169q14 58 71 58h58q36 0 50.5 -20.5t1.5 -54.5l-64 -172q-21 -53 -75 -53h-22q-34 0 -49.5 19.5t-8.5 53.5z" />
    <glyph glyph-name="less" unicode="&#x3c;" horiz-adv-x="638" 
d="M99 204q-50 21 -50 76v17q0 54 50 76l396 175q34 15 55 1.5t21 -50.5v-34q0 -54 -51 -74l-266 -102v-2l266 -100q51 -19 51 -75v-33q0 -37 -21 -51t-55 1z" />
    <glyph glyph-name="equal" unicode="=" horiz-adv-x="638" 
d="M125 335q-66 0 -66 66v24q0 65 66 65h389q65 0 65 -65v-24q0 -66 -65 -66h-389zM125 86q-66 0 -66 66v23q0 66 66 66h389q65 0 65 -66v-23q0 -66 -65 -66h-389z" />
    <glyph glyph-name="greater" unicode="&#x3e;" horiz-adv-x="638" 
d="M67 79v33q0 56 51 75l266 100v2l-266 102q-51 20 -51 74v34q0 37 21 51t55 -1l396 -176q50 -22 50 -76v-17q0 -54 -50 -76l-396 -174q-34 -15 -55 -1.5t-21 50.5z" />
    <glyph glyph-name="question" unicode="?" horiz-adv-x="497" 
d="M168 234q-65 0 -65 65v5q0 30 23.5 61t52 52t52 45.5t23.5 44.5q0 19 -13.5 29.5t-33.5 10.5q-18 0 -39 -9q-66 -32 -97 15l-30 44q-36 55 11 86q81 52 174 52q59 0 113 -21t92.5 -69t38.5 -113q0 -51 -23 -93t-51 -64.5t-56.5 -48t-36.5 -43.5l-3 -8q-7 -24 -20.5 -32.5
t-41.5 -8.5h-70zM110 65v44q0 65 65 65h55q65 0 65 -65v-44q0 -65 -65 -65h-55q-65 0 -65 65z" />
    <glyph glyph-name="at" unicode="@" horiz-adv-x="856" 
d="M32 238q0 163 115.5 271t304.5 108q152 0 227 -71.5t75 -185.5v-159h10q65 0 65 -65v-10q0 -65 -65 -65h-223q-113 0 -174.5 53.5t-61.5 124.5q0 70 60 120.5t176 50.5h22q0 24 -36.5 37.5t-71.5 13.5q-104 0 -167 -70t-63 -159q0 -73 47.5 -128t136.5 -77
q14 -3 22.5 -6.5t19.5 -10.5t16 -20t5 -31v-25q0 -36 -17.5 -49.5t-50.5 -12.5q-40 1 -86.5 13.5t-98 41.5t-92.5 69.5t-68 103.5t-27 138zM505 244q0 -18 12.5 -30.5t35.5 -12.5h10v87h-8q-25 0 -37.5 -12.5t-12.5 -31.5z" />
    <glyph glyph-name="A" unicode="A" horiz-adv-x="671" 
d="M12 75l195 591q18 53 74 53h109q56 0 74 -53l195 -591q12 -34 -3 -54.5t-50 -20.5h-81q-56 0 -74 55l-15 70h-203l-15 -70q-15 -55 -72 -55h-81q-35 0 -50 20.5t-3 54.5zM281 292h107l-22 100l-30 133h-2q-16 -84 -29 -133z" />
    <glyph glyph-name="B" unicode="B" horiz-adv-x="635" 
d="M55 65v589q0 65 66 65h205q119 0 190 -48.5t71 -141.5q0 -45 -21 -87t-60 -65v-2q58 -18 84 -62.5t26 -94.5q0 -48 -16.5 -86t-43.5 -62.5t-65.5 -40.5t-79.5 -22.5t-88 -6.5h-202q-66 0 -66 65zM266 452h63q23 0 35.5 15.5t12.5 33.5q0 20 -12.5 34t-39.5 14h-59v-97z
M266 170h75q30 0 47 17.5t17 40.5q0 22 -16.5 39t-46.5 17h-76v-114z" />
    <glyph glyph-name="C" unicode="C" horiz-adv-x="693" 
d="M24 360q0 159 107.5 265t275.5 106q127 0 227 -65q49 -36 14 -91l-30 -50q-32 -53 -89 -19q-59 33 -112 33q-91 0 -133 -51t-42 -123q0 -73 43.5 -129t130.5 -56q62 0 125 43q57 38 91 -13l35 -48q37 -55 -12 -91q-107 -83 -249 -83q-174 0 -278 104.5t-104 267.5z" />
    <glyph glyph-name="D" unicode="D" horiz-adv-x="719" 
d="M55 65v589q0 65 66 65h197q174 0 274.5 -95t100.5 -263t-101 -264.5t-274 -96.5h-197q-66 0 -66 65zM266 180h45q79 0 121.5 46.5t42.5 134.5q0 87 -43.5 132.5t-120.5 45.5h-45v-359z" />
    <glyph glyph-name="E" unicode="E" horiz-adv-x="556" 
d="M55 65v589q0 65 66 65h335q65 0 65 -65v-50q0 -65 -65 -65h-190v-87h136q66 0 66 -65v-50q0 -65 -66 -65h-136v-92h202q66 0 66 -65v-50q0 -65 -66 -65h-347q-66 0 -66 65z" />
    <glyph glyph-name="F" unicode="F" horiz-adv-x="527" 
d="M55 65v589q0 65 66 65h330q65 0 65 -65v-50q0 -65 -65 -65h-185v-111h139q66 0 66 -66v-49q0 -65 -66 -65h-139v-183q0 -65 -65 -65h-80q-66 0 -66 65z" />
    <glyph glyph-name="G" unicode="G" horiz-adv-x="760" 
d="M24 354q0 166 107.5 271.5t276.5 105.5q75 0 139 -20.5t93 -41.5q50 -36 17 -90l-31 -50q-31 -48 -91 -18q-59 28 -113 28q-93 0 -136.5 -49t-43.5 -123q0 -85 52.5 -136t125.5 -51q40 0 70 11t40 21l11 11v25h-29q-65 0 -65 66v48q0 65 65 65h149q66 0 66 -65v-297
q0 -65 -66 -65h-39q-31 0 -48 14.5t-17 35.5v-9l1 4h-2q-7 -6 -19.5 -15.5t-58.5 -25.5t-99 -16q-92 0 -172 42.5t-131.5 127.5t-51.5 196z" />
    <glyph glyph-name="H" unicode="H" horiz-adv-x="742" 
d="M55 65v589q0 65 66 65h80q65 0 65 -65v-209h210v209q0 65 65 65h81q65 0 65 -65v-589q0 -65 -65 -65h-81q-65 0 -65 65v201h-210v-201q0 -65 -65 -65h-80q-66 0 -66 65z" />
    <glyph glyph-name="I" unicode="I" horiz-adv-x="321" 
d="M55 65v589q0 65 66 65h80q65 0 65 -65v-589q0 -65 -65 -65h-80q-66 0 -66 65z" />
    <glyph glyph-name="J" unicode="J" horiz-adv-x="563" 
d="M6 214q0 39 15 56.5t50 17.5h82q35 0 45 -13t16 -47q10 -48 48 -48q40 0 40 53v306h-133q-65 0 -65 65v50q0 65 65 65h279q65 0 65 -65v-426q0 -113 -75 -176.5t-176 -63.5q-102 0 -179 63.5t-77 162.5z" />
    <glyph glyph-name="K" unicode="K" horiz-adv-x="680" 
d="M55 65v589q0 65 66 65h80q65 0 65 -65v-201h56l109 219q26 47 78 47h82q39 0 52 -22t-5 -56l-144 -267v-2l155 -293q19 -35 6 -57t-52 -22h-94q-52 0 -78 47l-109 227h-56v-209q0 -65 -65 -65h-80q-66 0 -66 65z" />
    <glyph glyph-name="L" unicode="L" horiz-adv-x="551" 
d="M55 65v589q0 65 66 65h80q65 0 65 -65v-474h215q66 0 66 -65v-50q0 -65 -66 -65h-360q-66 0 -66 65z" />
    <glyph glyph-name="M" unicode="M" horiz-adv-x="867" 
d="M36 68l48 588q6 63 68 63h115q58 0 73 -54l56 -210l37 -147h2q22 97 36 147l56 210q15 54 73 54h115q63 0 68 -63l48 -588q3 -32 -13.5 -50t-48.5 -18h-77q-65 0 -68 63l-11 201l1 163h-2q-29 -114 -41 -163l-26 -102q-19 -52 -75 -52h-73q-55 0 -74 52l-26 102l-41 162
h-2q1 -11 1.5 -28.5t1 -65t-1.5 -68.5l-12 -201q-5 -63 -67 -63h-79q-32 0 -48 18t-13 50z" />
    <glyph glyph-name="N" unicode="N" horiz-adv-x="733" 
d="M55 65v589q0 65 66 65h96q54 0 78 -44l118 -231q13 -23 28 -56t24 -54l9 -22h2q-9 84 -9 132v210q0 65 65 65h80q66 0 66 -65v-589q0 -65 -66 -65h-96q-53 0 -77 44l-119 230q-13 23 -28 55.5t-24 54.5l-9 21h-2q9 -83 9 -131v-209q0 -65 -65 -65h-80q-66 0 -66 65z" />
    <glyph glyph-name="O" unicode="O" horiz-adv-x="807" 
d="M24 364q0 157 105.5 262t273.5 105t274 -105t106 -262q0 -161 -106 -268.5t-274 -107.5t-273.5 107.5t-105.5 268.5zM242 364q0 -79 45 -131.5t116 -52.5t116.5 52.5t45.5 131.5q0 76 -45.5 125.5t-116.5 49.5t-116 -49.5t-45 -125.5z" />
    <glyph glyph-name="P" unicode="P" horiz-adv-x="620" 
d="M55 65v589q0 65 66 65h249q107 0 173 -72.5t66 -184.5q0 -113 -66 -186.5t-173 -73.5h-104v-137q0 -65 -65 -65h-80q-66 0 -66 65zM266 382h59q36 0 53 22t17 58q0 35 -16.5 56t-49.5 21h-63v-157z" />
    <glyph glyph-name="Q" unicode="Q" horiz-adv-x="807" 
d="M24 362q0 158 105.5 263.5t273.5 105.5q167 0 273.5 -104.5t106.5 -258.5q0 -102 -64 -204l17 -13q54 -41 9 -91l-31 -35q-42 -47 -86 -8l-26 22q-88 -51 -198 -51q-168 0 -274 107.5t-106 266.5zM242 363q0 -79 48 -132.5t127 -53.5q20 0 33 5l-16 13q-22 18 -27 41.5
t14 48.5l31 34q38 42 84 4l25 -21q5 32 5 58q0 79 -46 129t-117 50t-116 -50t-45 -126z" />
    <glyph glyph-name="R" unicode="R" horiz-adv-x="643" 
d="M55 65v589q0 65 66 65h195q99 0 143 -15q62 -21 101.5 -79.5t39.5 -136.5q0 -59 -25 -115t-75 -86v-2q16 -18 32 -46l90 -160q19 -37 6 -58t-51 -21h-93q-53 0 -77 46l-91 176h-50v-157q0 -65 -65 -65h-80q-66 0 -66 65zM266 402h45q38 0 56.5 18t18.5 58t-32 53
q-18 8 -56 8h-32v-137z" />
    <glyph glyph-name="S" unicode="S" horiz-adv-x="578" 
d="M54 58q-49 37 -13 90l38 55q32 47 90 16q4 -2 26 -14t45 -19.5t48 -7.5q53 0 53 32q0 17 -22.5 32t-56.5 26t-73 30t-73 42t-56.5 65t-22.5 96q0 102 75.5 166t191.5 64q58 0 113.5 -15.5t86.5 -36.5q48 -34 21 -90l-29 -57q-16 -32 -41 -35t-48 12q-4 2 -20 9.5
t-21.5 9.5t-18 6t-23.5 5.5t-23 1.5q-54 0 -54 -33q0 -22 31.5 -38.5t76.5 -32.5t89.5 -38.5t76 -68t31.5 -109.5q0 -98 -71 -165.5t-193 -67.5q-69 0 -134 21.5t-100 48.5z" />
    <glyph glyph-name="T" unicode="T" horiz-adv-x="631" 
d="M210 65v474h-140q-65 0 -65 65v50q0 65 65 65h491q65 0 65 -65v-50q0 -65 -65 -65h-140v-474q0 -65 -65 -65h-81q-65 0 -65 65z" />
    <glyph glyph-name="U" unicode="U" horiz-adv-x="716" 
d="M49 269v385q0 65 65 65h81q65 0 65 -65v-385q0 -44 26 -66.5t72 -22.5t72.5 22.5t26.5 65.5v386q0 65 65 65h80q65 0 65 -65v-385q0 -124 -84.5 -202.5t-223.5 -78.5q-140 0 -225 78.5t-85 202.5z" />
    <glyph glyph-name="V" unicode="V" horiz-adv-x="681" 
d="M212 52l-205 592q-12 34 2.5 54.5t50.5 20.5h93q58 0 73 -55l87 -309q6 -21 13 -52t10 -51l4 -20h2q12 75 27 123l88 309q16 55 74 55h89q36 0 50.5 -20.5t2.5 -54.5l-204 -592q-19 -52 -75 -52h-107q-56 0 -75 52z" />
    <glyph glyph-name="W" unicode="W" horiz-adv-x="999" 
d="M161 57l-139 590q-8 34 7 53t50 19h87q59 0 72 -58l62 -355l7 -75h2q1 38 10 75l82 356q15 57 73 57h50q59 0 71 -57l79 -356l10 -75h2q0 38 7 75l70 356q12 57 73 57h84q34 0 49.5 -19t7.5 -53l-147 -591q-15 -56 -73 -56h-117q-58 0 -72 57l-60 259l-11 76h-1
q-1 -40 -10 -76l-61 -259q-13 -57 -72 -57h-119q-58 0 -73 57z" />
    <glyph glyph-name="X" unicode="X" horiz-adv-x="661" 
d="M39 79l167 272l-175 290q-20 34 -7.5 56t51.5 22h95q52 0 78 -47l38 -79q11 -21 22 -45t16 -38l5 -13h2q18 46 44 96l39 79q26 47 77 47h96q39 0 51.5 -22t-7.5 -56l-176 -290l167 -272q21 -35 8.5 -57t-52.5 -22h-90q-51 0 -77 47l-35 71l-44 93h-2q-18 -45 -44 -92
l-36 -72q-26 -47 -78 -47h-87q-40 0 -53 22t7 57z" />
    <glyph glyph-name="Y" unicode="Y" horiz-adv-x="619" 
d="M204 65v225l-192 351q-19 34 -6 56t51 22h98q53 0 76 -49l39 -95q10 -24 19.5 -53.5t14.5 -47.5l5 -17h2q17 64 39 118l39 95q22 49 75 49h98q38 0 51 -22t-6 -56l-192 -351v-225q0 -65 -65 -65h-81q-65 0 -65 65z" />
    <glyph glyph-name="Z" unicode="Z" horiz-adv-x="626" 
d="M23 65v21q0 45 26 81l220 308q15 20 29 36.5t21 22.5l7 6v2q-25 -3 -56 -3h-171q-65 0 -65 65v50q0 65 65 65h430q65 0 65 -64v-19q0 -46 -26 -82l-221 -310q-15 -20 -29 -36.5t-21 -22.5l-7 -6v-2q25 3 56 3h189q65 0 65 -65v-50q0 -65 -65 -65h-447q-65 0 -65 65z" />
    <glyph glyph-name="bracketleft" unicode="[" horiz-adv-x="348" 
d="M48 -30v721q0 66 66 66h153q65 0 65 -66v-11q0 -65 -60 -65h-52v-568h47q65 0 65 -66v-11q0 -65 -65 -65h-153q-66 0 -66 65z" />
    <glyph glyph-name="backslash" unicode="\" horiz-adv-x="435" 
d="M242 11l-215 667q-11 34 4 54.5t51 20.5h36q58 0 74 -54l216 -667q11 -34 -4 -54t-51 -20h-36q-57 0 -75 53z" />
    <glyph glyph-name="bracketright" unicode="]" horiz-adv-x="348" 
d="M16 -19q0 66 66 66h46v568h-46q-66 0 -66 65v11q0 66 66 66h152q66 0 66 -66v-721q0 -65 -66 -65h-152q-66 0 -66 65v11z" />
    <glyph glyph-name="asciicircum" unicode="^" horiz-adv-x="638" 
d="M136 238q-37 0 -51 21t0 55l151 355q21 50 76 50h18q55 0 76 -50l152 -355q14 -34 -0.5 -55t-51.5 -21h-32q-57 0 -75 52l-78 224l-78 -224q-18 -52 -74 -52h-33z" />
    <glyph glyph-name="underscore" unicode="_" horiz-adv-x="611" 
d="M-6 -65q0 65 66 65h492q65 0 65 -65v-24q0 -65 -65 -65h-492q-66 0 -66 65v24z" />
    <glyph glyph-name="grave" unicode="`" horiz-adv-x="477" 
d="M272 764q-46 0 -79 39l-35 42q-27 31 -17.5 55.5t50.5 24.5h54q51 0 77 -47l23 -43q15 -26 8 -48.5t-37 -22.5h-44z" />
    <glyph glyph-name="a" unicode="a" horiz-adv-x="547" 
d="M11 148q0 58 44 97t106 54.5t136 15.5h10v17q0 32 -56 32q-36 0 -83 -19q-61 -26 -88 30l-14 30q-28 62 27 87q86 39 178 39q112 0 178 -58t66 -158v-250q0 -65 -65 -65h-59q-60 0 -65 69h-2q-53 -81 -146 -81q-76 0 -121.5 46.5t-45.5 113.5zM200 166q0 -13 10 -23.5
t31 -10.5q29 0 48.5 19.5t19.5 48.5v10h-11q-44 0 -71 -11.5t-27 -32.5z" />
    <glyph glyph-name="b" unicode="b" horiz-adv-x="630" 
d="M40 65v589q0 65 66 65h78q65 0 65 -65v-130l-2 -55h2q2 3 5 7t14.5 14.5t25.5 19t37.5 15t49.5 6.5q101 0 166.5 -75t65.5 -193q0 -123 -69 -199t-171 -76q-106 0 -140 71h-2q-2 -27 -19 -43t-46 -16h-60q-66 0 -66 65zM243 262q0 -45 21 -74t57 -29t59.5 25.5t23.5 71.5
q0 44 -22.5 72.5t-57.5 28.5q-33 0 -57 -25.5t-24 -69.5z" />
    <glyph glyph-name="c" unicode="c" horiz-adv-x="529" 
d="M15 260q0 69 31.5 129.5t100.5 101t163 40.5q98 0 165 -42q51 -31 15 -89l-20 -31q-17 -26 -38 -30t-50 10q-24 10 -58 10q-50 0 -74 -29.5t-24 -66.5q0 -38 26 -70.5t79 -32.5q35 0 77 21q61 32 89 -23l15 -30q29 -59 -18 -90q-81 -50 -184 -50q-139 0 -217 80.5
t-78 191.5z" />
    <glyph glyph-name="d" unicode="d" horiz-adv-x="630" 
d="M17 261q0 120 65.5 195t178.5 75q43 0 72.5 -11t38.5 -22l8 -11h2q-1 12 -1 28v139q0 65 66 65h78q65 0 65 -65v-589q0 -65 -65 -65h-64q-61 0 -66 63h-1q-40 -75 -145 -75q-102 0 -167 76t-65 197zM226 259q0 -45 22.5 -72.5t58.5 -27.5q34 0 57 25.5t23 72.5
q0 44 -21 72t-58 28q-35 0 -58.5 -26t-23.5 -72z" />
    <glyph glyph-name="e" unicode="e" horiz-adv-x="554" 
d="M16 260q0 115 73.5 193t201.5 78q115 0 181 -69.5t66 -173.5q0 -25 -20 -46.5t-49 -21.5h-242q23 -60 97 -60q43 0 81 17q60 26 88 -26l16 -31q30 -60 -23 -90q-82 -42 -180 -42q-71 0 -127.5 24t-91.5 63t-53 87t-18 98zM229 325h108q2 26 -11 45.5t-37 19.5
q-56 0 -60 -65z" />
    <glyph glyph-name="f" unicode="f" horiz-adv-x="386" 
d="M82 65v282h-4q-65 0 -65 65v31q0 65 65 65h4v26q0 47 19 83t46 55.5t62 31.5t59.5 15.5t45.5 3.5h19q65 0 65 -66v-45q0 -31 -16 -46t-48 -19q-43 -5 -43 -25v-14h18q65 0 65 -65v-31q0 -65 -65 -65h-18v-282q0 -65 -66 -65h-78q-65 0 -65 65z" />
    <glyph glyph-name="g" unicode="g" horiz-adv-x="621" 
d="M103 -67q13 33 32 40.5t51 -1.5q47 -11 74 -11q55 0 84 17t29 63v40h-2q-33 -62 -120 -62q-111 0 -172 78t-61 181t61.5 178t174.5 75q33 0 59 -7t40 -17t23.5 -20t12.5 -17l3 -7h1q2 25 19 40.5t47 15.5h57q65 0 65 -65v-395q0 -71 -27 -125t-72 -84.5t-96 -45
t-107 -14.5q-94 0 -153 23q-58 22 -36 84zM305 191q73 0 73 85q0 83 -75 83q-76 0 -76 -77q0 -36 18.5 -63.5t59.5 -27.5z" />
    <glyph glyph-name="h" unicode="h" horiz-adv-x="614" 
d="M373 65v229q0 49 -46 49q-78 0 -78 -114v-164q0 -65 -65 -65h-78q-66 0 -66 65v589q0 65 66 65h78q65 0 65 -65v-149l-2 -45h2q46 71 144 71q38 0 69.5 -9t59.5 -29.5t44 -59.5t16 -94v-274q0 -65 -65 -65h-78q-66 0 -66 65z" />
    <glyph glyph-name="i" unicode="i" horiz-adv-x="285" 
d="M107 567q-65 0 -65 66v21q0 65 65 65h71q65 0 65 -65v-21q0 -66 -65 -66h-71zM38 65v389q0 65 65 65h78q66 0 66 -65v-389q0 -65 -66 -65h-78q-65 0 -65 65z" />
    <glyph glyph-name="j" unicode="j" horiz-adv-x="289" 
d="M109 567q-65 0 -65 66v21q0 65 65 65h71q65 0 65 -65v-21q0 -66 -65 -66h-71zM40 11v443q0 65 66 65h78q65 0 65 -65v-460q0 -48 -19 -85.5t-46.5 -59t-61 -35.5t-59 -18.5t-44.5 -4.5h-21q-65 0 -65 66v42q0 25 11 39.5t22.5 18.5t31.5 7q42 7 42 47z" />
    <glyph glyph-name="k" unicode="k" horiz-adv-x="594" 
d="M40 65v589q0 65 66 65h78q65 0 65 -65v-298h38l60 119q24 44 77 44h80q40 0 52 -22.5t-9 -55.5l-93 -161v-2l117 -200q20 -34 8 -56t-52 -22h-92q-51 0 -77 47l-65 136h-44v-118q0 -65 -65 -65h-78q-66 0 -66 65z" />
    <glyph glyph-name="l" unicode="l" horiz-adv-x="322" 
d="M38 214v440q0 65 66 65h78q65 0 65 -65v-433q0 -41 21 -44q46 -5 46 -55v-61q0 -66 -66 -66q-36 0 -63 4t-56 17.5t-48 36.5t-31 64t-12 97z" />
    <glyph glyph-name="m" unicode="m" horiz-adv-x="879" 
d="M639 65v241q0 36 -31 36q-21 0 -34 -11t-18.5 -33.5t-7 -40.5t-1.5 -47v-145q0 -65 -65 -65h-78q-65 0 -65 65v241q0 36 -31 36q-21 0 -34 -11t-18.5 -33.5t-7 -40.5t-1.5 -47v-145q0 -65 -66 -65h-78q-65 0 -65 65v389q0 65 65 65h69q28 0 46 -18.5t18 -54.5h2
q52 85 143 85q45 0 83.5 -20.5t56.5 -63.5h2q17 35 60.5 59.5t97.5 24.5q73 0 120 -44.5t47 -147.5v-274q0 -65 -65 -65h-78q-66 0 -66 65z" />
    <glyph glyph-name="n" unicode="n" 
d="M38 65v389q0 65 65 65h69q64 0 64 -73h2q46 85 154 85q38 0 69 -9t59 -29.5t44 -59.5t16 -94v-274q0 -65 -66 -65h-78q-65 0 -65 65v229q0 49 -46 49q-78 0 -78 -114v-164q0 -65 -66 -65h-78q-65 0 -65 65z" />
    <glyph glyph-name="o" unicode="o" horiz-adv-x="632" 
d="M15 257q0 122 86.5 198t213.5 76q129 0 215.5 -76t86.5 -198q0 -120 -86.5 -194.5t-214.5 -74.5t-214.5 74.5t-86.5 194.5zM226 257q0 -46 26 -71.5t64 -25.5t64.5 25.5t26.5 71.5q0 47 -26.5 74.5t-64.5 27.5t-64 -27.5t-26 -74.5z" />
    <glyph glyph-name="p" unicode="p" horiz-adv-x="630" 
d="M40 -135v589q0 65 66 65h55q31 0 48 -14.5t17 -38.5v-14h2q2 3 5 8.5t15.5 19t28 24t42.5 19t58 8.5q106 0 171 -75.5t65 -196.5t-69 -196t-175 -75q-41 0 -71 13.5t-40 26.5l-9 14h-2q2 -22 2 -54v-123q0 -65 -65 -65h-78q-66 0 -66 65zM243 255q0 -40 21 -68t60 -28
q33 0 56.5 25.5t23.5 70.5q0 46 -22.5 74t-58.5 28q-34 0 -57 -26t-23 -76z" />
    <glyph glyph-name="q" unicode="q" horiz-adv-x="630" 
d="M17 260q0 122 67.5 196.5t174.5 74.5q32 0 58.5 -7.5t41.5 -18t25 -21t14 -18.5l3 -7h2v16q0 17 17 30.5t47 13.5h58q65 0 65 -65v-589q0 -65 -65 -65h-78q-66 0 -66 65v133l2 54h-2q-1 -3 -3.5 -7t-12.5 -15t-23.5 -19.5t-38.5 -15.5t-56 -7q-100 0 -165 76t-65 196z
M226 260q0 -46 22.5 -73.5t58.5 -27.5q34 0 57 25.5t23 75.5q0 40 -21 68.5t-60 28.5q-33 0 -56.5 -26t-23.5 -71z" />
    <glyph glyph-name="r" unicode="r" horiz-adv-x="423" 
d="M38 65v389q0 65 65 65h69q66 0 66 -65v-20l-2 -29h2q13 41 50.5 80.5t78.5 39.5q30 0 42 -16t12 -50v-68q0 -66 -64 -66q-54 0 -82 -35t-28 -94v-131q0 -65 -66 -65h-78q-65 0 -65 65z" />
    <glyph glyph-name="s" unicode="s" horiz-adv-x="467" 
d="M51 31q-54 33 -17 91l17 27q16 25 37.5 29.5t52.5 -8.5q55 -22 85 -22t30 20q0 11 -24 18t-58 15t-68 22t-58 48t-24 85q0 84 63.5 129.5t161.5 45.5q93 0 153 -30q54 -27 24 -88l-14 -28q-4 -8 -6.5 -12.5t-9.5 -12t-15.5 -10t-22.5 -2.5t-31 6q-58 18 -82 18
q-28 0 -28 -19q0 -11 24 -17.5t58 -14t68 -21.5t58 -47t24 -83q0 -80 -60 -131t-162 -51q-54 0 -102.5 13.5t-73.5 29.5z" />
    <glyph glyph-name="t" unicode="t" horiz-adv-x="418" 
d="M83 184v163h-6q-64 0 -64 65v31q0 65 64 65h13v85q0 65 65 65h71q66 0 66 -65v-85h36q66 0 66 -65v-31q0 -65 -64 -65h-38v-124q0 -41 43 -47q38 -6 51 -17t13 -43v-56q0 -35 -21 -50t-64 -15q-31 0 -64.5 7t-74 25t-66.5 58.5t-26 98.5z" />
    <glyph glyph-name="u" unicode="u" horiz-adv-x="608" 
d="M242 454v-228q0 -49 46 -49q73 0 73 114v163q0 65 66 65h78q65 0 65 -65v-389q0 -65 -65 -65h-69q-31 0 -47.5 15.5t-16.5 41.5v16h-2q-37 -85 -150 -85q-81 0 -134 44.5t-53 147.5v274q0 65 66 65h78q65 0 65 -65z" />
    <glyph glyph-name="v" unicode="v" horiz-adv-x="579" 
d="M144 54l-129 390q-12 34 2.5 54.5t50.5 20.5h83q57 0 72 -55l45 -187l20 -98h2q10 61 19 98l43 187q16 55 73 55h85q36 0 50.5 -20.5t3.5 -54.5l-127 -390q-18 -54 -74 -54h-145q-56 0 -74 54z" />
    <glyph glyph-name="w" unicode="w" horiz-adv-x="823" 
d="M117 56l-101 389q-8 35 7 54.5t49 19.5h84q59 0 71 -58l33 -222l3 -54h2q3 30 7 54l40 223q12 58 71 58h59q59 0 71 -58l41 -223l5 -54h2q0 30 4 54l33 222q13 58 71 58h82q34 0 49 -19.5t7 -54.5l-101 -389q-15 -56 -72 -56h-118q-58 0 -72 57l-22 140l-8 55h-2
q-4 -31 -8 -55l-23 -140q-13 -57 -72 -57h-120q-57 0 -72 56z" />
    <glyph glyph-name="x" unicode="x" horiz-adv-x="539" 
d="M35 78l112 185l-118 178q-21 33 -8.5 55.5t52.5 22.5h87q57 0 76 -48l19 -49l13 -40h2q6 19 14 40l18 48q19 49 76 49h87q40 0 52.5 -22.5t-8.5 -55.5l-117 -178l113 -185q21 -33 8.5 -55.5t-52.5 -22.5h-82q-56 0 -74 47l-21 54l-14 45h-2q-7 -30 -13 -45l-21 -54
q-18 -47 -74 -47h-81q-40 0 -53 22.5t9 55.5z" />
    <glyph glyph-name="y" unicode="y" horiz-adv-x="547" 
d="M34 -78q21 46 65 39q21 -3 27 -3q20 0 37.5 13.5t24.5 32.5l3 8l-189 431q-15 34 -1 55t51 21h97q62 0 75 -54l36 -143l16 -99h2q11 71 16 100l25 140q10 56 73 56h90q36 0 50.5 -20.5t2.5 -54.5l-172 -483q-22 -63 -63.5 -103t-84.5 -54t-91 -14q-33 0 -73 11
q-29 10 -37 33.5t5 52.5z" />
    <glyph glyph-name="z" unicode="z" horiz-adv-x="536" 
d="M22 50v15q0 36 28 72l130 161q12 15 23.5 27t16.5 16l6 4v2q-11 -2 -43 -2h-89q-66 0 -66 66v43q0 65 66 65h349q66 0 66 -50v-15q0 -22 -6 -36t-23 -36l-128 -162q-12 -15 -24 -26.5t-18 -15.5l-6 -5v-2q12 3 45 3h98q65 0 65 -65v-44q0 -65 -65 -65h-360q-65 0 -65 50z
" />
    <glyph glyph-name="braceleft" unicode="{" horiz-adv-x="391" 
d="M100 55v99q0 50 -31 74q-20 12 -29.5 19.5t-17 20.5t-7.5 31v69q0 26 12 40t40 32q33 21 33 77v90q0 44 20 76.5t50.5 48.5t59 23.5t52.5 7.5h21q66 0 66 -65v-24q0 -65 -66 -65q-31 0 -31 -29v-117q0 -29 -9 -52.5t-21.5 -37t-25 -22.5t-21.5 -12l-9 -3v-2l9 -3t21 -11
t26 -21.5t20.5 -36.5t9.5 -54v-126q0 -29 31 -29q66 0 66 -65v-24q0 -65 -66 -65h-21q-24 0 -52.5 7.5t-59 23.5t-50.5 48.5t-20 76.5z" />
    <glyph glyph-name="bar" unicode="|" horiz-adv-x="266" 
d="M47 -102v843q0 66 66 66h40q66 0 66 -66v-843q0 -66 -66 -66h-40q-66 0 -66 66z" />
    <glyph glyph-name="braceright" unicode="}" horiz-adv-x="390" 
d="M22 -12q0 65 65 65q32 0 32 29v126q0 47 21.5 78.5t42.5 39.5l21 8v2l-9 3t-20.5 12t-26 23t-20.5 36.5t-9 52.5v117q0 29 -32 29q-65 0 -65 65v24q0 65 65 65h22q24 0 52.5 -7.5t58.5 -23.5t50 -48.5t20 -76.5v-90q0 -56 33 -77q19 -12 28.5 -19.5t16.5 -21t7 -31.5v-69
q0 -18 -8 -31.5t-16 -19.5t-29 -20q-32 -21 -32 -74v-99q0 -44 -20 -76.5t-50 -48.5t-58.5 -23.5t-52.5 -7.5h-22q-65 0 -65 65v24z" />
    <glyph glyph-name="asciitilde" unicode="~" horiz-adv-x="599" 
d="M87 185q-62 0 -62 59q0 67 50 113.5t122 46.5q45 0 77.5 -18t55.5 -36t44 -18q29 0 43 24q16 27 26.5 35.5t35.5 8.5h33q63 0 63 -58q0 -67 -50 -114t-122 -47q-36 0 -64.5 11.5t-43.5 24.5t-34 24.5t-36 11.5q-27 0 -40 -21q-17 -28 -28 -37.5t-36 -9.5h-34z" />
    <glyph glyph-name="uni00A0" unicode="&#xa0;" horiz-adv-x="250" 
 />
    <glyph glyph-name="exclamdown" unicode="&#xa1;" horiz-adv-x="278" 
d="M163 285q63 0 66 -64l16 -354q2 -29 -15.5 -48t-48.5 -19h-84q-30 0 -47.5 17.5t-16.5 49.5l15 354q3 64 66 64h49zM231 454v-44q0 -65 -65 -65h-54q-66 0 -66 65v44q0 65 66 65h54q65 0 65 -65z" />
    <glyph glyph-name="cent" unicode="&#xa2;" horiz-adv-x="575" 
d="M240 54v22q-88 25 -151 103.5t-63 180.5t63 181t151 103v20q0 66 62 66h5q62 0 62 -49v-37q50 -12 100.5 -49t67.5 -70q30 -60 -36 -84l-66 -26q-12 -5 -21.5 -6t-15 -1t-12.5 4t-9 6t-8.5 9.5t-7.5 9.5q-17 19 -48 19q-26 0 -52 -27t-26 -74q0 -43 24 -67t52 -24
q34 0 56 26q14 17 25 21t43 -4l66 -26q66 -26 34 -85q-16 -33 -66 -74t-100 -46v-22q0 -66 -62 -66h-5q-62 0 -62 66z" />
    <glyph glyph-name="sterling" unicode="&#xa3;" horiz-adv-x="617" 
d="M43 65v50q0 31 15.5 48t42.5 17v110h-5q-32 0 -45.5 15t-13.5 48v6q0 32 13.5 47t45.5 15h5v83q0 101 72.5 164t184.5 63q84 0 159 -51q52 -34 8 -91l-33 -42q-33 -43 -91 -13q-18 9 -36 9t-33 -11.5t-15 -32.5v-78h91q65 0 65 -62v-6q0 -63 -65 -63h-91v-110h208
q66 0 66 -65v-50q0 -65 -66 -65h-417q-65 0 -65 65z" />
    <glyph glyph-name="yen" unicode="&#xa5;" horiz-adv-x="623" 
d="M105 152q-65 0 -65 53v6q0 52 65 52h98v24l-23 50h-75q-65 0 -65 52v6q0 53 54 53h33l-87 194q-16 34 -3 55.5t51 21.5h101q60 0 72 -53l13 -53l37 -163h2q24 100 38 163l12 53q7 53 71 53h100q38 0 51.5 -21t-2.5 -56l-88 -194h24q65 0 65 -53v-6q0 -52 -65 -52h-77
l-23 -50v-24h100q65 0 65 -52v-6q0 -53 -65 -53h-100v-87q0 -65 -66 -65h-85q-65 0 -65 65v87h-98z" />
    <glyph glyph-name="section" unicode="&#xa7;" horiz-adv-x="538" 
d="M42 79l17 28q30 50 89 21q56 -27 99 -27q97 0 97 94q0 29 -11.5 63.5t-52.5 125.5q-14 31 2 52.5t52 21.5h21q30 0 44.5 -12t29.5 -43q72 -153 72 -253q0 -90 -64 -151t-183 -61q-62 0 -114 16t-80 36q-47 34 -18 89zM498 590l-17 -28q-30 -50 -89 -21q-56 27 -99 27
q-97 0 -97 -94q0 -29 11.5 -63.5t52.5 -125.5q14 -31 -2 -52.5t-52 -21.5h-21q-30 0 -44.5 12t-29.5 43q-72 153 -72 253q0 90 64 151t183 61q62 0 114 -16t80 -36q47 -34 18 -89z" />
    <glyph glyph-name="dieresis" unicode="&#xa8;" horiz-adv-x="478" 
d="M345 766q-65 0 -65 66v27q0 66 65 66h17q65 0 65 -66v-27q0 -66 -65 -66h-17zM116 766q-65 0 -65 66v27q0 66 65 66h17q66 0 66 -66v-27q0 -66 -66 -66h-17z" />
    <glyph glyph-name="copyright" unicode="&#xa9;" horiz-adv-x="784" 
d="M29 360q0 154 106 262t257 108q150 0 256.5 -108t106.5 -262q0 -153 -106.5 -262.5t-256.5 -109.5q-151 0 -257 109t-106 263zM161 360q0 -106 66.5 -179t164.5 -73q97 0 165 73.5t68 178.5t-67.5 177.5t-166.5 72.5q-98 0 -164 -72.5t-66 -177.5zM229 357q0 78 49.5 129
t118.5 51q40 0 73 -18t50 -43q25 -39 -6 -65l-22 -18q-13 -10 -27 -10t-32 16t-31 16q-18 0 -29.5 -17t-11.5 -46q0 -55 41 -55q18 0 34.5 16t29.5 16t26 -10l21 -18q34 -29 5 -67q-45 -58 -121 -58q-69 0 -118.5 51.5t-49.5 129.5z" />
    <glyph glyph-name="ordfeminine" unicode="&#xaa;" horiz-adv-x="386" 
d="M129 386q-43 0 -71.5 27t-28.5 69q0 35 20.5 59t53 33.5t56 13t47.5 3.5h3v14q0 24 -35 24q-14 0 -37 -5q-28 -8 -44 -3.5t-23 25.5l-4 12q-14 41 42 59q36 12 86 12q75 0 114.5 -37.5t39.5 -101.5v-134q0 -65 -57 -65h-3q-57 0 -57 64h-2q-1 -3 -3 -7.5t-10.5 -16.5
t-19 -21t-28.5 -16.5t-39 -7.5zM169 480q15 0 27 13t12 27v14h-10q-56 0 -56 -32q0 -22 27 -22zM99 269q-65 0 -65 47v6q0 45 65 45h188q66 0 66 -45v-6q0 -47 -66 -47h-188z" />
    <glyph glyph-name="guillemotleft" unicode="&#xab;" horiz-adv-x="636" 
d="M335 236q-37 46 0 92l96 122q30 38 80 38h36q41 0 52.5 -24t-14.5 -56l-100 -126l100 -125q26 -32 17 -56t-47 -24h-44q-50 0 -80 38zM144 115l-96 121q-37 46 0 92l96 122q31 38 80 38h36q41 0 52.5 -24t-14.5 -56l-100 -126l100 -125q26 -32 17 -56t-47 -24h-44
q-49 0 -80 38z" />
    <glyph glyph-name="logicalnot" unicode="&#xac;" horiz-adv-x="608" 
d="M91 335q-65 0 -65 66v24q0 65 65 65h389q65 0 65 -65v-236q0 -66 -65 -66h-30q-65 0 -65 66v146h-294z" />
    <glyph glyph-name="uni00AD" unicode="&#xad;" horiz-adv-x="396" 
d="M101 198q-65 0 -65 65v50q0 65 65 65h194q65 0 65 -65v-50q0 -65 -65 -65h-194z" />
    <glyph glyph-name="registered" unicode="&#xae;" horiz-adv-x="784" 
d="M29 360q0 153 106 261.5t255 108.5q152 0 258.5 -108t106.5 -262t-106.5 -263t-258.5 -109q-148 0 -254.5 109.5t-106.5 262.5zM161 360q0 -105 66.5 -178.5t162.5 -73.5q99 0 167 73.5t68 178.5t-68 177.5t-167 72.5q-96 0 -162.5 -72.5t-66.5 -177.5zM257 262v202
q0 66 65 66h106q55 0 86.5 -30.5t31.5 -79.5q0 -36 -17.5 -60.5t-29.5 -28.5v-2q7 -8 13 -20l18 -35q17 -34 9 -55.5t-38 -21.5h-18q-55 0 -71 50l-18 55h-12v-40q0 -65 -60 -65h-5q-60 0 -60 65zM382 383h11q36 0 36 32q0 31 -33 31h-14v-63z" />
    <glyph glyph-name="macron" unicode="&#xaf;" horiz-adv-x="478" 
d="M162 781q-65 0 -65 61v9q0 62 65 62h154q66 0 66 -62v-9q0 -61 -66 -61h-154z" />
    <glyph glyph-name="degree" unicode="&#xb0;" horiz-adv-x="420" 
d="M210 368q-82 0 -138.5 53t-56.5 130q0 75 57 129.5t138 54.5t138 -54.5t57 -129.5q0 -77 -57 -130t-138 -53zM210 509q19 0 32.5 12.5t13.5 30.5q0 17 -13.5 29.5t-32.5 12.5q-18 0 -32 -13t-14 -29q0 -18 14 -30.5t32 -12.5z" />
    <glyph glyph-name="plusminus" unicode="&#xb1;" horiz-adv-x="638" 
d="M107 211q-65 0 -65 65v24q0 65 65 65h131v147q0 65 66 65h30q66 0 66 -65v-147h131q65 0 65 -65v-24q0 -65 -65 -65h-131v-146q0 -65 -66 -65h-30q-66 0 -66 65v146h-131zM115 -58h409q65 0 65 -66v-23q0 -66 -65 -66h-409q-66 0 -66 66v23q0 66 66 66z" />
    <glyph glyph-name="twosuperior" unicode="&#xb2;" horiz-adv-x="390" 
d="M82 423q-35 0 -50 17t-15 53q0 43 20 78t48 56t56.5 37.5t48.5 31.5t20 29q0 20 -27 20q-13 0 -27 -8q-20 -11 -34.5 -16t-29.5 -2t-27 16l-8 9q-42 49 -2 84q57 48 132 48q66 0 120 -36t54 -106q0 -45 -26 -80t-57 -51.5t-60 -30.5t-33 -21h116q65 0 65 -61v-7
q0 -60 -65 -60h-219z" />
    <glyph glyph-name="threesuperior" unicode="&#xb3;" horiz-adv-x="370" 
d="M166 413q-70 0 -119 30q-30 17 -30 44q0 19 13 39l5 9q19 30 43 30q11 0 32.5 -8.5t45.5 -8.5q40 0 40 27q0 25 -41 25h-4q-41 0 -56 26q-5 10 -5 22q0 19 31 52l13 14l30 24v2q-27 -3 -38 -3h-35q-65 0 -65 62v7q0 60 65 60h174q65 0 65 -46v-8q0 -44 -31 -74l-54 -50
q102 -29 102 -115q0 -64 -47 -112t-134 -48z" />
    <glyph glyph-name="acute" unicode="&#xb4;" horiz-adv-x="477" 
d="M169 764q-32 0 -43.5 21.5t5.5 50.5l23 42q26 47 77 47h54q41 0 50.5 -24t-17.5 -56l-35 -42q-33 -39 -79 -39h-35z" />
    <glyph glyph-name="mu" unicode="&#xb5;" horiz-adv-x="638" 
d="M48 -135v589q0 65 66 65h78q65 0 65 -65v-237q0 -18 6.5 -27.5t13 -11t17.5 -1.5q42 0 62 32.5t20 85.5v159q0 65 66 65h78q65 0 65 -65v-389q0 -65 -65 -65h-69q-31 0 -48.5 20.5t-15.5 53.5h-2q-40 -82 -131 -82q-22 0 -39 4h-2q11 -62 11 -109v-22q0 -65 -65 -65h-45
q-66 0 -66 65z" />
    <glyph glyph-name="paragraph" unicode="&#xb6;" horiz-adv-x="691" 
d="M256 15v226q-97 0 -164 69.5t-67 170.5t67.5 169.5t164.5 68.5h331q66 0 66 -65v-50q0 -65 -66 -65h-190v-524q0 -65 -66 -65h-10q-66 0 -66 65zM460 15v412q0 66 65 66h10q66 0 66 -66v-412q0 -65 -66 -65h-10q-65 0 -65 65z" />
    <glyph glyph-name="periodcentered" unicode="&#xb7;" horiz-adv-x="257" 
d="M102 202q-66 0 -66 65v61q0 65 66 65h53q66 0 66 -65v-61q0 -65 -66 -65h-53z" />
    <glyph glyph-name="cedilla" unicode="&#xb8;" horiz-adv-x="477" 
d="M166 -37l21 61h89l-13 -53q77 -8 77 -84q0 -52 -36 -75.5t-88 -23.5q-70 0 -70 47q0 24 8.5 36.5t18.5 12.5q6 0 14.5 -0.5t9.5 -0.5q20 0 20 20q0 18 -38 20q-26 1 -13 40z" />
    <glyph glyph-name="onesuperior" unicode="&#xb9;" horiz-adv-x="354" 
d="M88 423q-65 0 -65 60v7q0 61 52 61h35v93l3 35h-2q-3 -4 -5 -6q-8 -8 -22 -6.5t-25 12.5l-20 20q-42 42 9 89l50 46q35 32 81 32h15q66 0 66 -65v-250h24q65 0 65 -61v-7q0 -60 -65 -60h-196z" />
    <glyph glyph-name="ordmasculine" unicode="&#xba;" horiz-adv-x="428" 
d="M213 386q-79 0 -133 47t-54 124t54 124.5t132 47.5q81 0 135.5 -47.5t54.5 -124.5t-54.5 -124t-134.5 -47zM213 507q20 0 33.5 13t13.5 37q0 23 -14 37.5t-33 14.5t-32.5 -14.5t-13.5 -37.5q0 -24 13.5 -37t32.5 -13zM103 269q-65 0 -65 47v6q0 45 65 45h220q65 0 65 -45
v-6q0 -47 -65 -47h-220z" />
    <glyph glyph-name="guillemotright" unicode="&#xbb;" horiz-adv-x="637" 
d="M339 157l100 125l-100 126q-26 33 -17.5 56.5t46.5 23.5h45q48 0 79 -38l97 -122q37 -46 0 -92l-97 -121q-31 -38 -79 -38h-36q-42 0 -53 24t15 56zM90 77q-42 0 -53 24t15 56l100 125l-100 126q-26 33 -17.5 56.5t46.5 23.5h45q48 0 79 -38l97 -122q36 -46 0 -92
l-97 -121q-31 -38 -79 -38h-36z" />
    <glyph glyph-name="onequarter" unicode="&#xbc;" horiz-adv-x="1024" 
d="M862 0q-65 0 -65 65v13h-127q-65 0 -65 50v16q0 31 23 71l107 185q25 43 78 43h66q65 0 65 -65v-184q30 0 43 -13t13 -40v-7q0 -56 -56 -56v-13q0 -65 -65 -65h-17zM735 194h62v85l4 45h-2q-9 -29 -17 -44l-47 -84v-2zM428 49q-23 -49 -76 -49h-20q-30 0 -38.5 21t7.5 56
l278 593q23 49 76 49h20q30 0 38.5 -21.5t-7.5 -55.5zM100 277q-65 0 -65 60v7q0 61 52 61h35v93l3 35h-2q-3 -4 -5 -6q-8 -8 -22 -6.5t-25 12.5l-20 20q-42 42 9 89l50 46q35 32 81 32h15q66 0 66 -65v-250h24q65 0 65 -61v-7q0 -60 -65 -60h-196z" />
    <glyph glyph-name="onehalf" unicode="&#xbd;" horiz-adv-x="1009" 
d="M698 0q-35 0 -50 17t-15 53q0 43 20 78t48.5 56t56.5 37.5t48 31.5t20 29q0 20 -27 20q-13 0 -27 -8q-20 -11 -34.5 -16t-29.5 -2t-27 16l-8 9q-42 49 -2 84q57 48 132 48q66 0 120 -36t54 -106q0 -45 -26 -80t-57 -51.5t-60 -30.5t-33 -21h116q65 0 65 -61v-7
q0 -60 -65 -60h-219zM428 49q-23 -49 -76 -49h-20q-30 0 -38.5 21t7.5 56l278 593q23 49 76 49h20q30 0 38.5 -21.5t-7.5 -55.5zM95 277q-65 0 -65 60v7q0 61 52 61h35v93l3 35h-2q-3 -4 -5 -6q-8 -8 -22 -6.5t-25 12.5l-20 20q-42 42 9 89l50 46q35 32 81 32h15
q66 0 66 -65v-250h24q65 0 65 -61v-7q0 -60 -65 -60h-196z" />
    <glyph glyph-name="threequarters" unicode="&#xbe;" horiz-adv-x="1026" 
d="M864 0q-65 0 -65 65v13h-127q-65 0 -65 50v16q0 31 23 71l107 185q25 43 78 43h66q65 0 65 -65v-184q30 0 43 -13t13 -40v-7q0 -56 -56 -56v-13q0 -65 -65 -65h-17zM737 194h62v85l4 45h-2q-9 -29 -17 -44l-47 -84v-2zM180 267q-70 0 -119 30q-30 17 -30 44q0 19 13 39
l5 9q19 30 43 30q11 0 32.5 -8.5t45.5 -8.5q40 0 40 27q0 25 -41 25h-4q-41 0 -56 26q-5 10 -5 22q0 19 31 52l13 14l30 24v2q-27 -3 -38 -3h-35q-65 0 -65 62v7q0 60 65 60h174q65 0 65 -46v-8q0 -44 -31 -74l-54 -50q102 -29 102 -115q0 -64 -47 -112t-134 -48zM429 49
q-23 -49 -76 -49h-20q-30 0 -38.5 21t7.5 56l278 593q23 49 76 49h20q30 0 38.5 -21.5t-7.5 -55.5z" />
    <glyph glyph-name="questiondown" unicode="&#xbf;" horiz-adv-x="492" 
d="M324 285q65 0 65 -65v-5q0 -30 -23.5 -61t-52 -52t-52 -45.5t-23.5 -44.5q0 -19 13.5 -29.5t33.5 -10.5q18 0 39 9q66 32 97 -15l30 -44q36 -55 -11 -86q-81 -52 -174 -52q-59 0 -113 21t-92.5 69t-38.5 113q0 51 23 93t51 64.5t56.5 48t36.5 43.5l3 8q7 24 20.5 32.5
t41.5 8.5h70zM382 454v-44q0 -65 -65 -65h-55q-65 0 -65 65v44q0 65 65 65h55q65 0 65 -65z" />
    <glyph glyph-name="Agrave" unicode="&#xc0;" horiz-adv-x="671" 
d="M12 75l195 591q18 53 74 53h109q56 0 74 -53l195 -591q12 -34 -3 -54.5t-50 -20.5h-81q-56 0 -74 55l-15 70h-203l-15 -70q-15 -55 -72 -55h-81q-35 0 -50 20.5t-3 54.5zM281 292h107l-22 100l-30 133h-2q-16 -84 -29 -133zM310 764q-46 0 -79 39l-35 42
q-27 31 -17.5 55.5t50.5 24.5h54q51 0 77 -47l23 -43q15 -26 8 -48.5t-37 -22.5h-44z" />
    <glyph glyph-name="Aacute" unicode="&#xc1;" horiz-adv-x="671" 
d="M12 75l195 591q18 53 74 53h109q56 0 74 -53l195 -591q12 -34 -3 -54.5t-50 -20.5h-81q-56 0 -74 55l-15 70h-203l-15 -70q-15 -55 -72 -55h-81q-35 0 -50 20.5t-3 54.5zM281 292h107l-22 100l-30 133h-2q-16 -84 -29 -133zM324 764q-32 0 -43.5 21.5t5.5 50.5l23 42
q26 47 77 47h54q41 0 50.5 -24t-17.5 -56l-35 -42q-33 -39 -79 -39h-35z" />
    <glyph glyph-name="Acircumflex" unicode="&#xc2;" horiz-adv-x="671" 
d="M12 75l195 591q18 53 74 53h109q56 0 74 -53l195 -591q12 -34 -3 -54.5t-50 -20.5h-81q-56 0 -74 55l-15 70h-203l-15 -70q-15 -55 -72 -55h-81q-35 0 -50 20.5t-3 54.5zM281 292h107l-22 100l-30 133h-2q-16 -84 -29 -133zM209 764q-33 0 -40.5 22.5t14.5 57.5l24 38
q28 43 79 43h98q51 0 79 -43l24 -38q22 -35 14.5 -57.5t-41.5 -22.5h-40q-27 0 -39.5 10t-25.5 35l-19 38h-2l-19 -38q-13 -25 -25.5 -35t-39.5 -10h-41z" />
    <glyph glyph-name="Atilde" unicode="&#xc3;" horiz-adv-x="671" 
d="M12 75l195 591q18 53 74 53h109q56 0 74 -53l195 -591q12 -34 -3 -54.5t-50 -20.5h-81q-56 0 -74 55l-15 70h-203l-15 -70q-15 -55 -72 -55h-81q-35 0 -50 20.5t-3 54.5zM281 292h107l-22 100l-30 133h-2q-16 -84 -29 -133zM181 763q-57 0 -57 53q0 44 34.5 78t85.5 34
q36 0 64.5 -14t48.5 -28t34 -14q26 0 31 23q3 30 54 30h13q57 0 57 -49q0 -51 -33 -83.5t-86 -32.5q-36 0 -65 14t-48.5 28t-33.5 14q-28 0 -35 -25q-6 -28 -50 -28h-14z" />
    <glyph glyph-name="Adieresis" unicode="&#xc4;" horiz-adv-x="671" 
d="M12 75l195 591q18 53 74 53h109q56 0 74 -53l195 -591q12 -34 -3 -54.5t-50 -20.5h-81q-56 0 -74 55l-15 70h-203l-15 -70q-15 -55 -72 -55h-81q-35 0 -50 20.5t-3 54.5zM281 292h107l-22 100l-30 133h-2q-16 -84 -29 -133zM441 766q-65 0 -65 66v27q0 66 65 66h17
q65 0 65 -66v-27q0 -66 -65 -66h-17zM212 766q-65 0 -65 66v27q0 66 65 66h17q66 0 66 -66v-27q0 -66 -66 -66h-17z" />
    <glyph glyph-name="Aring" unicode="&#xc5;" horiz-adv-x="671" 
d="M12 75l195 591q18 53 74 53h109q56 0 74 -53l195 -591q12 -34 -3 -54.5t-50 -20.5h-81q-56 0 -74 55l-15 70h-203l-15 -70q-15 -55 -72 -55h-81q-35 0 -50 20.5t-3 54.5zM281 292h107l-22 100l-30 133h-2q-16 -84 -29 -133zM334 749q-49 0 -84.5 22.5t-35.5 67.5t36 68
t84 23q49 0 85.5 -23t36.5 -68t-36.5 -67.5t-85.5 -22.5zM334 803q16 0 26 9.5t10 26.5t-10 27t-26 10q-15 0 -24.5 -10.5t-9.5 -26.5q0 -17 9 -26.5t25 -9.5z" />
    <glyph glyph-name="AE" unicode="&#xc6;" horiz-adv-x="960" 
d="M1 76l249 593q20 50 76 50h534q65 0 65 -65v-50q0 -65 -65 -65h-189v-87h136q65 0 65 -65v-50q0 -65 -65 -65h-136v-92h200q66 0 66 -65v-50q0 -65 -66 -65h-346q-65 0 -65 65v211h-168l-83 -225q-23 -51 -75 -51h-83q-37 0 -50.5 21t0.5 55zM357 443h103v96h-68z" />
    <glyph glyph-name="Ccedilla" unicode="&#xc7;" horiz-adv-x="693" 
d="M333 -37l10 29q-147 19 -233 120t-86 248q0 159 107.5 265t275.5 106q127 0 227 -65q49 -36 14 -91l-30 -50q-32 -53 -89 -19q-59 33 -112 33q-91 0 -133 -51t-42 -123q0 -73 43.5 -129t130.5 -56q62 0 125 43q57 38 91 -13l35 -48q37 -55 -12 -91q-96 -75 -221 -82
l-4 -18q77 -8 77 -84q0 -52 -36 -75.5t-88 -23.5q-70 0 -70 47q0 24 8.5 36.5t18.5 12.5q6 0 14.5 -0.5t9.5 -0.5q20 0 20 20q0 18 -38 20q-26 1 -13 40z" />
    <glyph glyph-name="Egrave" unicode="&#xc8;" horiz-adv-x="556" 
d="M55 65v589q0 65 66 65h335q65 0 65 -65v-50q0 -65 -65 -65h-190v-87h136q66 0 66 -65v-50q0 -65 -66 -65h-136v-92h202q66 0 66 -65v-50q0 -65 -66 -65h-347q-66 0 -66 65zM270 764q-46 0 -79 39l-35 42q-27 31 -17.5 55.5t50.5 24.5h54q51 0 77 -47l23 -43
q15 -26 8 -48.5t-37 -22.5h-44z" />
    <glyph glyph-name="Eacute" unicode="&#xc9;" horiz-adv-x="556" 
d="M284 764q-32 0 -43.5 21.5t5.5 50.5l23 42q26 47 77 47h54q41 0 50.5 -24t-17.5 -56l-35 -42q-33 -39 -79 -39h-35zM55 65v589q0 65 66 65h335q65 0 65 -65v-50q0 -65 -65 -65h-190v-87h136q66 0 66 -65v-50q0 -65 -66 -65h-136v-92h202q66 0 66 -65v-50q0 -65 -66 -65
h-347q-66 0 -66 65z" />
    <glyph glyph-name="Ecircumflex" unicode="&#xca;" horiz-adv-x="556" 
d="M168 764q-33 0 -40.5 22.5t14.5 57.5l24 38q28 43 79 43h98q51 0 79 -43l24 -38q22 -35 14.5 -57.5t-41.5 -22.5h-40q-27 0 -39.5 10t-25.5 35l-19 38h-2l-19 -38q-13 -25 -25.5 -35t-39.5 -10h-41zM55 65v589q0 65 66 65h335q65 0 65 -65v-50q0 -65 -65 -65h-190v-87
h136q66 0 66 -65v-50q0 -65 -66 -65h-136v-92h202q66 0 66 -65v-50q0 -65 -66 -65h-347q-66 0 -66 65z" />
    <glyph glyph-name="Edieresis" unicode="&#xcb;" horiz-adv-x="556" 
d="M401 766q-65 0 -65 66v27q0 66 65 66h17q65 0 65 -66v-27q0 -66 -65 -66h-17zM172 766q-65 0 -65 66v27q0 66 65 66h17q66 0 66 -66v-27q0 -66 -66 -66h-17zM55 65v589q0 65 66 65h335q65 0 65 -65v-50q0 -65 -65 -65h-190v-87h136q66 0 66 -65v-50q0 -65 -66 -65h-136
v-92h202q66 0 66 -65v-50q0 -65 -66 -65h-347q-66 0 -66 65z" />
    <glyph glyph-name="Igrave" unicode="&#xcc;" horiz-adv-x="321" 
d="M55 65v589q0 65 66 65h80q65 0 65 -65v-589q0 -65 -65 -65h-80q-66 0 -66 65zM137 764q-46 0 -79 39l-35 42q-27 31 -17.5 55.5t50.5 24.5h54q51 0 77 -47l23 -43q15 -26 8 -48.5t-37 -22.5h-44z" />
    <glyph glyph-name="Iacute" unicode="&#xcd;" horiz-adv-x="321" 
d="M55 65v589q0 65 66 65h80q65 0 65 -65v-589q0 -65 -65 -65h-80q-66 0 -66 65zM151 764q-32 0 -43.5 21.5t5.5 50.5l23 42q26 47 77 47h54q41 0 50.5 -24t-17.5 -56l-35 -42q-33 -39 -79 -39h-35z" />
    <glyph glyph-name="Icircumflex" unicode="&#xce;" horiz-adv-x="321" 
d="M55 65v589q0 65 66 65h80q65 0 65 -65v-589q0 -65 -65 -65h-80q-66 0 -66 65zM36 764q-33 0 -40.5 22.5t14.5 57.5l24 38q28 43 79 43h98q51 0 79 -43l24 -38q22 -35 14.5 -57.5t-41.5 -22.5h-40q-27 0 -39.5 10t-25.5 35l-19 38h-2l-19 -38q-13 -25 -25.5 -35t-39.5 -10
h-41z" />
    <glyph glyph-name="Idieresis" unicode="&#xcf;" horiz-adv-x="321" 
d="M55 65v589q0 65 66 65h80q65 0 65 -65v-589q0 -65 -65 -65h-80q-66 0 -66 65zM258 766q-65 0 -65 66v27q0 66 65 66h17q65 0 65 -66v-27q0 -66 -65 -66h-17zM49 766q-65 0 -65 66v27q0 66 65 66h17q66 0 66 -66v-27q0 -66 -66 -66h-17z" />
    <glyph glyph-name="Eth" unicode="&#xd0;" horiz-adv-x="723" 
d="M60 65v206q-23 0 -39.5 17t-16.5 48v37q0 30 16.5 47.5t39.5 17.5v216q0 65 65 65h198q174 0 274 -95t100 -263t-100.5 -264.5t-273.5 -96.5h-198q-65 0 -65 65zM271 180h45q78 0 120.5 46.5t42.5 134.5q0 87 -43 132.5t-120 45.5h-45v-101h19q63 0 63 -65v-37
q0 -65 -63 -65h-19v-91z" />
    <glyph glyph-name="Ntilde" unicode="&#xd1;" horiz-adv-x="733" 
d="M55 65v589q0 65 66 65h96q54 0 78 -44l118 -231q13 -23 28 -56t24 -54l9 -22h2q-9 84 -9 132v210q0 65 65 65h80q66 0 66 -65v-589q0 -65 -66 -65h-96q-53 0 -77 44l-119 230q-13 23 -28 55.5t-24 54.5l-9 21h-2q9 -83 9 -131v-209q0 -65 -65 -65h-80q-66 0 -66 65z
M212 763q-57 0 -57 53q0 44 34.5 78t85.5 34q36 0 64.5 -14t48.5 -28t34 -14q26 0 31 23q3 30 54 30h13q57 0 57 -49q0 -51 -33 -83.5t-86 -32.5q-36 0 -65 14t-48.5 28t-33.5 14q-28 0 -35 -25q-6 -28 -50 -28h-14z" />
    <glyph glyph-name="Ograve" unicode="&#xd2;" horiz-adv-x="807" 
d="M24 364q0 157 105.5 262t273.5 105t274 -105t106 -262q0 -161 -106 -268.5t-274 -107.5t-273.5 107.5t-105.5 268.5zM242 364q0 -79 45 -131.5t116 -52.5t116.5 52.5t45.5 131.5q0 76 -45.5 125.5t-116.5 49.5t-116 -49.5t-45 -125.5zM378 764q-46 0 -79 39l-35 42
q-27 31 -17.5 55.5t50.5 24.5h54q51 0 77 -47l23 -43q15 -26 8 -48.5t-37 -22.5h-44z" />
    <glyph glyph-name="Oacute" unicode="&#xd3;" horiz-adv-x="807" 
d="M392 764q-32 0 -43.5 21.5t5.5 50.5l23 42q26 47 77 47h54q41 0 50.5 -24t-17.5 -56l-35 -42q-33 -39 -79 -39h-35zM24 364q0 157 105.5 262t273.5 105t274 -105t106 -262q0 -161 -106 -268.5t-274 -107.5t-273.5 107.5t-105.5 268.5zM242 364q0 -79 45 -131.5t116 -52.5
t116.5 52.5t45.5 131.5q0 76 -45.5 125.5t-116.5 49.5t-116 -49.5t-45 -125.5z" />
    <glyph glyph-name="Ocircumflex" unicode="&#xd4;" horiz-adv-x="807" 
d="M277 764q-33 0 -40.5 22.5t14.5 57.5l24 38q28 43 79 43h98q51 0 79 -43l24 -38q22 -35 14.5 -57.5t-41.5 -22.5h-40q-27 0 -39.5 10t-25.5 35l-19 38h-2l-19 -38q-13 -25 -25.5 -35t-39.5 -10h-41zM24 364q0 157 105.5 262t273.5 105t274 -105t106 -262
q0 -161 -106 -268.5t-274 -107.5t-273.5 107.5t-105.5 268.5zM242 364q0 -79 45 -131.5t116 -52.5t116.5 52.5t45.5 131.5q0 76 -45.5 125.5t-116.5 49.5t-116 -49.5t-45 -125.5z" />
    <glyph glyph-name="Otilde" unicode="&#xd5;" horiz-adv-x="807" 
d="M24 364q0 157 105.5 262t273.5 105t274 -105t106 -262q0 -161 -106 -268.5t-274 -107.5t-273.5 107.5t-105.5 268.5zM242 364q0 -79 45 -131.5t116 -52.5t116.5 52.5t45.5 131.5q0 76 -45.5 125.5t-116.5 49.5t-116 -49.5t-45 -125.5zM249 763q-57 0 -57 53q0 44 34.5 78
t85.5 34q36 0 64.5 -14t48.5 -28t34 -14q26 0 31 23q3 30 54 30h13q57 0 57 -49q0 -51 -33 -83.5t-86 -32.5q-36 0 -65 14t-48.5 28t-33.5 14q-28 0 -35 -25q-6 -28 -50 -28h-14z" />
    <glyph glyph-name="Odieresis" unicode="&#xd6;" horiz-adv-x="807" 
d="M509 766q-65 0 -65 66v27q0 66 65 66h17q65 0 65 -66v-27q0 -66 -65 -66h-17zM280 766q-65 0 -65 66v27q0 66 65 66h17q66 0 66 -66v-27q0 -66 -66 -66h-17zM24 364q0 157 105.5 262t273.5 105t274 -105t106 -262q0 -161 -106 -268.5t-274 -107.5t-273.5 107.5
t-105.5 268.5zM242 364q0 -79 45 -131.5t116 -52.5t116.5 52.5t45.5 131.5q0 76 -45.5 125.5t-116.5 49.5t-116 -49.5t-45 -125.5z" />
    <glyph glyph-name="multiply" unicode="&#xd7;" horiz-adv-x="638" 
d="M87 64q-45 45 -1 93l126 131l-126 133q-45 46 1 92l16 17q48 48 93 -1l122 -128l123 128q45 49 93 1l16 -17q46 -46 1 -92l-127 -133l127 -131q44 -48 -1 -93l-16 -16q-49 -49 -93 1l-123 127l-122 -127q-44 -50 -93 -1z" />
    <glyph glyph-name="Oslash" unicode="&#xd8;" horiz-adv-x="806" 
d="M126 76l10 14q-112 107 -112 274q0 156 107 261.5t272 105.5q96 0 172 -35l12 15q30 36 66 11q19 -12 22 -30.5t-8 -32.5l-11 -15q60 -52 93.5 -124t33.5 -156q0 -160 -107.5 -268t-272.5 -108q-105 0 -189 45l-7 -10q-39 -54 -79 -24q-21 15 -21.5 32t19.5 45zM262 264
l195 267q-27 8 -54 8q-68 0 -114.5 -49.5t-46.5 -125.5q0 -59 20 -100zM332 197q36 -17 71 -17q68 0 115 52t47 132q0 63 -32 109z" />
    <glyph glyph-name="Ugrave" unicode="&#xd9;" horiz-adv-x="716" 
d="M49 269v385q0 65 65 65h81q65 0 65 -65v-385q0 -44 26 -66.5t72 -22.5t72.5 22.5t26.5 65.5v386q0 65 65 65h80q65 0 65 -65v-385q0 -124 -84.5 -202.5t-223.5 -78.5q-140 0 -225 78.5t-85 202.5zM333 764q-46 0 -79 39l-35 42q-27 31 -17.5 55.5t50.5 24.5h54
q51 0 77 -47l23 -43q15 -26 8 -48.5t-37 -22.5h-44z" />
    <glyph glyph-name="Uacute" unicode="&#xda;" horiz-adv-x="716" 
d="M347 764q-32 0 -43.5 21.5t5.5 50.5l23 42q26 47 77 47h54q41 0 50.5 -24t-17.5 -56l-35 -42q-33 -39 -79 -39h-35zM49 269v385q0 65 65 65h81q65 0 65 -65v-385q0 -44 26 -66.5t72 -22.5t72.5 22.5t26.5 65.5v386q0 65 65 65h80q65 0 65 -65v-385q0 -124 -84.5 -202.5
t-223.5 -78.5q-140 0 -225 78.5t-85 202.5z" />
    <glyph glyph-name="Ucircumflex" unicode="&#xdb;" horiz-adv-x="716" 
d="M232 764q-33 0 -40.5 22.5t14.5 57.5l24 38q28 43 79 43h98q51 0 79 -43l24 -38q22 -35 14.5 -57.5t-41.5 -22.5h-40q-27 0 -39.5 10t-25.5 35l-19 38h-2l-19 -38q-13 -25 -25.5 -35t-39.5 -10h-41zM49 269v385q0 65 65 65h81q65 0 65 -65v-385q0 -44 26 -66.5t72 -22.5
t72.5 22.5t26.5 65.5v386q0 65 65 65h80q65 0 65 -65v-385q0 -124 -84.5 -202.5t-223.5 -78.5q-140 0 -225 78.5t-85 202.5z" />
    <glyph glyph-name="Udieresis" unicode="&#xdc;" horiz-adv-x="716" 
d="M464 766q-65 0 -65 66v27q0 66 65 66h17q65 0 65 -66v-27q0 -66 -65 -66h-17zM235 766q-65 0 -65 66v27q0 66 65 66h17q66 0 66 -66v-27q0 -66 -66 -66h-17zM49 269v385q0 65 65 65h81q65 0 65 -65v-385q0 -44 26 -66.5t72 -22.5t72.5 22.5t26.5 65.5v386q0 65 65 65h80
q65 0 65 -65v-385q0 -124 -84.5 -202.5t-223.5 -78.5q-140 0 -225 78.5t-85 202.5z" />
    <glyph glyph-name="Yacute" unicode="&#xdd;" horiz-adv-x="619" 
d="M204 65v225l-192 351q-19 34 -6 56t51 22h98q53 0 76 -49l39 -95q10 -24 19.5 -53.5t14.5 -47.5l5 -17h2q17 64 39 118l39 95q22 49 75 49h98q38 0 51 -22t-6 -56l-192 -351v-225q0 -65 -65 -65h-81q-65 0 -65 65zM299 764q-32 0 -43.5 21.5t5.5 50.5l23 42q26 47 77 47
h54q41 0 50.5 -24t-17.5 -56l-35 -42q-33 -39 -79 -39h-35z" />
    <glyph glyph-name="Thorn" unicode="&#xde;" horiz-adv-x="620" 
d="M55 65v589q0 65 66 65h80q65 0 65 -63v-36h104q107 0 173 -72.5t66 -185.5q0 -112 -66 -185.5t-172 -73.5h-105v-38q0 -65 -65 -65h-80q-66 0 -66 65zM266 283h59q36 0 53 22t17 57t-16.5 56.5t-49.5 21.5h-63v-157z" />
    <glyph glyph-name="germandbls" unicode="&#xdf;" horiz-adv-x="633" 
d="M362 169q48 2 48 28q0 17 -18 34t-39 31t-39 42t-18 64q0 42 29 87t29 63t-12 32t-37 14q-23 0 -39.5 -13t-16.5 -40v-446q0 -65 -65 -65h-78q-66 0 -66 65v461q0 96 80.5 150.5t186.5 54.5q107 0 182 -55.5t75 -144.5q0 -36 -15 -63.5t-29.5 -48.5t-14.5 -42
q0 -20 11.5 -35.5t28 -28t33.5 -27.5t28.5 -41.5t11.5 -62.5q0 -86 -62 -134t-155 -48h-39q-65 0 -65 65v38q0 28 12.5 43.5t24.5 18.5t28 4z" />
    <glyph glyph-name="agrave" unicode="&#xe0;" horiz-adv-x="547" 
d="M11 148q0 58 44 97t106 54.5t136 15.5h10v17q0 32 -56 32q-36 0 -83 -19q-61 -26 -88 30l-14 30q-28 62 27 87q86 39 178 39q112 0 178 -58t66 -158v-250q0 -65 -65 -65h-59q-60 0 -65 69h-2q-53 -81 -146 -81q-76 0 -121.5 46.5t-45.5 113.5zM200 166q0 -13 10 -23.5
t31 -10.5q29 0 48.5 19.5t19.5 48.5v10h-11q-44 0 -71 -11.5t-27 -32.5zM254 559q-46 0 -79 39l-35 42q-27 32 -17.5 56t50.5 24h54q51 0 77 -47l23 -43q15 -26 8 -48.5t-37 -22.5h-44z" />
    <glyph glyph-name="aacute" unicode="&#xe1;" horiz-adv-x="547" 
d="M11 148q0 58 44 97t106 54.5t136 15.5h10v17q0 32 -56 32q-36 0 -83 -19q-61 -26 -88 30l-14 30q-28 62 27 87q86 39 178 39q112 0 178 -58t66 -158v-250q0 -65 -65 -65h-59q-60 0 -65 69h-2q-53 -81 -146 -81q-76 0 -121.5 46.5t-45.5 113.5zM200 166q0 -13 10 -23.5
t31 -10.5q29 0 48.5 19.5t19.5 48.5v10h-11q-44 0 -71 -11.5t-27 -32.5zM267 559q-32 0 -43.5 21.5t5.5 50.5l23 42q26 47 77 47h54q41 0 50.5 -24t-17.5 -56l-35 -42q-33 -39 -79 -39h-35z" />
    <glyph glyph-name="acircumflex" unicode="&#xe2;" horiz-adv-x="547" 
d="M11 148q0 58 44 97t106 54.5t136 15.5h10v17q0 32 -56 32q-36 0 -83 -19q-61 -26 -88 30l-14 30q-28 62 27 87q86 39 178 39q112 0 178 -58t66 -158v-250q0 -65 -65 -65h-59q-60 0 -65 69h-2q-53 -81 -146 -81q-76 0 -121.5 46.5t-45.5 113.5zM200 166q0 -13 10 -23.5
t31 -10.5q29 0 48.5 19.5t19.5 48.5v10h-11q-44 0 -71 -11.5t-27 -32.5zM151 559q-33 0 -40.5 22.5t14.5 57.5l24 38q28 43 79 43h98q51 0 79 -43l24 -38q22 -35 14.5 -57.5t-41.5 -22.5h-40q-27 0 -39.5 10t-25.5 35l-19 38h-2l-19 -38q-13 -25 -25.5 -35t-39.5 -10h-41z
" />
    <glyph glyph-name="atilde" unicode="&#xe3;" horiz-adv-x="547" 
d="M11 148q0 58 44 97t106 54.5t136 15.5h10v17q0 32 -56 32q-36 0 -83 -19q-61 -26 -88 30l-14 30q-28 62 27 87q86 39 178 39q112 0 178 -58t66 -158v-250q0 -65 -65 -65h-59q-60 0 -65 69h-2q-53 -81 -146 -81q-76 0 -121.5 46.5t-45.5 113.5zM200 166q0 -13 10 -23.5
t31 -10.5q29 0 48.5 19.5t19.5 48.5v10h-11q-44 0 -71 -11.5t-27 -32.5zM123 558q-57 0 -57 53q0 44 34.5 78t85.5 34q36 0 64.5 -14t48.5 -28t34 -14q26 0 31 23q3 30 54 30h13q57 0 57 -49q0 -51 -33 -83.5t-86 -32.5q-36 0 -65 14t-48.5 28t-33.5 14q-28 0 -35 -25
q-6 -28 -50 -28h-14z" />
    <glyph glyph-name="adieresis" unicode="&#xe4;" horiz-adv-x="547" 
d="M11 148q0 58 44 97t106 54.5t136 15.5h10v17q0 32 -56 32q-36 0 -83 -19q-61 -26 -88 30l-14 30q-28 62 27 87q86 39 178 39q112 0 178 -58t66 -158v-250q0 -65 -65 -65h-59q-60 0 -65 69h-2q-53 -81 -146 -81q-76 0 -121.5 46.5t-45.5 113.5zM200 166q0 -13 10 -23.5
t31 -10.5q29 0 48.5 19.5t19.5 48.5v10h-11q-44 0 -71 -11.5t-27 -32.5zM383 561q-65 0 -65 66v27q0 66 65 66h17q65 0 65 -66v-27q0 -66 -65 -66h-17zM154 561q-65 0 -65 66v27q0 66 65 66h17q66 0 66 -66v-27q0 -66 -66 -66h-17z" />
    <glyph glyph-name="aring" unicode="&#xe5;" horiz-adv-x="547" 
d="M11 148q0 58 44 97t106 54.5t136 15.5h10v17q0 32 -56 32q-36 0 -83 -19q-61 -26 -88 30l-14 30q-28 62 27 87q86 39 178 39q112 0 178 -58t66 -158v-250q0 -65 -65 -65h-59q-60 0 -65 69h-2q-53 -81 -146 -81q-76 0 -121.5 46.5t-45.5 113.5zM200 166q0 -13 10 -23.5
t31 -10.5q29 0 48.5 19.5t19.5 48.5v10h-11q-44 0 -71 -11.5t-27 -32.5zM276 544q-49 0 -84.5 22.5t-35.5 67.5t36 68t84 23q49 0 85.5 -23t36.5 -68t-36.5 -67.5t-85.5 -22.5zM276 598q16 0 26 10t10 26q0 17 -10 27t-26 10q-15 0 -24.5 -10.5t-9.5 -26.5q0 -17 9 -26.5
t25 -9.5z" />
    <glyph glyph-name="ae" unicode="&#xe6;" horiz-adv-x="835" 
d="M13 160q0 41 25 72t59 46.5t80 25t77 12t60 2.5v14q0 18 -18 27.5t-46 9.5q-38 0 -82 -19q-62 -27 -86 25l-14 29q-14 28 -7 51t34 36q80 40 172 40q99 0 160 -40h2q62 40 142 40q116 0 182 -71t66 -179q0 -24 -20 -43.5t-49 -19.5h-247q12 -32 40.5 -47.5t61.5 -15.5
q44 0 81 15q30 14 52 10.5t36 -30.5l16 -30q31 -60 -23 -90q-82 -42 -180 -42q-127 0 -207 88h-2q-16 -30 -64.5 -58.5t-124.5 -28.5q-75 0 -125.5 47.5t-50.5 123.5zM204 168q0 -35 41 -35q28 0 49 19.5t21 47.5v12h-11q-45 0 -72.5 -12t-27.5 -32zM504 324h113
q2 26 -11 46t-37 20q-61 0 -65 -66z" />
    <glyph glyph-name="ccedilla" unicode="&#xe7;" horiz-adv-x="531" 
d="M235 -37l10 31q-109 19 -169 94.5t-60 171.5q0 69 31.5 129.5t100.5 101t163 40.5q98 0 165 -42q51 -31 15 -89l-20 -31q-17 -26 -38 -30t-50 10q-24 10 -58 10q-50 0 -74 -29.5t-24 -66.5q0 -38 26 -70.5t79 -32.5q35 0 77 21q61 32 89 -23l15 -30q29 -59 -18 -90
q-70 -44 -159 -49l-4 -18q77 -8 77 -84q0 -52 -36 -75.5t-88 -23.5q-70 0 -70 47q0 24 8.5 36.5t18.5 12.5q6 0 14.5 -0.5t9.5 -0.5q20 0 20 20q0 18 -38 20q-26 1 -13 40z" />
    <glyph glyph-name="egrave" unicode="&#xe8;" horiz-adv-x="554" 
d="M16 260q0 115 73.5 193t201.5 78q115 0 181 -69.5t66 -173.5q0 -25 -20 -46.5t-49 -21.5h-242q23 -60 97 -60q43 0 81 17q60 26 88 -26l16 -31q30 -60 -23 -90q-82 -42 -180 -42q-71 0 -127.5 24t-91.5 63t-53 87t-18 98zM229 325h108q2 26 -11 45.5t-37 19.5
q-56 0 -60 -65zM262 559q-46 0 -79 39l-35 42q-27 32 -17.5 56t50.5 24h54q51 0 77 -47l23 -43q15 -26 8 -48.5t-37 -22.5h-44z" />
    <glyph glyph-name="eacute" unicode="&#xe9;" horiz-adv-x="554" 
d="M274 559q-32 0 -43.5 21.5t5.5 50.5l23 42q26 47 77 47h54q41 0 50.5 -24t-17.5 -56l-35 -42q-33 -39 -79 -39h-35zM16 260q0 115 73.5 193t201.5 78q115 0 181 -69.5t66 -173.5q0 -25 -20 -46.5t-49 -21.5h-242q23 -60 97 -60q43 0 81 17q60 26 88 -26l16 -31
q30 -60 -23 -90q-82 -42 -180 -42q-71 0 -127.5 24t-91.5 63t-53 87t-18 98zM229 325h108q2 26 -11 45.5t-37 19.5q-56 0 -60 -65z" />
    <glyph glyph-name="ecircumflex" unicode="&#xea;" horiz-adv-x="554" 
d="M159 559q-33 0 -40.5 22.5t14.5 57.5l24 38q28 43 79 43h98q51 0 79 -43l24 -38q22 -35 14.5 -57.5t-41.5 -22.5h-40q-27 0 -39.5 10t-25.5 35l-19 38h-2l-19 -38q-13 -25 -25.5 -35t-39.5 -10h-41zM16 260q0 115 73.5 193t201.5 78q115 0 181 -69.5t66 -173.5
q0 -25 -20 -46.5t-49 -21.5h-242q23 -60 97 -60q43 0 81 17q60 26 88 -26l16 -31q30 -60 -23 -90q-82 -42 -180 -42q-71 0 -127.5 24t-91.5 63t-53 87t-18 98zM229 325h108q2 26 -11 45.5t-37 19.5q-56 0 -60 -65z" />
    <glyph glyph-name="edieresis" unicode="&#xeb;" horiz-adv-x="554" 
d="M391 561q-65 0 -65 66v27q0 66 65 66h17q65 0 65 -66v-27q0 -66 -65 -66h-17zM162 561q-65 0 -65 66v27q0 66 65 66h17q66 0 66 -66v-27q0 -66 -66 -66h-17zM16 260q0 115 73.5 193t201.5 78q115 0 181 -69.5t66 -173.5q0 -25 -20 -46.5t-49 -21.5h-242q23 -60 97 -60
q43 0 81 17q60 26 88 -26l16 -31q30 -60 -23 -90q-82 -42 -180 -42q-71 0 -127.5 24t-91.5 63t-53 87t-18 98zM229 325h108q2 26 -11 45.5t-37 19.5q-56 0 -60 -65z" />
    <glyph glyph-name="igrave" unicode="&#xec;" horiz-adv-x="285" 
d="M38 65v389q0 65 65 65h78q66 0 66 -65v-389q0 -65 -66 -65h-78q-65 0 -65 65zM117 559q-46 0 -79 39l-35 42q-27 32 -17.5 56t50.5 24h54q51 0 77 -47l23 -43q15 -26 8 -48.5t-37 -22.5h-44z" />
    <glyph glyph-name="iacute" unicode="&#xed;" horiz-adv-x="285" 
d="M132 559q-32 0 -43.5 21.5t5.5 50.5l23 42q26 47 77 47h54q41 0 50.5 -24t-17.5 -56l-35 -42q-33 -39 -79 -39h-35zM38 65v389q0 65 65 65h78q66 0 66 -65v-389q0 -65 -66 -65h-78q-65 0 -65 65z" />
    <glyph glyph-name="icircumflex" unicode="&#xee;" horiz-adv-x="285" 
d="M16 559q-33 0 -40.5 22.5t14.5 57.5l24 38q28 43 79 43h98q51 0 79 -43l24 -38q22 -35 14.5 -57.5t-41.5 -22.5h-40q-27 0 -39.5 10t-25.5 35l-19 38h-2l-19 -38q-13 -25 -25.5 -35t-39.5 -10h-41zM38 65v389q0 65 65 65h78q66 0 66 -65v-389q0 -65 -66 -65h-78
q-65 0 -65 65z" />
    <glyph glyph-name="idieresis" unicode="&#xef;" horiz-adv-x="285" 
d="M233 561q-65 0 -65 66v27q0 66 65 66h17q65 0 65 -66v-27q0 -66 -65 -66h-17zM34 561q-65 0 -65 66v27q0 66 65 66h17q66 0 66 -66v-27q0 -66 -66 -66h-17zM38 65v389q0 65 65 65h78q66 0 66 -65v-389q0 -65 -66 -65h-78q-65 0 -65 65z" />
    <glyph glyph-name="eth" unicode="&#xf0;" horiz-adv-x="578" 
d="M18 237q0 91 62.5 153.5t163.5 62.5q20 0 38 -2.5t26 -5.5l7 -3h2q-32 34 -77 58l-120 -48q-36 -14 -48 -10.5t-22 27.5l-7 16q-19 42 40 63l42 15q-43 15 -56 34.5t-1 52.5l14 39q21 57 82 44q31 -7 87.5 -30.5t95.5 -48.5l94 37q37 12 47.5 9t20.5 -22l10 -22
q16 -35 -38 -57l-43 -17q119 -121 119 -291q0 -57 -14.5 -108.5t-45 -96.5t-84.5 -71.5t-125 -26.5q-126 0 -198 75t-72 174zM227 232q0 -72 57 -72q34 0 49 24.5t15 57.5q0 64 -56 64q-65 0 -65 -74z" />
    <glyph glyph-name="ntilde" unicode="&#xf1;" 
d="M38 65v389q0 65 65 65h69q64 0 64 -73h2q46 85 154 85q38 0 69 -9t59 -29.5t44 -59.5t16 -94v-274q0 -65 -66 -65h-78q-65 0 -65 65v229q0 49 -46 49q-78 0 -78 -114v-164q0 -65 -66 -65h-78q-65 0 -65 65zM156 558q-57 0 -57 53q0 44 34.5 78t85.5 34q36 0 64.5 -14
t48.5 -28t34 -14q26 0 31 23q3 30 54 30h13q57 0 57 -49q0 -51 -33 -83.5t-86 -32.5q-36 0 -65 14t-48.5 28t-33.5 14q-28 0 -35 -25q-6 -28 -50 -28h-14z" />
    <glyph glyph-name="ograve" unicode="&#xf2;" horiz-adv-x="632" 
d="M15 257q0 122 86.5 198t213.5 76q129 0 215.5 -76t86.5 -198q0 -120 -86.5 -194.5t-214.5 -74.5t-214.5 74.5t-86.5 194.5zM226 257q0 -46 26 -71.5t64 -25.5t64.5 25.5t26.5 71.5q0 47 -26.5 74.5t-64.5 27.5t-64 -27.5t-26 -74.5zM291 559q-46 0 -79 39l-35 42
q-27 32 -17.5 56t50.5 24h54q51 0 77 -47l23 -43q15 -26 8 -48.5t-37 -22.5h-44z" />
    <glyph glyph-name="oacute" unicode="&#xf3;" horiz-adv-x="632" 
d="M305 559q-32 0 -43.5 21.5t5.5 50.5l23 42q26 47 77 47h54q41 0 50.5 -24t-17.5 -56l-35 -42q-33 -39 -79 -39h-35zM15 257q0 122 86.5 198t213.5 76q129 0 215.5 -76t86.5 -198q0 -120 -86.5 -194.5t-214.5 -74.5t-214.5 74.5t-86.5 194.5zM226 257q0 -46 26 -71.5
t64 -25.5t64.5 25.5t26.5 71.5q0 47 -26.5 74.5t-64.5 27.5t-64 -27.5t-26 -74.5z" />
    <glyph glyph-name="ocircumflex" unicode="&#xf4;" horiz-adv-x="632" 
d="M190 559q-33 0 -40.5 22.5t14.5 57.5l24 38q28 43 79 43h98q51 0 79 -43l24 -38q22 -35 14.5 -57.5t-41.5 -22.5h-40q-27 0 -39.5 10t-25.5 35l-19 38h-2l-19 -38q-13 -25 -25.5 -35t-39.5 -10h-41zM15 257q0 122 86.5 198t213.5 76q129 0 215.5 -76t86.5 -198
q0 -120 -86.5 -194.5t-214.5 -74.5t-214.5 74.5t-86.5 194.5zM226 257q0 -46 26 -71.5t64 -25.5t64.5 25.5t26.5 71.5q0 47 -26.5 74.5t-64.5 27.5t-64 -27.5t-26 -74.5z" />
    <glyph glyph-name="otilde" unicode="&#xf5;" horiz-adv-x="632" 
d="M15 257q0 122 86.5 198t213.5 76q129 0 215.5 -76t86.5 -198q0 -120 -86.5 -194.5t-214.5 -74.5t-214.5 74.5t-86.5 194.5zM226 257q0 -46 26 -71.5t64 -25.5t64.5 25.5t26.5 71.5q0 47 -26.5 74.5t-64.5 27.5t-64 -27.5t-26 -74.5zM162 558q-57 0 -57 53q0 44 34.5 78
t85.5 34q36 0 64.5 -14t48.5 -28t34 -14q26 0 31 23q3 30 54 30h13q57 0 57 -49q0 -51 -33 -83.5t-86 -32.5q-36 0 -65 14t-48.5 28t-33.5 14q-28 0 -35 -25q-6 -28 -50 -28h-14z" />
    <glyph glyph-name="odieresis" unicode="&#xf6;" horiz-adv-x="632" 
d="M422 561q-65 0 -65 66v27q0 66 65 66h17q65 0 65 -66v-27q0 -66 -65 -66h-17zM193 561q-65 0 -65 66v27q0 66 65 66h17q66 0 66 -66v-27q0 -66 -66 -66h-17zM15 257q0 122 86.5 198t213.5 76q129 0 215.5 -76t86.5 -198q0 -120 -86.5 -194.5t-214.5 -74.5t-214.5 74.5
t-86.5 194.5zM226 257q0 -46 26 -71.5t64 -25.5t64.5 25.5t26.5 71.5q0 47 -26.5 74.5t-64.5 27.5t-64 -27.5t-26 -74.5z" />
    <glyph glyph-name="divide" unicode="&#xf7;" horiz-adv-x="638" 
d="M298 442q-65 0 -65 66v25q0 65 65 65h40q65 0 65 -65v-25q0 -66 -65 -66h-40zM101 211q-65 0 -65 65v24q0 65 65 65h434q66 0 66 -65v-24q0 -65 -66 -65h-434zM233 45v25q0 65 65 65h40q65 0 65 -65v-25q0 -66 -65 -66h-40q-65 0 -65 66z" />
    <glyph glyph-name="oslash" unicode="&#xf8;" horiz-adv-x="631" 
d="M15 257q0 122 86.5 198t213.5 76q69 0 132 -25l7 9q37 51 70 29t1 -68l-8 -11q100 -79 100 -208q0 -120 -86.5 -194.5t-214.5 -74.5q-66 0 -126 22l-9 -13q-37 -50 -70 -27q-35 23 -3 67l9 12q-102 76 -102 208zM226 257q0 -27 9 -47l106 145q-11 4 -25 4
q-38 0 -64 -27.5t-26 -74.5zM407 257q0 23 -9 46l-102 -141q7 -2 20 -2q38 0 64.5 25.5t26.5 71.5z" />
    <glyph glyph-name="ugrave" unicode="&#xf9;" horiz-adv-x="609" 
d="M243 454v-228q0 -49 46 -49q73 0 73 114v163q0 65 66 65h78q65 0 65 -65v-389q0 -65 -65 -65h-69q-31 0 -47.5 15.5t-16.5 41.5v16h-2q-37 -85 -150 -85q-81 0 -134 44.5t-53 147.5v274q0 65 66 65h78q65 0 65 -65zM277 559q-46 0 -79 39l-35 42q-27 32 -17.5 56t50.5 24
h54q51 0 77 -47l23 -43q15 -26 8 -48.5t-37 -22.5h-44z" />
    <glyph glyph-name="uacute" unicode="&#xfa;" horiz-adv-x="609" 
d="M292 559q-32 0 -43.5 21.5t5.5 50.5l23 42q26 47 77 47h54q41 0 50.5 -24t-17.5 -56l-35 -42q-33 -39 -79 -39h-35zM243 454v-228q0 -49 46 -49q73 0 73 114v163q0 65 66 65h78q65 0 65 -65v-389q0 -65 -65 -65h-69q-31 0 -47.5 15.5t-16.5 41.5v16h-2q-37 -85 -150 -85
q-81 0 -134 44.5t-53 147.5v274q0 65 66 65h78q65 0 65 -65z" />
    <glyph glyph-name="ucircumflex" unicode="&#xfb;" horiz-adv-x="609" 
d="M176 559q-33 0 -40.5 22.5t14.5 57.5l24 38q28 43 79 43h98q51 0 79 -43l24 -38q22 -35 14.5 -57.5t-41.5 -22.5h-40q-27 0 -39.5 10t-25.5 35l-19 38h-2l-19 -38q-13 -25 -25.5 -35t-39.5 -10h-41zM243 454v-228q0 -49 46 -49q73 0 73 114v163q0 65 66 65h78
q65 0 65 -65v-389q0 -65 -65 -65h-69q-31 0 -47.5 15.5t-16.5 41.5v16h-2q-37 -85 -150 -85q-81 0 -134 44.5t-53 147.5v274q0 65 66 65h78q65 0 65 -65z" />
    <glyph glyph-name="udieresis" unicode="&#xfc;" horiz-adv-x="609" 
d="M408 561q-65 0 -65 66v27q0 66 65 66h17q65 0 65 -66v-27q0 -66 -65 -66h-17zM179 561q-65 0 -65 66v27q0 66 65 66h17q66 0 66 -66v-27q0 -66 -66 -66h-17zM243 454v-228q0 -49 46 -49q73 0 73 114v163q0 65 66 65h78q65 0 65 -65v-389q0 -65 -65 -65h-69
q-31 0 -47.5 15.5t-16.5 41.5v16h-2q-37 -85 -150 -85q-81 0 -134 44.5t-53 147.5v274q0 65 66 65h78q65 0 65 -65z" />
    <glyph glyph-name="yacute" unicode="&#xfd;" horiz-adv-x="547" 
d="M34 -78q21 46 65 39q21 -3 27 -3q20 0 37.5 13.5t24.5 32.5l3 8l-189 431q-15 34 -1 55t51 21h97q62 0 75 -54l36 -143l16 -99h2q11 71 16 100l25 140q10 56 73 56h90q36 0 50.5 -20.5t2.5 -54.5l-172 -483q-22 -63 -63.5 -103t-84.5 -54t-91 -14q-33 0 -73 11
q-29 10 -37 33.5t5 52.5zM267 558q-32 0 -43.5 21.5t5.5 50.5l23 42q26 47 77 47h54q41 0 50.5 -24t-17.5 -56l-35 -42q-33 -39 -79 -39h-35z" />
    <glyph glyph-name="thorn" unicode="&#xfe;" horiz-adv-x="630" 
d="M41 -135v789q0 65 66 65h78q65 0 65 -65v-116l-2 -45h2q45 38 116 38q113 0 180 -77t67 -194q0 -116 -66.5 -194t-178.5 -78q-35 0 -64.5 8t-41.5 16l-12 8h-2q2 -18 2 -44v-111q0 -65 -65 -65h-78q-66 0 -66 65zM244 258q0 -98 75 -98q44 0 64.5 29t20.5 70t-20 70.5
t-63 29.5q-77 0 -77 -101z" />
    <glyph glyph-name="ydieresis" unicode="&#xff;" horiz-adv-x="547" 
d="M34 -78q21 46 65 39q21 -3 27 -3q20 0 37.5 13.5t24.5 32.5l3 8l-189 431q-15 34 -1 55t51 21h97q62 0 75 -54l36 -143l16 -99h2q11 71 16 100l25 140q10 56 73 56h90q36 0 50.5 -20.5t2.5 -54.5l-172 -483q-22 -63 -63.5 -103t-84.5 -54t-91 -14q-33 0 -73 11
q-29 10 -37 33.5t5 52.5zM384 560q-65 0 -65 66v27q0 66 65 66h17q65 0 65 -66v-27q0 -66 -65 -66h-17zM155 560q-65 0 -65 66v27q0 66 65 66h17q66 0 66 -66v-27q0 -66 -66 -66h-17z" />
    <glyph glyph-name="Amacron" unicode="&#x100;" horiz-adv-x="671" 
d="M12 75l195 591q18 53 74 53h109q56 0 74 -53l195 -591q12 -34 -3 -54.5t-50 -20.5h-81q-56 0 -74 55l-15 70h-203l-15 -70q-15 -55 -72 -55h-81q-35 0 -50 20.5t-3 54.5zM281 292h107l-22 100l-30 133h-2q-16 -84 -29 -133zM258 781q-65 0 -65 61v9q0 62 65 62h154
q66 0 66 -62v-9q0 -61 -66 -61h-154z" />
    <glyph glyph-name="amacron" unicode="&#x101;" horiz-adv-x="547" 
d="M11 148q0 58 44 97t106 54.5t136 15.5h10v17q0 32 -56 32q-36 0 -83 -19q-61 -26 -88 30l-14 30q-28 62 27 87q86 39 178 39q112 0 178 -58t66 -158v-250q0 -65 -65 -65h-59q-60 0 -65 69h-2q-53 -81 -146 -81q-76 0 -121.5 46.5t-45.5 113.5zM200 166q0 -13 10 -23.5
t31 -10.5q29 0 48.5 19.5t19.5 48.5v10h-11q-44 0 -71 -11.5t-27 -32.5zM200 576q-65 0 -65 61v9q0 62 65 62h154q66 0 66 -62v-9q0 -61 -66 -61h-154z" />
    <glyph glyph-name="Abreve" unicode="&#x102;" horiz-adv-x="671" 
d="M12 75l195 591q18 53 74 53h109q56 0 74 -53l195 -591q12 -34 -3 -54.5t-50 -20.5h-81q-56 0 -74 55l-15 70h-203l-15 -70q-15 -55 -72 -55h-81q-35 0 -50 20.5t-3 54.5zM281 292h107l-22 100l-30 133h-2q-16 -84 -29 -133zM335 758q-43 0 -85.5 13.5t-75 44.5t-32.5 72
q0 27 38 32l42 5q17 2 28.5 -4.5t15.5 -13t9 -19.5q14 -33 59 -33t59 33q5 13 9 19.5t15.5 13t28.5 4.5l42 -5q38 -5 38 -32q0 -61 -61 -95.5t-130 -34.5z" />
    <glyph glyph-name="abreve" unicode="&#x103;" horiz-adv-x="547" 
d="M11 148q0 58 44 97t106 54.5t136 15.5h10v17q0 32 -56 32q-36 0 -83 -19q-61 -26 -88 30l-14 30q-28 62 27 87q86 39 178 39q112 0 178 -58t66 -158v-250q0 -65 -65 -65h-59q-60 0 -65 69h-2q-53 -81 -146 -81q-76 0 -121.5 46.5t-45.5 113.5zM200 166q0 -13 10 -23.5
t31 -10.5q29 0 48.5 19.5t19.5 48.5v10h-11q-44 0 -71 -11.5t-27 -32.5zM277 553q-43 0 -85.5 13.5t-75 44.5t-32.5 72q0 27 38 32l42 5q17 2 28.5 -4.5t15.5 -13t9 -19.5q14 -33 59 -33t59 33q5 13 9 19.5t15.5 13t28.5 4.5l42 -5q38 -5 38 -32q0 -61 -61 -95.5t-130 -34.5
z" />
    <glyph glyph-name="Aogonek" unicode="&#x104;" horiz-adv-x="672" 
d="M12 75l195 591q17 53 74 53h109q56 0 74 -53l195 -591q9 -28 9 -47q0 -29 -16 -45q-5 -6 -14.5 -11.5t-14.5 -10.5t-5 -12q0 -5 2.5 -8t8.5 -6t7 -4q23 -16 18 -58l-5 -36q-5 -40 -57 -40q-42 0 -84.5 28.5t-42.5 71.5q0 49 53 100h-6t-14 3t-18 8t-16.5 16.5t-11.5 26.5
l-16 74h-203l-16 -70q-13 -55 -71 -55h-81q-35 0 -50 20.5t-3 54.5zM281 292h107l-23 100l-29 133h-2q-9 -52 -29 -133z" />
    <glyph glyph-name="aogonek" unicode="&#x105;" horiz-adv-x="547" 
d="M11 148q0 58 44 97t106 54.5t136 15.5h10v17q0 32 -56 32q-36 0 -83 -19q-61 -26 -88 30l-14 30q-28 62 27 87q86 39 178 39q112 0 178 -58t66 -158v-250q0 -34 -28.5 -64.5t-28.5 -52.5q0 -2 0.5 -4t3 -4t3.5 -2.5t5.5 -3t5.5 -3.5q23 -13 18 -58l-5 -36
q-2 -21 -18 -31.5t-38 -8.5q-47 3 -87.5 30.5t-40.5 68.5q0 61 45 116q-21 16 -24 57h-2q-53 -81 -146 -81q-76 0 -121.5 46.5t-45.5 113.5zM200 166q0 -13 10 -23.5t31 -10.5q29 0 48.5 19.5t19.5 48.5v10h-11q-44 0 -71 -11.5t-27 -32.5z" />
    <glyph glyph-name="Cacute" unicode="&#x106;" horiz-adv-x="693" 
d="M385 764q-32 0 -43.5 21.5t5.5 50.5l23 42q26 47 77 47h54q41 0 50.5 -24t-17.5 -56l-35 -42q-33 -39 -79 -39h-35zM24 360q0 159 107.5 265t275.5 106q127 0 227 -65q49 -36 14 -91l-30 -50q-32 -53 -89 -19q-59 33 -112 33q-91 0 -133 -51t-42 -123q0 -73 43.5 -129
t130.5 -56q62 0 125 43q57 38 91 -13l35 -48q37 -55 -12 -91q-107 -83 -249 -83q-174 0 -278 104.5t-104 267.5z" />
    <glyph glyph-name="cacute" unicode="&#x107;" horiz-adv-x="529" 
d="M278 559q-32 0 -43.5 21.5t5.5 50.5l23 42q26 47 77 47h54q41 0 50.5 -24t-17.5 -56l-35 -42q-33 -39 -79 -39h-35zM15 260q0 69 31.5 129.5t100.5 101t163 40.5q98 0 165 -42q51 -31 15 -89l-20 -31q-17 -26 -38 -30t-50 10q-24 10 -58 10q-50 0 -74 -29.5t-24 -66.5
q0 -38 26 -70.5t79 -32.5q35 0 77 21q61 32 89 -23l15 -30q29 -59 -18 -90q-81 -50 -184 -50q-139 0 -217 80.5t-78 191.5z" />
    <glyph glyph-name="Ccircumflex" unicode="&#x108;" horiz-adv-x="693" 
d="M269 764q-33 0 -40.5 22.5t14.5 57.5l24 38q28 43 79 43h98q51 0 79 -43l24 -38q22 -35 14.5 -57.5t-41.5 -22.5h-40q-27 0 -39.5 10t-25.5 35l-19 38h-2l-19 -38q-13 -25 -25.5 -35t-39.5 -10h-41zM24 360q0 159 107.5 265t275.5 106q127 0 227 -65q49 -36 14 -91
l-30 -50q-32 -53 -89 -19q-59 33 -112 33q-91 0 -133 -51t-42 -123q0 -73 43.5 -129t130.5 -56q62 0 125 43q57 38 91 -13l35 -48q37 -55 -12 -91q-107 -83 -249 -83q-174 0 -278 104.5t-104 267.5z" />
    <glyph glyph-name="ccircumflex" unicode="&#x109;" horiz-adv-x="529" 
d="M163 559q-33 0 -40.5 22.5t14.5 57.5l24 38q28 43 79 43h98q51 0 79 -43l24 -38q22 -35 14.5 -57.5t-41.5 -22.5h-40q-27 0 -39.5 10t-25.5 35l-19 38h-2l-19 -38q-13 -25 -25.5 -35t-39.5 -10h-41zM15 260q0 69 31.5 129.5t100.5 101t163 40.5q98 0 165 -42
q51 -31 15 -89l-20 -31q-17 -26 -38 -30t-50 10q-24 10 -58 10q-50 0 -74 -29.5t-24 -66.5q0 -38 26 -70.5t79 -32.5q35 0 77 21q61 32 89 -23l15 -30q29 -59 -18 -90q-81 -50 -184 -50q-139 0 -217 80.5t-78 191.5z" />
    <glyph glyph-name="Cdotaccent" unicode="&#x10a;" horiz-adv-x="693" 
d="M24 360q0 159 107.5 265t275.5 106q127 0 227 -65q49 -36 14 -91l-30 -50q-32 -53 -89 -19q-59 33 -112 33q-91 0 -133 -51t-42 -123q0 -73 43.5 -129t130.5 -56q62 0 125 43q57 38 91 -13l35 -48q37 -55 -12 -91q-107 -83 -249 -83q-174 0 -278 104.5t-104 267.5z
M377 777q-66 0 -66 65v17q0 66 66 66h38q66 0 66 -66v-17q0 -65 -66 -65h-38z" />
    <glyph glyph-name="cdotaccent" unicode="&#x10b;" horiz-adv-x="529" 
d="M15 260q0 69 31.5 129.5t100.5 101t163 40.5q98 0 165 -42q51 -31 15 -89l-20 -31q-17 -26 -38 -30t-50 10q-24 10 -58 10q-50 0 -74 -29.5t-24 -66.5q0 -38 26 -70.5t79 -32.5q35 0 77 21q61 32 89 -23l15 -30q29 -59 -18 -90q-81 -50 -184 -50q-139 0 -217 80.5
t-78 191.5zM270 572q-66 0 -66 65v17q0 66 66 66h38q66 0 66 -66v-17q0 -65 -66 -65h-38z" />
    <glyph glyph-name="Ccaron" unicode="&#x10c;" horiz-adv-x="693" 
d="M346 764q-50 0 -79 43l-24 38q-22 34 -14.5 57t40.5 23h41q26 0 38.5 -10t27.5 -36l18 -37h2l18 37q15 26 27.5 36t38.5 10h41q33 0 40.5 -23t-14.5 -57l-24 -38q-29 -43 -79 -43h-98zM24 360q0 159 107.5 265t275.5 106q127 0 227 -65q49 -36 14 -91l-30 -50
q-32 -53 -89 -19q-59 33 -112 33q-91 0 -133 -51t-42 -123q0 -73 43.5 -129t130.5 -56q62 0 125 43q57 38 91 -13l35 -48q37 -55 -12 -91q-107 -83 -249 -83q-174 0 -278 104.5t-104 267.5z" />
    <glyph glyph-name="ccaron" unicode="&#x10d;" horiz-adv-x="529" 
d="M240 559q-50 0 -79 43l-24 38q-22 34 -14.5 57t40.5 23h41q26 0 38.5 -10t27.5 -36l18 -37h2l18 37q15 26 27.5 36t38.5 10h41q33 0 40.5 -23t-14.5 -57l-24 -38q-29 -43 -79 -43h-98zM15 260q0 69 31.5 129.5t100.5 101t163 40.5q98 0 165 -42q51 -31 15 -89l-20 -31
q-17 -26 -38 -30t-50 10q-24 10 -58 10q-50 0 -74 -29.5t-24 -66.5q0 -38 26 -70.5t79 -32.5q35 0 77 21q61 32 89 -23l15 -30q29 -59 -18 -90q-81 -50 -184 -50q-139 0 -217 80.5t-78 191.5z" />
    <glyph glyph-name="Dcaron" unicode="&#x10e;" horiz-adv-x="719" 
d="M283 764q-50 0 -79 43l-24 38q-22 34 -14.5 57t40.5 23h41q26 0 38.5 -10t27.5 -36l18 -37h2l18 37q15 26 27.5 36t38.5 10h41q33 0 40.5 -23t-14.5 -57l-24 -38q-29 -43 -79 -43h-98zM55 65v589q0 65 66 65h197q174 0 274.5 -95t100.5 -263t-101 -264.5t-274 -96.5h-197
q-66 0 -66 65zM266 180h45q79 0 121.5 46.5t42.5 134.5q0 87 -43.5 132.5t-120.5 45.5h-45v-359z" />
    <glyph glyph-name="dcaron" unicode="&#x10f;" horiz-adv-x="630" 
d="M640 680q0 39 58 39h26q75 0 75 -75q0 -58 -27 -88.5t-63 -30.5h-18q-57 0 -57 35q0 12 5.5 34t5.5 34q0 6 -2.5 25t-2.5 27zM17 261q0 120 65.5 195t178.5 75q43 0 72.5 -11t38.5 -22l8 -11h2q-1 12 -1 28v139q0 65 66 65h78q65 0 65 -65v-589q0 -65 -65 -65h-64
q-61 0 -66 63h-1q-40 -75 -145 -75q-102 0 -167 76t-65 197zM226 259q0 -45 22.5 -72.5t58.5 -27.5q34 0 57 25.5t23 72.5q0 44 -21 72t-58 28q-35 0 -58.5 -26t-23.5 -72z" />
    <glyph glyph-name="Dcroat" unicode="&#x110;" horiz-adv-x="723" 
d="M60 65v206q-23 0 -39.5 17t-16.5 48v37q0 30 16.5 47.5t39.5 17.5v216q0 65 65 65h198q174 0 274 -95t100 -263t-100.5 -264.5t-273.5 -96.5h-198q-65 0 -65 65zM271 180h45q78 0 120.5 46.5t42.5 134.5q0 87 -43 132.5t-120 45.5h-45v-101h19q63 0 63 -65v-37
q0 -65 -63 -65h-19v-91z" />
    <glyph glyph-name="dcroat" unicode="&#x111;" horiz-adv-x="630" 
d="M17 261q0 120 65.5 195t178.5 75q43 0 72.5 -11t38.5 -22l8 -11h2q-1 12 -1 28v35h-58q-66 0 -66 53v6q0 51 66 51h58q3 59 66 59h78q62 0 65 -59q61 0 61 -51v-6q0 -53 -61 -53v-485q0 -65 -65 -65h-64q-61 0 -66 63h-1q-40 -75 -145 -75q-102 0 -167 76t-65 197z
M226 259q0 -45 22.5 -72.5t58.5 -27.5q34 0 57 25.5t23 72.5q0 44 -21 72t-58 28q-35 0 -58.5 -26t-23.5 -72z" />
    <glyph glyph-name="Emacron" unicode="&#x112;" horiz-adv-x="556" 
d="M55 65v589q0 65 66 65h335q65 0 65 -65v-50q0 -65 -65 -65h-190v-87h136q66 0 66 -65v-50q0 -65 -66 -65h-136v-92h202q66 0 66 -65v-50q0 -65 -66 -65h-347q-66 0 -66 65zM218 781q-65 0 -65 61v9q0 62 65 62h154q66 0 66 -62v-9q0 -61 -66 -61h-154z" />
    <glyph glyph-name="emacron" unicode="&#x113;" horiz-adv-x="554" 
d="M16 260q0 115 73.5 193t201.5 78q115 0 181 -69.5t66 -173.5q0 -25 -20 -46.5t-49 -21.5h-242q23 -60 97 -60q43 0 81 17q60 26 88 -26l16 -31q30 -60 -23 -90q-82 -42 -180 -42q-71 0 -127.5 24t-91.5 63t-53 87t-18 98zM229 325h108q2 26 -11 45.5t-37 19.5
q-56 0 -60 -65zM208 576q-65 0 -65 61v9q0 62 65 62h154q66 0 66 -62v-9q0 -61 -66 -61h-154z" />
    <glyph glyph-name="Ebreve" unicode="&#x114;" horiz-adv-x="556" 
d="M55 65v589q0 65 66 65h335q65 0 65 -65v-50q0 -65 -65 -65h-190v-87h136q66 0 66 -65v-50q0 -65 -66 -65h-136v-92h202q66 0 66 -65v-50q0 -65 -66 -65h-347q-66 0 -66 65zM295 758q-43 0 -85.5 13.5t-75 44.5t-32.5 72q0 27 38 32l42 5q17 2 28.5 -4.5t15.5 -13t9 -19.5
q14 -33 59 -33t59 33q5 13 9 19.5t15.5 13t28.5 4.5l42 -5q38 -5 38 -32q0 -61 -61 -95.5t-130 -34.5z" />
    <glyph glyph-name="ebreve" unicode="&#x115;" horiz-adv-x="554" 
d="M16 260q0 115 73.5 193t201.5 78q115 0 181 -69.5t66 -173.5q0 -25 -20 -46.5t-49 -21.5h-242q23 -60 97 -60q43 0 81 17q60 26 88 -26l16 -31q30 -60 -23 -90q-82 -42 -180 -42q-71 0 -127.5 24t-91.5 63t-53 87t-18 98zM229 325h108q2 26 -11 45.5t-37 19.5
q-56 0 -60 -65zM285 553q-43 0 -85.5 13.5t-75 44.5t-32.5 72q0 27 38 32l42 5q17 2 28.5 -4.5t15.5 -13t9 -19.5q14 -33 59 -33t59 33q5 13 9 19.5t15.5 13t28.5 4.5l42 -5q38 -5 38 -32q0 -61 -61 -95.5t-130 -34.5z" />
    <glyph glyph-name="Edotaccent" unicode="&#x116;" horiz-adv-x="556" 
d="M55 65v589q0 65 66 65h335q65 0 65 -65v-50q0 -65 -65 -65h-190v-87h136q66 0 66 -65v-50q0 -65 -66 -65h-136v-92h202q66 0 66 -65v-50q0 -65 -66 -65h-347q-66 0 -66 65zM276 777q-66 0 -66 65v17q0 66 66 66h38q66 0 66 -66v-17q0 -65 -66 -65h-38z" />
    <glyph glyph-name="edotaccent" unicode="&#x117;" horiz-adv-x="554" 
d="M16 260q0 115 73.5 193t201.5 78q115 0 181 -69.5t66 -173.5q0 -25 -20 -46.5t-49 -21.5h-242q23 -60 97 -60q43 0 81 17q60 26 88 -26l16 -31q30 -60 -23 -90q-82 -42 -180 -42q-71 0 -127.5 24t-91.5 63t-53 87t-18 98zM229 325h108q2 26 -11 45.5t-37 19.5
q-56 0 -60 -65zM266 572q-66 0 -66 65v17q0 66 66 66h38q66 0 66 -66v-17q0 -65 -66 -65h-38z" />
    <glyph glyph-name="Eogonek" unicode="&#x118;" horiz-adv-x="556" 
d="M55 65v589q0 65 66 65h335q65 0 65 -65v-50q0 -65 -65 -65h-190v-87h136q66 0 66 -65v-50q0 -65 -66 -65h-136v-92h202q66 0 66 -65v-49q0 -27 -14.5 -46.5t-29 -36t-14.5 -35.5q0 -2 0.5 -4t3 -4t3.5 -2.5t5.5 -3t5.5 -3.5q24 -13 18 -58l-5 -36q-2 -21 -18 -31.5
t-38 -8.5q-47 3 -87.5 30.5t-40.5 68.5q0 49 46 104h-248q-66 0 -66 65z" />
    <glyph glyph-name="eogonek" unicode="&#x119;" horiz-adv-x="554" 
d="M229 325h108q2 26 -11 45.5t-37 19.5q-56 0 -60 -65zM306 -12q-71 0 -127.5 24t-91.5 63t-53 87t-18 98q0 115 73.5 193t201.5 78q115 0 181 -69.5t66 -173.5q0 -25 -20 -46.5t-49 -21.5h-242q23 -60 97 -60q43 0 81 17q62 27 88 -26l16 -33q23 -46 -18 -90
q-2 -3 -11 -13t-15.5 -18t-14 -18t-12 -18t-4.5 -13q0 -2 0.5 -4t3 -4t3.5 -2.5t5.5 -3t5.5 -3.5q23 -13 18 -58l-5 -36q-4 -42 -57 -40q-43 2 -85.5 30.5t-42.5 62.5q0 52 57 102q-16 -4 -31 -4z" />
    <glyph glyph-name="Ecaron" unicode="&#x11a;" horiz-adv-x="556" 
d="M245 764q-50 0 -79 43l-24 38q-22 34 -14.5 57t40.5 23h41q26 0 38.5 -10t27.5 -36l18 -37h2l18 37q15 26 27.5 36t38.5 10h41q33 0 40.5 -23t-14.5 -57l-24 -38q-29 -43 -79 -43h-98zM55 65v589q0 65 66 65h335q65 0 65 -65v-50q0 -65 -65 -65h-190v-87h136q66 0 66 -65
v-50q0 -65 -66 -65h-136v-92h202q66 0 66 -65v-50q0 -65 -66 -65h-347q-66 0 -66 65z" />
    <glyph glyph-name="ecaron" unicode="&#x11b;" horiz-adv-x="554" 
d="M236 559q-50 0 -79 43l-24 38q-22 34 -14.5 57t40.5 23h41q26 0 38.5 -10t27.5 -36l18 -37h2l18 37q15 26 27.5 36t38.5 10h41q33 0 40.5 -23t-14.5 -57l-24 -38q-29 -43 -79 -43h-98zM16 260q0 115 73.5 193t201.5 78q115 0 181 -69.5t66 -173.5q0 -25 -20 -46.5
t-49 -21.5h-242q23 -60 97 -60q43 0 81 17q60 26 88 -26l16 -31q30 -60 -23 -90q-82 -42 -180 -42q-71 0 -127.5 24t-91.5 63t-53 87t-18 98zM229 325h108q2 26 -11 45.5t-37 19.5q-56 0 -60 -65z" />
    <glyph glyph-name="Gcircumflex" unicode="&#x11c;" horiz-adv-x="760" 
d="M270 764q-33 0 -40.5 22.5t14.5 57.5l24 38q28 43 79 43h98q51 0 79 -43l24 -38q22 -35 14.5 -57.5t-41.5 -22.5h-40q-27 0 -39.5 10t-25.5 35l-19 38h-2l-19 -38q-13 -25 -25.5 -35t-39.5 -10h-41zM24 354q0 166 107.5 271.5t276.5 105.5q75 0 139 -20.5t93 -41.5
q50 -36 17 -90l-31 -50q-31 -48 -91 -18q-59 28 -113 28q-93 0 -136.5 -49t-43.5 -123q0 -85 52.5 -136t125.5 -51q40 0 70 11t40 21l11 11v25h-29q-65 0 -65 66v48q0 65 65 65h149q66 0 66 -65v-297q0 -65 -66 -65h-39q-31 0 -48 14.5t-17 35.5v-9l1 4h-2
q-7 -6 -19.5 -15.5t-58.5 -25.5t-99 -16q-92 0 -172 42.5t-131.5 127.5t-51.5 196z" />
    <glyph glyph-name="gcircumflex" unicode="&#x11d;" horiz-adv-x="621" 
d="M176 559q-33 0 -40.5 22.5t14.5 57.5l24 38q28 43 79 43h98q51 0 79 -43l24 -38q22 -35 14.5 -57.5t-41.5 -22.5h-40q-27 0 -39.5 10t-25.5 35l-19 38h-2l-19 -38q-13 -25 -25.5 -35t-39.5 -10h-41zM103 -67q13 33 32 40.5t51 -1.5q47 -11 74 -11q55 0 84 17t29 63v40h-2
q-33 -62 -120 -62q-111 0 -172 78t-61 181t61.5 178t174.5 75q33 0 59 -7t40 -17t23.5 -20t12.5 -17l3 -7h1q2 25 19 40.5t47 15.5h57q65 0 65 -65v-395q0 -71 -27 -125t-72 -84.5t-96 -45t-107 -14.5q-94 0 -153 23q-58 22 -36 84zM305 191q73 0 73 85q0 83 -75 83
q-76 0 -76 -77q0 -36 18.5 -63.5t59.5 -27.5z" />
    <glyph glyph-name="Gbreve" unicode="&#x11e;" horiz-adv-x="760" 
d="M24 354q0 166 107.5 271.5t276.5 105.5q75 0 139 -20.5t93 -41.5q50 -36 17 -90l-31 -50q-31 -48 -91 -18q-59 28 -113 28q-93 0 -136.5 -49t-43.5 -123q0 -85 52.5 -136t125.5 -51q40 0 70 11t40 21l11 11v25h-29q-65 0 -65 66v48q0 65 65 65h149q66 0 66 -65v-297
q0 -65 -66 -65h-39q-31 0 -48 14.5t-17 35.5v-9l1 4h-2q-7 -6 -19.5 -15.5t-58.5 -25.5t-99 -16q-92 0 -172 42.5t-131.5 127.5t-51.5 196zM397 758q-43 0 -85.5 13.5t-75 44.5t-32.5 72q0 27 38 32l42 5q17 2 28.5 -4.5t15.5 -13t9 -19.5q14 -33 59 -33t59 33q5 13 9 19.5
t15.5 13t28.5 4.5l42 -5q38 -5 38 -32q0 -61 -61 -95.5t-130 -34.5z" />
    <glyph glyph-name="gbreve" unicode="&#x11f;" horiz-adv-x="621" 
d="M103 -67q13 33 32 40.5t51 -1.5q47 -11 74 -11q55 0 84 17t29 63v40h-2q-33 -62 -120 -62q-111 0 -172 78t-61 181t61.5 178t174.5 75q33 0 59 -7t40 -17t23.5 -20t12.5 -17l3 -7h1q2 25 19 40.5t47 15.5h57q65 0 65 -65v-395q0 -71 -27 -125t-72 -84.5t-96 -45
t-107 -14.5q-94 0 -153 23q-58 22 -36 84zM305 191q73 0 73 85q0 83 -75 83q-76 0 -76 -77q0 -36 18.5 -63.5t59.5 -27.5zM303 553q-43 0 -85.5 13.5t-75 44.5t-32.5 72q0 27 38 32l42 5q17 2 28.5 -4.5t15.5 -13t9 -19.5q14 -33 59 -33t59 33q5 13 9 19.5t15.5 13t28.5 4.5
l42 -5q38 -5 38 -32q0 -61 -61 -95.5t-130 -34.5z" />
    <glyph glyph-name="Gdotaccent" unicode="&#x120;" horiz-adv-x="760" 
d="M24 354q0 166 107.5 271.5t276.5 105.5q75 0 139 -20.5t93 -41.5q50 -36 17 -90l-31 -50q-31 -48 -91 -18q-59 28 -113 28q-93 0 -136.5 -49t-43.5 -123q0 -85 52.5 -136t125.5 -51q40 0 70 11t40 21l11 11v25h-29q-65 0 -65 66v48q0 65 65 65h149q66 0 66 -65v-297
q0 -65 -66 -65h-39q-31 0 -48 14.5t-17 35.5v-9l1 4h-2q-7 -6 -19.5 -15.5t-58.5 -25.5t-99 -16q-92 0 -172 42.5t-131.5 127.5t-51.5 196zM378 777q-66 0 -66 65v17q0 66 66 66h38q66 0 66 -66v-17q0 -65 -66 -65h-38z" />
    <glyph glyph-name="gdotaccent" unicode="&#x121;" horiz-adv-x="621" 
d="M103 -67q13 33 32 40.5t51 -1.5q47 -11 74 -11q55 0 84 17t29 63v40h-2q-33 -62 -120 -62q-111 0 -172 78t-61 181t61.5 178t174.5 75q33 0 59 -7t40 -17t23.5 -20t12.5 -17l3 -7h1q2 25 19 40.5t47 15.5h57q65 0 65 -65v-395q0 -71 -27 -125t-72 -84.5t-96 -45
t-107 -14.5q-94 0 -153 23q-58 22 -36 84zM305 191q73 0 73 85q0 83 -75 83q-76 0 -76 -77q0 -36 18.5 -63.5t59.5 -27.5zM284 572q-66 0 -66 65v17q0 66 66 66h38q66 0 66 -66v-17q0 -65 -66 -65h-38z" />
    <glyph glyph-name="Gcommaaccent" unicode="&#x122;" horiz-adv-x="760" 
d="M303 -83q0 39 58 39h26q75 0 75 -75q0 -58 -27 -88.5t-63 -30.5h-18q-57 0 -57 35q0 13 5.5 34t5.5 34q0 5 -2.5 24t-2.5 28zM24 354q0 166 107.5 271.5t276.5 105.5q75 0 139 -20.5t93 -41.5q50 -36 17 -90l-31 -50q-31 -48 -91 -18q-59 28 -113 28q-93 0 -136.5 -49
t-43.5 -123q0 -85 52.5 -136t125.5 -51q40 0 70 11t40 21l11 11v25h-29q-65 0 -65 66v48q0 65 65 65h149q66 0 66 -65v-297q0 -65 -66 -65h-39q-31 0 -48 14.5t-17 35.5v-9l1 4h-2q-7 -6 -19.5 -15.5t-58.5 -25.5t-99 -16q-92 0 -172 42.5t-131.5 127.5t-51.5 196z" />
    <glyph glyph-name="gcommaaccent" unicode="&#x123;" horiz-adv-x="621" 
d="M377 608q0 -39 -58 -39h-26q-75 0 -75 75q0 58 27 88.5t63 30.5h18q57 0 57 -35q0 -12 -5.5 -34t-5.5 -34q0 -6 2.5 -25t2.5 -27zM103 -67q13 33 32 40.5t51 -1.5q47 -11 74 -11q55 0 84 17t29 63v40h-2q-33 -62 -120 -62q-111 0 -172 78t-61 181t61.5 178t174.5 75
q33 0 59 -7t40 -17t23.5 -20t12.5 -17l3 -7h1q2 25 19 40.5t47 15.5h57q65 0 65 -65v-395q0 -71 -27 -125t-72 -84.5t-96 -45t-107 -14.5q-94 0 -153 23q-58 22 -36 84zM305 191q73 0 73 85q0 83 -75 83q-76 0 -76 -77q0 -36 18.5 -63.5t59.5 -27.5z" />
    <glyph glyph-name="Hcircumflex" unicode="&#x124;" horiz-adv-x="742" 
d="M245 764q-33 0 -40.5 22.5t14.5 57.5l24 38q28 43 79 43h98q51 0 79 -43l24 -38q22 -35 14.5 -57.5t-41.5 -22.5h-40q-27 0 -39.5 10t-25.5 35l-19 38h-2l-19 -38q-13 -25 -25.5 -35t-39.5 -10h-41zM55 65v589q0 65 66 65h80q65 0 65 -65v-209h210v209q0 65 65 65h81
q65 0 65 -65v-589q0 -65 -65 -65h-81q-65 0 -65 65v201h-210v-201q0 -65 -65 -65h-80q-66 0 -66 65z" />
    <glyph glyph-name="hcircumflex" unicode="&#x125;" horiz-adv-x="614" 
d="M19 764q-33 0 -40.5 22.5t14.5 57.5l24 38q28 43 79 43h98q51 0 79 -43l24 -38q22 -35 14.5 -57.5t-41.5 -22.5h-40q-27 0 -39.5 10t-25.5 35l-19 38h-2l-19 -38q-13 -25 -25.5 -35t-39.5 -10h-41zM373 65v229q0 49 -46 49q-78 0 -78 -114v-164q0 -65 -65 -65h-78
q-66 0 -66 65v589q0 65 66 65h78q65 0 65 -65v-149l-2 -45h2q46 71 144 71q38 0 69.5 -9t59.5 -29.5t44 -59.5t16 -94v-274q0 -65 -65 -65h-78q-66 0 -66 65z" />
    <glyph glyph-name="Hbar" unicode="&#x126;" horiz-adv-x="746" 
d="M64 65v454q-66 0 -66 60v6q0 59 66 59v10q0 65 66 65h85q65 0 65 -53v-22h187v10q0 65 66 65h85q65 0 65 -53v-22q65 0 65 -59v-6q0 -60 -65 -60v-454q0 -65 -65 -65h-85q-66 0 -66 65v201h-187v-201q0 -65 -65 -65h-85q-66 0 -66 65zM280 445h187v74h-187v-74z" />
    <glyph glyph-name="hbar" unicode="&#x127;" horiz-adv-x="614" 
d="M40 65v485q-51 4 -51 53v6q0 45 51 51q3 59 66 59h78q65 0 65 -37v-22h69q65 0 65 -51v-6q0 -53 -65 -53h-69v-41l-2 -55h2q42 77 147 77q79 0 132.5 -44t53.5 -148v-274q0 -65 -65 -65h-78q-66 0 -66 65v232q0 46 -46 46q-78 0 -78 -114v-164q0 -65 -65 -65h-78
q-66 0 -66 65z" />
    <glyph glyph-name="Itilde" unicode="&#x128;" horiz-adv-x="321" 
d="M55 65v589q0 65 66 65h80q65 0 65 -65v-589q0 -65 -65 -65h-80q-66 0 -66 65zM8 763q-57 0 -57 53q0 44 34.5 78t85.5 34q36 0 64.5 -14t48.5 -28t34 -14q26 0 31 23q3 30 54 30h13q57 0 57 -49q0 -51 -33 -83.5t-86 -32.5q-36 0 -65 14t-48.5 28t-33.5 14q-28 0 -35 -25
q-6 -28 -50 -28h-14z" />
    <glyph glyph-name="itilde" unicode="&#x129;" horiz-adv-x="285" 
d="M38 65v389q0 65 65 65h78q66 0 66 -65v-389q0 -65 -66 -65h-78q-65 0 -65 65zM-12 558q-57 0 -57 53q0 44 34.5 78t85.5 34q36 0 64.5 -14t48.5 -28t34 -14q26 0 31 23q3 30 54 30h13q57 0 57 -49q0 -51 -33 -83.5t-86 -32.5q-36 0 -65 14t-48.5 28t-33.5 14
q-28 0 -35 -25q-6 -28 -50 -28h-14z" />
    <glyph glyph-name="Imacron" unicode="&#x12a;" horiz-adv-x="321" 
d="M55 65v589q0 65 66 65h80q65 0 65 -65v-589q0 -65 -65 -65h-80q-66 0 -66 65zM85 781q-65 0 -65 61v9q0 62 65 62h154q66 0 66 -62v-9q0 -61 -66 -61h-154z" />
    <glyph glyph-name="imacron" unicode="&#x12b;" horiz-adv-x="285" 
d="M38 65v389q0 65 65 65h78q66 0 66 -65v-389q0 -65 -66 -65h-78q-65 0 -65 65zM65 576q-65 0 -65 61v9q0 62 65 62h154q66 0 66 -62v-9q0 -61 -66 -61h-154z" />
    <glyph glyph-name="Ibreve" unicode="&#x12c;" horiz-adv-x="321" 
d="M55 65v589q0 65 66 65h80q65 0 65 -65v-589q0 -65 -65 -65h-80q-66 0 -66 65zM162 758q-43 0 -85.5 13.5t-75 44.5t-32.5 72q0 27 38 32l42 5q17 2 28.5 -4.5t15.5 -13t9 -19.5q14 -33 59 -33t59 33q5 13 9 19.5t15.5 13t28.5 4.5l42 -5q38 -5 38 -32q0 -61 -61 -95.5
t-130 -34.5z" />
    <glyph glyph-name="ibreve" unicode="&#x12d;" horiz-adv-x="285" 
d="M38 65v389q0 65 65 65h78q66 0 66 -65v-389q0 -65 -66 -65h-78q-65 0 -65 65zM142 553q-43 0 -85.5 13.5t-75 44.5t-32.5 72q0 27 38 32l42 5q17 2 28.5 -4.5t15.5 -13t9 -19.5q14 -33 59 -33t59 33q5 13 9 19.5t15.5 13t28.5 4.5l42 -5q38 -5 38 -32q0 -61 -61 -95.5
t-130 -34.5z" />
    <glyph glyph-name="Iogonek" unicode="&#x12e;" horiz-adv-x="321" 
d="M55 65v589q0 65 66 65h80q65 0 65 -65v-589q0 -28 -29 -61t-29 -56q0 -2 0.5 -4t3 -4t3.5 -2.5t5.5 -3t5.5 -3.5q23 -13 18 -58l-5 -36q-4 -40 -57 -40q-44 0 -85.5 28.5t-41.5 70.5q0 52 44 105q-44 12 -44 64z" />
    <glyph glyph-name="iogonek" unicode="&#x12f;" horiz-adv-x="286" 
d="M108 567q-66 0 -66 66v21q0 65 66 65h70q66 0 66 -65v-21q0 -66 -66 -66h-70zM39 65v389q0 65 65 65h78q65 0 65 -65v-389q0 -28 -29 -61t-29 -56q0 -2 0.5 -4t3 -4t3.5 -2.5t5.5 -3t5.5 -3.5q23 -13 18 -58l-5 -36q-4 -40 -57 -40q-44 0 -85.5 28.5t-41.5 70.5
q0 52 44 105q-41 12 -41 64z" />
    <glyph glyph-name="Idotaccent" unicode="&#x130;" horiz-adv-x="321" 
d="M55 65v589q0 65 66 65h80q65 0 65 -65v-589q0 -65 -65 -65h-80q-66 0 -66 65zM143 777q-66 0 -66 65v17q0 66 66 66h38q66 0 66 -66v-17q0 -65 -66 -65h-38z" />
    <glyph glyph-name="dotlessi" unicode="&#x131;" horiz-adv-x="285" 
d="M38 65v389q0 65 65 65h78q66 0 66 -65v-389q0 -65 -66 -65h-78q-65 0 -65 65z" />
    <glyph glyph-name="IJ" unicode="&#x132;" horiz-adv-x="695" 
d="M323 63v64q0 28 13 43t43 27q50 31 50 87v370q0 65 65 65h85q66 0 66 -65v-385q0 -58 -18.5 -105.5t-47 -77t-64 -50t-67 -28.5t-58.5 -8q-67 0 -67 63zM55 65v589q0 65 66 65h80q65 0 65 -65v-589q0 -65 -65 -65h-80q-66 0 -66 65z" />
    <glyph glyph-name="ij" unicode="&#x133;" horiz-adv-x="611" 
d="M107 567q-65 0 -65 66v21q0 65 65 65h71q65 0 65 -65v-21q0 -66 -65 -66h-71zM38 65v389q0 65 65 65h78q66 0 66 -65v-389q0 -65 -66 -65h-78q-65 0 -65 65zM431 567q-65 0 -65 66v21q0 65 65 65h71q65 0 65 -65v-21q0 -66 -65 -66h-71zM362 11v443q0 65 66 65h78
q65 0 65 -65v-460q0 -48 -19 -85.5t-46.5 -59t-61 -35.5t-59 -18.5t-44.5 -4.5h-21q-65 0 -65 66v42q0 25 11 39.5t22.5 18.5t31.5 7q42 7 42 47z" />
    <glyph glyph-name="Jcircumflex" unicode="&#x134;" horiz-adv-x="563" 
d="M176 764q-33 0 -40.5 22.5t14.5 57.5l24 38q28 43 79 43h98q51 0 79 -43l24 -38q22 -35 14.5 -57.5t-41.5 -22.5h-40q-27 0 -39.5 10t-25.5 35l-19 38h-2l-19 -38q-13 -25 -25.5 -35t-39.5 -10h-41zM6 214q0 39 15 56.5t50 17.5h82q35 0 45 -13t16 -47q10 -48 48 -48
q40 0 40 53v306h-133q-65 0 -65 65v50q0 65 65 65h279q65 0 65 -65v-426q0 -113 -75 -176.5t-176 -63.5q-102 0 -179 63.5t-77 162.5z" />
    <glyph glyph-name="jcircumflex" unicode="&#x135;" horiz-adv-x="289" 
d="M21 558q-35 0 -41.5 24t14.5 56l24 38q28 43 80 43h97q51 0 79 -43l24 -38q22 -35 14.5 -57.5t-40.5 -22.5h-40q-23 0 -37.5 10t-28.5 36l-19 37h-2l-18 -37q-14 -27 -29 -36.5t-37 -9.5h-40zM40 6v448q0 65 66 65h78q65 0 65 -65v-460q0 -48 -19 -85.5t-46.5 -59
t-61 -35.5t-59 -18.5t-44.5 -4.5h-21q-65 0 -65 66v42q0 19 5 31.5t16 19t19.5 9t24.5 5.5q42 8 42 42z" />
    <glyph glyph-name="Kcommaaccent" unicode="&#x136;" horiz-adv-x="680" 
d="M268 -83q0 39 58 39h26q75 0 75 -75q0 -58 -27 -88.5t-63 -30.5h-18q-57 0 -57 35q0 13 5.5 34t5.5 34q0 5 -2.5 24t-2.5 28zM55 65v589q0 65 66 65h80q65 0 65 -65v-201h56l109 219q26 47 78 47h82q39 0 52 -22t-5 -56l-144 -267v-2l155 -293q19 -35 6 -57t-52 -22h-94
q-52 0 -78 47l-109 227h-56v-209q0 -65 -65 -65h-80q-66 0 -66 65z" />
    <glyph glyph-name="kcommaaccent" unicode="&#x137;" horiz-adv-x="594" 
d="M235 -83q0 39 58 39h26q75 0 75 -75q0 -58 -27 -88.5t-63 -30.5h-18q-57 0 -57 35q0 13 5.5 34t5.5 34q0 5 -2.5 24t-2.5 28zM40 65v589q0 65 66 65h78q65 0 65 -65v-298h38l60 119q24 44 77 44h80q40 0 52 -22.5t-9 -55.5l-93 -161v-2l117 -200q20 -34 8 -56t-52 -22
h-92q-51 0 -77 47l-65 136h-44v-118q0 -65 -65 -65h-78q-66 0 -66 65z" />
    <glyph glyph-name="kgreenlandic" unicode="&#x138;" horiz-adv-x="589" 
d="M38 65v389q0 65 65 65h78q66 0 66 -65v-106h39l61 125q23 46 78 46h79q29 0 42.5 -12.5t13 -30t-10.5 -35.5l-97 -170v-2l111 -191q21 -38 8 -58t-52 -20h-94q-55 0 -76 47l-57 127h-45v-109q0 -65 -66 -65h-78q-65 0 -65 65z" />
    <glyph glyph-name="Lacute" unicode="&#x139;" horiz-adv-x="551" 
d="M151 764q-32 0 -43.5 21.5t5.5 50.5l23 42q26 47 77 47h54q41 0 50.5 -24t-17.5 -56l-35 -42q-33 -39 -79 -39h-35zM55 65v589q0 65 66 65h80q65 0 65 -65v-474h215q66 0 66 -65v-50q0 -65 -66 -65h-360q-66 0 -66 65z" />
    <glyph glyph-name="lacute" unicode="&#x13a;" horiz-adv-x="322" 
d="M133 764q-32 0 -43.5 21.5t5.5 50.5l23 42q26 47 77 47h54q41 0 50.5 -24t-17.5 -56l-35 -42q-33 -39 -79 -39h-35zM38 214v440q0 65 66 65h78q65 0 65 -65v-433q0 -41 21 -44q46 -5 46 -55v-61q0 -66 -66 -66q-36 0 -63 4t-56 17.5t-48 36.5t-31 64t-12 97z" />
    <glyph glyph-name="Lcommaaccent" unicode="&#x13b;" horiz-adv-x="551" 
d="M231 -83q0 39 58 39h26q75 0 75 -75q0 -58 -27 -88.5t-63 -30.5h-18q-57 0 -57 35q0 13 5.5 34t5.5 34q0 5 -2.5 24t-2.5 28zM55 65v589q0 65 66 65h80q65 0 65 -65v-474h215q66 0 66 -65v-50q0 -65 -66 -65h-360q-66 0 -66 65z" />
    <glyph glyph-name="lcommaaccent" unicode="&#x13c;" horiz-adv-x="321" 
d="M110 -83q0 39 58 39h26q75 0 75 -75q0 -58 -27 -88.5t-63 -30.5h-18q-57 0 -57 35q0 13 5.5 34t5.5 34q0 5 -2.5 24t-2.5 28zM37 214v440q0 65 66 65h78q65 0 65 -65v-433q0 -41 21 -44q46 -5 46 -55v-61q0 -66 -66 -66q-36 0 -63 4t-56 17.5t-48 36.5t-31 64t-12 97z
" />
    <glyph glyph-name="Lcaron" unicode="&#x13d;" horiz-adv-x="553" 
d="M338 680q0 39 58 39h26q75 0 75 -75q0 -58 -27 -88.5t-63 -30.5h-18q-57 0 -57 35q0 12 5.5 34t5.5 34q0 6 -2.5 25t-2.5 27zM55 65v589q0 65 66 65h80q65 0 65 -65v-474h215q66 0 66 -65v-50q0 -65 -66 -65h-360q-66 0 -66 65z" />
    <glyph glyph-name="lcaron" unicode="&#x13e;" horiz-adv-x="322" 
d="M298 680q0 39 58 39h26q75 0 75 -75q0 -58 -27 -88.5t-63 -30.5h-18q-57 0 -57 35q0 12 5.5 34t5.5 34q0 6 -2.5 25t-2.5 27zM38 214v440q0 65 66 65h78q65 0 65 -65v-433q0 -41 21 -44q46 -5 46 -55v-61q0 -66 -66 -66q-36 0 -63 4t-56 17.5t-48 36.5t-31 64t-12 97z
" />
    <glyph glyph-name="Ldot" unicode="&#x13f;" horiz-adv-x="557" 
d="M55 65v589q0 65 66 65h80q65 0 65 -65v-474h215q66 0 66 -65v-50q0 -65 -66 -65h-360q-66 0 -66 65zM414 310q-66 0 -66 65v61q0 65 66 65h53q66 0 66 -65v-61q0 -65 -66 -65h-53z" />
    <glyph glyph-name="ldot" unicode="&#x140;" horiz-adv-x="488" 
d="M38 214v440q0 65 66 65h78q65 0 65 -65v-433q0 -41 21 -44q46 -5 46 -55v-61q0 -66 -66 -66q-36 0 -63 4t-56 17.5t-48 36.5t-31 64t-12 97zM363 310q-66 0 -66 65v61q0 65 66 65h53q66 0 66 -65v-61q0 -65 -66 -65h-53z" />
    <glyph glyph-name="Lslash" unicode="&#x141;" horiz-adv-x="555" 
d="M59 65v96q-18 -7 -33.5 9t-15.5 52v56q0 53 30 70l19 10v296q0 65 65 65h80q66 0 66 -65v-175l18 10q34 19 56.5 6.5t22.5 -51.5v-55q0 -53 -45 -79l-52 -29v-101h215q65 0 65 -65v-50q0 -65 -65 -65h-361q-65 0 -65 65z" />
    <glyph glyph-name="lslash" unicode="&#x142;" horiz-adv-x="329" 
d="M5 304q0 54 29 69l11 6v275q0 65 65 65h78q65 0 65 -65v-158q28 11 45.5 -3.5t17.5 -48.5v-55q0 -52 -40 -76l-23 -13v-79q0 -41 21 -44q47 -5 47 -55v-61q0 -66 -66 -66q-36 0 -63 4t-56 17.5t-48 36.5t-31 64t-12 97q-17 -7 -28.5 6t-11.5 38v46z" />
    <glyph glyph-name="Nacute" unicode="&#x143;" horiz-adv-x="733" 
d="M356 764q-32 0 -43.5 21.5t5.5 50.5l23 42q26 47 77 47h54q41 0 50.5 -24t-17.5 -56l-35 -42q-33 -39 -79 -39h-35zM55 65v589q0 65 66 65h96q54 0 78 -44l118 -231q13 -23 28 -56t24 -54l9 -22h2q-9 84 -9 132v210q0 65 65 65h80q66 0 66 -65v-589q0 -65 -66 -65h-96
q-53 0 -77 44l-119 230q-13 23 -28 55.5t-24 54.5l-9 21h-2q9 -83 9 -131v-209q0 -65 -65 -65h-80q-66 0 -66 65z" />
    <glyph glyph-name="nacute" unicode="&#x144;" 
d="M299 559q-32 0 -43.5 21.5t5.5 50.5l23 42q26 47 77 47h54q41 0 50.5 -24t-17.5 -56l-35 -42q-33 -39 -79 -39h-35zM38 65v389q0 65 65 65h69q64 0 64 -73h2q46 85 154 85q38 0 69 -9t59 -29.5t44 -59.5t16 -94v-274q0 -65 -66 -65h-78q-65 0 -65 65v229q0 49 -46 49
q-78 0 -78 -114v-164q0 -65 -66 -65h-78q-65 0 -65 65z" />
    <glyph glyph-name="Ncommaaccent" unicode="&#x145;" horiz-adv-x="733" 
d="M293 -83q0 39 58 39h26q75 0 75 -75q0 -58 -27 -88.5t-63 -30.5h-18q-57 0 -57 35q0 13 5.5 34t5.5 34q0 5 -2.5 24t-2.5 28zM55 65v589q0 65 66 65h96q54 0 78 -44l118 -231q13 -23 28 -56t24 -54l9 -22h2q-9 84 -9 132v210q0 65 65 65h80q66 0 66 -65v-589
q0 -65 -66 -65h-96q-53 0 -77 44l-119 230q-13 23 -28 55.5t-24 54.5l-9 21h-2q9 -83 9 -131v-209q0 -65 -65 -65h-80q-66 0 -66 65z" />
    <glyph glyph-name="ncommaaccent" unicode="&#x146;" 
d="M230 -83q0 39 58 39h26q75 0 75 -75q0 -58 -27 -88.5t-63 -30.5h-18q-57 0 -57 35q0 13 5.5 34t5.5 34q0 5 -2.5 24t-2.5 28zM38 65v389q0 65 65 65h69q64 0 64 -73h2q46 85 154 85q38 0 69 -9t59 -29.5t44 -59.5t16 -94v-274q0 -65 -66 -65h-78q-65 0 -65 65v229
q0 49 -46 49q-78 0 -78 -114v-164q0 -65 -66 -65h-78q-65 0 -65 65z" />
    <glyph glyph-name="Ncaron" unicode="&#x147;" horiz-adv-x="733" 
d="M317 764q-50 0 -79 43l-24 38q-22 34 -14.5 57t40.5 23h41q26 0 38.5 -10t27.5 -36l18 -37h2l18 37q15 26 27.5 36t38.5 10h41q33 0 40.5 -23t-14.5 -57l-24 -38q-29 -43 -79 -43h-98zM55 65v589q0 65 66 65h96q54 0 78 -44l118 -231q13 -23 28 -56t24 -54l9 -22h2
q-9 84 -9 132v210q0 65 65 65h80q66 0 66 -65v-589q0 -65 -66 -65h-96q-53 0 -77 44l-119 230q-13 23 -28 55.5t-24 54.5l-9 21h-2q9 -83 9 -131v-209q0 -65 -65 -65h-80q-66 0 -66 65z" />
    <glyph glyph-name="ncaron" unicode="&#x148;" 
d="M261 559q-50 0 -79 43l-24 38q-22 34 -14.5 57t40.5 23h41q26 0 38.5 -10t27.5 -36l18 -37h2l18 37q15 26 27.5 36t38.5 10h41q33 0 40.5 -23t-14.5 -57l-24 -38q-29 -43 -79 -43h-98zM38 65v389q0 65 65 65h69q64 0 64 -73h2q46 85 154 85q38 0 69 -9t59 -29.5t44 -59.5
t16 -94v-274q0 -65 -66 -65h-78q-65 0 -65 65v229q0 49 -46 49q-78 0 -78 -114v-164q0 -65 -66 -65h-78q-65 0 -65 65z" />
    <glyph glyph-name="napostrophe" unicode="&#x149;" 
d="M-56 680q0 39 58 39h26q75 0 75 -75q0 -58 -27 -88.5t-63 -30.5h-18q-57 0 -57 35q0 12 5.5 34t5.5 34q0 6 -2.5 25t-2.5 27zM38 65v389q0 65 65 65h69q64 0 64 -73h2q46 85 154 85q38 0 69 -9t59 -29.5t44 -59.5t16 -94v-274q0 -65 -66 -65h-78q-65 0 -65 65v229
q0 49 -46 49q-78 0 -78 -114v-164q0 -65 -66 -65h-78q-65 0 -65 65z" />
    <glyph glyph-name="Eng" unicode="&#x14a;" horiz-adv-x="734" 
d="M55 65v589q0 65 66 65h96q54 0 78 -44l119 -231l60 -132h2q-9 84 -9 132v210q0 65 65 65h80q66 0 66 -65v-665q0 -49 -20 -87t-47.5 -58.5t-63 -33.5t-61 -16.5t-46.5 -3.5q-78 0 -78 67v46q0 25 11.5 39.5t23 18.5t31.5 7q46 8 46 30l-155 276q-12 22 -27 55t-24 55
l-9 21h-2q9 -83 9 -131v-209q0 -65 -65 -65h-80q-66 0 -66 65z" />
    <glyph glyph-name="eng" unicode="&#x14b;" horiz-adv-x="618" 
d="M371 11v283q0 49 -46 49q-78 0 -78 -114v-164q0 -65 -66 -65h-78q-65 0 -65 65v389q0 65 65 65h69q64 0 64 -73h2q46 85 154 85q38 0 69 -9t59 -29.5t44 -59.5t16 -94v-345q0 -48 -19 -85.5t-46.5 -59t-61 -35.5t-59.5 -18.5t-45 -4.5h-20q-66 0 -66 66v47q0 31 16 46
t50 19q42 5 42 42z" />
    <glyph glyph-name="Omacron" unicode="&#x14c;" horiz-adv-x="807" 
d="M326 781q-65 0 -65 61v9q0 62 65 62h154q66 0 66 -62v-9q0 -61 -66 -61h-154zM24 364q0 157 105.5 262t273.5 105t274 -105t106 -262q0 -161 -106 -268.5t-274 -107.5t-273.5 107.5t-105.5 268.5zM242 364q0 -79 45 -131.5t116 -52.5t116.5 52.5t45.5 131.5
q0 76 -45.5 125.5t-116.5 49.5t-116 -49.5t-45 -125.5z" />
    <glyph glyph-name="omacron" unicode="&#x14d;" horiz-adv-x="632" 
d="M239 576q-65 0 -65 61v9q0 62 65 62h154q66 0 66 -62v-9q0 -61 -66 -61h-154zM15 257q0 122 86.5 198t213.5 76q129 0 215.5 -76t86.5 -198q0 -120 -86.5 -194.5t-214.5 -74.5t-214.5 74.5t-86.5 194.5zM226 257q0 -46 26 -71.5t64 -25.5t64.5 25.5t26.5 71.5
q0 47 -26.5 74.5t-64.5 27.5t-64 -27.5t-26 -74.5z" />
    <glyph glyph-name="Obreve" unicode="&#x14e;" horiz-adv-x="807" 
d="M24 364q0 157 105.5 262t273.5 105t274 -105t106 -262q0 -161 -106 -268.5t-274 -107.5t-273.5 107.5t-105.5 268.5zM242 364q0 -79 45 -131.5t116 -52.5t116.5 52.5t45.5 131.5q0 76 -45.5 125.5t-116.5 49.5t-116 -49.5t-45 -125.5zM403 758q-43 0 -85.5 13.5t-75 44.5
t-32.5 72q0 27 38 32l42 5q17 2 28.5 -4.5t15.5 -13t9 -19.5q14 -33 59 -33t59 33q5 13 9 19.5t15.5 13t28.5 4.5l42 -5q38 -5 38 -32q0 -61 -61 -95.5t-130 -34.5z" />
    <glyph glyph-name="obreve" unicode="&#x14f;" horiz-adv-x="632" 
d="M15 257q0 122 86.5 198t213.5 76q129 0 215.5 -76t86.5 -198q0 -120 -86.5 -194.5t-214.5 -74.5t-214.5 74.5t-86.5 194.5zM226 257q0 -46 26 -71.5t64 -25.5t64.5 25.5t26.5 71.5q0 47 -26.5 74.5t-64.5 27.5t-64 -27.5t-26 -74.5zM316 553q-43 0 -85.5 13.5t-75 44.5
t-32.5 72q0 27 38 32l42 5q17 2 28.5 -4.5t15.5 -13t9 -19.5q14 -33 59 -33t59 33q5 13 9 19.5t15.5 13t28.5 4.5l42 -5q38 -5 38 -32q0 -61 -61 -95.5t-130 -34.5z" />
    <glyph glyph-name="Ohungarumlaut" unicode="&#x150;" horiz-adv-x="807" 
d="M510 764q-40 0 -48.5 25.5t9.5 53.5l19 35q26 47 77 47h44q42 0 50.5 -25.5t-17.5 -54.5l-35 -42q-32 -39 -79 -39h-20zM278 764q-37 0 -48 20.5t6 56.5l17 36q23 48 77 48h28q38 0 49 -21.5t-7 -56.5l-18 -37q-23 -46 -78 -46h-26zM24 364q0 157 105.5 262t273.5 105
t274 -105t106 -262q0 -161 -106 -268.5t-274 -107.5t-273.5 107.5t-105.5 268.5zM242 364q0 -79 45 -131.5t116 -52.5t116.5 52.5t45.5 131.5q0 76 -45.5 125.5t-116.5 49.5t-116 -49.5t-45 -125.5z" />
    <glyph glyph-name="ohungarumlaut" unicode="&#x151;" horiz-adv-x="632" 
d="M423 559q-40 0 -48.5 25.5t9.5 53.5l19 35q26 47 77 47h44q42 0 50.5 -26t-17.5 -54l-35 -42q-32 -39 -79 -39h-20zM191 559q-37 0 -48 20.5t6 56.5l17 36q23 48 77 48h28q38 0 49 -22t-7 -56l-18 -37q-23 -46 -78 -46h-26zM15 257q0 122 86.5 198t213.5 76
q129 0 215.5 -76t86.5 -198q0 -120 -86.5 -194.5t-214.5 -74.5t-214.5 74.5t-86.5 194.5zM226 257q0 -46 26 -71.5t64 -25.5t64.5 25.5t26.5 71.5q0 47 -26.5 74.5t-64.5 27.5t-64 -27.5t-26 -74.5z" />
    <glyph glyph-name="OE" unicode="&#x152;" horiz-adv-x="988" 
d="M21 361q0 153 115.5 259.5t276.5 106.5q43 0 80 -4t57 -4h336q66 0 66 -65v-50q0 -65 -66 -65h-189v-87h136q65 0 65 -65v-50q0 -65 -65 -65h-136v-92h203q66 0 66 -65v-50q0 -65 -66 -65h-351q-20 0 -56.5 -3.5t-79.5 -3.5q-160 0 -276 107.5t-116 260.5zM239 361
q0 -77 51.5 -133.5t122.5 -56.5q20 0 38.5 1.5t26.5 3.5l8 2v363q-27 7 -73 7q-71 0 -122.5 -55t-51.5 -132z" />
    <glyph glyph-name="oe" unicode="&#x153;" horiz-adv-x="943" 
d="M15 258q0 120 84 196.5t208 76.5q46 0 82.5 -10t56.5 -22t51 -34h2q27 22 44 33.5t53.5 22t83.5 10.5q115 0 181 -71t66 -177q0 -23 -20 -43t-49 -20h-243q25 -60 98 -60q43 0 81 17q61 26 88 -26l16 -31q31 -60 -23 -90q-80 -42 -180 -42q-50 0 -89.5 12.5t-56 24
t-45.5 35.5h-2q-32 -25 -51.5 -37t-57.5 -23.5t-84 -11.5q-126 0 -210 75t-84 195zM224 258q0 -45 26.5 -71.5t64.5 -26.5t64 26.5t26 70.5q0 46 -26 74t-64 28t-64.5 -27.5t-26.5 -73.5zM618 325h108q2 26 -11 45.5t-37 19.5q-56 0 -60 -65z" />
    <glyph glyph-name="Racute" unicode="&#x154;" horiz-adv-x="643" 
d="M300 764q-32 0 -43.5 21.5t5.5 50.5l23 42q26 47 77 47h54q41 0 50.5 -24t-17.5 -56l-35 -42q-33 -39 -79 -39h-35zM55 65v589q0 65 66 65h195q99 0 143 -15q62 -21 101.5 -79.5t39.5 -136.5q0 -59 -25 -115t-75 -86v-2q16 -18 32 -46l90 -160q19 -37 6 -58t-51 -21h-93
q-53 0 -77 46l-91 176h-50v-157q0 -65 -65 -65h-80q-66 0 -66 65zM266 402h45q38 0 56.5 18t18.5 58t-32 53q-18 8 -56 8h-32v-137z" />
    <glyph glyph-name="racute" unicode="&#x155;" horiz-adv-x="423" 
d="M239 558q-32 0 -43.5 21.5t5.5 50.5l23 42q26 47 77 47h54q41 0 50.5 -24t-17.5 -56l-35 -42q-33 -39 -79 -39h-35zM38 65v389q0 65 65 65h69q66 0 66 -65v-20l-2 -29h2q13 41 50.5 80.5t78.5 39.5q30 0 42 -16t12 -50v-68q0 -66 -64 -66q-54 0 -82 -35t-28 -94v-131
q0 -65 -66 -65h-78q-65 0 -65 65z" />
    <glyph glyph-name="Rcommaaccent" unicode="&#x156;" horiz-adv-x="643" 
d="M259 -83q0 39 58 39h26q75 0 75 -75q0 -58 -27 -88.5t-63 -30.5h-18q-57 0 -57 35q0 13 5.5 34t5.5 34q0 5 -2.5 24t-2.5 28zM55 65v589q0 65 66 65h195q99 0 143 -15q62 -21 101.5 -79.5t39.5 -136.5q0 -59 -25 -115t-75 -86v-2q16 -18 32 -46l90 -160q19 -37 6 -58
t-51 -21h-93q-53 0 -77 46l-91 176h-50v-157q0 -65 -65 -65h-80q-66 0 -66 65zM266 402h45q38 0 56.5 18t18.5 58t-32 53q-18 8 -56 8h-32v-137z" />
    <glyph glyph-name="rcommaaccent" unicode="&#x157;" horiz-adv-x="423" 
d="M69 -83q0 39 58 39h26q75 0 75 -75q0 -58 -27 -88.5t-63 -30.5h-18q-57 0 -57 35q0 13 5.5 34t5.5 34q0 5 -2.5 24t-2.5 28zM38 65v389q0 65 65 65h69q66 0 66 -65v-20l-2 -29h2q13 41 50.5 80.5t78.5 39.5q30 0 42 -16t12 -50v-68q0 -66 -64 -66q-54 0 -82 -35t-28 -94
v-131q0 -65 -66 -65h-78q-65 0 -65 65z" />
    <glyph glyph-name="Rcaron" unicode="&#x158;" horiz-adv-x="643" 
d="M262 764q-50 0 -79 43l-24 38q-22 34 -14.5 57t40.5 23h41q26 0 38.5 -10t27.5 -36l18 -37h2l18 37q15 26 27.5 36t38.5 10h41q33 0 40.5 -23t-14.5 -57l-24 -38q-29 -43 -79 -43h-98zM55 65v589q0 65 66 65h195q99 0 143 -15q62 -21 101.5 -79.5t39.5 -136.5
q0 -59 -25 -115t-75 -86v-2q16 -18 32 -46l90 -160q19 -37 6 -58t-51 -21h-93q-53 0 -77 46l-91 176h-50v-157q0 -65 -65 -65h-80q-66 0 -66 65zM266 402h45q38 0 56.5 18t18.5 58t-32 53q-18 8 -56 8h-32v-137z" />
    <glyph glyph-name="rcaron" unicode="&#x159;" horiz-adv-x="423" 
d="M201 558q-50 0 -79 43l-24 38q-22 34 -14.5 57t40.5 23h41q26 0 38.5 -10t27.5 -36l18 -37h2l18 37q15 26 27.5 36t38.5 10h41q33 0 40.5 -23t-14.5 -57l-24 -38q-29 -43 -79 -43h-98zM38 65v389q0 65 65 65h69q66 0 66 -65v-20l-2 -29h2q13 41 50.5 80.5t78.5 39.5
q30 0 42 -16t12 -50v-68q0 -66 -64 -66q-54 0 -82 -35t-28 -94v-131q0 -65 -66 -65h-78q-65 0 -65 65z" />
    <glyph glyph-name="Sacute" unicode="&#x15a;" horiz-adv-x="578" 
d="M277 764q-32 0 -43.5 21.5t5.5 50.5l23 42q26 47 77 47h54q41 0 50.5 -24t-17.5 -56l-35 -42q-33 -39 -79 -39h-35zM54 58q-49 37 -13 90l38 55q32 47 90 16q4 -2 26 -14t45 -19.5t48 -7.5q53 0 53 32q0 17 -22.5 32t-56.5 26t-73 30t-73 42t-56.5 65t-22.5 96
q0 102 75.5 166t191.5 64q58 0 113.5 -15.5t86.5 -36.5q48 -34 21 -90l-29 -57q-16 -32 -41 -35t-48 12q-4 2 -20 9.5t-21.5 9.5t-18 6t-23.5 5.5t-23 1.5q-54 0 -54 -33q0 -22 31.5 -38.5t76.5 -32.5t89.5 -38.5t76 -68t31.5 -109.5q0 -98 -71 -165.5t-193 -67.5
q-69 0 -134 21.5t-100 48.5z" />
    <glyph glyph-name="sacute" unicode="&#x15b;" horiz-adv-x="467" 
d="M212 559q-32 0 -43.5 21.5t5.5 50.5l23 42q26 47 77 47h54q41 0 50.5 -24t-17.5 -56l-35 -42q-33 -39 -79 -39h-35zM51 31q-54 33 -17 91l17 27q16 25 37.5 29.5t52.5 -8.5q55 -22 85 -22t30 20q0 11 -24 18t-58 15t-68 22t-58 48t-24 85q0 84 63.5 129.5t161.5 45.5
q93 0 153 -30q54 -27 24 -88l-14 -28q-4 -8 -6.5 -12.5t-9.5 -12t-15.5 -10t-22.5 -2.5t-31 6q-58 18 -82 18q-28 0 -28 -19q0 -11 24 -17.5t58 -14t68 -21.5t58 -47t24 -83q0 -80 -60 -131t-162 -51q-54 0 -102.5 13.5t-73.5 29.5z" />
    <glyph glyph-name="Scircumflex" unicode="&#x15c;" horiz-adv-x="578" 
d="M161 764q-33 0 -40.5 22.5t14.5 57.5l24 38q28 43 79 43h98q51 0 79 -43l24 -38q22 -35 14.5 -57.5t-41.5 -22.5h-40q-27 0 -39.5 10t-25.5 35l-19 38h-2l-19 -38q-13 -25 -25.5 -35t-39.5 -10h-41zM54 58q-49 37 -13 90l38 55q32 47 90 16q4 -2 26 -14t45 -19.5t48 -7.5
q53 0 53 32q0 17 -22.5 32t-56.5 26t-73 30t-73 42t-56.5 65t-22.5 96q0 102 75.5 166t191.5 64q58 0 113.5 -15.5t86.5 -36.5q48 -34 21 -90l-29 -57q-16 -32 -41 -35t-48 12q-4 2 -20 9.5t-21.5 9.5t-18 6t-23.5 5.5t-23 1.5q-54 0 -54 -33q0 -22 31.5 -38.5t76.5 -32.5
t89.5 -38.5t76 -68t31.5 -109.5q0 -98 -71 -165.5t-193 -67.5q-69 0 -134 21.5t-100 48.5z" />
    <glyph glyph-name="scircumflex" unicode="&#x15d;" horiz-adv-x="467" 
d="M99 559q-33 0 -40.5 22.5t14.5 57.5l24 38q28 43 79 43h98q51 0 79 -43l24 -38q22 -35 14.5 -57.5t-41.5 -22.5h-40q-27 0 -39.5 10t-25.5 35l-19 38h-2l-19 -38q-13 -25 -25.5 -35t-39.5 -10h-41zM51 31q-54 33 -17 91l17 27q16 25 37.5 29.5t52.5 -8.5q55 -22 85 -22
t30 20q0 11 -24 18t-58 15t-68 22t-58 48t-24 85q0 84 63.5 129.5t161.5 45.5q93 0 153 -30q54 -27 24 -88l-14 -28q-4 -8 -6.5 -12.5t-9.5 -12t-15.5 -10t-22.5 -2.5t-31 6q-58 18 -82 18q-28 0 -28 -19q0 -11 24 -17.5t58 -14t68 -21.5t58 -47t24 -83q0 -80 -60 -131
t-162 -51q-54 0 -102.5 13.5t-73.5 29.5z" />
    <glyph glyph-name="Scedilla" unicode="&#x15e;" horiz-adv-x="579" 
d="M231 -37l9 28q-57 6 -107.5 25.5t-78.5 41.5q-49 37 -13 90l38 55q32 47 90 16q4 -2 26 -14t45 -19.5t48 -7.5q53 0 53 32q0 17 -22.5 32t-56.5 26t-73 30t-73 42t-56.5 65t-22.5 96q0 102 75.5 166t191.5 64q58 0 113.5 -15.5t86.5 -36.5q48 -34 21 -90l-29 -57
q-16 -32 -41 -35t-48 12q-4 2 -20 9.5t-21.5 9.5t-18 6t-23.5 5.5t-23 1.5q-54 0 -54 -33q0 -22 31.5 -38.5t76.5 -32.5t89.5 -38.5t76 -68t31.5 -109.5q0 -88 -58.5 -153t-160.5 -77l-5 -20q77 -8 77 -84q0 -52 -36 -75.5t-88 -23.5q-70 0 -70 47q0 24 8.5 36.5t18.5 12.5
q6 0 14.5 -0.5t9.5 -0.5q20 0 20 20q0 18 -38 20q-26 1 -13 40z" />
    <glyph glyph-name="scedilla" unicode="&#x15f;" horiz-adv-x="469" 
d="M159 -37l10 30q-73 9 -117 38q-54 33 -17 91l17 27q16 25 37.5 29.5t52.5 -8.5q55 -22 85 -22t30 20q0 11 -24 18t-58 15t-68 22t-58 48t-24 85q0 84 63.5 129.5t161.5 45.5q93 0 153 -30q54 -27 24 -88l-14 -28q-4 -8 -6.5 -12.5t-9.5 -12t-15.5 -10t-22.5 -2.5t-31 6
q-59 18 -82 18q-28 0 -28 -19q0 -11 24 -17.5t58 -14t68 -21.5t58 -47t24 -83q0 -73 -51 -123t-139 -57l-4 -19q77 -8 77 -84q0 -52 -36 -75.5t-88 -23.5q-70 0 -70 47q0 24 8.5 36.5t18.5 12.5q6 0 14.5 -0.5t9.5 -0.5q20 0 20 20q0 18 -38 20q-26 1 -13 40z" />
    <glyph glyph-name="Scaron" unicode="&#x160;" horiz-adv-x="578" 
d="M238 764q-50 0 -79 43l-24 38q-22 34 -14.5 57t40.5 23h41q26 0 38.5 -10t27.5 -36l18 -37h2l18 37q15 26 27.5 36t38.5 10h41q33 0 40.5 -23t-14.5 -57l-24 -38q-29 -43 -79 -43h-98zM54 58q-49 37 -13 90l38 55q32 47 90 16q4 -2 26 -14t45 -19.5t48 -7.5q53 0 53 32
q0 17 -22.5 32t-56.5 26t-73 30t-73 42t-56.5 65t-22.5 96q0 102 75.5 166t191.5 64q58 0 113.5 -15.5t86.5 -36.5q48 -34 21 -90l-29 -57q-16 -32 -41 -35t-48 12q-4 2 -20 9.5t-21.5 9.5t-18 6t-23.5 5.5t-23 1.5q-54 0 -54 -33q0 -22 31.5 -38.5t76.5 -32.5t89.5 -38.5
t76 -68t31.5 -109.5q0 -98 -71 -165.5t-193 -67.5q-69 0 -134 21.5t-100 48.5z" />
    <glyph glyph-name="scaron" unicode="&#x161;" horiz-adv-x="467" 
d="M176 559q-50 0 -79 43l-24 38q-22 34 -14.5 57t40.5 23h41q26 0 38.5 -10t27.5 -36l18 -37h2l18 37q15 26 27.5 36t38.5 10h41q33 0 40.5 -23t-14.5 -57l-24 -38q-29 -43 -79 -43h-98zM51 31q-54 33 -17 91l17 27q16 25 37.5 29.5t52.5 -8.5q55 -22 85 -22t30 20
q0 11 -24 18t-58 15t-68 22t-58 48t-24 85q0 84 63.5 129.5t161.5 45.5q93 0 153 -30q54 -27 24 -88l-14 -28q-4 -8 -6.5 -12.5t-9.5 -12t-15.5 -10t-22.5 -2.5t-31 6q-58 18 -82 18q-28 0 -28 -19q0 -11 24 -17.5t58 -14t68 -21.5t58 -47t24 -83q0 -80 -60 -131t-162 -51
q-54 0 -102.5 13.5t-73.5 29.5z" />
    <glyph glyph-name="Tcommaaccent" unicode="&#x162;" horiz-adv-x="631" 
d="M253 -37l13 37q-56 5 -56 65v474h-140q-65 0 -65 65v50q0 65 65 65h491q65 0 65 -65v-50q0 -65 -65 -65h-140v-474q0 -65 -64 -65l-7 -29q77 -8 77 -84q0 -52 -36 -75.5t-88 -23.5q-70 0 -70 47q0 24 8.5 36.5t18.5 12.5q6 0 14.5 -0.5t9.5 -0.5q20 0 20 20q0 18 -38 20
q-26 1 -13 40z" />
    <glyph glyph-name="tcommaaccent" unicode="&#x163;" horiz-adv-x="420" 
d="M172 -37l19 57q-106 47 -106 164v163h-6q-64 0 -64 65v31q0 65 64 65h13v85q0 65 65 65h71q66 0 66 -65v-85h36q66 0 66 -65v-31q0 -65 -64 -65h-38v-124q0 -41 43 -47q38 -6 51 -17t13 -43v-56q0 -35 -21 -50t-64 -15q-17 0 -41 3l-6 -27q77 -8 77 -84q0 -52 -36 -75.5
t-88 -23.5q-70 0 -70 47q0 24 8.5 36.5t18.5 12.5q6 0 14.5 -0.5t9.5 -0.5q20 0 20 20q0 18 -38 20q-26 1 -13 40z" />
    <glyph glyph-name="Tcaron" unicode="&#x164;" horiz-adv-x="631" 
d="M265 764q-50 0 -79 43l-24 38q-22 34 -14.5 57t40.5 23h41q26 0 38.5 -10t27.5 -36l18 -37h2l18 37q15 26 27.5 36t38.5 10h41q33 0 40.5 -23t-14.5 -57l-24 -38q-29 -43 -79 -43h-98zM210 65v474h-140q-65 0 -65 65v50q0 65 65 65h491q65 0 65 -65v-50q0 -65 -65 -65
h-140v-474q0 -65 -65 -65h-81q-65 0 -65 65z" />
    <glyph glyph-name="tcaron" unicode="&#x165;" horiz-adv-x="418" 
d="M335 676q0 39 58 39h26q75 0 75 -75q0 -58 -27 -88.5t-63 -30.5h-18q-57 0 -57 35q0 12 5.5 34t5.5 34q0 6 -2.5 25t-2.5 27zM83 184v163h-6q-64 0 -64 65v31q0 65 64 65h13v85q0 65 65 65h71q66 0 66 -65v-85h36q66 0 66 -65v-31q0 -65 -64 -65h-38v-124q0 -41 43 -47
q38 -6 51 -17t13 -43v-56q0 -35 -21 -50t-64 -15q-31 0 -64.5 7t-74 25t-66.5 58.5t-26 98.5z" />
    <glyph glyph-name="Tbar" unicode="&#x166;" horiz-adv-x="631" 
d="M210 65v189h-70q-66 0 -66 66v20q0 65 66 65h70v134h-140q-65 0 -65 65v50q0 65 65 65h490q66 0 66 -65v-50q0 -65 -66 -65h-139v-134h76q66 0 66 -65v-20q0 -66 -66 -66h-76v-189q0 -65 -66 -65h-80q-65 0 -65 65z" />
    <glyph glyph-name="tbar" unicode="&#x167;" horiz-adv-x="419" 
d="M83 184v38h-5q-64 0 -64 60v3q0 60 65 60h4v40h-5q-64 0 -64 60v3q0 60 65 60h11v85q0 65 65 65h72q65 0 65 -65v-85h37q65 0 65 -60v-3q0 -60 -64 -60h-38v-40h37q65 0 65 -60v-3q0 -60 -64 -60h-38v-11q0 -10 11.5 -18.5t31.5 -11.5q36 -5 50.5 -18.5t14.5 -46.5v-56
q0 -35 -21.5 -50t-64.5 -15q-31 0 -64.5 7t-74 25t-66.5 58.5t-26 98.5z" />
    <glyph glyph-name="Utilde" unicode="&#x168;" horiz-adv-x="716" 
d="M49 269v385q0 65 65 65h81q65 0 65 -65v-385q0 -44 26 -66.5t72 -22.5t72.5 22.5t26.5 65.5v386q0 65 65 65h80q65 0 65 -65v-385q0 -124 -84.5 -202.5t-223.5 -78.5q-140 0 -225 78.5t-85 202.5zM204 763q-57 0 -57 53q0 44 34.5 78t85.5 34q36 0 64.5 -14t48.5 -28
t34 -14q26 0 31 23q3 30 54 30h13q57 0 57 -49q0 -51 -33 -83.5t-86 -32.5q-36 0 -65 14t-48.5 28t-33.5 14q-28 0 -35 -25q-6 -28 -50 -28h-14z" />
    <glyph glyph-name="utilde" unicode="&#x169;" horiz-adv-x="609" 
d="M243 454v-228q0 -49 46 -49q73 0 73 114v163q0 65 66 65h78q65 0 65 -65v-389q0 -65 -65 -65h-69q-31 0 -47.5 15.5t-16.5 41.5v16h-2q-37 -85 -150 -85q-81 0 -134 44.5t-53 147.5v274q0 65 66 65h78q65 0 65 -65zM148 558q-57 0 -57 53q0 44 34.5 78t85.5 34
q36 0 64.5 -14t48.5 -28t34 -14q26 0 31 23q3 30 54 30h13q57 0 57 -49q0 -51 -33 -83.5t-86 -32.5q-36 0 -65 14t-48.5 28t-33.5 14q-28 0 -35 -25q-6 -28 -50 -28h-14z" />
    <glyph glyph-name="Umacron" unicode="&#x16a;" horiz-adv-x="716" 
d="M49 269v385q0 65 65 65h81q65 0 65 -65v-385q0 -44 26 -66.5t72 -22.5t72.5 22.5t26.5 65.5v386q0 65 65 65h80q65 0 65 -65v-385q0 -124 -84.5 -202.5t-223.5 -78.5q-140 0 -225 78.5t-85 202.5zM281 781q-65 0 -65 61v9q0 62 65 62h154q66 0 66 -62v-9q0 -61 -66 -61
h-154z" />
    <glyph glyph-name="umacron" unicode="&#x16b;" horiz-adv-x="609" 
d="M243 454v-228q0 -49 46 -49q73 0 73 114v163q0 65 66 65h78q65 0 65 -65v-389q0 -65 -65 -65h-69q-31 0 -47.5 15.5t-16.5 41.5v16h-2q-37 -85 -150 -85q-81 0 -134 44.5t-53 147.5v274q0 65 66 65h78q65 0 65 -65zM225 576q-65 0 -65 61v9q0 62 65 62h154q66 0 66 -62
v-9q0 -61 -66 -61h-154z" />
    <glyph glyph-name="Ubreve" unicode="&#x16c;" horiz-adv-x="716" 
d="M49 269v385q0 65 65 65h81q65 0 65 -65v-385q0 -44 26 -66.5t72 -22.5t72.5 22.5t26.5 65.5v386q0 65 65 65h80q65 0 65 -65v-385q0 -124 -84.5 -202.5t-223.5 -78.5q-140 0 -225 78.5t-85 202.5zM358 758q-43 0 -85.5 13.5t-75 44.5t-32.5 72q0 27 38 32l42 5
q17 2 28.5 -4.5t15.5 -13t9 -19.5q14 -33 59 -33t59 33q5 13 9 19.5t15.5 13t28.5 4.5l42 -5q38 -5 38 -32q0 -61 -61 -95.5t-130 -34.5z" />
    <glyph glyph-name="ubreve" unicode="&#x16d;" horiz-adv-x="609" 
d="M243 454v-228q0 -49 46 -49q73 0 73 114v163q0 65 66 65h78q65 0 65 -65v-389q0 -65 -65 -65h-69q-31 0 -47.5 15.5t-16.5 41.5v16h-2q-37 -85 -150 -85q-81 0 -134 44.5t-53 147.5v274q0 65 66 65h78q65 0 65 -65zM303 553q-43 0 -85.5 13.5t-75 44.5t-32.5 72
q0 27 38 32l42 5q17 2 28.5 -4.5t15.5 -13t9 -19.5q14 -33 59 -33t59 33q5 13 9 19.5t15.5 13t28.5 4.5l42 -5q38 -5 38 -32q0 -61 -61 -95.5t-130 -34.5z" />
    <glyph glyph-name="Uring" unicode="&#x16e;" horiz-adv-x="716" 
d="M357 749q-49 0 -84.5 22.5t-35.5 67.5t36 68t84 23q49 0 85.5 -23t36.5 -68t-36.5 -67.5t-85.5 -22.5zM357 803q17 0 26.5 9.5t9.5 26.5t-10 27t-26 10q-15 0 -24.5 -10.5t-9.5 -26.5q0 -17 9 -26.5t25 -9.5zM49 269v385q0 65 65 65h81q65 0 65 -65v-385q0 -44 26 -66.5
t72 -22.5t72.5 22.5t26.5 65.5v386q0 65 65 65h80q65 0 65 -65v-385q0 -124 -84.5 -202.5t-223.5 -78.5q-140 0 -225 78.5t-85 202.5z" />
    <glyph glyph-name="uring" unicode="&#x16f;" horiz-adv-x="609" 
d="M302 544q-49 0 -84.5 22.5t-35.5 67.5t36 68t84 23q49 0 85.5 -23t36.5 -68t-36.5 -67.5t-85.5 -22.5zM302 598q16 0 26 10t10 26q0 17 -10 27t-26 10q-15 0 -24.5 -10.5t-9.5 -26.5q0 -17 9 -26.5t25 -9.5zM243 454v-228q0 -49 46 -49q73 0 73 114v163q0 65 66 65h78
q65 0 65 -65v-389q0 -65 -65 -65h-69q-31 0 -47.5 15.5t-16.5 41.5v16h-2q-37 -85 -150 -85q-81 0 -134 44.5t-53 147.5v274q0 65 66 65h78q65 0 65 -65z" />
    <glyph glyph-name="Uhungarumlaut" unicode="&#x170;" horiz-adv-x="716" 
d="M49 269v385q0 65 65 65h81q65 0 65 -65v-385q0 -44 26 -66.5t72 -22.5t72.5 22.5t26.5 65.5v386q0 65 65 65h80q65 0 65 -65v-385q0 -124 -84.5 -202.5t-223.5 -78.5q-140 0 -225 78.5t-85 202.5zM466 764q-40 0 -48.5 25.5t9.5 53.5l19 35q26 47 77 47h44
q42 0 50.5 -25.5t-17.5 -54.5l-35 -42q-32 -39 -79 -39h-20zM234 764q-37 0 -48 20.5t6 56.5l17 36q23 48 77 48h28q38 0 49 -21.5t-7 -56.5l-18 -37q-23 -46 -78 -46h-26z" />
    <glyph glyph-name="uhungarumlaut" unicode="&#x171;" horiz-adv-x="609" 
d="M243 454v-228q0 -49 46 -49q73 0 73 114v163q0 65 66 65h78q65 0 65 -65v-389q0 -65 -65 -65h-69q-31 0 -47.5 15.5t-16.5 41.5v16h-2q-37 -85 -150 -85q-81 0 -134 44.5t-53 147.5v274q0 65 66 65h78q65 0 65 -65zM410 559q-40 0 -48.5 25.5t9.5 53.5l19 35q26 47 77 47
h44q42 0 50.5 -26t-17.5 -54l-35 -42q-32 -39 -79 -39h-20zM178 559q-37 0 -48 20.5t6 56.5l17 36q23 48 77 48h28q38 0 49 -22t-7 -56l-18 -37q-23 -46 -78 -46h-26z" />
    <glyph glyph-name="Uogonek" unicode="&#x172;" horiz-adv-x="717" 
d="M49 269v385q0 65 65 65h81q65 0 65 -65v-385q0 -44 26 -66.5t72 -22.5t72.5 22.5t26.5 65.5v386q0 65 65 65h80q65 0 65 -65v-385q0 -61 -22.5 -111.5t-54.5 -80.5t-63.5 -53t-54 -41t-22.5 -32q0 -10 18 -20q23 -12 18 -58l-5 -36q-4 -40 -57 -40q-41 0 -84.5 29
t-43.5 70q0 43 49 92q-135 4 -215.5 82.5t-80.5 198.5z" />
    <glyph glyph-name="uogonek" unicode="&#x173;" horiz-adv-x="608" 
d="M372 65v8h-2q-37 -85 -150 -85q-81 0 -134 44.5t-53 147.5v274q0 65 66 65h78q65 0 65 -65v-228q0 -49 46 -49q73 0 73 114v163q0 65 66 65h78q65 0 65 -65v-389q0 -34 -28.5 -64.5t-28.5 -52.5q0 -2 0.5 -4t3 -4t3.5 -2.5t5.5 -3t5.5 -3.5q24 -14 18 -58l-5 -36
q-5 -40 -57 -40q-42 0 -84.5 29t-42.5 70q0 58 43 111q-31 15 -31 58z" />
    <glyph glyph-name="Wcircumflex" unicode="&#x174;" horiz-adv-x="999" 
d="M366 764q-33 0 -40.5 22.5t14.5 57.5l24 38q28 43 79 43h98q51 0 79 -43l24 -38q22 -35 14.5 -57.5t-41.5 -22.5h-40q-27 0 -39.5 10t-25.5 35l-19 38h-2l-19 -38q-13 -25 -25.5 -35t-39.5 -10h-41zM161 57l-139 590q-8 34 7 53t50 19h87q59 0 72 -58l62 -355l7 -75h2
q1 38 10 75l82 356q15 57 73 57h50q59 0 71 -57l79 -356l10 -75h2q0 38 7 75l70 356q12 57 73 57h84q34 0 49.5 -19t7.5 -53l-147 -591q-15 -56 -73 -56h-117q-58 0 -72 57l-60 259l-11 76h-1q-1 -40 -10 -76l-61 -259q-13 -57 -72 -57h-119q-58 0 -73 57z" />
    <glyph glyph-name="wcircumflex" unicode="&#x175;" horiz-adv-x="823" 
d="M286 559q-33 0 -40.5 22.5t14.5 57.5l24 38q28 43 79 43h98q51 0 79 -43l24 -38q22 -35 14.5 -57.5t-41.5 -22.5h-40q-27 0 -39.5 10t-25.5 35l-19 38h-2l-19 -38q-13 -25 -25.5 -35t-39.5 -10h-41zM117 56l-101 389q-8 35 7 54.5t49 19.5h84q59 0 71 -58l33 -222l3 -54
h2q3 30 7 54l40 223q12 58 71 58h59q59 0 71 -58l41 -223l5 -54h2q0 30 4 54l33 222q13 58 71 58h82q34 0 49 -19.5t7 -54.5l-101 -389q-15 -56 -72 -56h-118q-58 0 -72 57l-22 140l-8 55h-2q-4 -31 -8 -55l-23 -140q-13 -57 -72 -57h-120q-57 0 -72 56z" />
    <glyph glyph-name="Ycircumflex" unicode="&#x176;" horiz-adv-x="619" 
d="M204 65v225l-192 351q-19 34 -6 56t51 22h98q53 0 76 -49l39 -95q10 -24 19.5 -53.5t14.5 -47.5l5 -17h2q17 64 39 118l39 95q22 49 75 49h98q38 0 51 -22t-6 -56l-192 -351v-225q0 -65 -65 -65h-81q-65 0 -65 65zM184 764q-33 0 -40.5 22.5t14.5 57.5l24 38q28 43 79 43
h98q51 0 79 -43l24 -38q22 -35 14.5 -57.5t-41.5 -22.5h-40q-27 0 -39.5 10t-25.5 35l-19 38h-2l-19 -38q-13 -25 -25.5 -35t-39.5 -10h-41z" />
    <glyph glyph-name="ycircumflex" unicode="&#x177;" horiz-adv-x="547" 
d="M34 -78q21 46 65 39q21 -3 27 -3q20 0 37.5 13.5t24.5 32.5l3 8l-189 431q-15 34 -1 55t51 21h97q62 0 75 -54l36 -143l16 -99h2q11 71 16 100l25 140q10 56 73 56h90q36 0 50.5 -20.5t2.5 -54.5l-172 -483q-22 -63 -63.5 -103t-84.5 -54t-91 -14q-33 0 -73 11
q-29 10 -37 33.5t5 52.5zM151 558q-33 0 -40.5 22.5t14.5 57.5l24 38q28 43 79 43h98q51 0 79 -43l24 -38q22 -35 14.5 -57.5t-41.5 -22.5h-40q-27 0 -39.5 10t-25.5 35l-19 38h-2l-19 -38q-13 -25 -25.5 -35t-39.5 -10h-41z" />
    <glyph glyph-name="Ydieresis" unicode="&#x178;" horiz-adv-x="619" 
d="M204 65v225l-192 351q-19 34 -6 56t51 22h98q53 0 76 -49l39 -95q10 -24 19.5 -53.5t14.5 -47.5l5 -17h2q17 64 39 118l39 95q22 49 75 49h98q38 0 51 -22t-6 -56l-192 -351v-225q0 -65 -65 -65h-81q-65 0 -65 65zM418 766q-65 0 -65 66v27q0 66 65 66h17q65 0 65 -66
v-27q0 -66 -65 -66h-17zM189 766q-65 0 -65 66v27q0 66 65 66h17q66 0 66 -66v-27q0 -66 -66 -66h-17z" />
    <glyph glyph-name="Zacute" unicode="&#x179;" horiz-adv-x="626" 
d="M312 764q-32 0 -43.5 21.5t5.5 50.5l23 42q26 47 77 47h54q41 0 50.5 -24t-17.5 -56l-35 -42q-33 -39 -79 -39h-35zM23 65v21q0 45 26 81l220 308q15 20 29 36.5t21 22.5l7 6v2q-25 -3 -56 -3h-171q-65 0 -65 65v50q0 65 65 65h430q65 0 65 -64v-19q0 -46 -26 -82
l-221 -310q-15 -20 -29 -36.5t-21 -22.5l-7 -6v-2q25 3 56 3h189q65 0 65 -65v-50q0 -65 -65 -65h-447q-65 0 -65 65z" />
    <glyph glyph-name="zacute" unicode="&#x17a;" horiz-adv-x="536" 
d="M250 559q-32 0 -43.5 21.5t5.5 50.5l23 42q26 47 77 47h54q41 0 50.5 -24t-17.5 -56l-35 -42q-33 -39 -79 -39h-35zM22 50v15q0 36 28 72l130 161q12 15 23.5 27t16.5 16l6 4v2q-11 -2 -43 -2h-89q-66 0 -66 66v43q0 65 66 65h349q66 0 66 -50v-15q0 -22 -6 -36t-23 -36
l-128 -162q-12 -15 -24 -26.5t-18 -15.5l-6 -5v-2q12 3 45 3h98q65 0 65 -65v-44q0 -65 -65 -65h-360q-65 0 -65 50z" />
    <glyph glyph-name="Zdotaccent" unicode="&#x17b;" horiz-adv-x="626" 
d="M23 65v21q0 45 26 81l220 308q15 20 29 36.5t21 22.5l7 6v2q-25 -3 -56 -3h-171q-65 0 -65 65v50q0 65 65 65h430q65 0 65 -64v-19q0 -46 -26 -82l-221 -310q-15 -20 -29 -36.5t-21 -22.5l-7 -6v-2q25 3 56 3h189q65 0 65 -65v-50q0 -65 -65 -65h-447q-65 0 -65 65z
M304 777q-66 0 -66 65v17q0 66 66 66h38q66 0 66 -66v-17q0 -65 -66 -65h-38z" />
    <glyph glyph-name="zdotaccent" unicode="&#x17c;" horiz-adv-x="536" 
d="M22 50v15q0 36 28 72l130 161q12 15 23.5 27t16.5 16l6 4v2q-11 -2 -43 -2h-89q-66 0 -66 66v43q0 65 66 65h349q66 0 66 -50v-15q0 -22 -6 -36t-23 -36l-128 -162q-12 -15 -24 -26.5t-18 -15.5l-6 -5v-2q12 3 45 3h98q65 0 65 -65v-44q0 -65 -65 -65h-360q-65 0 -65 50z
M242 572q-66 0 -66 65v17q0 66 66 66h38q66 0 66 -66v-17q0 -65 -66 -65h-38z" />
    <glyph glyph-name="Zcaron" unicode="&#x17d;" horiz-adv-x="626" 
d="M273 764q-50 0 -79 43l-24 38q-22 34 -14.5 57t40.5 23h41q26 0 38.5 -10t27.5 -36l18 -37h2l18 37q15 26 27.5 36t38.5 10h41q33 0 40.5 -23t-14.5 -57l-24 -38q-29 -43 -79 -43h-98zM23 65v21q0 45 26 81l220 308q15 20 29 36.5t21 22.5l7 6v2q-25 -3 -56 -3h-171
q-65 0 -65 65v50q0 65 65 65h430q65 0 65 -64v-19q0 -46 -26 -82l-221 -310q-15 -20 -29 -36.5t-21 -22.5l-7 -6v-2q25 3 56 3h189q65 0 65 -65v-50q0 -65 -65 -65h-447q-65 0 -65 65z" />
    <glyph glyph-name="zcaron" unicode="&#x17e;" horiz-adv-x="536" 
d="M227 559q-50 0 -79 43l-24 38q-22 34 -14.5 57t40.5 23h41q26 0 38.5 -10t27.5 -36l18 -37h2l18 37q15 26 27.5 36t38.5 10h41q33 0 40.5 -23t-14.5 -57l-24 -38q-29 -43 -79 -43h-98zM22 50v15q0 36 28 72l130 161q12 15 23.5 27t16.5 16l6 4v2q-11 -2 -43 -2h-89
q-66 0 -66 66v43q0 65 66 65h349q66 0 66 -50v-15q0 -22 -6 -36t-23 -36l-128 -162q-12 -15 -24 -26.5t-18 -15.5l-6 -5v-2q12 3 45 3h98q65 0 65 -65v-44q0 -65 -65 -65h-360q-65 0 -65 50z" />
    <glyph glyph-name="longs" unicode="&#x17f;" horiz-adv-x="331" 
d="M82 65v282h-4q-65 0 -65 65v31q0 65 65 65h4v26q0 47 19 83t46 55.5t62 31.5t59.5 15.5t45.5 3.5h19q65 0 65 -66v-45q0 -59 -64 -65q-38 -5 -42 -20q-1 -2 -1 -5v-457q0 -65 -66 -65h-78q-65 0 -65 65z" />
    <glyph glyph-name="florin" unicode="&#x192;" horiz-adv-x="465" 
d="M38 46q5 0 19.5 -1t22.5 -1q50 0 54 42l17 206q-23 0 -37.5 17t-14.5 48v31q0 65 67 65l9 84q5 49 26.5 85.5t49.5 56.5t65.5 32.5t67.5 16t63 3.5q16 0 28 -1q62 -6 62 -69v-44q0 -64 -43 -64q-5 0 -21 1t-26 1q-62 0 -67 -42l-6 -60h20q65 0 65 -65v-31q0 -65 -63 -65
h-36l-20 -231q-4 -49 -25.5 -85.5t-50 -56.5t-66 -32.5t-68 -16t-62.5 -3.5q-42 0 -65 15.5t-23 55.5v44q0 64 58 64z" />
    <glyph glyph-name="Scommaaccent" unicode="&#x218;" horiz-adv-x="578" 
d="M203 -83q0 39 58 39h26q75 0 75 -75q0 -58 -27 -88.5t-63 -30.5h-18q-57 0 -57 35q0 13 5.5 34t5.5 34q0 5 -2.5 24t-2.5 28zM54 58q-49 37 -13 90l38 55q32 47 90 16q4 -2 26 -14t45 -19.5t48 -7.5q53 0 53 32q0 17 -22.5 32t-56.5 26t-73 30t-73 42t-56.5 65t-22.5 96
q0 102 75.5 166t191.5 64q58 0 113.5 -15.5t86.5 -36.5q48 -34 21 -90l-29 -57q-16 -32 -41 -35t-48 12q-4 2 -20 9.5t-21.5 9.5t-18 6t-23.5 5.5t-23 1.5q-54 0 -54 -33q0 -22 31.5 -38.5t76.5 -32.5t89.5 -38.5t76 -68t31.5 -109.5q0 -98 -71 -165.5t-193 -67.5
q-69 0 -134 21.5t-100 48.5z" />
    <glyph glyph-name="scommaaccent" unicode="&#x219;" horiz-adv-x="467" 
d="M144 -83q0 39 58 39h26q75 0 75 -75q0 -58 -27 -88.5t-63 -30.5h-18q-57 0 -57 35q0 13 5.5 34t5.5 34q0 5 -2.5 24t-2.5 28zM51 31q-54 33 -17 91l17 27q16 25 37.5 29.5t52.5 -8.5q55 -22 85 -22t30 20q0 11 -24 18t-58 15t-68 22t-58 48t-24 85q0 84 63.5 129.5
t161.5 45.5q93 0 153 -30q54 -27 24 -88l-14 -28q-4 -8 -6.5 -12.5t-9.5 -12t-15.5 -10t-22.5 -2.5t-31 6q-58 18 -82 18q-28 0 -28 -19q0 -11 24 -17.5t58 -14t68 -21.5t58 -47t24 -83q0 -80 -60 -131t-162 -51q-54 0 -102.5 13.5t-73.5 29.5z" />
    <glyph glyph-name="uni021A" unicode="&#x21a;" horiz-adv-x="631" 
d="M239 -83q0 39 58 39h26q75 0 75 -75q0 -58 -27 -88.5t-63 -30.5h-18q-57 0 -57 35q0 13 5.5 34t5.5 34q0 5 -2.5 24t-2.5 28zM210 65v474h-140q-65 0 -65 65v50q0 65 65 65h491q65 0 65 -65v-50q0 -65 -65 -65h-140v-474q0 -65 -65 -65h-81q-65 0 -65 65z" />
    <glyph glyph-name="uni021B" unicode="&#x21b;" horiz-adv-x="418" 
d="M158 -83q0 39 58 39h26q75 0 75 -75q0 -58 -27 -88.5t-63 -30.5h-18q-57 0 -57 35q0 13 5.5 34t5.5 34q0 5 -2.5 24t-2.5 28zM83 184v163h-6q-64 0 -64 65v31q0 65 64 65h13v85q0 65 65 65h71q66 0 66 -65v-85h36q66 0 66 -65v-31q0 -65 -64 -65h-38v-124q0 -41 43 -47
q38 -6 51 -17t13 -43v-56q0 -35 -21 -50t-64 -15q-31 0 -64.5 7t-74 25t-66.5 58.5t-26 98.5z" />
    <glyph glyph-name="circumflex" unicode="&#x2c6;" horiz-adv-x="480" 
d="M114 764q-33 0 -40.5 22.5t14.5 57.5l24 38q28 43 79 43h98q51 0 79 -43l24 -38q22 -35 14.5 -57.5t-41.5 -22.5h-40q-27 0 -39.5 10t-25.5 35l-19 38h-2l-19 -38q-13 -25 -25.5 -35t-39.5 -10h-41z" />
    <glyph glyph-name="caron" unicode="&#x2c7;" horiz-adv-x="480" 
d="M191 764q-50 0 -79 43l-24 38q-22 34 -14.5 57t40.5 23h41q26 0 38.5 -10t27.5 -36l18 -37h2l18 37q15 26 27.5 36t38.5 10h41q33 0 40.5 -23t-14.5 -57l-24 -38q-29 -43 -79 -43h-98z" />
    <glyph glyph-name="breve" unicode="&#x2d8;" horiz-adv-x="477" 
d="M239 758q-43 0 -85.5 13.5t-75 44.5t-32.5 72q0 27 38 32l42 5q17 2 28.5 -4.5t15.5 -13t9 -19.5q14 -33 59 -33t59 33q5 13 9 19.5t15.5 13t28.5 4.5l42 -5q38 -5 38 -32q0 -61 -61 -95.5t-130 -34.5z" />
    <glyph glyph-name="dotaccent" unicode="&#x2d9;" horiz-adv-x="478" 
d="M220 777q-66 0 -66 65v17q0 66 66 66h38q66 0 66 -66v-17q0 -65 -66 -65h-38z" />
    <glyph glyph-name="ring" unicode="&#x2da;" horiz-adv-x="478" 
d="M238 749q-49 0 -84.5 22.5t-35.5 67.5t36 68t84 23q49 0 85.5 -23t36.5 -68t-36.5 -67.5t-85.5 -22.5zM238 803q16 0 26 9.5t10 26.5t-10 27t-26 10q-15 0 -24.5 -10.5t-9.5 -26.5q0 -17 9 -26.5t25 -9.5z" />
    <glyph glyph-name="ogonek" unicode="&#x2db;" horiz-adv-x="480" 
d="M128 -104q0 58 78 114q40 29 83 20q56 -11 21 -47q-5 -5 -13 -11.5t-11.5 -11t-3.5 -11.5q0 -4 1.5 -6.5t3 -3.5t6.5 -3.5t7 -4.5q23 -16 18 -58l-5 -36q-6 -42 -57 -40q-44 2 -86 30t-42 69z" />
    <glyph glyph-name="tilde" unicode="&#x2dc;" horiz-adv-x="478" 
d="M85 763q-57 0 -57 53q0 44 34.5 78t85.5 34q36 0 64.5 -14t48.5 -28t34 -14q26 0 31 23q3 30 54 30h13q57 0 57 -49q0 -51 -33 -83.5t-86 -32.5q-36 0 -65 14t-48.5 28t-33.5 14q-28 0 -35 -25q-6 -28 -50 -28h-14z" />
    <glyph glyph-name="hungarumlaut" unicode="&#x2dd;" horiz-adv-x="478" 
d="M298 764q-40 0 -48.5 25.5t9.5 53.5l19 35q26 47 77 47h44q42 0 50.5 -25.5t-17.5 -54.5l-35 -42q-32 -39 -79 -39h-20zM66 764q-37 0 -48 20.5t6 56.5l17 36q23 48 77 48h28q38 0 49 -21.5t-7 -56.5l-18 -37q-23 -46 -78 -46h-26z" />
    <glyph glyph-name="uni1E9E" unicode="&#x1e9e;" horiz-adv-x="697" 
d="M48 65v403q0 115 70.5 183t188.5 68h268q66 0 66 -66v-34q0 -52 -22 -81l-86 -118v-2q64 -19 101 -77t37 -117q0 -96 -70.5 -160t-170.5 -64h-39q-65 0 -65 65v50q0 65 63 65h25q40 0 40 44q0 42 -41 42h-11q-65 0 -65 66v41q0 44 19 75l23 36q10 16 20.5 30t16.5 20l6 6
v2q-13 -3 -51 -3h-64q-19 0 -31 -18.5t-12 -47.5v-408q0 -65 -65 -65h-85q-66 0 -66 65z" />
    <glyph glyph-name="thinspace" unicode="&#x2009;" horiz-adv-x="20" 
 />
    <glyph glyph-name="endash" unicode="&#x2013;" horiz-adv-x="697" 
d="M100 211q-66 0 -66 65v24q0 65 66 65h498q65 0 65 -65v-24q0 -65 -65 -65h-498z" />
    <glyph glyph-name="emdash" unicode="&#x2014;" horiz-adv-x="897" 
d="M100 211q-66 0 -66 65v24q0 65 66 65h698q65 0 65 -65v-24q0 -65 -65 -65h-698z" />
    <glyph glyph-name="quoteleft" unicode="&#x2018;" horiz-adv-x="236" 
d="M76 464q-37 0 -51 20t-2 55l51 145q19 52 75 52h16q67 0 52 -71l-29 -143q-12 -58 -72 -58h-40z" />
    <glyph glyph-name="quoteright" unicode="&#x2019;" horiz-adv-x="233" 
d="M76 464q-67 0 -52 71l29 143q12 58 71 58h40q36 0 51 -20.5t3 -54.5l-52 -145q-19 -52 -75 -52h-15z" />
    <glyph glyph-name="quotesinglbase" unicode="&#x201a;" horiz-adv-x="242" 
d="M17 -7l29 143q12 59 71 59h40q37 0 51 -20.5t2 -54.5l-51 -146q-19 -52 -75 -52h-15q-69 0 -52 71z" />
    <glyph glyph-name="quotedblleft" unicode="&#x201c;" horiz-adv-x="459" 
d="M298 464q-37 0 -51 20t-2 55l51 145q19 52 75 52h17q67 0 52 -71l-29 -143q-12 -58 -72 -58h-41zM76 464q-37 0 -51 20t-2 55l51 145q19 52 75 52h17q67 0 52 -71l-29 -143q-12 -58 -71 -58h-42z" />
    <glyph glyph-name="quotedblright" unicode="&#x201d;" horiz-adv-x="456" 
d="M298 464q-67 0 -52 71l29 143q12 58 71 58h42q35 0 50 -20.5t3 -54.5l-52 -145q-19 -52 -75 -52h-16zM76 464q-67 0 -52 71l29 143q12 58 71 58h42q37 0 51 -20.5t2 -54.5l-51 -145q-19 -52 -75 -52h-17z" />
    <glyph glyph-name="quotedblbase" unicode="&#x201e;" horiz-adv-x="465" 
d="M239 -7l29 143q12 59 71 59h41q36 0 51 -20.5t3 -54.5l-52 -146q-19 -52 -75 -52h-16q-69 0 -52 71zM17 -7l29 143q12 59 71 59h41q36 0 51 -20.5t3 -54.5l-52 -146q-19 -52 -75 -52h-16q-69 0 -52 71z" />
    <glyph glyph-name="dagger" unicode="&#x2020;" horiz-adv-x="514" 
d="M158 15v350h-69q-66 0 -66 65v24q0 65 66 65h69v135q0 65 65 65h68q65 0 65 -65v-135h69q66 0 66 -65v-24q0 -65 -66 -65h-69v-350q0 -65 -65 -65h-68q-65 0 -65 65z" />
    <glyph glyph-name="daggerdbl" unicode="&#x2021;" horiz-adv-x="525" 
d="M163 15v125h-69q-65 0 -65 66v23q0 66 65 66h69v70h-69q-65 0 -65 65v24q0 65 65 65h69v135q0 65 66 65h67q66 0 66 -65v-135h69q65 0 65 -65v-24q0 -65 -65 -65h-69v-70h69q65 0 65 -66v-23q0 -66 -65 -66h-69v-125q0 -65 -66 -65h-67q-66 0 -66 65z" />
    <glyph glyph-name="bullet" unicode="&#x2022;" horiz-adv-x="457" 
d="M228 90q-83 0 -141.5 59t-58.5 142t58.5 142t141.5 59t142 -59t59 -142t-59 -142t-142 -59z" />
    <glyph glyph-name="ellipsis" unicode="&#x2026;" horiz-adv-x="958" 
d="M741 65v61q0 65 65 65h54q65 0 65 -65v-61q0 -65 -65 -65h-54q-65 0 -65 65zM387 65v61q0 65 65 65h54q65 0 65 -65v-61q0 -65 -65 -65h-54q-65 0 -65 65zM33 65v61q0 65 65 65h54q65 0 65 -65v-61q0 -65 -65 -65h-54q-65 0 -65 65z" />
    <glyph glyph-name="perthousand" unicode="&#x2030;" horiz-adv-x="1321" 
d="M222 363q-82 0 -138.5 53.5t-56.5 129.5t57 130.5t138 54.5t137.5 -54t56.5 -131q0 -76 -56.5 -129.5t-137.5 -53.5zM140 80l467 600q30 39 79 39h28q42 0 54 -23.5t-14 -55.5l-467 -601q-30 -39 -79 -39h-29q-41 0 -52.5 23.5t13.5 56.5zM222 505q18 0 32 12t14 30
t-14 30t-32 12q-19 0 -32.5 -12.5t-13.5 -29.5t13.5 -29.5t32.5 -12.5zM909 170q0 76 56.5 131t137.5 55t138 -55t57 -131t-57 -129t-138 -53t-137.5 53t-56.5 129zM484 171q0 76 57 130.5t138 54.5t138 -54.5t57 -130.5t-57 -129.5t-138 -53.5q-82 0 -138.5 53.5
t-56.5 129.5zM1057 172q0 -18 14 -30t32 -12q19 0 32.5 12.5t13.5 29.5t-13.5 29.5t-32.5 12.5q-18 0 -32 -12t-14 -30zM633 172q0 -18 14 -30t32 -12q19 0 32.5 12.5t13.5 29.5t-13.5 29.5t-32.5 12.5q-18 0 -32 -12t-14 -30z" />
    <glyph glyph-name="guilsinglleft" unicode="&#x2039;" horiz-adv-x="349" 
d="M144 115l-96 121q-37 46 0 92l96 122q31 38 80 38h36q41 0 52.5 -24t-14.5 -56l-100 -126l100 -125q26 -32 17 -56t-47 -24h-44q-49 0 -80 38z" />
    <glyph glyph-name="guilsinglright" unicode="&#x203a;" horiz-adv-x="350" 
d="M90 77q-42 0 -53 24t15 56l100 125l-100 126q-27 32 -18 56t47 24h45q48 0 79 -38l97 -122q36 -46 0 -92l-97 -121q-31 -38 -79 -38h-36z" />
    <glyph glyph-name="fraction" unicode="&#x2044;" horiz-adv-x="184" 
d="M17 49q-23 -49 -76 -49h-20q-30 0 -38.5 21t7.5 56l278 593q23 49 76 49h20q30 0 38.5 -21.5t-7.5 -55.5z" />
    <glyph glyph-name="zerosuperior" unicode="&#x2070;" horiz-adv-x="402" 
d="M201 413q-176 0 -176 232q0 231 176 231t176 -231q0 -232 -176 -232zM201 549q25 0 25 96q0 93 -25 93t-25 -93q0 -96 25 -96z" />
    <glyph glyph-name="foursuperior" unicode="&#x2074;" horiz-adv-x="418" 
d="M265 423q-65 0 -65 65v13h-127q-65 0 -65 50v16q0 31 23 71l107 185q25 43 78 43h66q65 0 65 -65v-184q30 0 43 -13t13 -40v-7q0 -56 -56 -56v-13q0 -65 -65 -65h-17zM138 617h62v85l4 45h-2q-9 -29 -17 -44l-47 -84v-2z" />
    <glyph glyph-name="fivesuperior" unicode="&#x2075;" horiz-adv-x="378" 
d="M180 413q-67 0 -121 27q-50 27 -17 89l3 5q14 26 33 29t46 -9q21 -7 44 -7q15 0 28 8.5t13 23.5q0 33 -56 33q-9 0 -28.5 -2.5t-26.5 -2.5q-19 0 -34 7q-37 15 -33 71l8 119q5 62 68 62h154q66 0 66 -60v-5q0 -61 -66 -61h-96l-3 -32l2 -1q16 3 39 3q71 0 114 -38.5
t43 -94.5q0 -65 -46.5 -114.5t-133.5 -49.5z" />
    <glyph glyph-name="sixsuperior" unicode="&#x2076;" horiz-adv-x="392" 
d="M211 413q-77 0 -134.5 52t-57.5 157t59.5 179.5t166.5 74.5q33 0 54 -7q31 -10 39 -34t-3 -45l-2 -5q-22 -56 -62 -46q-18 4 -29 4q-52 0 -70 -53l2 -1q20 15 62 15q27 0 56 -9.5t55.5 -40t26.5 -76.5q0 -71 -44.5 -118t-118.5 -47zM209 544q21 0 21 28q0 47 -46 47
q-12 0 -15.5 -4t-3.5 -13q0 -25 14 -41.5t30 -16.5z" />
    <glyph glyph-name="sevensuperior" unicode="&#x2077;" horiz-adv-x="367" 
d="M95 423q-39 0 -52 22.5t7 56.5l131 222l10 13v2q-16 -2 -23 -2h-91q-65 0 -65 62v7q0 60 65 60h218q66 0 66 -50v-12q0 -40 -22 -77l-147 -259q-26 -45 -77 -45h-20z" />
    <glyph glyph-name="eightsuperior" unicode="&#x2078;" horiz-adv-x="404" 
d="M204 413q-74 0 -128.5 37t-54.5 98q0 59 64 108q-43 35 -43 88q0 63 48 97.5t113 34.5q68 0 118 -36.5t50 -91.5q0 -44 -50 -100q60 -36 60 -100q0 -65 -53 -100t-124 -35zM226 692q13 23 13 38q0 31 -35 31q-25 0 -25 -25q0 -26 47 -44zM201 528q35 0 35 28q0 23 -61 48
q-16 -16 -16 -39q0 -37 42 -37z" />
    <glyph glyph-name="ninesuperior" unicode="&#x2079;" horiz-adv-x="392" 
d="M181 876q77 0 134.5 -52t57.5 -157t-59.5 -179.5t-166.5 -74.5q-33 0 -54 7q-31 10 -39 34t3 45l2 5q22 56 62 46q18 -4 29 -4q52 0 70 53l-2 1q-20 -15 -62 -15q-27 0 -56 9.5t-55.5 40t-26.5 76.5q0 71 44.5 118t118.5 47zM183 745q-21 0 -21 -28q0 -47 46 -47
q12 0 15.5 4t3.5 13q0 25 -14 41.5t-30 16.5z" />
    <glyph glyph-name="zeroinferior" unicode="&#x2080;" horiz-adv-x="402" 
d="M201 -167q-176 0 -176 232q0 231 176 231t176 -231q0 -232 -176 -232zM201 -31q25 0 25 96q0 93 -25 93t-25 -93q0 -96 25 -96z" />
    <glyph glyph-name="oneinferior" unicode="&#x2081;" horiz-adv-x="354" 
d="M88 -157q-65 0 -65 60v7q0 61 52 61h35v93l3 35h-2q-3 -4 -5 -6q-8 -8 -22 -6.5t-25 12.5l-20 20q-42 42 9 89l50 46q35 32 81 32h15q66 0 66 -65v-250h24q65 0 65 -61v-7q0 -60 -65 -60h-196z" />
    <glyph glyph-name="twoinferior" unicode="&#x2082;" horiz-adv-x="390" 
d="M82 -157q-35 0 -50 17t-15 53q0 43 20 78t48 56t56.5 37.5t48.5 31.5t20 29q0 20 -27 20q-13 0 -27 -8q-20 -11 -34.5 -16t-29.5 -2t-27 16l-8 9q-42 49 -2 84q57 48 132 48q66 0 120 -36t54 -106q0 -45 -26 -80t-57 -51.5t-60 -30.5t-33 -21h116q65 0 65 -61v-7
q0 -60 -65 -60h-219z" />
    <glyph glyph-name="threeinferior" unicode="&#x2083;" horiz-adv-x="370" 
d="M166 -166q-70 0 -119 30q-30 17 -30 44q0 19 13 39l5 9q19 30 43 30q11 0 32.5 -8.5t45.5 -8.5q40 0 40 27q0 25 -41 25h-4q-41 0 -56 26q-5 10 -5 22q0 19 31 52l13 14l30 24v2q-27 -3 -38 -3h-35q-65 0 -65 62v7q0 60 65 60h174q65 0 65 -46v-8q0 -44 -31 -74l-54 -50
q102 -29 102 -115q0 -64 -47 -112t-134 -48z" />
    <glyph glyph-name="fourinferior" unicode="&#x2084;" horiz-adv-x="418" 
d="M265 -157q-65 0 -65 65v13h-127q-65 0 -65 50v16q0 31 23 71l107 185q25 43 78 43h66q65 0 65 -65v-184q30 0 43 -13t13 -40v-7q0 -56 -56 -56v-13q0 -65 -65 -65h-17zM138 37h62v85l4 45h-2q-9 -29 -17 -44l-47 -84v-2z" />
    <glyph glyph-name="fiveinferior" unicode="&#x2085;" horiz-adv-x="378" 
d="M180 -167q-67 0 -121 27q-50 27 -17 89l3 5q14 26 33 29t46 -9q21 -7 44 -7q15 0 28 8.5t13 23.5q0 33 -56 33q-9 0 -28.5 -2.5t-26.5 -2.5q-19 0 -34 7q-37 15 -33 71l8 119q5 62 68 62h154q66 0 66 -60v-5q0 -61 -66 -61h-96l-3 -32l2 -1q16 3 39 3q71 0 114 -38.5
t43 -94.5q0 -65 -46.5 -114.5t-133.5 -49.5z" />
    <glyph glyph-name="sixinferior" unicode="&#x2086;" horiz-adv-x="392" 
d="M211 -167q-77 0 -134.5 52t-57.5 157t59.5 179.5t166.5 74.5q33 0 54 -7q31 -10 39 -34t-3 -45l-2 -5q-22 -56 -62 -46q-18 4 -29 4q-52 0 -70 -53l2 -1q20 15 62 15q27 0 56 -9.5t55.5 -40t26.5 -76.5q0 -71 -44.5 -118t-118.5 -47zM209 -36q21 0 21 28q0 47 -46 47
q-12 0 -15.5 -4t-3.5 -13q0 -25 14 -41.5t30 -16.5z" />
    <glyph glyph-name="seveninferior" unicode="&#x2087;" horiz-adv-x="367" 
d="M95 -156q-39 0 -52 22t7 57l131 222l10 13v2q-16 -2 -23 -2h-91q-65 0 -65 62v7q0 60 65 60h218q66 0 66 -50v-12q0 -40 -22 -77l-147 -259q-26 -45 -77 -45h-20z" />
    <glyph glyph-name="eightinferior" unicode="&#x2088;" horiz-adv-x="404" 
d="M204 -167q-74 0 -128.5 37t-54.5 98q0 59 64 108q-43 35 -43 88q0 63 48 97.5t113 34.5q68 0 118 -36.5t50 -91.5q0 -44 -50 -100q60 -36 60 -100q0 -65 -53 -100t-124 -35zM226 112q13 23 13 38q0 31 -35 31q-25 0 -25 -25q0 -26 47 -44zM201 -52q35 0 35 28
q0 23 -61 48q-16 -16 -16 -39q0 -37 42 -37z" />
    <glyph glyph-name="nineinferior" unicode="&#x2089;" horiz-adv-x="392" 
d="M181 296q77 0 134.5 -52t57.5 -157t-59.5 -179.5t-166.5 -74.5q-33 0 -54 7q-31 10 -39 34t3 45l2 5q22 56 62 46q18 -4 29 -4q52 0 70 53l-2 1q-20 -15 -62 -15q-27 0 -56 9.5t-55.5 40t-26.5 76.5q0 71 44.5 118t118.5 47zM183 165q-21 0 -21 -28q0 -47 46 -47
q12 0 15.5 4t3.5 13q0 25 -14 41.5t-30 16.5z" />
    <glyph glyph-name="Euro" unicode="&#x20ac;" horiz-adv-x="611" 
d="M85 227q-59 0 -59 56q0 55 58 55q-2 25 -1 37q-57 0 -57 56t61 56h15q37 109 132.5 176.5t218.5 67.5q29 0 57 -3q33 -4 46 -25t4 -53l-17 -64q-15 -52 -53 -52q-3 0 -16.5 1t-26.5 1q-76 0 -118 -49h112q39 0 53 -13.5t9 -42.5q-5 -30 -21 -43t-50 -13h-130
q-1 -18 3 -37h104q39 0 53 -13.5t9 -41.5q-6 -31 -21 -43.5t-50 -12.5h-56q48 -41 113 -41q7 0 22.5 1.5t26.5 1.5q52 0 59 -53l13 -65q13 -66 -51 -77q-33 -6 -74 -6q-126 0 -217.5 64.5t-129.5 174.5h-21z" />
    <glyph glyph-name="trademark" unicode="&#x2122;" horiz-adv-x="999" 
d="M471 337l25 319q4 63 68 63h23q58 0 76 -50l37 -99l13 -45h2q7 31 12 45l38 99q20 50 76 50h22q63 0 68 -63l23 -319q5 -68 -63 -68h-20q-65 0 -67 63l-1 69l1 48h-2l-16 -48q-17 -51 -69 -51h-6q-53 0 -70 51l-15 48h-2l1 -48l-3 -69q-3 -63 -68 -63h-21q-32 0 -48 17.5
t-14 50.5zM234 269q-65 0 -65 65v257h-72q-65 0 -65 61v7q0 60 65 60h290q66 0 66 -60v-7q0 -61 -66 -61h-69v-257q0 -65 -65 -65h-19z" />
    <glyph glyph-name="minus" unicode="&#x2212;" horiz-adv-x="638" 
d="M105 211q-66 0 -66 65v24q0 65 66 65h429q65 0 65 -65v-24q0 -65 -65 -65h-429z" />
    <glyph glyph-name="infinity" unicode="&#x221e;" horiz-adv-x="513" 
d="M257 132q-89 0 -153 64t-64 153q0 90 63.5 153t153.5 63t153 -63t63 -153t-63 -153.5t-153 -63.5z" />
    <glyph glyph-name="approxequal" unicode="&#x2248;" horiz-adv-x="638" 
d="M84 380l-6 9q-34 54 14 90q63 46 127 46q50 0 107.5 -35t90.5 -35q24 0 45 10q59 34 89 -14l5 -9q36 -55 -13 -90q-63 -46 -126 -46q-50 0 -107.5 35t-90.5 35q-25 0 -46 -11q-58 -35 -89 15zM84 132l-6 9q-34 56 14 90q63 46 127 46q50 0 107.5 -35t90.5 -35q20 0 45 10
q28 18 50.5 15.5t38.5 -29.5l5 -9q35 -54 -13 -90q-63 -46 -126 -46q-50 0 -107.5 35t-90.5 35q-25 0 -46 -11q-58 -35 -89 15z" />
    <glyph glyph-name="notequal" unicode="&#x2260;" horiz-adv-x="638" 
d="M152 9q-42 25 -12 77h-15q-66 0 -66 66v23q0 66 66 66h109l57 94h-166q-66 0 -66 66v24q0 65 66 65h265l29 50q31 55 78 28q42 -24 22 -62l-8 -16q68 0 68 -65v-24q0 -66 -65 -66h-100l-56 -94h156q65 0 65 -66v-23q0 -66 -65 -66h-254l-28 -50q-15 -27 -37 -34t-43 7z
" />
    <glyph glyph-name="lessequal" unicode="&#x2264;" horiz-adv-x="638" 
d="M99 204q-26 11 -38 28t-12 48v17q0 31 12 48t38 28l396 175q34 15 55 1.5t21 -50.5v-34q0 -53 -52 -74l-266 -102v-2l266 -100q52 -20 52 -75v-33q0 -38 -22 -51.5t-54 1.5zM118 -58h387q66 0 66 -66v-23q0 -66 -66 -66h-387q-65 0 -65 66v23q0 66 65 66z" />
    <glyph glyph-name="greaterequal" unicode="&#x2265;" horiz-adv-x="638" 
d="M67 79v33q0 56 51 75l266 100v2l-266 102q-51 20 -51 74v34q0 37 20.5 50.5t55.5 -0.5l395 -176q26 -11 38 -28t12 -48v-17q0 -31 -12 -48t-38 -28l-395 -174q-35 -15 -55.5 -1.5t-20.5 50.5zM133 -58h388q65 0 65 -66v-23q0 -66 -65 -66h-388q-65 0 -65 66v23
q0 66 65 66z" />
    <glyph glyph-name="commaaccent" unicode="&#xf6c3;" horiz-adv-x="335" 
d="M105 -83q0 39 58 39h26q75 0 75 -75q0 -58 -27 -88.5t-63 -30.5h-18q-57 0 -57 35q0 13 5.5 34t5.5 34q0 5 -2.5 24t-2.5 28z" />
    <glyph glyph-name="apple" unicode="&#xf8ff;" horiz-adv-x="1130" 
d="M168 -5v152l-126 72v278l126 71v151l265 142l134 -71l132 71l265 -142v-151l124 -71v-278l-124 -72v-152l-265 -141l-132 71l-134 -71zM208 30l238 -126l121 66l118 -66l238 126v139l114 64v249l-114 66v136l-238 126l-118 -64l-121 64l-238 -126v-136l-114 -66v-249
l114 -64v-139zM242 64v121l-99 60v225l99 58v123l215 114l110 -59l107 59l214 -114v-123l100 -58v-225l-100 -60v-121l-214 -114l-107 58l-110 -58zM420 91h153v155h162v127h-162v111h49q17 0 17 -14v-21h135v116q0 24 -9.5 34.5t-34.5 10.5h-353v-126h43v-393z" />
    <glyph glyph-name="zero.tnum" 
d="M306 -12q-76 0 -131.5 29t-86.5 81.5t-45.5 117.5t-14.5 145q0 81 14.5 145.5t46 116t86.5 80t131 28.5t131.5 -28t86.5 -80t45.5 -116.5t14.5 -145.5t-14.5 -145.5t-45.5 -117t-86.5 -81.5t-131.5 -29zM306 180q62 0 62 181q0 178 -62 178q-61 0 -61 -178
q0 -181 61 -181z" />
    <glyph glyph-name="one.tnum" 
d="M66 65v50q0 65 65 65h85v224l3 59h-2q-10 -15 -16 -21q-18 -19 -42.5 -18t-45.5 24l-31 35q-46 46 3 92l122 112q35 32 81 32h68q66 0 66 -65v-474h87q65 0 65 -65v-50q0 -65 -65 -65h-378q-65 0 -65 65z" />
    <glyph glyph-name="two.tnum" 
d="M42 65v23q0 75 30 136.5t72.5 99t85.5 66t73 51.5t30 42q0 27 -17 38.5t-36 11.5q-31 0 -54 -22q-50 -48 -92 -14l-49 39q-52 41 -16 88q81 107 231 107q44 0 87 -12.5t81.5 -38t62 -71t23.5 -104.5q0 -52 -20 -96t-49.5 -72.5t-65 -53.5t-66.5 -41t-53 -32.5t-24 -29.5
h223q66 0 66 -65v-50q0 -65 -66 -65h-388q-31 0 -50 17t-19 48z" />
    <glyph glyph-name="three.tnum" 
d="M76 42q-48 35 -15 91l32 53q31 53 89 18q42 -18 82 -18q82 0 82 47q0 52 -91 52h-27q-47 0 -70 45l-6 11q-20 39 16 85l32 40q17 21 34.5 40.5t26.5 27.5l9 9v2q-24 -6 -72 -6h-74q-65 0 -65 65v50q0 65 65 65h334q65 0 65 -65v-19q0 -46 -29 -81l-100 -115
q80 -21 122 -77t42 -122q0 -102 -70.5 -177t-206.5 -75q-117 0 -205 54z" />
    <glyph glyph-name="four.tnum" 
d="M64 166q-65 0 -65 65v18q0 41 23 80l202 347q25 43 78 43h145q65 0 65 -65v-315h15q65 0 65 -65v-43q0 -65 -64 -65h-16v-101q0 -65 -65 -65h-78q-65 0 -65 65v101h-240zM209 339h95v115q0 19 2 40t4 32l1 12h-2q-17 -48 -35 -81l-65 -116v-2z" />
    <glyph glyph-name="five.tnum" 
d="M83 43q-50 33 -17 89l33 54q30 53 89 19q43 -19 85 -19q28 0 51.5 15.5t23.5 47.5q0 31 -25 48t-66 17q-23 0 -42 -4q-56 -14 -88 -1l-13 5q-53 21 -49 77l17 265q4 63 68 63h292q65 0 65 -65v-50q0 -65 -65 -65h-172l-2 -32l-3 -27h2q21 3 36 3q129 0 195.5 -65.5
t66.5 -166.5q0 -116 -75.5 -189.5t-197.5 -73.5q-123 0 -209 55z" />
    <glyph glyph-name="six.tnum" 
d="M30 327q0 168 96.5 286t259.5 118q66 0 105 -11q61 -18 41 -82l-18 -57q-10 -33 -26.5 -40.5t-48.5 -4.5q-26 3 -38 3q-52 0 -83.5 -19.5t-51.5 -61.5h2q36 19 92 19q103 0 163.5 -69t60.5 -159q0 -98 -67.5 -179.5t-184.5 -81.5q-55 0 -107 20t-96.5 59.5t-71.5 107
t-27 152.5zM246 277q0 -42 25 -72t56 -30q23 0 37 17t14 45q0 12 -3 23t-11.5 24.5t-28 21.5t-48.5 8q-22 0 -31.5 -7.5t-9.5 -29.5z" />
    <glyph glyph-name="seven.tnum" 
d="M104 77l203 398q12 24 22.5 40t15.5 21l5 4v2q-12 -3 -38 -3h-202q-66 0 -66 65v50q0 65 66 65h401q65 0 65 -66v-38q0 -43 -19 -81l-248 -486q-24 -48 -77 -48h-81q-38 0 -51 21.5t4 55.5z" />
    <glyph glyph-name="eight.tnum" 
d="M28 204q0 97 103 174q-75 59 -75 140q0 86 64 149.5t182 63.5q110 0 185 -55.5t75 -147.5q0 -83 -75 -163q95 -59 95 -156q0 -88 -71.5 -154.5t-204.5 -66.5t-205.5 66.5t-72.5 149.5zM341 438q23 30 23 59q0 59 -58 59q-50 0 -50 -43q0 -25 19.5 -41.5t65.5 -33.5z
M234 234q0 -32 18.5 -51.5t54.5 -19.5q31 0 47.5 15t16.5 39q0 21 -21.5 37t-88.5 43q-27 -27 -27 -63z" />
    <glyph glyph-name="nine.tnum" 
d="M28 470q0 98 67.5 179.5t184.5 81.5q55 0 107 -20t96.5 -59.5t71.5 -107t27 -152.5q0 -168 -96.5 -286t-259.5 -118q-66 0 -105 11q-61 18 -41 82l18 57q11 33 27 41t48 4q25 -3 38 -3q52 0 83.5 19.5t51.5 61.5h-2q-36 -19 -92 -19q-103 0 -163.5 69t-60.5 159zM234 482
q0 -12 3 -23t11.5 -24.5t28 -21.5t48.5 -8q22 0 31.5 7.5t9.5 29.5q0 42 -25 72t-56 30q-23 0 -37 -17t-14 -45z" />
    <glyph glyph-name="hyphen.case" horiz-adv-x="392" 
d="M99 256q-65 0 -65 66v49q0 65 65 65h194q65 0 65 -65v-49q0 -66 -65 -66h-194z" />
    <glyph glyph-name="parenleft.case" horiz-adv-x="314" 
d="M130 -26q-105 185 -105 406q0 188 100 363q25 44 79 44h29q39 0 51.5 -21.5t-4.5 -55.5q-72 -161 -72 -329q0 -183 77 -369q15 -34 2 -55.5t-50 -21.5h-33q-52 0 -74 39z" />
    <glyph glyph-name="parenright.case" horiz-adv-x="313" 
d="M31 16q74 187 74 365q0 171 -72 329q-17 34 -5.5 55.5t48.5 21.5h33q54 0 79 -44q100 -172 100 -363q0 -221 -101 -401q-26 -44 -77 -44h-33q-38 0 -50 22t4 59z" />
    <glyph glyph-name="bracketleft.case" horiz-adv-x="347" 
d="M47 0v721q0 66 66 66h153q65 0 65 -66v-11q0 -65 -60 -65h-52v-568h47q65 0 65 -66v-11q0 -65 -65 -65h-153q-66 0 -66 65z" />
    <glyph glyph-name="bracketright.case" horiz-adv-x="347" 
d="M16 11q0 66 66 66h46v568h-46q-66 0 -66 65v11q0 66 66 66h152q66 0 66 -66v-721q0 -65 -66 -65h-152q-66 0 -66 65v11z" />
    <glyph glyph-name="braceleft.case" horiz-adv-x="391" 
d="M100 85v99q0 50 -31 74q-20 12 -29.5 19.5t-17 20.5t-7.5 31v69q0 26 12 40t40 32q33 21 33 77v90q0 44 20 76.5t50.5 48.5t59 23.5t52.5 7.5h21q66 0 66 -65v-24q0 -65 -66 -65q-31 0 -31 -29v-117q0 -29 -9 -52.5t-21.5 -37t-25 -22.5t-21.5 -12l-9 -3v-2l9 -3t21 -11
t26 -21.5t20.5 -36.5t9.5 -54v-126q0 -29 31 -29q66 0 66 -65v-24q0 -65 -66 -65h-21q-24 0 -52.5 7.5t-59 23.5t-50.5 48.5t-20 76.5z" />
    <glyph glyph-name="braceright.case" horiz-adv-x="390" 
d="M22 18q0 65 65 65q32 0 32 29v126q0 47 21.5 78.5t42.5 39.5l21 8v2l-9 3t-20.5 12t-26 23t-20.5 36.5t-9 52.5v117q0 29 -32 29q-65 0 -65 65v24q0 65 65 65h22q24 0 52.5 -7.5t58.5 -23.5t50 -48.5t20 -76.5v-90q0 -56 33 -77q19 -12 28.5 -19.5t16.5 -21t7 -31.5v-69
q0 -18 -8 -31.5t-16 -19.5t-29 -20q-32 -21 -32 -74v-99q0 -44 -20 -76.5t-50 -48.5t-58.5 -23.5t-52.5 -7.5h-22q-65 0 -65 65v24z" />
    <glyph glyph-name="at.case" horiz-adv-x="813" 
d="M14 356q0 163 115.5 271t304.5 108q152 0 227 -71.5t75 -185.5v-159h10q65 0 65 -65v-10q0 -65 -65 -65h-223q-113 0 -174.5 53.5t-61.5 124.5q0 70 60 120.5t176 50.5h22q0 24 -36.5 37.5t-71.5 13.5q-104 0 -167 -70t-63 -159q0 -73 47.5 -128t136.5 -77
q14 -3 22.5 -6.5t19.5 -10.5t16 -20t5 -31v-25q0 -36 -17.5 -49.5t-50.5 -12.5q-40 1 -86.5 13.5t-98 41.5t-92.5 69.5t-68 103.5t-27 138zM487 362q0 -18 12.5 -30.5t35.5 -12.5h10v87h-8q-25 0 -37.5 -12.5t-12.5 -31.5z" />
    <glyph glyph-name="guillemotleft.case" horiz-adv-x="636" 
d="M335 296q-37 46 0 92l96 122q32 38 80 38h36q41 0 52.5 -24t-14.5 -56l-100 -126l100 -125q26 -32 17 -56t-47 -24h-44q-48 0 -80 38zM144 175l-96 121q-37 46 0 92l96 122q31 38 80 38h36q41 0 52.5 -24t-14.5 -56l-100 -126l100 -125q26 -32 17 -56t-47 -24h-44
q-49 0 -80 38z" />
    <glyph glyph-name="guillemotright.case" horiz-adv-x="637" 
d="M338 217l100 125l-100 126q-26 32 -17.5 56t46.5 24h45q49 0 80 -38l96 -122q37 -46 0 -92l-96 -121q-31 -38 -80 -38h-36q-41 0 -52.5 24t14.5 56zM89 137q-42 0 -53 24t15 56l100 125l-100 126q-27 32 -18 56t47 24h45q48 0 80 -38l96 -122q37 -46 0 -92l-96 -121
q-32 -38 -80 -38h-36z" />
    <glyph glyph-name="guilsinglleft.case" horiz-adv-x="349" 
d="M144 175l-96 121q-37 46 0 92l96 122q31 38 80 38h36q41 0 52.5 -24t-14.5 -56l-100 -126l100 -125q26 -32 17 -56t-47 -24h-44q-49 0 -80 38z" />
    <glyph glyph-name="guilsinglright.case" horiz-adv-x="350" 
d="M89 137q-42 0 -53 24t15 56l100 125l-100 126q-27 32 -18 56t47 24h45q48 0 80 -38l96 -122q37 -46 0 -92l-96 -121q-32 -38 -80 -38h-36z" />
    <glyph glyph-name="endash.case" horiz-adv-x="695" 
d="M99 271q-66 0 -66 65v24q0 65 66 65h498q65 0 65 -65v-24q0 -65 -65 -65h-498z" />
    <glyph glyph-name="emdash.case" horiz-adv-x="895" 
d="M98 271q-65 0 -65 65v24q0 65 65 65h698q66 0 66 -65v-24q0 -65 -66 -65h-698z" />
    <glyph glyph-name="periodcentered.case" horiz-adv-x="255" 
d="M100 248q-65 0 -65 66v62q0 65 65 65h55q65 0 65 -65v-62q0 -66 -65 -66h-55z" />
    <glyph glyph-name="questiondown.case" horiz-adv-x="453" 
d="M307 485q65 0 65 -65v-5q0 -30 -23.5 -61t-52 -52t-52 -45.5t-23.5 -44.5q0 -19 13.5 -29.5t33.5 -10.5q18 0 39 9q66 32 97 -15l30 -44q36 -55 -11 -86q-81 -52 -174 -52q-59 0 -113 21t-92.5 69t-38.5 113q0 51 23 93t51 64.5t56.5 48t36.5 43.5l3 8q7 24 20.5 32.5
t41.5 8.5h70zM365 654v-44q0 -65 -65 -65h-55q-65 0 -65 65v44q0 65 65 65h55q65 0 65 -65z" />
    <glyph glyph-name="exclamdown.case" horiz-adv-x="288" 
d="M168 485q63 0 66 -64l16 -354q2 -29 -15.5 -48t-48.5 -19h-84q-30 0 -47.5 17.5t-16.5 49.5l15 354q3 64 66 64h49zM236 654v-44q0 -65 -65 -65h-54q-66 0 -66 65v44q0 65 66 65h54q65 0 65 -65z" />
    <glyph glyph-name="bullet.case" horiz-adv-x="457" 
d="M228 156q-83 0 -141.5 59t-58.5 142t58.5 142t141.5 59t142 -59t59 -142t-59 -142t-142 -59z" />
    <glyph glyph-name="zero.p_osf" horiz-adv-x="593" 
d="M34 281q0 56 14.5 106t45 92.5t83 67t121.5 24.5t121 -25t81.5 -67.5t44 -93t14.5 -107.5q0 -79 -24.5 -142t-85 -105.5t-151.5 -42.5q-69 0 -121.5 24.5t-82.5 67t-45 93.5t-15 108zM244 280q0 -56 10.5 -88t43.5 -32q32 0 42.5 31.5t10.5 86.5q0 36 -3 59.5t-15.5 42.5
t-34.5 19q-33 0 -43.5 -32t-10.5 -87z" />
    <glyph glyph-name="one.p_osf" horiz-adv-x="517" 
d="M37 65v44q0 65 65 65h78v105l2 71h-2q-26 -34 -65 -34q-30 0 -51 32l-23 34q-37 54 20 90l103 65q36 22 81 22h66q66 0 66 -65v-320h67q65 0 65 -65v-44q0 -65 -65 -65h-342q-65 0 -65 65z" />
    <glyph glyph-name="two.p_osf" horiz-adv-x="556" 
d="M32 65v21q0 51 45 77q37 22 78 50t85 71.5t44 71.5q0 20 -14 29t-29 9q-34 0 -76 -25q-55 -39 -90 9l-26 33q-43 52 8 91q92 69 213 69q37 0 73.5 -9t71.5 -28.5t57 -57t22 -86.5q0 -75 -56.5 -136.5t-110.5 -83.5v-2q24 6 71 6h57q65 0 65 -65v-44q0 -65 -65 -65h-357
q-66 0 -66 65z" />
    <glyph glyph-name="three.p_osf" horiz-adv-x="537" 
d="M48 46q17 29 40.5 32t49.5 -12q44 -22 87 -22q41 0 61.5 17t20.5 40q0 58 -97 58h-24q-53 0 -75 46t12 87l37 45q12 16 26.5 28.5t23.5 17.5l8 5v1q-34 -5 -82 -5h-41q-65 0 -65 65v45q0 65 65 65h316q66 0 66 -58v-13q0 -48 -31 -80l-108 -111q83 -19 130.5 -72
t47.5 -123q0 -42 -17 -81.5t-50 -73.5t-88.5 -54.5t-124.5 -20.5q-60 0 -112 14t-81 34q-49 35 -16 91z" />
    <glyph glyph-name="four.p_osf" 
d="M10 84v23q0 34 23 75l184 333q24 44 77 44h157q65 0 65 -65v-302h12q65 0 65 -65v-44q0 -65 -65 -65h-12v-69q0 -65 -65 -65h-78q-66 0 -66 65v69h-231q-66 0 -66 66zM216 192h91v116l7 85h-2q-18 -46 -35 -80z" />
    <glyph glyph-name="five.p_osf" horiz-adv-x="545" 
d="M37 6l20 36q28 54 89 20q44 -21 87 -21q32 0 58 16.5t26 50.5q0 33 -23 50.5t-64 17.5q-16 0 -46 -5t-46.5 -5.5t-47.5 8.5l-12 5q-47 20 -43 75l17 242q4 63 67 63h276q66 0 66 -65v-45q0 -65 -66 -65h-162l-7 -58h2q23 3 38 3q128 0 194.5 -63.5t66.5 -152.5
q0 -110 -76.5 -177t-199.5 -67q-109 0 -195 48q-52 31 -19 89z" />
    <glyph glyph-name="six.p_osf" horiz-adv-x="596" 
d="M29 305q0 102 38 187.5t117 140t184 54.5q56 0 107 -11q62 -14 40 -81l-13 -39q-11 -32 -28.5 -39.5t-47.5 -4.5q-25 3 -44 3q-89 0 -129 -85h2q46 23 107 23q90 0 149 -68.5t59 -155.5q0 -91 -65.5 -166t-182.5 -75q-54 0 -104.5 18t-93.5 54.5t-69 99.5t-26 145z
M241 258q0 -38 21 -68.5t52 -30.5q22 0 35.5 16t13.5 44q0 31 -19.5 53.5t-66.5 22.5q-19 0 -27.5 -7t-8.5 -30z" />
    <glyph glyph-name="seven.p_osf" horiz-adv-x="535" 
d="M73 -39l187 364q11 21 20.5 36.5t13.5 20.5l5 5v2q-19 -4 -37 -4h-188q-66 0 -66 66v43q0 65 66 65h391q65 0 65 -66v-29q0 -42 -20 -82l-235 -450q-24 -48 -77 -48h-78q-38 0 -51 21.5t4 55.5z" />
    <glyph glyph-name="eight.p_osf" horiz-adv-x="595" 
d="M26 194q0 34 17 67t34.5 51t47.5 44q-66 49 -66 129q0 82 62 141.5t176 59.5q109 0 179.5 -55t70.5 -140q0 -21 -4.5 -41.5t-13 -38t-15.5 -29.5t-17.5 -27t-12.5 -18q82 -50 82 -139q0 -84 -70 -147t-199 -63q-130 0 -200.5 63.5t-70.5 142.5zM339 408q15 18 15 53
q0 57 -55 57q-47 0 -47 -36q0 -43 87 -74zM226 221q0 -26 18.5 -45.5t54.5 -19.5q31 0 46.5 12.5t15.5 30.5q0 20 -22.5 36t-84.5 42q-28 -23 -28 -56z" />
    <glyph glyph-name="nine.p_osf" horiz-adv-x="600" 
d="M569 254q0 -102 -38 -187.5t-117 -140t-184 -54.5q-56 0 -107 11q-62 14 -40 81l13 39q11 32 28.5 39.5t47.5 4.5q26 -3 44 -3q90 0 129 85h-2q-46 -23 -107 -23q-90 0 -149 68.5t-59 155.5q0 91 65.5 166t182.5 75q54 0 104.5 -18t93.5 -54.5t69 -99.5t26 -145zM357 301
q0 38 -21 68.5t-52 30.5q-22 0 -35.5 -16t-13.5 -44q0 -31 19.5 -53.5t66.5 -22.5q19 0 27.5 7t8.5 30z" />
    <glyph glyph-name="zero.t_osf" 
d="M43 281q0 56 14.5 106t45 92.5t83 67t121.5 24.5t121 -25t81.5 -67.5t44 -93t14.5 -107.5q0 -79 -24.5 -142t-85 -105.5t-151.5 -42.5q-69 0 -121.5 24.5t-82.5 67t-45 93.5t-15 108zM253 280q0 -56 10.5 -88t43.5 -32q32 0 42.5 31.5t10.5 86.5q0 36 -3 59.5t-15.5 42.5
t-34.5 19q-33 0 -43.5 -32t-10.5 -87z" />
    <glyph glyph-name="one.t_osf" 
d="M83 65v44q0 65 65 65h78v105l2 71h-2q-26 -34 -65 -34q-30 0 -51 32l-23 34q-37 54 20 90l103 65q36 22 81 22h66q66 0 66 -65v-320h67q65 0 65 -65v-44q0 -65 -65 -65h-342q-65 0 -65 65z" />
    <glyph glyph-name="two.t_osf" 
d="M59 65v21q0 51 45 77q37 22 78 50t85 71.5t44 71.5q0 20 -14 29t-29 9q-34 0 -76 -25q-55 -39 -90 9l-26 33q-43 52 8 91q92 69 213 69q37 0 73.5 -9t71.5 -28.5t57 -57t22 -86.5q0 -75 -56.5 -136.5t-110.5 -83.5v-2q24 6 71 6h57q65 0 65 -65v-44q0 -65 -65 -65h-357
q-66 0 -66 65z" />
    <glyph glyph-name="three.t_osf" 
d="M83 48q17 29 40.5 32t49.5 -12q44 -22 87 -22q41 0 61.5 17t20.5 40q0 58 -97 58h-24q-53 0 -75 46t12 87l37 45q12 16 26.5 28.5t22.5 17.5l9 5v1q-34 -5 -82 -5h-41q-65 0 -65 65v45q0 65 65 65h316q66 0 66 -58v-13q0 -48 -31 -80l-108 -111q83 -19 130.5 -72
t47.5 -123q0 -42 -17 -81.5t-50 -73.5t-88.5 -54.5t-124.5 -20.5q-60 0 -112 14t-81 34q-49 35 -16 91z" />
    <glyph glyph-name="four.t_osf" 
d="M9 84v23q0 34 23 75l184 333q24 44 77 44h157q65 0 65 -65v-302h12q65 0 65 -65v-44q0 -65 -65 -65h-12v-69q0 -65 -65 -65h-78q-66 0 -66 65v69h-231q-66 0 -66 66zM215 192h91v116l7 85h-2q-18 -46 -35 -80z" />
    <glyph glyph-name="five.t_osf" 
d="M71 6l20 36q28 54 89 20q44 -21 87 -21q32 0 58 16.5t26 50.5q0 33 -23 50.5t-64 17.5q-16 0 -46 -5t-46.5 -5.5t-47.5 8.5l-12 5q-47 20 -43 75l17 242q4 63 67 63h276q66 0 66 -65v-45q0 -65 -66 -65h-162l-7 -58h2q23 3 38 3q128 0 194.5 -63.5t66.5 -152.5
q0 -110 -76.5 -177t-199.5 -67q-109 0 -195 48q-52 31 -19 89z" />
    <glyph glyph-name="six.t_osf" 
d="M38 305q0 102 38 187.5t117 140t184 54.5q56 0 107 -11q62 -14 40 -81l-13 -39q-11 -32 -28.5 -39.5t-47.5 -4.5q-26 3 -44 3q-89 0 -129 -85h2q46 23 107 23q90 0 149 -68.5t59 -155.5q0 -91 -65.5 -166t-182.5 -75q-54 0 -104.5 18t-93.5 54.5t-69 99.5t-26 145z
M250 258q0 -38 21 -68.5t52 -30.5q22 0 35.5 16t13.5 44q0 31 -19.5 53.5t-66.5 22.5q-19 0 -27.5 -7t-8.5 -30z" />
    <glyph glyph-name="seven.t_osf" 
d="M111 -39l187 364q11 21 20.5 36.5t13.5 20.5l5 5v2q-19 -4 -37 -4h-188q-66 0 -66 66v43q0 65 66 65h391q65 0 65 -66v-29q0 -42 -20 -82l-235 -450q-24 -48 -77 -48h-78q-38 0 -51 21.5t4 55.5z" />
    <glyph glyph-name="eight.t_osf" 
d="M34 194q0 34 17 67t34.5 51t47.5 44q-66 49 -66 129q0 82 62 141.5t176 59.5q109 0 179.5 -55t70.5 -140q0 -21 -4.5 -41.5t-13 -38t-15.5 -29.5t-17.5 -27t-12.5 -18q82 -50 82 -139q0 -84 -70 -147t-199 -63q-130 0 -200.5 63.5t-70.5 142.5zM347 408q15 18 15 53
q0 57 -55 57q-47 0 -47 -36q0 -43 87 -74zM234 221q0 -26 18.5 -45.5t54.5 -19.5q31 0 46.5 12.5t15.5 30.5q0 20 -22.5 36t-84.5 42q-28 -23 -28 -56z" />
    <glyph glyph-name="nine.t_osf" 
d="M573 254q0 -102 -38 -187.5t-117 -140t-184 -54.5q-56 0 -107 11q-62 14 -40 81l13 39q11 32 28.5 39.5t47.5 4.5q25 -3 44 -3q90 0 129 85h-2q-46 -23 -107 -23q-90 0 -149 68.5t-59 155.5q0 91 65.5 166t182.5 75q54 0 104.5 -18t93.5 -54.5t69 -99.5t26 -145zM361 301
q0 38 -21 68.5t-52 30.5q-22 0 -35.5 -16t-13.5 -44q0 -31 19.5 -53.5t66.5 -22.5q19 0 27.5 7t8.5 30z" />
    <glyph glyph-name="dollar.osf" horiz-adv-x="541" 
d="M67 44q-49 36 -17 90l26 44q19 33 46 33q15 0 58.5 -23t78.5 -23q37 0 37 17q0 14 -27.5 25.5t-66 25t-77.5 32.5t-66.5 57.5t-27.5 91.5q0 70 49 116t127 63v30q0 65 62 65h5q60 0 60 -52v-39q75 -8 118 -33q51 -28 26 -87l-20 -47q-16 -38 -48 -38q-13 0 -51.5 15.5
t-67.5 15.5q-43 0 -43 -19q0 -12 27.5 -21.5t66 -21.5t77.5 -30.5t66.5 -56.5t27.5 -91q0 -65 -44 -116.5t-131 -71.5v-29q0 -65 -61 -65h-5q-61 0 -61 53v37q-85 12 -144 53z" />
    <glyph glyph-name="cent.osf" horiz-adv-x="529" 
d="M218 34v19q-92 25 -141 94t-49 153t49 153t141 95v17q0 65 66 65h2q66 0 66 -43v-30q71 -10 118 -41q48 -33 14 -90l-23 -39q-19 -31 -47 -31q-11 0 -35.5 10.5t-52.5 10.5q-50 0 -71 -23.5t-21 -52.5t21.5 -53t70.5 -24q27 0 51.5 10.5t35.5 10.5q29 0 48 -31l23 -39
q35 -58 -14 -90q-46 -31 -118 -41v-10q0 -65 -66 -65h-2q-66 0 -66 65z" />
    <glyph glyph-name="sterling.osf" horiz-adv-x="604" 
d="M40 65v44q0 30 15 47.5t37 17.5v52q-51 0 -51 61v6q0 60 51 60v21q0 100 77.5 163t190.5 63q83 0 150 -31q58 -25 26 -87l-24 -42q-20 -35 -54 -35q-11 0 -36 6.5t-55 6.5q-23 0 -43.5 -11.5t-20.5 -31.5v-22h97q66 0 66 -60v-6q0 -61 -66 -61h-97v-52h207q65 0 65 -65
v-44q0 -65 -65 -65h-405q-31 0 -48 17t-17 48z" />
    <glyph glyph-name="yen.osf" horiz-adv-x="630" 
d="M112 107q-65 0 -65 53v6q0 53 65 53h94l-44 77h-50q-65 0 -65 53v6q0 26 14.5 39t37.5 13l-56 102q-19 35 -6 57t53 22h96q52 0 76 -49l12 -38l37 -135h2q18 81 37 135l13 38q22 49 76 49h96q39 0 51.5 -22t-6.5 -57l-57 -102q65 0 65 -52v-6q0 -53 -65 -53h-62l-44 -77
h106q65 0 65 -53v-6q0 -53 -65 -53h-106v-42q0 -65 -65 -65h-81q-65 0 -65 65v42h-94z" />
    <glyph glyph-name="florin.osf" horiz-adv-x="503" 
d="M36 50q4 0 17.5 -1t21.5 -1q62 0 66 44l14 156q-56 4 -56 66v30q0 66 66 66h3l8 83q5 49 26.5 85.5t49.5 56.5t65 32.5t67.5 16t63.5 3.5q90 0 90 -70v-45q0 -64 -40 -64q-4 0 -21 2t-27 2q-67 0 -72 -59l-4 -43h20q66 0 66 -66v-30q0 -66 -66 -66h-35l-15 -181
q-4 -49 -25.5 -85.5t-49.5 -56.5t-65 -32.5t-67.5 -16t-62.5 -3.5q-88 0 -88 71v44q0 62 50 62z" />
    <glyph glyph-name="Euro.osf" horiz-adv-x="565" 
d="M92 187q-65 0 -65 39v8q0 44 65 44q-1 11 -1 37q-64 0 -64 41v11q0 39 65 39h16q33 89 113 141.5t199 52.5q50 0 75 -15.5t13 -62.5l-10 -35q-15 -47 -47 -47q-9 0 -25 1t-23 1q-65 0 -85 -36h92q35 0 49.5 -11t8.5 -37q-6 -24 -21 -33.5t-46 -9.5h-107q-1 -14 2 -37h89
q37 0 51.5 -12t7.5 -38q-7 -24 -21.5 -32.5t-45.5 -8.5h-50q20 -37 94 -37q5 0 19.5 1t24.5 1q50 0 57 -47l5 -36q10 -67 -50 -77q-23 -4 -57 -4q-119 0 -197.5 53t-112.5 146h-18z" />
    <glyph glyph-name="zero.numerator" horiz-adv-x="402" 
d="M201 267q-176 0 -176 232q0 231 176 231t176 -231q0 -232 -176 -232zM201 403q25 0 25 96q0 93 -25 93t-25 -93q0 -96 25 -96z" />
    <glyph glyph-name="one.numerator" horiz-adv-x="354" 
d="M88 277q-65 0 -65 60v7q0 61 52 61h35v93l3 35h-2q-3 -4 -5 -6q-8 -8 -22 -6.5t-25 12.5l-20 20q-42 42 9 89l50 46q35 32 81 32h15q66 0 66 -65v-250h24q65 0 65 -61v-7q0 -60 -65 -60h-196z" />
    <glyph glyph-name="two.numerator" horiz-adv-x="390" 
d="M82 277q-35 0 -50 17t-15 53q0 43 20 78t48 56t56.5 37.5t48.5 31.5t20 29q0 20 -27 20q-13 0 -27 -8q-20 -11 -34.5 -16t-29.5 -2t-27 16l-8 9q-42 49 -2 84q57 48 132 48q66 0 120 -36t54 -106q0 -45 -26 -80t-57 -51.5t-60 -30.5t-33 -21h116q65 0 65 -61v-7
q0 -60 -65 -60h-219z" />
    <glyph glyph-name="three.numerator" horiz-adv-x="370" 
d="M166 267q-70 0 -119 30q-30 17 -30 44q0 19 13 39l5 9q19 30 43 30q11 0 32.5 -8.5t45.5 -8.5q40 0 40 27q0 25 -41 25h-4q-41 0 -56 26q-5 10 -5 22q0 19 31 52l13 14l30 24v2q-27 -3 -38 -3h-35q-65 0 -65 62v7q0 60 65 60h174q65 0 65 -46v-8q0 -44 -31 -74l-54 -50
q102 -29 102 -115q0 -64 -47 -112t-134 -48z" />
    <glyph glyph-name="four.numerator" horiz-adv-x="419" 
d="M265 277q-65 0 -65 65v13h-127q-65 0 -65 50v16q0 31 23 71l107 185q25 43 78 43h66q65 0 65 -65v-184q30 0 43 -13t13 -40v-7q0 -56 -56 -56v-13q0 -65 -65 -65h-17zM138 471h62v85l4 45h-2q-9 -29 -17 -44l-47 -84v-2z" />
    <glyph glyph-name="five.numerator" horiz-adv-x="377" 
d="M180 267q-67 0 -121 27q-50 27 -17 89l3 5q14 26 33 29t46 -9q21 -7 44 -7q15 0 28 8.5t13 23.5q0 33 -56 33q-9 0 -28.5 -2.5t-26.5 -2.5q-19 0 -34 7q-37 15 -33 71l8 119q5 62 68 62h154q66 0 66 -60v-5q0 -61 -66 -61h-96l-3 -32l2 -1q16 3 39 3q71 0 114 -38.5
t43 -94.5q0 -65 -46.5 -114.5t-133.5 -49.5z" />
    <glyph glyph-name="six.numerator" horiz-adv-x="393" 
d="M212 267q-77 0 -134.5 52t-57.5 157t59.5 179.5t166.5 74.5q33 0 54 -7q31 -10 39 -34t-3 -45l-2 -5q-22 -56 -62 -46q-18 4 -29 4q-52 0 -70 -53l2 -1q20 15 62 15q27 0 56 -9.5t55.5 -40t26.5 -76.5q0 -71 -44.5 -118t-118.5 -47zM210 398q21 0 21 28q0 47 -46 47
q-12 0 -15.5 -4t-3.5 -13q0 -25 14 -41.5t30 -16.5z" />
    <glyph glyph-name="seven.numerator" horiz-adv-x="368" 
d="M96 277q-39 0 -52 22.5t7 56.5l131 222l10 13v2q-16 -2 -23 -2h-91q-65 0 -65 62v7q0 60 65 60h218q66 0 66 -50v-12q0 -40 -22 -77l-147 -259q-25 -45 -77 -45h-20z" />
    <glyph glyph-name="eight.numerator" horiz-adv-x="405" 
d="M204 267q-74 0 -128.5 37t-54.5 98q0 59 64 108q-43 35 -43 88q0 63 48 97.5t113 34.5q68 0 118 -36.5t50 -91.5q0 -44 -50 -100q60 -36 60 -100q0 -65 -53 -100t-124 -35zM226 546q13 23 13 38q0 31 -35 31q-25 0 -25 -25q0 -26 47 -44zM201 382q35 0 35 28q0 23 -61 48
q-16 -16 -16 -39q0 -37 42 -37z" />
    <glyph glyph-name="nine.numerator" horiz-adv-x="392" 
d="M181 730q77 0 134.5 -52t57.5 -157t-59.5 -179.5t-166.5 -74.5q-33 0 -54 7q-31 10 -39 34t3 45l2 5q22 56 62 46q18 -4 29 -4q52 0 70 53l-2 1q-20 -15 -62 -15q-27 0 -56 9.5t-55.5 40t-26.5 76.5q0 71 44.5 118t118.5 47zM183 599q-21 0 -21 -28q0 -47 46 -47
q12 0 15.5 4t3.5 13q0 25 -14 41.5t-30 16.5z" />
    <glyph glyph-name="zero.denominator" horiz-adv-x="402" 
d="M201 -10q-176 0 -176 232q0 231 176 231t176 -231q0 -232 -176 -232zM201 126q25 0 25 96q0 93 -25 93t-25 -93q0 -96 25 -96z" />
    <glyph glyph-name="one.denominator" horiz-adv-x="354" 
d="M88 0q-65 0 -65 60v7q0 61 52 61h35v93l3 35h-2q-3 -4 -5 -6q-8 -8 -22 -6.5t-25 12.5l-20 20q-42 42 9 89l50 46q35 32 81 32h15q66 0 66 -65v-250h24q65 0 65 -61v-7q0 -60 -65 -60h-196z" />
    <glyph glyph-name="two.denominator" horiz-adv-x="390" 
d="M82 0q-35 0 -50 17t-15 53q0 43 20 78t48 56t56.5 37.5t48.5 31.5t20 29q0 20 -27 20q-13 0 -27 -8q-20 -11 -34.5 -16t-29.5 -2t-27 16l-8 9q-42 49 -2 84q57 48 132 48q66 0 120 -36t54 -106q0 -45 -26 -80t-57 -51.5t-60 -30.5t-33 -21h116q65 0 65 -61v-7
q0 -60 -65 -60h-219z" />
    <glyph glyph-name="three.denominator" horiz-adv-x="370" 
d="M166 -10q-70 0 -119 30q-30 17 -30 44q0 19 13 39l5 9q19 30 43 30q11 0 32.5 -8.5t45.5 -8.5q40 0 40 27q0 25 -41 25h-4q-41 0 -56 26q-5 10 -5 22q0 19 31 52l13 14l30 24v2q-27 -3 -38 -3h-35q-65 0 -65 62v7q0 60 65 60h174q65 0 65 -46v-8q0 -44 -31 -74l-54 -50
q102 -29 102 -115q0 -64 -47 -112t-134 -48z" />
    <glyph glyph-name="four.denominator" horiz-adv-x="418" 
d="M265 0q-65 0 -65 65v13h-127q-65 0 -65 50v16q0 31 23 71l107 185q25 43 78 43h66q65 0 65 -65v-184q30 0 43 -13t13 -40v-7q0 -56 -56 -56v-13q0 -65 -65 -65h-17zM138 194h62v85l4 45h-2q-9 -29 -17 -44l-47 -84v-2z" />
    <glyph glyph-name="five.denominator" horiz-adv-x="378" 
d="M180 -10q-67 0 -121 27q-50 27 -17 89l3 5q14 26 33 29t46 -9q21 -7 44 -7q15 0 28 8.5t13 23.5q0 33 -56 33q-9 0 -28.5 -2.5t-26.5 -2.5q-19 0 -34 7q-37 15 -33 71l8 119q5 62 68 62h154q66 0 66 -60v-5q0 -61 -66 -61h-96l-3 -32l2 -1q16 3 39 3q71 0 114 -38.5
t43 -94.5q0 -65 -46.5 -114.5t-133.5 -49.5z" />
    <glyph glyph-name="six.denominator" horiz-adv-x="392" 
d="M211 -10q-77 0 -134.5 52t-57.5 157t59.5 179.5t166.5 74.5q33 0 54 -7q31 -10 39 -34t-3 -45l-2 -5q-22 -56 -62 -46q-18 4 -29 4q-52 0 -70 -53l2 -1q20 15 62 15q27 0 56 -9.5t55.5 -40t26.5 -76.5q0 -71 -44.5 -118t-118.5 -47zM209 121q21 0 21 28q0 47 -46 47
q-12 0 -15.5 -4t-3.5 -13q0 -25 14 -41.5t30 -16.5z" />
    <glyph glyph-name="seven.denominator" horiz-adv-x="367" 
d="M95 0q-39 0 -52 22t7 57l131 222l10 13v2q-16 -2 -23 -2h-91q-65 0 -65 62v7q0 60 65 60h218q66 0 66 -50v-12q0 -40 -22 -77l-147 -259q-26 -45 -77 -45h-20z" />
    <glyph glyph-name="eight.denominator" horiz-adv-x="404" 
d="M204 -10q-74 0 -128.5 37t-54.5 98q0 59 64 108q-43 35 -43 88q0 63 48 97.5t113 34.5q68 0 118 -36.5t50 -91.5q0 -44 -50 -100q60 -36 60 -100q0 -65 -53 -100t-124 -35zM226 269q13 23 13 38q0 31 -35 31q-25 0 -25 -25q0 -26 47 -44zM201 105q35 0 35 28q0 23 -61 48
q-16 -16 -16 -39q0 -37 42 -37z" />
    <glyph glyph-name="nine.denominator" horiz-adv-x="392" 
d="M181 453q77 0 134.5 -52t57.5 -157t-59.5 -179.5t-166.5 -74.5q-33 0 -54 7q-31 10 -39 34t3 45l2 5q22 56 62 46q18 -4 29 -4q52 0 70 53l-2 1q-20 -15 -62 -15q-27 0 -56 9.5t-55.5 40t-26.5 76.5q0 71 44.5 118t118.5 47zM183 322q-21 0 -21 -28q0 -47 46 -47
q12 0 15.5 4t3.5 13q0 25 -14 41.5t-30 16.5z" />
    </font>
</defs>
</svg>
