<?xml version="1.0" encoding="utf-8"?>
<!-- Generator: Adobe Illustrator 19.2.0, SVG Export Plug-In . SVG Version: 6.00 Build 0)  -->
<svg version="1.1" id="Layer_1" xmlns="http://www.w3.org/2000/svg" xmlns:xlink="http://www.w3.org/1999/xlink" x="0px" y="0px"
	 viewBox="0 0 18 15.5" enable-background="new 0 0 18 15.5" xml:space="preserve">
<g>
	<path fill="#FFFFFF" d="M6.9,0.5h1.9V13c0,1.1-0.9,1.9-1.9,1.9H6.6c-1.1,0-1.9-0.9-1.9-1.9V0.5h1.9H6.9z"/>
	<path fill="#455B64" d="M7.4,15.4H6.1c-1,0-1.9-0.9-1.9-1.9v-13C4.2,0.2,4.4,0,4.7,0h4.1c0.3,0,0.5,0.2,0.5,0.5v13
		C9.3,14.5,8.4,15.4,7.4,15.4 M5.2,0.9v12.5c0,0.5,0.4,1,1,1h1.2c0.5,0,1-0.4,1-1V0.9H5.2z"/>
	<path fill="#455B64" d="M17.3,15.5h-2.4c-0.4,0-0.7-0.3-0.7-0.7c0-0.4,0.3-0.7,0.7-0.7h2.4c0.4,0,0.7,0.3,0.7,0.7
		C18,15.2,17.7,15.5,17.3,15.5"/>
	<path fill="#455B64" d="M17.3,1.7h-2.4c-0.4,0-0.7-0.3-0.7-0.7s0.3-0.7,0.7-0.7h2.4C17.7,0.2,18,0.6,18,1S17.7,1.7,17.3,1.7"/>
	<path fill="#455B64" d="M16.1,15.5c-0.4,0-0.7-0.3-0.7-0.7V1c0-0.4,0.3-0.7,0.7-0.7c0.4,0,0.7,0.3,0.7,0.7v13.8
		C16.8,15.2,16.5,15.5,16.1,15.5"/>
	<path fill="#59C1EE" d="M13,2.6c0,1.1-0.9,2-2,2H2.5c-1.1,0-2-0.9-2-2V2.5c0-1.1,0.9-2,2-2H11c1.1,0,2,0.9,2,2V2.6z"/>
	<path fill="#455B64" d="M11.6,5.1H1.9C0.8,5.1,0,4.2,0,3.2V1.9C0,0.8,0.8,0,1.9,0h9.8c1,0,1.9,0.8,1.9,1.9v1.3
		C13.5,4.2,12.7,5.1,11.6,5.1 M1.9,0.9c-0.5,0-0.9,0.4-0.9,0.9v1.3c0,0.5,0.4,0.9,0.9,0.9h9.8c0.5,0,0.9-0.4,0.9-0.9V1.9
		c0-0.5-0.4-0.9-0.9-0.9H1.9z"/>
</g>
</svg>
