<?xml version="1.0" encoding="utf-8"?>
<!-- Generator: Adobe Illustrator 16.0.0, SVG Export Plug-In . SVG Version: 6.00 Build 0)  -->
<!DOCTYPE svg PUBLIC "-//W3C//DTD SVG 1.1//EN" "http://www.w3.org/Graphics/SVG/1.1/DTD/svg11.dtd">
<svg version="1.1" id="Layer_1" xmlns="http://www.w3.org/2000/svg" xmlns:xlink="http://www.w3.org/1999/xlink" x="0px" y="0px"
	 width="18px" height="16.143px" viewBox="0 0 18 16.143" enable-background="new 0 0 18 16.143" xml:space="preserve">
<g>
	<path fill="#FFFFFF" d="M8.999,15.67c0,0-0.661-0.233-1.468-0.517l-3.93-1.382c-0.807-0.284-1.469-1.217-1.469-2.071V4.365
		c0-0.855,0.662-1.323,1.469-1.04l3.93,1.38c0.807,0.285,1.468,0.57,1.468,0.57V15.67z"/>
	<path fill="#FFFFFF" d="M15.866,11.7c0,0.854-0.66,1.788-1.469,2.071l-3.929,1.382C9.66,15.436,8.999,15.67,8.999,15.67V5.276
		c0,0,0.661-0.285,1.469-0.57l3.929-1.381c0.809-0.283,1.469,0.185,1.469,1.04V11.7z"/>
	<path fill="#455B64" d="M9,16.143c-0.052,0-0.106-0.008-0.157-0.026l-5.398-1.899c-1-0.351-1.785-1.457-1.785-2.517V4.365
		c0-0.563,0.23-1.049,0.631-1.333c0.402-0.284,0.936-0.341,1.468-0.154l3.93,1.381C8.514,4.55,9.188,4.841,9.188,4.841
		C9.36,4.916,9.474,5.086,9.474,5.275V15.67c0,0.153-0.075,0.297-0.2,0.387C9.192,16.113,9.098,16.143,9,16.143 M3.144,3.716
		c-0.117,0-0.222,0.03-0.305,0.089C2.689,3.911,2.606,4.11,2.606,4.365V11.7c0,0.649,0.539,1.408,1.152,1.624l4.768,1.678V5.591
		C8.264,5.484,7.844,5.318,7.375,5.152l-3.93-1.38C3.337,3.735,3.236,3.716,3.144,3.716"/>
	<polygon fill="#59C1EE" points="7.313,8.518 0.474,6.028 2.159,2.786 8.999,5.275 	"/>
	<path fill="#455B64" d="M7.34,8.952c-0.053,0-0.106-0.009-0.158-0.027L0.316,6.512c-0.129-0.045-0.232-0.144-0.282-0.27
		c-0.051-0.128-0.045-0.271,0.017-0.392l1.66-3.257c0.107-0.212,0.356-0.31,0.579-0.231l6.867,2.413
		c0.128,0.045,0.231,0.144,0.282,0.27C9.49,5.173,9.483,5.315,9.421,5.438L7.762,8.693C7.679,8.856,7.514,8.952,7.34,8.952
		 M1.141,5.798l5.965,2.097l1.226-2.405L2.367,3.394L1.141,5.798z"/>
	<path fill="#455B64" d="M9,16.143c-0.097,0-0.192-0.029-0.274-0.087c-0.124-0.089-0.199-0.233-0.199-0.386V5.275
		c0-0.189,0.112-0.36,0.286-0.436c0,0,0.674-0.291,1.499-0.581l3.93-1.381c0.532-0.187,1.067-0.131,1.469,0.154
		c0.4,0.284,0.631,0.771,0.631,1.333v7.336c0,1.06-0.785,2.166-1.786,2.517l-5.396,1.897C9.106,16.135,9.053,16.143,9,16.143
		 M9.474,5.591V15l4.767-1.676c0.614-0.216,1.151-0.975,1.151-1.623V4.365c0-0.256-0.082-0.455-0.231-0.56
		c-0.147-0.106-0.361-0.118-0.606-0.033l-3.929,1.38C10.156,5.318,9.737,5.484,9.474,5.591"/>
	<polygon fill="#FFFFFF" points="2.133,2.809 9,5.222 15.867,2.809 9.002,0.474 	"/>
	<path fill="#455B64" d="M9,5.695c-0.053,0-0.106-0.009-0.157-0.027L1.976,3.255C1.785,3.188,1.659,3.008,1.66,2.807
		c0-0.202,0.13-0.382,0.321-0.446l6.868-2.335c0.1-0.034,0.206-0.034,0.305,0L16.02,2.36c0.191,0.064,0.319,0.244,0.32,0.446
		c0.001,0.201-0.125,0.382-0.316,0.448L9.157,5.668C9.106,5.687,9.053,5.695,9,5.695 M3.583,2.816L9,4.721l5.417-1.904L9.002,0.975
		L3.583,2.816z"/>
	<polygon fill="#59C1EE" points="10.687,8.518 17.528,6.028 15.842,2.786 9.001,5.275 	"/>
	<path fill="#455B64" d="M10.661,8.952c-0.174,0-0.341-0.096-0.423-0.259l-1.66-3.256C8.516,5.315,8.51,5.173,8.561,5.045
		c0.05-0.126,0.153-0.225,0.282-0.27l6.867-2.413c0.224-0.077,0.472,0.02,0.58,0.231l1.658,3.257
		c0.063,0.121,0.069,0.264,0.019,0.392c-0.051,0.126-0.153,0.225-0.282,0.27l-6.867,2.413C10.765,8.943,10.713,8.952,10.661,8.952
		 M9.668,5.489l1.226,2.405l5.966-2.097l-1.227-2.404L9.668,5.489z"/>
</g>
</svg>
