<?xml version="1.0" encoding="utf-8"?>
<!-- Generator: Adobe Illustrator 16.0.0, SVG Export Plug-In . SVG Version: 6.00 Build 0)  -->
<!DOCTYPE svg PUBLIC "-//W3C//DTD SVG 1.1//EN" "http://www.w3.org/Graphics/SVG/1.1/DTD/svg11.dtd">
<svg version="1.1" id="Layer_1" xmlns="http://www.w3.org/2000/svg" xmlns:xlink="http://www.w3.org/1999/xlink" x="0px" y="0px"
	 width="12.851px" height="17.117px" viewBox="0 0 12.851 17.117" enable-background="new 0 0 12.851 17.117" xml:space="preserve">
<g>
	<path fill="#FFFFFF" d="M12.351,6.426c0-3.272-2.652-5.926-5.925-5.926C3.154,0.5,0.5,3.153,0.5,6.426
		c0,0.24,0.019,0.476,0.047,0.709c0.473,5.152,5.859,9.482,5.859,9.482s5.261-4.209,5.866-9.26
		C12.321,7.052,12.351,6.744,12.351,6.426"/>
	<path fill="#455B64" d="M6.406,17.117c-0.111,0-0.222-0.035-0.313-0.109c-0.227-0.182-5.558-4.525-6.044-9.827
		C0.02,6.941,0,6.687,0,6.426C0,2.883,2.883,0,6.426,0s6.425,2.883,6.425,6.426c0,0.317-0.027,0.647-0.084,1.009
		c-0.619,5.177-5.826,9.397-6.048,9.574C6.627,17.082,6.517,17.117,6.406,17.117 M6.426,1C3.434,1,1,3.434,1,6.426
		c0,0.22,0.018,0.435,0.043,0.649c0.385,4.191,4.23,7.882,5.364,8.884c1.119-0.985,4.879-4.575,5.369-8.661
		c0.051-0.328,0.074-0.607,0.074-0.872C11.851,3.434,9.417,1,6.426,1"/>
	<path fill="#59C1EE" d="M8.796,9.143c-1.309,1.311-3.432,1.307-4.739,0C2.752,7.84,2.751,5.719,4.062,4.409
		c1.307-1.305,3.426-1.304,4.73,0C10.101,5.716,10.102,7.838,8.796,9.143"/>
	<path fill="#455B64" d="M6.427,4.165L6.427,4.165c0.682,0,1.323,0.267,1.806,0.749S8.98,6.038,8.981,6.723
		C8.983,7.405,8.72,8.047,8.239,8.527C7.756,9.011,7.111,9.276,6.426,9.276S5.098,9.012,4.614,8.529
		C4.135,8.05,3.871,7.409,3.871,6.728c0-0.687,0.268-1.33,0.754-1.816C5.105,4.431,5.746,4.165,6.427,4.165 M6.427,3.165
		c-0.909,0-1.817,0.348-2.51,1.04c-1.393,1.39-1.395,3.646-0.01,5.031c0.694,0.693,1.605,1.04,2.519,1.04
		c0.912,0,1.824-0.347,2.521-1.042c1.386-1.386,1.378-3.643-0.007-5.027C8.246,3.513,7.336,3.165,6.427,3.165"/>
</g>
</svg>
