<?xml version="1.0" encoding="utf-8"?>
<!-- Generator: Adobe Illustrator 16.0.0, SVG Export Plug-In . SVG Version: 6.00 Build 0)  -->
<!DOCTYPE svg PUBLIC "-//W3C//DTD SVG 1.1//EN" "http://www.w3.org/Graphics/SVG/1.1/DTD/svg11.dtd">
<svg version="1.1" id="Layer_1" xmlns="http://www.w3.org/2000/svg" xmlns:xlink="http://www.w3.org/1999/xlink" x="0px" y="0px"
	 width="14.014px" height="14px" viewBox="0 0 14.014 14" enable-background="new 0 0 14.014 14" xml:space="preserve">
<g>
	<path d="M13.62,11.704l-2.441-2.441c1.493-2.379,1.161-5.483-0.843-7.488C9.193,0.63,7.672,0,6.055,0
		c-1.616,0-3.138,0.63-4.28,1.774C0.63,2.918,0,4.438,0,6.055c0,1.617,0.63,3.139,1.773,4.279c1.172,1.176,2.719,1.779,4.277,1.779
		c1.115,0,2.23-0.324,3.224-0.953l2.444,2.445C11.975,13.86,12.313,14,12.67,14c0.358,0,0.695-0.141,0.95-0.396
		s0.395-0.594,0.394-0.953S13.873,11.956,13.62,11.704 M9.137,10.469L9.137,10.469c-2.144,1.502-5.043,1.248-6.892-0.605
		C1.229,8.846,0.667,7.495,0.667,6.055c0-1.438,0.562-2.792,1.578-3.809c1.018-1.019,2.371-1.579,3.81-1.579
		c1.439,0,2.792,0.561,3.81,1.579c1.843,1.843,2.102,4.733,0.616,6.875c-0.196,0.281-0.397,0.523-0.615,0.742
		C9.651,10.079,9.413,10.276,9.137,10.469 M13.148,13.133c-0.259,0.258-0.7,0.256-0.957,0l-2.357-2.357
		c0.179-0.141,0.35-0.285,0.503-0.439c0.158-0.158,0.308-0.334,0.452-0.518l2.36,2.357c0.127,0.127,0.196,0.295,0.196,0.475
		C13.347,12.833,13.276,13.004,13.148,13.133"/>
	<path d="M9.205,2.905c-0.841-0.842-1.96-1.305-3.149-1.305c-1.19,0-2.31,0.463-3.15,1.305C2.783,3.027,2.78,3.219,2.888,3.35
		c0.007,0.009,0.01,0.02,0.018,0.028c0.13,0.13,0.341,0.13,0.472,0c0.715-0.717,1.666-1.11,2.679-1.11
		c1.012,0,1.963,0.394,2.678,1.11C8.798,3.442,8.885,3.476,8.97,3.476s0.171-0.033,0.235-0.098c0.008-0.009,0.012-0.02,0.019-0.028
		C9.33,3.219,9.327,3.027,9.205,2.905"/>
</g>
</svg>
