<?xml version="1.0" encoding="utf-8"?>
<!-- Generator: Adobe Illustrator 16.0.0, SVG Export Plug-In . SVG Version: 6.00 Build 0)  -->
<!DOCTYPE svg PUBLIC "-//W3C//DTD SVG 1.1//EN" "http://www.w3.org/Graphics/SVG/1.1/DTD/svg11.dtd">
<svg version="1.1" id="Layer_1" xmlns="http://www.w3.org/2000/svg" xmlns:xlink="http://www.w3.org/1999/xlink" x="0px" y="0px"
	 width="16.494px" height="16.476px" viewBox="0 0 16.494 16.476" enable-background="new 0 0 16.494 16.476" xml:space="preserve">
<g>
	<g>
		<path d="M14.821,16.476c-0.444,0-0.864-0.173-1.182-0.488l-3.051-3.051c-0.104-0.104-0.157-0.249-0.145-0.396
			s0.089-0.281,0.21-0.366c0.324-0.228,0.595-0.453,0.83-0.689c0.253-0.253,0.483-0.529,0.704-0.849
			c0.084-0.122,0.218-0.199,0.366-0.213c0.15-0.01,0.293,0.04,0.398,0.145l3.052,3.051c0.316,0.314,0.49,0.734,0.491,1.181
			c0,0.448-0.174,0.87-0.491,1.187C15.684,16.302,15.265,16.476,14.821,16.476z M11.701,12.635l2.643,2.644
			c0.255,0.251,0.695,0.258,0.954-0.002c0.126-0.126,0.196-0.296,0.196-0.476s-0.07-0.349-0.197-0.475l-2.645-2.645
			c-0.147,0.18-0.299,0.349-0.46,0.509C12.041,12.342,11.878,12.49,11.701,12.635z"/>
	</g>
	<g>
		<path d="M7.136,14.287c-1.838,0-3.663-0.711-5.045-2.096C0.743,10.843,0,9.05,0,7.142c0-1.907,0.743-3.701,2.092-5.05
			C3.44,0.743,5.234,0,7.142,0c1.907,0,3.701,0.743,5.049,2.092c2.443,2.444,2.787,6.277,0.818,9.115
			c-0.158,0.226-0.469,0.281-0.696,0.126c-0.227-0.158-0.283-0.47-0.125-0.696c1.693-2.439,1.397-5.736-0.704-7.837
			C10.324,1.639,8.782,1,7.142,1C5.501,1,3.959,1.639,2.799,2.799C1.639,3.959,1,5.502,1,7.142c0,1.641,0.639,3.183,1.799,4.342
			c2.107,2.11,5.41,2.4,7.856,0.69c0.226-0.159,0.538-0.104,0.696,0.122s0.104,0.538-0.123,0.696
			C9.988,13.862,8.558,14.287,7.136,14.287z"/>
	</g>
	<g>
		<path d="M3.759,4.259c-0.128,0-0.256-0.049-0.354-0.146c-0.195-0.195-0.195-0.512,0-0.707C4.403,2.407,5.73,1.858,7.142,1.858
			c1.411,0,2.738,0.549,3.735,1.547c0.195,0.195,0.195,0.512,0,0.707s-0.512,0.195-0.707,0C9.361,3.303,8.286,2.858,7.142,2.858
			c-1.145,0-2.22,0.445-3.029,1.254C4.015,4.21,3.887,4.259,3.759,4.259z"/>
	</g>
</g>
</svg>
