<?xml version="1.0" encoding="utf-8"?>
<!-- Generator: Adobe Illustrator 16.0.0, SVG Export Plug-In . SVG Version: 6.00 Build 0)  -->
<!DOCTYPE svg PUBLIC "-//W3C//DTD SVG 1.1//EN" "http://www.w3.org/Graphics/SVG/1.1/DTD/svg11.dtd">
<svg version="1.1" id="Layer_1" xmlns="http://www.w3.org/2000/svg" xmlns:xlink="http://www.w3.org/1999/xlink" x="0px" y="0px"
	 width="17.981px" height="17.998px" viewBox="0 0 17.981 17.998" enable-background="new 0 0 17.981 17.998" xml:space="preserve">
<g>
	<path d="M5.796-0.001C2.6-0.001,0,2.598,0,5.793c0,3.195,2.6,5.794,5.796,5.794c3.194,0,5.793-2.599,5.793-5.794
		C11.589,2.598,8.99-0.001,5.796-0.001 M5.796,0.974c2.483,0,4.512,1.899,4.767,4.318C4.499,5.152,2.66,2.739,2.414,2.366
		C3.285,1.507,4.479,0.974,5.796,0.974 M5.796,10.612c-2.658,0-4.821-2.162-4.821-4.819c0-0.978,0.297-1.886,0.8-2.646
		c0.693,0.881,2.976,2.993,8.791,3.12C10.324,8.698,8.29,10.612,5.796,10.612"/>
	<path d="M16.069,11.144h-1.122v-1.119c0-1.056-0.856-1.914-1.912-1.914c-1.054,0-1.911,0.858-1.911,1.914v1.119h-1.119
		c-0.889,0-1.631,0.612-1.845,1.434c-0.069-0.003-0.142-0.01-0.208-0.01H4.108c-2.058,0-3.733,1.676-3.733,3.733v1.134
		c0,0.269,0.219,0.487,0.488,0.487h11.662c0.164,0.045,0.333,0.077,0.51,0.077c1.056,0,1.912-0.857,1.912-1.912v-1.121h1.122
		c1.054,0,1.912-0.857,1.912-1.911C17.981,12.002,17.123,11.144,16.069,11.144 M10.005,14.966h1.119v1.121
		c0,0.311,0.081,0.6,0.214,0.859H1.351v-0.646c0-1.521,1.238-2.758,2.758-2.758h3.844c0.068,0,0.143,0.006,0.214,0.01
		C8.388,14.364,9.123,14.966,10.005,14.966 M16.933,13.42c-0.143,0.336-0.476,0.571-0.863,0.571h-2.098v2.096
		c0,0.129-0.025,0.253-0.072,0.365c-0.049,0.111-0.117,0.213-0.202,0.298c-0.049,0.049-0.114,0.08-0.174,0.118
		c-0.146,0.09-0.306,0.156-0.488,0.156s-0.343-0.066-0.487-0.156c-0.043-0.027-0.086-0.051-0.123-0.084
		c-0.017-0.014-0.037-0.02-0.052-0.034c-0.17-0.17-0.274-0.404-0.274-0.663v-0.671v-0.078v-1.312v-0.035l0,0h-0.047h-1.271h-0.776
		c-0.029,0-0.054-0.014-0.082-0.016c-0.139-0.055-0.277-0.104-0.416-0.147c-0.156-0.101-0.291-0.234-0.365-0.408
		c-0.006-0.015-0.005-0.033-0.01-0.049c-0.036-0.099-0.064-0.204-0.064-0.316c0-0.12,0.027-0.235,0.069-0.341
		c0.048-0.121,0.116-0.23,0.206-0.32c0.17-0.17,0.403-0.274,0.662-0.274h2.094l0,0v-2.095c0-0.26,0.104-0.494,0.274-0.664
		c0.169-0.17,0.404-0.274,0.662-0.274c0.259,0,0.493,0.104,0.662,0.274c0.17,0.17,0.274,0.404,0.274,0.664v2.095h2.098
		c0.346,0,0.636,0.196,0.798,0.475c0.08,0.138,0.14,0.29,0.14,0.461C17.007,13.185,16.98,13.308,16.933,13.42"/>
</g>
</svg>
