<?xml version="1.0" encoding="utf-8"?>
<!-- Generator: Adobe Illustrator 16.0.0, SVG Export Plug-In . SVG Version: 6.00 Build 0)  -->
<!DOCTYPE svg PUBLIC "-//W3C//DTD SVG 1.1//EN" "http://www.w3.org/Graphics/SVG/1.1/DTD/svg11.dtd">
<svg version="1.1" id="Layer_1" xmlns="http://www.w3.org/2000/svg" xmlns:xlink="http://www.w3.org/1999/xlink" x="0px" y="0px"
	 width="18.24px" height="24px" viewBox="0 0 18.24 24" enable-background="new 0 0 18.24 24" xml:space="preserve">
<g>
	<path fill="#FFFFFF" d="M17.28,19.68c0-3.441-2.799-6.24-6.24-6.24c-3.44,0-6.24,2.799-6.24,6.24v3.359h12.48V19.68z"/>
	<path fill="#F89B1F" d="M7.2,13.439c-3.44,0-6.24,2.799-6.24,6.24v3.36h2.88v-3.36c0-0.3,0.024-0.594,0.061-0.885
		c0.011-0.085,0.025-0.168,0.039-0.253c0.034-0.216,0.078-0.427,0.131-0.634c0.02-0.08,0.038-0.158,0.06-0.236
		c0.08-0.273,0.171-0.543,0.282-0.803c0.006-0.014,0.014-0.027,0.021-0.041c0.105-0.246,0.228-0.482,0.359-0.713
		c0.041-0.07,0.085-0.141,0.128-0.211c0.111-0.179,0.23-0.353,0.356-0.521c0.046-0.062,0.09-0.124,0.137-0.185
		c0.174-0.217,0.357-0.428,0.554-0.623c0.021-0.021,0.044-0.037,0.064-0.058c0.179-0.175,0.369-0.338,0.566-0.493
		c0.064-0.052,0.133-0.101,0.199-0.149c0.17-0.124,0.346-0.241,0.525-0.351c0.044-0.026,0.084-0.06,0.129-0.086H7.2z"/>
	<path fill="#455B64" d="M11.04,12.479H7.2c-3.97,0-7.2,3.229-7.2,7.2v3.84C0,23.785,0.215,24,0.48,24h3.84H17.76
		c0.266,0,0.48-0.215,0.48-0.48v-3.84C18.24,15.709,15.01,12.479,11.04,12.479 M4.131,17.672C4.108,17.75,4.09,17.828,4.07,17.908
		c-0.053,0.207-0.098,0.418-0.131,0.633c-0.014,0.086-0.028,0.168-0.039,0.255C3.864,19.086,3.84,19.38,3.84,19.68v3.359H0.96V19.68
		c0-3.441,2.8-6.24,6.24-6.24h0.251c-0.045,0.026-0.085,0.059-0.129,0.086c-0.18,0.109-0.355,0.227-0.525,0.35
		c-0.066,0.051-0.135,0.099-0.2,0.15C6.4,14.181,6.21,14.345,6.031,14.519c-0.021,0.021-0.043,0.037-0.063,0.058
		c-0.197,0.196-0.381,0.405-0.554,0.623c-0.048,0.061-0.092,0.123-0.138,0.185c-0.126,0.169-0.244,0.342-0.355,0.522
		c-0.044,0.068-0.088,0.139-0.129,0.209c-0.131,0.231-0.254,0.467-0.36,0.713c-0.006,0.014-0.014,0.026-0.02,0.041
		C4.301,17.129,4.21,17.397,4.131,17.672 M17.28,23.039H4.8V19.68c0-3.441,2.8-6.24,6.24-6.24c3.441,0,6.24,2.799,6.24,6.24V23.039z
		"/>
	<path fill="#FFFFFF" d="M4.912,3.498C4.546,4.175,4.318,4.938,4.318,5.76c0,2.647,2.154,4.801,4.801,4.801
		c2.363,0,4.321-1.72,4.718-3.97C7.881,6.525,5.591,4.37,4.912,3.498"/>
	<path fill="#59C1EE" d="M13.908,5.633C13.838,3.046,11.723,0.96,9.12,0.96c-1.458,0-2.75,0.667-3.631,1.696
		c0.009,0.013,0.021,0.021,0.03,0.037C5.547,2.742,7.21,5.576,13.908,5.633"/>
	<path fill="#455B64" d="M9.119,0c-3.176,0-5.76,2.584-5.76,5.76c0,3.178,2.584,5.76,5.76,5.76c3.178,0,5.763-2.582,5.763-5.76
		C14.882,2.584,12.297,0,9.119,0 M9.119,10.561c-2.646,0-4.801-2.153-4.801-4.801c0-0.822,0.228-1.585,0.593-2.262
		c0.68,0.872,2.971,3.027,8.927,3.093C13.441,8.841,11.482,10.561,9.119,10.561 M5.52,2.693C5.512,2.678,5.497,2.669,5.488,2.656
		C6.37,1.627,7.662,0.96,9.119,0.96c2.604,0,4.72,2.086,4.789,4.673C7.211,5.576,5.547,2.742,5.52,2.693"/>
</g>
</svg>
