<?xml version="1.0" encoding="utf-8"?>
<!-- Generator: Adobe Illustrator 16.0.0, SVG Export Plug-In . SVG Version: 6.00 Build 0)  -->
<!DOCTYPE svg PUBLIC "-//W3C//DTD SVG 1.1//EN" "http://www.w3.org/Graphics/SVG/1.1/DTD/svg11.dtd">
<svg version="1.1" id="Layer_1" xmlns="http://www.w3.org/2000/svg" xmlns:xlink="http://www.w3.org/1999/xlink" x="0px" y="0px"
	 width="19.242px" height="20px" viewBox="0 0 19.242 20" enable-background="new 0 0 19.242 20" xml:space="preserve">
<g>
	<path fill="#FFFFFF" d="M6.592,12.273c3.384,0,6.136-2.753,6.136-6.138C12.729,2.752,9.977,0,6.592,0
		C3.208,0,0.457,2.752,0.457,6.136C0.457,9.521,3.208,12.273,6.592,12.273 M6.592,0.993c2.357,0,4.328,1.602,4.933,3.768
		C6.067,4.646,3.513,2.934,2.958,2.5C3.889,1.569,5.174,0.993,6.592,0.993 M2.326,3.269c0.688,0.549,3.462,2.406,9.374,2.489
		c0.008,0.127,0.037,0.248,0.037,0.378c0,2.837-2.308,5.145-5.144,5.145c-2.836,0-5.144-2.308-5.144-5.145
		C1.449,5.075,1.772,4.088,2.326,3.269"/>
	<path fill="#FFFFFF" d="M17.752,11.269h-0.697V10.71c0-0.273-0.223-0.496-0.496-0.496c-0.275,0-0.496,0.223-0.496,0.496v0.559
		h-3.012V10.71c0-0.273-0.221-0.496-0.494-0.496c-0.275,0-0.496,0.223-0.496,0.496v0.559h-0.764c-0.822,0-1.49,0.668-1.49,1.489
		v0.916c-0.951-0.443-2.046-0.698-3.213-0.698C2.958,12.976,0,15.434,0,18.454c0,0.275,0.222,0.497,0.497,0.497h9.384
		C10.071,19.557,10.63,20,11.297,20h6.455c0.822,0,1.49-0.668,1.49-1.489v-5.753C19.242,11.937,18.574,11.269,17.752,11.269
		 M9.807,17.958H4.013v-1.429c0-0.137-0.111-0.248-0.248-0.248c-0.138,0-0.249,0.111-0.249,0.248v1.429H1.027
		c0.309-2.241,2.689-3.99,5.567-3.99c1.2,0,2.301,0.316,3.213,0.833V17.958z M18.248,18.511c0,0.274-0.223,0.496-0.496,0.496h-6.455
		c-0.08,0-0.152-0.022-0.219-0.056c-0.164-0.082-0.278-0.246-0.278-0.44v-0.057v-0.496V15.52v-0.662v-0.165h0.573h6.875V18.511z
		 M18.248,13.699H10.8v-0.941c0-0.273,0.224-0.497,0.497-0.497h0.764v0.404c0,0.274,0.221,0.496,0.496,0.496
		c0.273,0,0.494-0.222,0.494-0.496v-0.404h3.012v0.404c0,0.274,0.221,0.496,0.496,0.496c0.273,0,0.496-0.222,0.496-0.496v-0.404
		h0.697c0.273,0,0.496,0.224,0.496,0.497V13.699z"/>
	<polygon fill="#FFFFFF" points="13.457,16.41 13.457,15.344 12.389,15.344 12.389,15.844 12.389,16.41 12.707,16.41 	"/>
	<rect x="14.135" y="15.343" fill="#FFFFFF" width="1.068" height="1.067"/>
	<rect x="15.883" y="15.343" fill="#FFFFFF" width="1.068" height="1.067"/>
	<polygon fill="#FFFFFF" points="13.166,18.116 13.457,18.116 13.457,17.049 12.959,17.049 12.436,17.049 12.389,17.049 
		12.389,18.116 12.666,18.116 	"/>
	<rect x="14.135" y="17.049" fill="#FFFFFF" width="1.068" height="1.067"/>
	<rect x="15.883" y="17.049" fill="#FFFFFF" width="1.068" height="1.067"/>
</g>
</svg>
