<?xml version="1.0" encoding="utf-8"?>
<!-- Generator: Adobe Illustrator 16.0.0, SVG Export Plug-In . SVG Version: 6.00 Build 0)  -->
<!DOCTYPE svg PUBLIC "-//W3C//DTD SVG 1.1//EN" "http://www.w3.org/Graphics/SVG/1.1/DTD/svg11.dtd">
<svg version="1.1" id="Layer_1" xmlns="http://www.w3.org/2000/svg" xmlns:xlink="http://www.w3.org/1999/xlink" x="0px" y="0px"
	 width="20px" height="19.366px" viewBox="0 1.475 20 19.366" enable-background="new 0 1.475 20 19.366" xml:space="preserve">
<path fill="#FFFFFF" d="M9.96,17.6c0.026-0.002,0.054-0.006,0.079-0.008c0,0-0.002-0.002-0.004-0.002
	C10.01,17.592,9.984,17.598,9.96,17.6"/>
<path fill="#FFFFFF" d="M18.29,12.779c0.001-0.07,0.01-0.137,0.01-0.207c0-3.18-1.808-5.944-4.446-7.327
	c-0.031-2.084-1.73-3.771-3.822-3.771c-2.091,0-3.79,1.686-3.82,3.77c-2.642,1.382-4.45,4.146-4.45,7.328
	c0,0.059,0.008,0.115,0.009,0.174C0.709,13.428,0,14.611,0,15.963c0,2.111,1.717,3.83,3.827,3.83c0.57,0,1.107-0.135,1.595-0.359
	c1.317,0.889,2.902,1.408,4.609,1.408c1.693,0,3.267-0.514,4.58-1.391c0.478,0.215,1.004,0.342,1.561,0.342
	c2.111,0,3.828-1.719,3.828-3.83C20,14.635,19.318,13.467,18.29,12.779 M16.574,9.248c0.478,0.937,0.759,1.987,0.793,3.1
	c-0.379-0.125-0.775-0.211-1.195-0.211c-0.216,0-0.425,0.029-0.632,0.064c-0.048-0.719-0.235-1.4-0.534-2.018
	c0.004,0.001,0.007,0.003,0.012,0.004c0.088,0.017,0.176,0.024,0.262,0.024c0.27,0,0.533-0.08,0.762-0.233
	C16.309,9.796,16.486,9.535,16.574,9.248 M12.501,16.984c-0.573,0.318-1.214,0.531-1.897,0.607
	c-0.025,0.002-0.052,0.006-0.078,0.008c-0.158,0.016-0.318,0.025-0.48,0.025c-0.923,0-1.786-0.254-2.531-0.688
	c0.083-0.313,0.141-0.637,0.141-0.975c0-1.695-1.117-3.123-2.65-3.623c0.081-1.777,1.082-3.317,2.541-4.152
	c0.67,0.579,1.532,0.941,2.486,0.941c0.959,0,1.826-0.366,2.498-0.952c1.461,0.829,2.465,2.362,2.556,4.137
	c-1.579,0.471-2.74,1.92-2.74,3.648C12.345,16.318,12.41,16.656,12.501,16.984 M16.025,8.339l0.002,0.001
	c0.277,0.412,0.168,0.976-0.246,1.256c-0.198,0.135-0.438,0.186-0.676,0.139c-0.238-0.046-0.443-0.183-0.578-0.382
	c-0.008-0.011-0.021-0.011-0.029-0.02c-0.438-0.599-0.99-1.104-1.628-1.487c0.407-0.454,0.707-1.003,0.86-1.611
	C14.638,6.767,15.421,7.485,16.025,8.339 M7.176,4.821c0.23-1.373,1.418-2.424,2.855-2.424s2.627,1.052,2.856,2.425
	c0.027,0.157,0.05,0.316,0.05,0.479c0,0.173-0.022,0.338-0.052,0.501C12.775,6.439,12.457,7,12.002,7.423
	c-0.133,0.124-0.277,0.235-0.432,0.332c-0.447,0.282-0.973,0.452-1.539,0.452c-0.563,0-1.084-0.168-1.528-0.446
	c-0.155-0.097-0.3-0.208-0.435-0.33C7.61,7.006,7.289,6.442,7.178,5.801c-0.029-0.162-0.051-0.328-0.051-0.5
	C7.127,5.138,7.148,4.979,7.176,4.821 M6.333,6.234C6.487,6.848,6.79,7.4,7.202,7.857C6.547,8.253,5.979,8.78,5.54,9.405
	C5.411,9.009,5.113,8.673,4.693,8.523c-0.253-0.091-0.515-0.1-0.76-0.046C4.552,7.559,5.376,6.793,6.333,6.234 M3.38,9.471
	C3.569,9.024,4.074,8.79,4.538,8.957c0.232,0.084,0.419,0.253,0.524,0.478S5.18,9.91,5.097,10.143c-0.002,0.004,0.001,0.008,0,0.012
	c-0.308,0.628-0.499,1.322-0.547,2.054c-0.235-0.045-0.476-0.072-0.723-0.072c-0.396,0-0.771,0.078-1.132,0.189
	C2.729,11.309,2.971,10.343,3.38,9.471 M5.492,18.338c-0.276,0.195-0.59,0.336-0.926,0.426c-0.236,0.063-0.481,0.107-0.739,0.107
	c-1.603,0-2.905-1.305-2.905-2.908c0-0.844,0.368-1.6,0.945-2.131c0.249-0.229,0.534-0.42,0.852-0.551
	c0.342-0.143,0.716-0.223,1.108-0.223c0.257,0,0.501,0.045,0.737,0.107c0.171,0.045,0.336,0.102,0.493,0.176
	c0.986,0.465,1.675,1.461,1.675,2.621c0,0.131-0.021,0.254-0.039,0.379c-0.022,0.178-0.062,0.348-0.114,0.512
	C6.382,17.459,6.003,17.98,5.492,18.338 M6.279,18.879c0.476-0.4,0.857-0.902,1.094-1.488C8.047,17.766,8.807,18,9.615,18.064
	c-0.219,0.252-0.35,0.584-0.342,0.945c0.01,0.346,0.148,0.652,0.361,0.889C8.414,19.834,7.272,19.471,6.279,18.879 M10.641,19.889
	c-0.48,0.008-0.891-0.393-0.906-0.893c-0.013-0.496,0.367-0.908,0.851-0.938c0.737-0.072,1.433-0.291,2.056-0.625
	c0.241,0.578,0.629,1.072,1.105,1.467C12.82,19.445,11.768,19.795,10.641,19.889 M16.172,18.871c-0.24,0-0.47-0.039-0.693-0.094
	c-0.342-0.084-0.66-0.221-0.942-0.414c-0.509-0.35-0.892-0.861-1.099-1.455c-0.054-0.158-0.098-0.32-0.125-0.49
	c-0.022-0.148-0.045-0.299-0.045-0.455c0-1.199,0.732-2.232,1.773-2.674c0.156-0.066,0.32-0.115,0.488-0.154
	c0.207-0.047,0.422-0.076,0.643-0.076c0.416,0,0.811,0.092,1.169,0.25c0.315,0.139,0.601,0.334,0.847,0.57
	c0.547,0.527,0.89,1.266,0.89,2.084C19.077,17.566,17.773,18.871,16.172,18.871"/>
<path fill="#FFFFFF" d="M9.96,17.6c0.026-0.002,0.054-0.006,0.079-0.008l-0.004-0.002C10.01,17.592,9.984,17.598,9.96,17.6"/>
</svg>
