<?xml version="1.0" encoding="utf-8"?>
<!-- Generator: Adobe Illustrator 16.0.0, SVG Export Plug-In . SVG Version: 6.00 Build 0)  -->
<!DOCTYPE svg PUBLIC "-//W3C//DTD SVG 1.1//EN" "http://www.w3.org/Graphics/SVG/1.1/DTD/svg11.dtd">
<svg version="1.1" id="Layer_1" xmlns="http://www.w3.org/2000/svg" xmlns:xlink="http://www.w3.org/1999/xlink" x="0px" y="0px"
	 width="19.625px" height="20px" viewBox="0 0 19.625 20" enable-background="new 0 0 19.625 20" xml:space="preserve">
<g>
	<defs>
		<rect id="SVGID_1_" width="19.625" height="20"/>
	</defs>
	<clipPath id="SVGID_2_">
		<use xlink:href="#SVGID_1_"  overflow="visible"/>
	</clipPath>
	<path clip-path="url(#SVGID_2_)" fill="#F06592" d="M5.363,9.32c-0.745,0-1.351,0.604-1.351,1.348c0,0.748,0.606,1.357,1.351,1.357
		c0.746,0,1.353-0.609,1.353-1.357C6.716,9.924,6.109,9.32,5.363,9.32"/>
	<path clip-path="url(#SVGID_2_)" fill="#FFFFFF" d="M17.625,6.085H2c-0.552,0-1,0.449-1,1V18c0,0.531,0.42,0.958,0.945,0.988
		L13.17,9.09c0.101-0.089,0.231-0.139,0.366-0.123c0.134,0.009,0.259,0.071,0.345,0.173l4.744,5.547V7.085
		C18.625,6.534,18.176,6.085,17.625,6.085 M5.363,13.025c-1.298,0-2.351-1.055-2.351-2.357c0-1.295,1.053-2.348,2.351-2.348
		c1.295,0,2.353,1.053,2.353,2.348C7.716,11.971,6.658,13.025,5.363,13.025"/>
	<rect x="6.078" y="1.025" clip-path="url(#SVGID_2_)" fill="#F06592" width="12.547" height="1.76"/>
	<path clip-path="url(#SVGID_2_)" fill="#FAC41D" d="M3.444,19h14.181c0.551,0,1-0.449,1-1v-1.774l-5.174-6.05L3.444,19z"/>
	<rect x="1" y="1" clip-path="url(#SVGID_2_)" fill="#FFFFFF" width="1.786" height="1.785"/>
	<path clip-path="url(#SVGID_2_)" fill="#465C65" d="M5.363,8.32c-1.298,0-2.351,1.053-2.351,2.348c0,1.303,1.053,2.357,2.351,2.357
		c1.295,0,2.353-1.055,2.353-2.357C7.716,9.373,6.658,8.32,5.363,8.32 M5.363,12.025c-0.745,0-1.351-0.609-1.351-1.357
		c0-0.743,0.606-1.348,1.351-1.348c0.746,0,1.353,0.604,1.353,1.348C6.716,11.416,6.109,12.025,5.363,12.025"/>
	<path clip-path="url(#SVGID_2_)" fill="#465C65" d="M18.625,0.025H6.078c-0.55,0-1,0.449-1,1v1.76c0,0.55,0.45,1,1,1h12.547
		c0.55,0,1-0.45,1-1v-1.76C19.625,0.475,19.175,0.025,18.625,0.025 M18.625,2.785H6.078v-1.76h12.547V2.785z"/>
	<path clip-path="url(#SVGID_2_)" fill="#465C65" d="M17.625,5.086H2c-1.1,0-2,0.9-2,2V18c0,0.646,0.315,1.216,0.793,1.583
		c0.12,0.091,0.248,0.172,0.387,0.235C1.431,19.933,1.707,20,2,20h15.625c0.293,0,0.568-0.067,0.82-0.182
		c0.139-0.063,0.267-0.145,0.387-0.235c0.479-0.367,0.793-0.938,0.793-1.583V7.086C19.625,5.986,18.725,5.086,17.625,5.086
		 M18.625,18c0,0.552-0.449,1-1,1H3.444l10.007-8.824l5.174,6.05V18z M18.625,14.687L13.881,9.14
		c-0.087-0.102-0.211-0.164-0.345-0.174C13.4,8.952,13.27,9.001,13.171,9.09L1.945,18.989C1.42,18.959,1,18.532,1,18V7.086
		c0-0.551,0.448-1,1-1h15.625c0.551,0,1,0.449,1,1V14.687z"/>
	<path clip-path="url(#SVGID_2_)" fill="#465C65" d="M1,3.785h1.786c0.55,0,1-0.45,1-1V1c0-0.55-0.45-1-1-1H1C0.45,0,0,0.45,0,1
		v1.785C0,3.335,0.45,3.785,1,3.785 M1,1h1.786v1.785H1V1z"/>
</g>
</svg>
