<?xml version="1.0" encoding="utf-8"?>
<!-- Generator: Adobe Illustrator 16.0.0, SVG Export Plug-In . SVG Version: 6.00 Build 0)  -->
<!DOCTYPE svg PUBLIC "-//W3C//DTD SVG 1.1//EN" "http://www.w3.org/Graphics/SVG/1.1/DTD/svg11.dtd">
<svg version="1.1" id="Layer_1" xmlns="http://www.w3.org/2000/svg" xmlns:xlink="http://www.w3.org/1999/xlink" x="0px" y="0px"
	 width="19.625px" height="20px" viewBox="0 0 19.625 20" enable-background="new 0 0 19.625 20" xml:space="preserve">
<g>
	<path fill="#FFFFFF" d="M5.363,8.32c-1.298,0-2.351,1.053-2.351,2.348c0,1.303,1.053,2.357,2.351,2.357
		c1.295,0,2.353-1.055,2.353-2.357C7.716,9.373,6.658,8.32,5.363,8.32 M5.363,12.025c-0.745,0-1.351-0.609-1.351-1.357
		c0-0.743,0.606-1.348,1.351-1.348c0.746,0,1.353,0.604,1.353,1.348C6.716,11.416,6.109,12.025,5.363,12.025"/>
	<path fill="#FFFFFF" d="M6.078,3.785h12.547c0.55,0,1-0.45,1-1v-1.76c0-0.551-0.45-1-1-1H6.078c-0.55,0-1,0.449-1,1v1.76
		C5.078,3.335,5.528,3.785,6.078,3.785 M6.078,1.025h12.547v1.76H6.078V1.025z"/>
	<path fill="#FFFFFF" d="M19.627,7.086c0-1.1-0.9-2-2-2H2.001c-1.1,0-2,0.9-2,2V18c0,0.646,0.315,1.216,0.794,1.583
		c0.119,0.091,0.247,0.172,0.386,0.235C1.433,19.933,1.708,20,2.001,20h15.625c0.293,0,0.568-0.067,0.82-0.182
		c0.139-0.063,0.266-0.145,0.387-0.235c0.478-0.367,0.793-0.937,0.793-1.583V7.086z M1.001,18V7.086c0-0.552,0.449-1,1-1h15.625
		c0.551,0,1,0.448,1,1v7.601L13.883,9.14c-0.088-0.102-0.211-0.164-0.346-0.174c-0.135-0.014-0.266,0.035-0.365,0.124L1.947,18.989
		C1.421,18.959,1.001,18.532,1.001,18 M18.627,18c0,0.551-0.449,1-1,1H3.446l10.007-8.824l5.174,6.05V18z"/>
	<path fill="#FFFFFF" d="M1,3.785h1.786c0.55,0,1-0.45,1-1V1c0-0.55-0.45-1-1-1H1C0.45,0,0,0.45,0,1v1.785
		C0,3.335,0.45,3.785,1,3.785 M1,1h1.786v1.785H1V1z"/>
</g>
</svg>
