<?xml version="1.0" encoding="utf-8"?>
<!-- Generator: Adobe Illustrator 16.0.0, SVG Export Plug-In . SVG Version: 6.00 Build 0)  -->
<!DOCTYPE svg PUBLIC "-//W3C//DTD SVG 1.1//EN" "http://www.w3.org/Graphics/SVG/1.1/DTD/svg11.dtd">
<svg version="1.1" id="Layer_1" xmlns="http://www.w3.org/2000/svg" xmlns:xlink="http://www.w3.org/1999/xlink" x="0px" y="0px"
	 width="20px" height="19.366px" viewBox="0 1.475 20 19.366" enable-background="new 0 1.475 20 19.366" xml:space="preserve">
<g>
	<path fill="#FFFFFF" d="M10.525,11.162c0.025-0.002,0.053-0.006,0.078-0.008L10.6,11.152C10.574,11.153,10.55,11.16,10.525,11.162"
		/>
	<path fill="#989898" d="M10.525,11.162c0.026-0.002,0.053-0.006,0.079-0.008l-0.004-0.002
		C10.576,11.153,10.552,11.16,10.525,11.162"/>
	<path fill="#989898" d="M10.525,17.6c0.025-0.002,0.053-0.006,0.078-0.008L10.6,17.59C10.574,17.591,10.55,17.598,10.525,17.6"/>
	<path fill="#FFFFFF" d="M9.999,20.464c-4.313,0-7.82-3.508-7.82-7.82s3.507-7.821,7.82-7.821c4.312,0,7.82,3.509,7.82,7.821
		S14.311,20.464,9.999,20.464"/>
	<path fill="#F06592" d="M13.293,5.191c0,1.794-1.454,3.249-3.25,3.249c-1.793,0-3.248-1.455-3.248-3.249
		c0-1.795,1.455-3.249,3.248-3.249C11.839,1.942,13.293,3.396,13.293,5.191"/>
	<path fill="#FAC41D" d="M7.075,15.965c0,1.794-1.454,3.249-3.25,3.249c-1.793,0-3.248-1.455-3.248-3.249
		c0-1.796,1.455-3.249,3.248-3.249C5.622,12.716,7.075,14.169,7.075,15.965"/>
	<path fill="#FFFFFF" d="M19.42,15.965c0,1.794-1.453,3.249-3.25,3.249c-1.793,0-3.247-1.455-3.247-3.249
		c0-1.796,1.454-3.249,3.247-3.249C17.967,12.716,19.42,14.169,19.42,15.965"/>
	<path fill="#465C65" d="M18.289,12.779c0.002-0.07,0.01-0.138,0.01-0.208c0-3.18-1.807-5.943-4.445-7.326
		c-0.031-2.084-1.73-3.771-3.823-3.771c-2.09,0-3.789,1.686-3.82,3.77C3.569,6.626,1.76,9.39,1.76,12.571
		c0,0.059,0.008,0.116,0.009,0.175C0.708,13.427,0,14.611,0,15.963c0,2.111,1.717,3.829,3.827,3.829
		c0.571,0,1.108-0.134,1.595-0.358c1.318,0.888,2.903,1.407,4.609,1.407c1.693,0,3.267-0.514,4.58-1.39
		c0.478,0.215,1.004,0.341,1.562,0.341c2.11,0,3.827-1.718,3.827-3.829C19.999,14.635,19.318,13.466,18.289,12.779 M16.573,9.247
		c0.478,0.937,0.759,1.986,0.793,3.1c-0.379-0.125-0.774-0.211-1.194-0.211c-0.217,0-0.426,0.029-0.633,0.064
		c-0.048-0.719-0.234-1.4-0.533-2.018c0.004,0.001,0.006,0.003,0.011,0.004c0.088,0.017,0.176,0.024,0.262,0.024
		c0.271,0,0.534-0.08,0.763-0.233C16.309,9.796,16.485,9.534,16.573,9.247 M12.5,16.983c-0.572,0.319-1.213,0.532-1.896,0.607
		c-0.025,0.003-0.053,0.007-0.079,0.009c-0.158,0.015-0.318,0.024-0.48,0.024c-0.923,0-1.786-0.253-2.531-0.687
		c0.083-0.313,0.141-0.637,0.141-0.975c0-1.696-1.118-3.123-2.651-3.623c0.081-1.777,1.082-3.317,2.541-4.152
		c0.67,0.579,1.532,0.941,2.486,0.941c0.959,0,1.826-0.366,2.499-0.952c1.46,0.829,2.465,2.362,2.555,4.137
		c-1.578,0.472-2.74,1.92-2.74,3.649C12.344,16.318,12.409,16.656,12.5,16.983 M16.025,8.339L16.025,8.339
		c0.279,0.413,0.169,0.977-0.244,1.257c-0.199,0.135-0.439,0.186-0.677,0.139c-0.238-0.046-0.442-0.183-0.578-0.382
		c-0.007-0.011-0.021-0.011-0.028-0.02c-0.438-0.599-0.99-1.104-1.629-1.487c0.407-0.454,0.707-1.003,0.861-1.611
		C14.637,6.767,15.42,7.484,16.025,8.339 M7.175,4.82c0.231-1.373,1.418-2.424,2.855-2.424c1.438,0,2.627,1.052,2.856,2.425
		c0.027,0.157,0.05,0.316,0.05,0.479c0,0.173-0.022,0.338-0.052,0.501C12.774,6.438,12.457,7,12.002,7.423
		c-0.133,0.124-0.277,0.235-0.432,0.332c-0.447,0.282-0.973,0.452-1.54,0.452c-0.562,0-1.083-0.168-1.528-0.446
		c-0.155-0.097-0.3-0.208-0.434-0.33c-0.458-0.425-0.78-0.989-0.891-1.63c-0.029-0.162-0.051-0.328-0.051-0.5
		C7.126,5.138,7.148,4.979,7.175,4.82 M6.333,6.233C6.487,6.848,6.79,7.399,7.202,7.856C6.546,8.253,5.979,8.779,5.54,9.404
		C5.411,9.009,5.113,8.673,4.693,8.522c-0.253-0.091-0.515-0.1-0.76-0.046C4.551,7.559,5.375,6.793,6.333,6.233 M3.379,9.471
		c0.19-0.447,0.695-0.682,1.158-0.515C4.771,9.04,4.957,9.209,5.063,9.434c0.105,0.225,0.117,0.476,0.034,0.709
		c-0.002,0.004,0.001,0.008,0,0.012c-0.308,0.628-0.499,1.322-0.547,2.055c-0.235-0.045-0.475-0.073-0.723-0.073
		c-0.396,0-0.771,0.078-1.131,0.19C2.729,11.309,2.97,10.343,3.379,9.471 M5.492,18.338c-0.277,0.195-0.59,0.335-0.926,0.425
		c-0.237,0.063-0.482,0.107-0.74,0.107c-1.602,0-2.905-1.304-2.905-2.907c0-0.845,0.368-1.6,0.946-2.131
		c0.249-0.229,0.534-0.42,0.851-0.552c0.342-0.142,0.716-0.222,1.108-0.222c0.257,0,0.501,0.044,0.738,0.106
		c0.171,0.045,0.336,0.103,0.493,0.177c0.986,0.465,1.675,1.46,1.675,2.621c0,0.13-0.022,0.254-0.039,0.379
		c-0.023,0.177-0.062,0.347-0.115,0.512C6.381,17.458,6.002,17.979,5.492,18.338 M6.279,18.878c0.475-0.4,0.857-0.902,1.093-1.487
		C8.046,17.766,8.807,18,9.615,18.063c-0.219,0.253-0.351,0.584-0.342,0.945c0.01,0.346,0.148,0.653,0.361,0.89
		C8.414,19.833,7.272,19.471,6.279,18.878 M10.641,19.888c-0.481,0.008-0.891-0.393-0.906-0.892
		c-0.013-0.496,0.367-0.908,0.85-0.938c0.737-0.072,1.433-0.29,2.057-0.624c0.24,0.577,0.629,1.071,1.105,1.466
		C12.819,19.445,11.767,19.794,10.641,19.888 M16.172,18.87c-0.24,0-0.471-0.038-0.694-0.093c-0.341-0.084-0.66-0.222-0.942-0.415
		c-0.509-0.349-0.892-0.86-1.098-1.454c-0.055-0.159-0.098-0.321-0.125-0.491c-0.023-0.148-0.045-0.299-0.045-0.454
		c0-1.2,0.732-2.232,1.773-2.675c0.155-0.065,0.319-0.115,0.488-0.153c0.207-0.047,0.421-0.076,0.643-0.076
		c0.416,0,0.81,0.092,1.168,0.25c0.315,0.139,0.602,0.333,0.847,0.569c0.547,0.528,0.89,1.267,0.89,2.085
		C19.076,17.566,17.773,18.87,16.172,18.87"/>
</g>
</svg>
