<?xml version="1.0" encoding="utf-8"?>
<!-- Generator: Adobe Illustrator 16.0.0, SVG Export Plug-In . SVG Version: 6.00 Build 0)  -->
<!DOCTYPE svg PUBLIC "-//W3C//DTD SVG 1.1//EN" "http://www.w3.org/Graphics/SVG/1.1/DTD/svg11.dtd">
<svg version="1.1" id="Layer_1" xmlns="http://www.w3.org/2000/svg" xmlns:xlink="http://www.w3.org/1999/xlink" x="0px" y="0px"
	 width="17.238px" height="20px" viewBox="0 0 17.238 20" enable-background="new 0 0 17.238 20" xml:space="preserve">
<path fill="#FFFFFF" d="M2.064,9.804c4.613,3.803,5.336,4.379,5.343,4.384c0.114,0.091,0.18,0.228,0.18,0.374v4.229l2.046-0.904
	l0.007-3.331c0.004-0.166,0.092-0.313,0.226-0.397c0.229-0.198,1.313-1.114,5.313-4.355c0.41-0.334,0.682-0.593,0.854-0.878H1.208
	C1.379,9.203,1.65,9.461,2.064,9.804"/>
<path fill="#F06592" d="M2.575,6.672H0.954V7.81c0,0.057,0.004,0.105,0.006,0.159h15.317c0.004-0.054,0.008-0.103,0.008-0.159V6.672
	h-1.62H2.575z"/>
<path fill="#FAC41D" d="M13.711,2.894l-0.039-0.037h-1.864V0.993l-0.039-0.04H3.529v4.766h10.182V2.894z M11.125,4.369H5.261
	c-0.132,0-0.239-0.106-0.239-0.238s0.107-0.238,0.239-0.238h5.864c0.133,0,0.239,0.106,0.239,0.238S11.258,4.369,11.125,4.369
	 M11.125,2.758H5.261c-0.132,0-0.239-0.107-0.239-0.239c0-0.131,0.107-0.238,0.239-0.238h5.864c0.133,0,0.239,0.107,0.239,0.238
	C11.364,2.65,11.258,2.758,11.125,2.758"/>
<path fill="#465C65" d="M11.125,2.28H5.261c-0.132,0-0.239,0.107-0.239,0.238c0,0.132,0.107,0.239,0.239,0.239h5.864
	c0.133,0,0.239-0.107,0.239-0.239C11.364,2.388,11.258,2.28,11.125,2.28"/>
<path fill="#465C65" d="M11.125,3.893H5.261c-0.132,0-0.239,0.106-0.239,0.238s0.107,0.238,0.239,0.238h5.864
	c0.133,0,0.239-0.106,0.239-0.238S11.258,3.893,11.125,3.893"/>
<path fill="#465C65" d="M16.762,5.718h-2.098V2.695c0-0.126-0.049-0.247-0.139-0.337l-2.223-2.22C12.214,0.051,12.092,0,11.966,0
	H3.052C2.789,0,2.575,0.214,2.575,0.477v5.241H0.477C0.214,5.718,0,5.932,0,6.194v1.614c0,1.423,0.577,2.005,1.458,2.731
	c3.494,2.881,4.761,3.914,5.176,4.25v4.732c0,0.161,0.081,0.313,0.216,0.4C6.929,19.974,7.02,20,7.11,20
	c0.066,0,0.132-0.014,0.193-0.04l3-1.327c0.173-0.076,0.284-0.248,0.284-0.436v-3.206l0.004-0.197
	c0.382-0.323,1.636-1.371,5.188-4.252c0.738-0.599,1.187-1.092,1.367-1.853c0.025-0.106,0.042-0.221,0.057-0.339
	c0.021-0.168,0.035-0.345,0.035-0.542V6.194C17.238,5.932,17.025,5.718,16.762,5.718 M3.529,0.954h8.24l0.039,0.039v1.862h1.865
	l0.038,0.038v2.824H3.529V0.954z M15.179,9.801c-3.999,3.243-5.082,4.159-5.313,4.357c-0.134,0.083-0.222,0.23-0.225,0.396
	l-0.008,3.331l-2.046,0.905v-4.23c0-0.145-0.066-0.282-0.18-0.373c-0.007-0.006-0.73-0.582-5.343-4.384
	C1.65,9.462,1.38,9.204,1.208,8.923h14.826C15.861,9.209,15.591,9.467,15.179,9.801 M16.285,7.809c0,0.059-0.004,0.107-0.006,0.16
	H0.961c-0.003-0.053-0.007-0.102-0.007-0.16V6.672h1.621h12.089h1.621V7.809z"/>
</svg>
