<?xml version="1.0" encoding="utf-8"?>
<!-- Generator: Adobe Illustrator 16.0.0, SVG Export Plug-In . SVG Version: 6.00 Build 0)  -->
<!DOCTYPE svg PUBLIC "-//W3C//DTD SVG 1.1//EN" "http://www.w3.org/Graphics/SVG/1.1/DTD/svg11.dtd">
<svg version="1.1" id="Layer_1" xmlns="http://www.w3.org/2000/svg" xmlns:xlink="http://www.w3.org/1999/xlink" x="0px" y="0px"
	 width="16px" height="16px" viewBox="0 0 16 16" enable-background="new 0 0 16 16" xml:space="preserve">
<path d="M8,0C3.582,0,0,3.582,0,8c0,3.275,1.968,6.09,4.789,7.327c-0.022-0.56-0.004-1.229,0.139-1.837
	c0.154-0.65,1.029-4.359,1.029-4.359S5.701,8.62,5.701,7.865c0-1.186,0.688-2.07,1.544-2.07c0.728,0,1.079,0.545,1.079,1.2
	c0,0.731-0.467,1.825-0.707,2.839c-0.199,0.848,0.426,1.541,1.262,1.541c1.517,0,2.537-1.947,2.537-4.254
	c0-1.753-1.181-3.064-3.328-3.064c-2.427,0-3.938,1.809-3.938,3.83c0,0.697,0.206,1.188,0.528,1.57
	c0.147,0.174,0.168,0.244,0.113,0.444c-0.037,0.147-0.125,0.502-0.162,0.642c-0.054,0.205-0.218,0.276-0.4,0.201
	c-1.118-0.456-1.639-1.68-1.639-3.056c0-2.272,1.916-4.998,5.719-4.998c3.054,0,5.064,2.21,5.064,4.583
	c0,3.138-1.746,5.482-4.318,5.482c-0.863,0-1.676-0.467-1.953-0.996c0,0-0.465,1.843-0.563,2.199
	c-0.17,0.615-0.502,1.232-0.806,1.713C6.452,15.885,7.212,16,8,16c4.418,0,8-3.582,8-8S12.417,0,8,0"/>
</svg>
