<?xml version="1.0" encoding="utf-8"?>
<!-- Generator: Adobe Illustrator 16.0.0, SVG Export Plug-In . SVG Version: 6.00 Build 0)  -->
<!DOCTYPE svg PUBLIC "-//W3C//DTD SVG 1.1//EN" "http://www.w3.org/Graphics/SVG/1.1/DTD/svg11.dtd">
<svg version="1.1" id="Layer_1" xmlns="http://www.w3.org/2000/svg" xmlns:xlink="http://www.w3.org/1999/xlink" x="0px" y="0px"
	 width="16px" height="13.002px" viewBox="0 0 16 13.002" enable-background="new 0 0 16 13.002" xml:space="preserve">
<path d="M16,1.539c-0.589,0.261-1.222,0.438-1.886,0.517c0.678-0.406,1.199-1.049,1.443-1.815c-0.634,0.376-1.336,0.649-2.084,0.797
	C12.875,0.397,12.022,0,11.078,0C9.265,0,7.795,1.47,7.795,3.283c0,0.257,0.028,0.507,0.085,0.747
	c-2.729-0.137-5.146-1.443-6.766-3.43C0.832,1.086,0.67,1.649,0.67,2.251c0,1.139,0.579,2.145,1.459,2.732
	c-0.537-0.017-1.043-0.166-1.485-0.41v0.041c0,1.59,1.131,2.917,2.633,3.219C3.001,7.907,2.71,7.948,2.411,7.948
	c-0.211,0-0.418-0.021-0.618-0.059c0.418,1.303,1.63,2.252,3.065,2.279c-1.121,0.88-2.537,1.405-4.076,1.405
	c-0.264,0-0.525-0.017-0.782-0.046c1.453,0.931,3.178,1.474,5.032,1.474c6.037,0,9.34-5.001,9.34-9.339
	c0-0.143-0.004-0.283-0.01-0.425C15.003,2.776,15.56,2.198,16,1.539"/>
</svg>
