<?xml version="1.0" encoding="utf-8"?>
<!-- Generator: Adobe Illustrator 16.0.0, SVG Export Plug-In . SVG Version: 6.00 Build 0)  -->
<!DOCTYPE svg PUBLIC "-//W3C//DTD SVG 1.1//EN" "http://www.w3.org/Graphics/SVG/1.1/DTD/svg11.dtd">
<svg version="1.1" id="Layer_1" xmlns="http://www.w3.org/2000/svg" xmlns:xlink="http://www.w3.org/1999/xlink" x="0px" y="0px"
	 width="16.001px" height="16.001px" viewBox="0 0 16.001 16.001" enable-background="new 0 0 16.001 16.001" xml:space="preserve">
<g>
	<path d="M2.814,6.706c0,0,0.003,0.003,0.005,0.004C3.34,7.232,3.968,7.502,4.698,7.521c0.027,0.001,0.055,0.001,0.084,0.001
		c0.029,0,0.057,0,0.089-0.001c0.218-0.006,0.428-0.036,0.627-0.088c0.108-0.028,0.191-0.092,0.25-0.189
		C5.781,7.188,5.8,7.129,5.804,7.069V7.011C5.802,6.985,5.798,6.96,5.791,6.932C5.762,6.824,5.699,6.74,5.601,6.683
		C5.502,6.624,5.398,6.611,5.288,6.639c-0.14,0.037-0.286,0.057-0.441,0.06C4.825,6.702,4.803,6.702,4.782,6.702
		c-0.539,0-1.001-0.191-1.382-0.572C3.398,6.129,3.397,6.127,3.395,6.126c-0.38-0.383-0.57-0.84-0.57-1.377
		c0-0.537,0.191-0.996,0.572-1.377V3.371L3.4,3.37c0.381-0.381,0.843-0.572,1.382-0.572c0.021,0,0.043,0,0.065,0.002
		C5.002,2.804,5.15,2.824,5.29,2.861c0.111,0.027,0.214,0.012,0.312-0.046c0.097-0.057,0.161-0.141,0.189-0.25
		c0.007-0.031,0.011-0.057,0.013-0.086v-0.04C5.802,2.376,5.782,2.314,5.747,2.253C5.689,2.156,5.605,2.094,5.496,2.065
		c-0.199-0.052-0.408-0.08-0.625-0.087c-0.032,0-0.06,0-0.089,0c-0.767,0-1.421,0.27-1.963,0.811V2.79L2.815,2.793H2.814
		C2.273,3.335,2.003,3.986,2.003,4.749C2.003,5.512,2.273,6.164,2.814,6.706"/>
	<path d="M7.218,7.56c0.113,0,0.209-0.04,0.29-0.12V7.439c0.081-0.08,0.121-0.175,0.121-0.289l0.002-4.733
		C7.629,2.31,7.589,2.216,7.51,2.138L7.509,2.137c-0.081-0.079-0.177-0.12-0.289-0.12H7.217c-0.112,0-0.207,0.041-0.287,0.12
		c-0.08,0.081-0.122,0.177-0.122,0.29L6.807,7.15c0,0.113,0.04,0.209,0.121,0.289S7.104,7.559,7.218,7.56"/>
	<path d="M7.529,8.486c-0.112,0-0.207,0.04-0.288,0.118l-2.078,2.072L3.092,8.61C3.011,8.529,2.914,8.488,2.8,8.488
		c-0.113,0-0.21,0.041-0.29,0.122C2.429,8.689,2.389,8.786,2.389,8.898c0,0.114,0.04,0.211,0.121,0.291l2.242,2.237v2.19
		c0,0.113,0.04,0.211,0.122,0.292c0.08,0.079,0.176,0.119,0.289,0.119c0.114,0,0.211-0.04,0.292-0.119
		c0.08-0.081,0.12-0.179,0.12-0.292v-2.189l2.247-2.241C7.9,9.109,7.94,9.015,7.943,8.907V8.886C7.941,8.777,7.9,8.685,7.822,8.608
		V8.607c-0.081-0.081-0.177-0.121-0.29-0.121H7.529z"/>
	<path d="M8.561,7.442C8.592,7.473,8.628,7.498,8.67,7.519c0.057,0.028,0.115,0.043,0.173,0.044h4.751
		c0.058-0.001,0.116-0.016,0.173-0.044c0.042-0.021,0.078-0.046,0.109-0.077c0.044-0.043,0.078-0.096,0.099-0.158
		c0.014-0.042,0.022-0.083,0.022-0.123V7.139c-0.001-0.057-0.016-0.113,0.044,0.004l-2.347-4.724
		c-0.137-0.274-0.216-0.343-0.322-0.379c-0.036-0.012-0.071-0.02-0.105-0.023c-0.008,0-0.016,0-0.024,0c-0.008,0-0.016,0-0.024,0
		c-0.017,0-0.034,0-0.049,0C11.135,2.02,11.1,2.028,11.066,2.04c-0.108,0.036-0.186,0.105-0.236,0.207L8.485,6.97
		C8.433,7.072,8.427,7.177,8.464,7.284C8.485,7.346,8.517,7.399,8.561,7.442 M11.219,3.311l1.704,3.431H9.515L11.219,3.311z"/>
	<path d="M8.813,13.218c0.523,0.523,1.155,0.795,1.891,0.812h0.143c0.736-0.017,1.366-0.288,1.892-0.813h0.001l0,0
		c0.528-0.527,0.8-1.17,0.814-1.93v-0.029v-0.073c-0.023-0.739-0.295-1.368-0.813-1.886v0.001L12.74,9.297
		c-0.543-0.541-1.198-0.812-1.965-0.812c-0.767,0-1.422,0.271-1.964,0.812H8.81c-0.542,0.54-0.813,1.194-0.813,1.959
		c0,0.765,0.271,1.418,0.814,1.959L8.813,13.218z M9.392,9.876c0.382-0.38,0.843-0.571,1.383-0.571c0.541,0,1.002,0.191,1.383,0.571
		l0.001,0.001c0.382,0.382,0.573,0.841,0.573,1.379c0,0.54-0.191,0.999-0.574,1.379h-0.001c-0.381,0.383-0.842,0.572-1.382,0.572
		s-1.001-0.189-1.381-0.57l-0.002-0.002c-0.382-0.379-0.572-0.84-0.572-1.379C8.82,10.718,9.01,10.257,9.392,9.876"/>
	<path d="M15.312,7.553h-0.135v6.008c0,0.273-0.06,0.527-0.176,0.749c-0.076,0.146-0.181,0.282-0.307,0.409
		c-0.323,0.324-0.704,0.482-1.163,0.482H5.581v0.477v0.322h8.02c1.32,0,2.4-1.082,2.4-2.4V7.553H15.312z"/>
	<path d="M2.401,0C1.081,0,0,1.08,0,2.4v4.271l0.5,0.498l0.277,0.277V2.487c0-0.275,0.06-0.527,0.176-0.751
		C1.03,1.59,1.133,1.452,1.259,1.327c0.325-0.324,0.704-0.48,1.163-0.48h9.096l0.205-0.414L11.938,0H2.401z"/>
	<path d="M13.601,0h-0.454h-1.208l-0.215,0.433l-0.206,0.414h1.629h0.385c0.459,0,0.84,0.156,1.163,0.479
		c0.127,0.127,0.23,0.264,0.307,0.409c0.116,0.225,0.176,0.477,0.176,0.752v3.607v1.459h0.135H16V6.676V2.4
		C16,1.08,14.92,0,13.601,0"/>
	<path d="M3.437,15.202H2.422c-0.276,0-0.529-0.061-0.752-0.178c-0.147-0.076-0.286-0.178-0.411-0.305
		c-0.325-0.322-0.482-0.701-0.482-1.158V7.96V7.446L0.5,7.169L0,6.671V7.96v5.641C0,14.92,1.08,16,2.401,16h1.332h1.848v-0.321
		v-0.477H3.437z"/>
</g>
</svg>
