<?xml version="1.0" encoding="utf-8"?>
<!-- Generator: Adobe Illustrator 16.0.0, SVG Export Plug-In . SVG Version: 6.00 Build 0)  -->
<!DOCTYPE svg PUBLIC "-//W3C//DTD SVG 1.1//EN" "http://www.w3.org/Graphics/SVG/1.1/DTD/svg11.dtd">
<svg version="1.1" id="Layer_1" xmlns="http://www.w3.org/2000/svg" xmlns:xlink="http://www.w3.org/1999/xlink" x="0px" y="0px"
	 width="16.001px" height="16.001px" viewBox="0 0 16.001 16.001" enable-background="new 0 0 16.001 16.001" xml:space="preserve">
<g>
	<path fill="#EE4481" d="M2.814,6.707c0,0,0.003,0.003,0.005,0.004c0.521,0.521,1.149,0.792,1.88,0.811
		c0.026,0.001,0.055,0.001,0.084,0.001c0.028,0,0.057,0,0.089-0.001c0.218-0.006,0.428-0.036,0.627-0.088
		c0.107-0.028,0.19-0.092,0.25-0.189C5.782,7.188,5.8,7.13,5.804,7.069V7.012C5.802,6.985,5.798,6.961,5.792,6.933
		C5.762,6.824,5.7,6.74,5.601,6.684C5.502,6.625,5.398,6.611,5.289,6.64c-0.141,0.037-0.286,0.057-0.441,0.06
		C4.826,6.702,4.803,6.702,4.783,6.702c-0.539,0-1.001-0.19-1.384-0.571C3.398,6.13,3.397,6.128,3.395,6.127
		C3.015,5.743,2.826,5.286,2.826,4.75c0-0.537,0.19-0.996,0.571-1.377V3.372L3.399,3.37c0.383-0.381,0.845-0.571,1.384-0.571
		c0.021,0,0.043,0,0.064,0.002C5.002,2.805,5.15,2.824,5.291,2.861c0.11,0.027,0.214,0.013,0.312-0.046
		C5.7,2.759,5.763,2.675,5.792,2.565c0.007-0.031,0.011-0.057,0.013-0.086v-0.04C5.802,2.377,5.783,2.314,5.748,2.254
		C5.689,2.156,5.605,2.095,5.497,2.065c-0.199-0.052-0.408-0.08-0.625-0.087c-0.032,0-0.061,0-0.089,0
		c-0.768,0-1.421,0.271-1.964,0.812v0.001L2.815,2.794H2.814C2.273,3.336,2.003,3.986,2.003,4.75
		C2.003,5.513,2.273,6.165,2.814,6.707"/>
	<path fill="#F89B1F" d="M7.218,7.561c0.113,0,0.209-0.04,0.29-0.12V7.439c0.081-0.08,0.121-0.175,0.121-0.289l0.002-4.732
		C7.629,2.311,7.589,2.217,7.51,2.139L7.509,2.138c-0.081-0.079-0.177-0.12-0.289-0.12H7.217c-0.111,0-0.207,0.041-0.287,0.12
		c-0.08,0.081-0.122,0.177-0.122,0.29L6.807,7.15c0,0.113,0.04,0.209,0.121,0.289S7.105,7.56,7.218,7.561"/>
	<path fill="#02679E" d="M7.529,8.486c-0.112,0-0.207,0.04-0.288,0.118l-2.078,2.072L3.092,8.61C3.011,8.529,2.914,8.488,2.8,8.488
		S2.59,8.529,2.51,8.61C2.429,8.689,2.389,8.787,2.389,8.898c0,0.114,0.04,0.211,0.121,0.291l2.242,2.237v2.189
		c0,0.115,0.039,0.211,0.121,0.293c0.08,0.078,0.177,0.119,0.289,0.119c0.114,0,0.211-0.041,0.292-0.119
		c0.08-0.082,0.12-0.178,0.12-0.293v-2.188l2.247-2.241c0.077-0.077,0.118-0.171,0.12-0.279V8.887
		C7.941,8.777,7.9,8.686,7.822,8.608L7.821,8.607c-0.08-0.081-0.176-0.121-0.289-0.121H7.529z"/>
	<path fill="#F89B1F" d="M8.561,7.442C8.592,7.474,8.628,7.498,8.67,7.52c0.057,0.028,0.115,0.043,0.173,0.044h4.751
		c0.058-0.001,0.116-0.016,0.173-0.044c0.042-0.021,0.078-0.046,0.109-0.077c0.044-0.043,0.078-0.096,0.099-0.158
		c0.014-0.042,0.022-0.083,0.022-0.123V7.14c-0.001-0.058-0.017-0.113,0.044,0.004l-2.348-4.725
		c-0.137-0.273-0.216-0.343-0.321-0.379c-0.036-0.012-0.071-0.02-0.105-0.022c-0.008,0-0.016,0-0.023,0c-0.009,0-0.017,0-0.024,0
		c-0.018,0-0.034,0-0.049,0c-0.035,0.003-0.07,0.011-0.104,0.022c-0.107,0.036-0.186,0.105-0.235,0.207L8.485,6.971
		C8.433,7.072,8.427,7.178,8.464,7.284C8.485,7.347,8.517,7.399,8.561,7.442 M11.219,3.312l1.704,3.431H9.515L11.219,3.312z"/>
	<path fill="#49AFE3" d="M8.813,13.218c0.523,0.524,1.155,0.795,1.892,0.813h0.144c0.735-0.018,1.365-0.288,1.892-0.813h0.001
		v-0.001c0.527-0.527,0.8-1.17,0.813-1.93v-0.029v-0.073c-0.022-0.738-0.295-1.368-0.813-1.886v0.001l-0.001-0.001
		c-0.543-0.541-1.198-0.813-1.966-0.813c-0.767,0-1.422,0.271-1.964,0.813H8.81c-0.542,0.54-0.813,1.194-0.813,1.959
		s0.271,1.419,0.813,1.96L8.813,13.218z M9.392,9.877c0.382-0.38,0.843-0.571,1.383-0.571c0.541,0,1.002,0.191,1.384,0.571
		l0.001,0.001c0.382,0.382,0.572,0.841,0.572,1.379c0,0.539-0.19,0.999-0.573,1.381h-0.001c-0.382,0.381-0.843,0.571-1.383,0.571
		s-1.001-0.19-1.381-0.571H9.392c-0.382-0.381-0.571-0.842-0.571-1.381C8.821,10.719,9.01,10.258,9.392,9.877"/>
	<path fill="#49AFE3" d="M15.312,7.554h-0.135v6.008c0,0.274-0.06,0.527-0.175,0.75c-0.077,0.146-0.182,0.283-0.308,0.41
		c-0.322,0.323-0.704,0.48-1.163,0.48h-7.95v0.479v0.32h8.02c1.32,0,2.4-1.081,2.4-2.4V7.554H15.312z"/>
	<path fill="#EE4481" d="M2.401,0C1.082,0,0,1.08,0,2.4v4.271l0.5,0.497l0.276,0.277V2.487c0-0.274,0.061-0.527,0.178-0.751
		C1.03,1.591,1.133,1.452,1.259,1.327c0.325-0.323,0.705-0.479,1.163-0.479h9.096l0.205-0.414L11.938,0H2.401z"/>
	<path fill="#F89B1F" d="M13.601,0h-0.454h-1.208l-0.215,0.434l-0.206,0.414h1.629h0.385c0.459,0,0.84,0.156,1.163,0.479
		c0.127,0.127,0.23,0.265,0.307,0.409c0.116,0.225,0.176,0.478,0.176,0.752v3.607v1.459h0.135H16V6.677V2.4
		C16,1.08,14.92,0,13.601,0"/>
	<path fill="#02679E" d="M3.437,15.202H2.422c-0.276,0-0.529-0.061-0.752-0.177c-0.146-0.077-0.286-0.179-0.411-0.305
		c-0.325-0.323-0.481-0.701-0.481-1.159V7.96V7.446L0.5,7.169L0,6.671V7.96v5.641c0,1.32,1.08,2.4,2.401,2.4h1.332h1.848V15.68
		v-0.478H3.437z"/>
</g>
</svg>
