<?xml version="1.0" encoding="utf-8"?>
<!-- Generator: Adobe Illustrator 16.0.0, SVG Export Plug-In . SVG Version: 6.00 Build 0)  -->
<!DOCTYPE svg PUBLIC "-//W3C//DTD SVG 1.1//EN" "http://www.w3.org/Graphics/SVG/1.1/DTD/svg11.dtd">
<svg version="1.1" id="Layer_1" xmlns="http://www.w3.org/2000/svg" xmlns:xlink="http://www.w3.org/1999/xlink" x="0px" y="0px"
	 width="16.109px" height="16.111px" viewBox="0 0 16.109 16.111" enable-background="new 0 0 16.109 16.111" xml:space="preserve">
<g>
	<path d="M10.803,5.307c-0.293-0.293-0.768-0.293-1.061,0L8.055,6.995L6.367,5.307c-0.293-0.293-0.768-0.293-1.061,0
		s-0.293,0.768,0,1.061l1.688,1.688L5.306,9.743c-0.293,0.293-0.293,0.768,0,1.061c0.146,0.146,0.338,0.22,0.53,0.22
		s0.384-0.073,0.53-0.22l1.688-1.688l1.688,1.688c0.146,0.146,0.338,0.22,0.53,0.22s0.384-0.073,0.53-0.22
		c0.293-0.293,0.293-0.768,0-1.061L9.115,8.055l1.688-1.688C11.096,6.074,11.096,5.6,10.803,5.307z"/>
	<path d="M8.054,0C3.613,0,0,3.613,0,8.054c0,4.442,3.613,8.057,8.054,8.057c4.442,0,8.055-3.614,8.055-8.057
		C16.109,3.613,12.496,0,8.054,0z M8.054,15.06c-3.862,0-7.004-3.143-7.004-7.006c0-3.862,3.142-7.004,7.004-7.004
		c3.863,0,7.005,3.142,7.005,7.004C15.06,11.917,11.917,15.06,8.054,15.06z"/>
</g>
</svg>
