<?xml version="1.0" encoding="utf-8"?>
<!-- Generator: Adobe Illustrator 16.0.0, SVG Export Plug-In . SVG Version: 6.00 Build 0)  -->
<!DOCTYPE svg PUBLIC "-//W3C//DTD SVG 1.1//EN" "http://www.w3.org/Graphics/SVG/1.1/DTD/svg11.dtd">
<svg version="1.1" id="Layer_1" xmlns="http://www.w3.org/2000/svg" xmlns:xlink="http://www.w3.org/1999/xlink" x="0px" y="0px"
	 width="10.2px" height="10.201px" viewBox="0 0 10.2 10.201" enable-background="new 0 0 10.2 10.201" xml:space="preserve">
<path d="M6.161,5.1L9.98,1.28c0.293-0.293,0.293-0.768,0-1.061s-0.768-0.293-1.061,0L5.1,4.04L1.28,0.22
	c-0.293-0.293-0.768-0.293-1.061,0s-0.293,0.768,0,1.061L4.04,5.1L0.22,8.92c-0.293,0.293-0.293,0.768,0,1.061
	c0.146,0.146,0.338,0.22,0.53,0.22s0.384-0.073,0.53-0.22l3.82-3.82l3.819,3.82c0.146,0.146,0.338,0.22,0.53,0.22
	s0.384-0.073,0.53-0.22c0.293-0.293,0.293-0.768,0-1.061L6.161,5.1z"/>
</svg>
