<?xml version="1.0" encoding="utf-8"?>
<!-- Generator: Adobe Illustrator 16.0.0, SVG Export Plug-In . SVG Version: 6.00 Build 0)  -->
<!DOCTYPE svg PUBLIC "-//W3C//DTD SVG 1.1//EN" "http://www.w3.org/Graphics/SVG/1.1/DTD/svg11.dtd">
<svg version="1.1" id="Layer_1" xmlns="http://www.w3.org/2000/svg" xmlns:xlink="http://www.w3.org/1999/xlink" x="0px" y="0px"
	 width="13.159px" height="16.118px" viewBox="0 0 13.159 16.118" enable-background="new 0 0 13.159 16.118" xml:space="preserve">
<g>
	<g>
		<path d="M13.159,5.172H0V3.12C0,2.46,0.538,1.924,1.198,1.924h10.764c0.66,0,1.197,0.536,1.197,1.195V5.172z M1,4.172h11.159V3.12
			c0-0.107-0.088-0.195-0.197-0.195H1.198C1.089,2.924,1,3.012,1,3.12V4.172z"/>
	</g>
	<g>
		<path d="M10.813,16.118H2.348c-0.739,0-1.341-0.601-1.341-1.34V4.172h11.146v10.605C12.153,15.517,11.552,16.118,10.813,16.118z
			 M2.007,5.172v9.605c0,0.188,0.153,0.34,0.341,0.34h8.465c0.188,0,0.341-0.152,0.341-0.34V5.172H2.007z"/>
	</g>
	<g>
		<path d="M9.269,2.924H3.891V1.126C3.891,0.505,4.396,0,5.018,0h3.125c0.621,0,1.126,0.505,1.126,1.126V2.924z M4.891,1.924h3.378
			V1.126C8.269,1.057,8.212,1,8.143,1H5.018c-0.07,0-0.127,0.057-0.127,0.126V1.924z"/>
	</g>
	<g>
		<path d="M4.016,13.84c-0.276,0-0.5-0.224-0.5-0.5V7.127c0-0.276,0.224-0.5,0.5-0.5s0.5,0.224,0.5,0.5v6.213
			C4.516,13.617,4.292,13.84,4.016,13.84z"/>
	</g>
	<g>
		<path d="M6.58,13.84c-0.276,0-0.5-0.224-0.5-0.5V7.127c0-0.276,0.224-0.5,0.5-0.5s0.5,0.224,0.5,0.5v6.213
			C7.08,13.617,6.856,13.84,6.58,13.84z"/>
	</g>
	<g>
		<path d="M9.145,13.84c-0.276,0-0.5-0.224-0.5-0.5V7.127c0-0.276,0.224-0.5,0.5-0.5s0.5,0.224,0.5,0.5v6.213
			C9.645,13.617,9.421,13.84,9.145,13.84z"/>
	</g>
</g>
</svg>
