<?xml version="1.0" encoding="utf-8"?>
<!-- Generator: Adobe Illustrator 16.0.0, SVG Export Plug-In . SVG Version: 6.00 Build 0)  -->
<!DOCTYPE svg PUBLIC "-//W3C//DTD SVG 1.1//EN" "http://www.w3.org/Graphics/SVG/1.1/DTD/svg11.dtd">
<svg version="1.1" id="Layer_1" xmlns="http://www.w3.org/2000/svg" xmlns:xlink="http://www.w3.org/1999/xlink" x="0px" y="0px"
	 width="19.341px" height="19.965px" viewBox="0 0 19.341 19.965" enable-background="new 0 0 19.341 19.965" xml:space="preserve">
<g>
	<path d="M15.111,13.948h-4.436c-0.27,0-0.532,0.031-0.789,0.08c-0.256-0.049-0.518-0.08-0.789-0.08H6.961h-2.3
		c-2.331,0-4.228,1.896-4.228,4.229v1.309c0,0.266,0.214,0.479,0.48,0.479h6.014h0.034h5.886h6.014c0.265,0,0.48-0.214,0.48-0.479
		v-1.309C19.341,15.845,17.444,13.948,15.111,13.948 M18.381,19.005h-5.054v-0.828c0-1.324-0.624-2.492-1.58-3.27h3.364
		c1.803,0,3.27,1.468,3.27,3.27V19.005z M9.911,19.005h-0.77H7.442v-1.171v-1.867v-0.481v-0.578h0.584h0.953h0.118
		c0.274,0,0.535,0.045,0.789,0.107c1.421,0.356,2.481,1.633,2.481,3.162v0.828H9.911z M1.394,18.177c0-1.802,1.466-3.27,3.268-3.27
		h1.82v2.927v1.171H6.447H1.394V18.177z"/>
	<path d="M6.607,13.216c1.077,0,2.091-0.264,2.991-0.723c0.899,0.459,1.913,0.723,2.99,0.723c3.644,0,6.609-2.964,6.609-6.608
		S16.232,0,12.588,0c-1.077,0-2.091,0.265-2.99,0.724C8.698,0.265,7.684,0,6.607,0C2.964,0,0,2.964,0,6.608
		S2.964,13.216,6.607,13.216 M12.588,0.96c3.115,0,5.649,2.534,5.649,5.648c0,3.114-2.534,5.648-5.649,5.648
		c-0.71,0-1.386-0.137-2.013-0.377c1.599-1.207,2.639-3.118,2.639-5.271c0-2.154-1.04-4.063-2.639-5.271
		C11.202,1.097,11.878,0.96,12.588,0.96 M8.62,1.337c0.234,0.09,0.464,0.19,0.683,0.31C9.404,1.702,9.5,1.765,9.598,1.826
		c1.461,0.917,2.474,2.48,2.632,4.288c-2.137-0.039-3.831-0.318-5.158-0.707C7.013,5.39,6.948,5.374,6.891,5.356
		c-0.26-0.079-0.5-0.164-0.731-0.251c-2.693-1.01-3.531-2.41-3.564-2.467C3.62,1.603,5.039,0.96,6.607,0.96
		C7.316,0.96,7.993,1.097,8.62,1.337 M1.959,3.407C2.384,3.983,3.532,5.2,6.007,6.081c0.243,0.086,0.5,0.167,0.769,0.246
		c0.058,0.017,0.117,0.034,0.176,0.051c1.389,0.388,3.125,0.658,5.278,0.696c-0.149,1.82-1.164,3.395-2.632,4.317
		C9.5,11.452,9.404,11.515,9.303,11.57c-0.219,0.119-0.448,0.219-0.683,0.309c-0.627,0.24-1.304,0.377-2.013,0.377
		c-3.115,0-5.648-2.534-5.648-5.648C0.959,5.42,1.33,4.318,1.959,3.407"/>
</g>
</svg>
