<?xml version="1.0" encoding="utf-8"?>
<!-- Generator: Adobe Illustrator 16.0.0, SVG Export Plug-In . SVG Version: 6.00 Build 0)  -->
<!DOCTYPE svg PUBLIC "-//W3C//DTD SVG 1.1//EN" "http://www.w3.org/Graphics/SVG/1.1/DTD/svg11.dtd">
<svg version="1.1" id="Layer_1" xmlns="http://www.w3.org/2000/svg" xmlns:xlink="http://www.w3.org/1999/xlink" x="0px" y="0px"
	 width="22.345px" height="24px" viewBox="0 0 22.345 24" enable-background="new 0 0 22.345 24" xml:space="preserve">
<g>
	<path d="M19.49,12.883c0.014-0.2,0.03-0.4,0.03-0.604c0-0.379-0.034-0.75-0.083-1.115l2.347-2.079
		c0.583-0.513,0.734-1.438,0.345-2.106l-1.13-1.958c-0.387-0.67-1.265-1.002-1.994-0.755l-3.204,1.071
		c-0.369-0.246-0.76-0.458-1.167-0.646l-0.68-3.342C13.8,0.593,13.075,0,12.302,0h-2.261C9.27,0,8.545,0.592,8.389,1.35l-0.68,3.344
		C7.303,4.879,6.912,5.091,6.544,5.337L3.339,4.266C2.607,4.019,1.73,4.352,1.344,5.021L0.215,6.978
		C-0.173,7.646-0.023,8.57,0.557,9.084l2.35,2.08c-0.049,0.365-0.084,0.736-0.084,1.115c0,0.204,0.016,0.403,0.031,0.604
		l-2.298,2.034c-0.578,0.513-0.728,1.438-0.341,2.104l1.131,1.958c0.384,0.668,1.264,1,1.992,0.757l2.682-0.896
		c0.554,0.436,1.162,0.806,1.816,1.092l0.553,2.719C8.545,23.406,9.27,24,10.041,24h2.261c0.773,0,1.498-0.594,1.652-1.351
		l0.553-2.718c0.654-0.286,1.263-0.656,1.817-1.093l2.682,0.896c0.729,0.244,1.605-0.09,1.994-0.757l1.128-1.957
		c0.388-0.668,0.238-1.593-0.343-2.105L19.49,12.883z M19.309,18.824l-2.163-0.723c1.079-1.107,1.853-2.51,2.188-4.075l1.815,1.608
		c0.238,0.209,0.307,0.633,0.148,0.906l-1.129,1.958C20.01,18.772,19.608,18.924,19.309,18.824 M14.749,18.743
		c-0.198,0.109-0.401,0.209-0.608,0.302c-0.154,0.066-0.312,0.126-0.471,0.183c-0.781,0.282-1.62,0.444-2.497,0.444
		c-0.879,0-1.718-0.162-2.5-0.445c-0.159-0.057-0.317-0.116-0.471-0.183c-0.207-0.093-0.411-0.192-0.608-0.303
		c-0.156-0.086-0.307-0.18-0.456-0.276c-0.255-0.167-0.498-0.349-0.73-0.544c-0.062-0.053-0.12-0.109-0.18-0.164
		c-1.264-1.143-2.13-2.712-2.37-4.481c-0.038-0.284-0.063-0.571-0.068-0.863c-0.001-0.045-0.007-0.088-0.007-0.133
		c0-0.078,0.009-0.152,0.012-0.229c0.001-0.032,0.003-0.064,0.005-0.097c0.013-0.286,0.041-0.568,0.086-0.847
		c0.016-0.104,0.027-0.212,0.048-0.315C4.3,9.011,5.313,7.469,6.71,6.404c0.251-0.19,0.512-0.367,0.787-0.524
		c0.147-0.085,0.297-0.162,0.45-0.237C8.143,5.547,8.343,5.46,8.548,5.382c0.817-0.313,1.7-0.49,2.625-0.49
		c0.924,0,1.805,0.178,2.621,0.489C14,5.459,14.199,5.546,14.395,5.642c0.154,0.075,0.306,0.153,0.453,0.238
		c0.274,0.157,0.536,0.335,0.786,0.524c1.397,1.064,2.41,2.606,2.776,4.387c0.021,0.104,0.031,0.211,0.048,0.315
		c0.044,0.278,0.073,0.561,0.086,0.848c0.001,0.031,0.003,0.063,0.004,0.095c0.003,0.078,0.012,0.152,0.012,0.23
		c0,0.045-0.006,0.088-0.006,0.133c-0.006,0.292-0.031,0.579-0.069,0.862c-0.239,1.771-1.105,3.339-2.369,4.482
		c-0.06,0.055-0.117,0.111-0.179,0.164c-0.232,0.195-0.476,0.377-0.73,0.544C15.057,18.563,14.905,18.656,14.749,18.743
		 M12.302,23.039h-2.261c-0.315,0-0.647-0.271-0.71-0.58l-0.438-2.151c0.726,0.206,1.488,0.324,2.28,0.324
		c0.79,0,1.552-0.117,2.278-0.324l-0.438,2.151C12.95,22.768,12.618,23.039,12.302,23.039 M2.176,18.499l-1.13-1.96
		c-0.159-0.271-0.089-0.695,0.146-0.904l1.818-1.609c0.334,1.566,1.109,2.969,2.188,4.076l-2.164,0.723
		C2.745,18.921,2.332,18.768,2.176,18.499 M1.047,7.459l1.128-1.958c0.159-0.272,0.558-0.426,0.859-0.325l2.604,0.871
		c-1.192,1.059-2.076,2.449-2.51,4.03L1.192,8.364C0.959,8.158,0.89,7.729,1.047,7.459 M10.041,0.96h2.261
		c0.316,0,0.648,0.271,0.711,0.581l0.559,2.745c-0.761-0.229-1.565-0.354-2.399-0.354c-0.835,0-1.64,0.126-2.402,0.354l0.56-2.745
		C9.394,1.231,9.726,0.96,10.041,0.96 M20.167,5.501l1.131,1.96c0.156,0.268,0.085,0.697-0.149,0.903l-1.933,1.712
		c-0.434-1.58-1.318-2.971-2.509-4.029l2.603-0.871C19.612,5.072,20.01,5.227,20.167,5.501"/>
	<path d="M13.867,11.802h-5.39c-0.265,0-0.48,0.215-0.48,0.479c0,0.266,0.215,0.48,0.48,0.48h5.39c0.265,0,0.48-0.215,0.48-0.48
		C14.347,12.017,14.132,11.802,13.867,11.802"/>
	<path d="M13.867,14.022h-5.39c-0.265,0-0.48,0.215-0.48,0.48c0,0.265,0.215,0.479,0.48,0.479h5.39c0.265,0,0.48-0.215,0.48-0.479
		C14.347,14.237,14.132,14.022,13.867,14.022"/>
	<path d="M13.867,9.299h-5.39c-0.265,0-0.48,0.215-0.48,0.479s0.215,0.48,0.48,0.48h5.39c0.265,0,0.48-0.216,0.48-0.48
		S14.132,9.299,13.867,9.299"/>
</g>
</svg>
