<?xml version="1.0" encoding="utf-8"?>
<!-- Generator: Adobe Illustrator 16.0.0, SVG Export Plug-In . SVG Version: 6.00 Build 0)  -->
<!DOCTYPE svg PUBLIC "-//W3C//DTD SVG 1.1//EN" "http://www.w3.org/Graphics/SVG/1.1/DTD/svg11.dtd">
<svg version="1.1" id="Layer_1" xmlns="http://www.w3.org/2000/svg" xmlns:xlink="http://www.w3.org/1999/xlink" x="0px" y="0px"
	 width="24px" height="21.256px" viewBox="0 0 24 21.256" enable-background="new 0 0 24 21.256" xml:space="preserve">
<g>
	<path fill="#FFFFFF" d="M21.414,0.48H2.585C1.427,0.48,0.48,1.43,0.48,2.586v11.352c0,1.158,0.947,2.105,2.105,2.105h11.582
		l5.453,4.732v-4.732h1.794c1.159,0,2.106-0.947,2.106-2.105V2.586C23.52,1.43,22.573,0.48,21.414,0.48"/>
	<polygon fill="#F06392" points="1.181,1.037 8.855,7.776 0.896,15.419 0.48,2.586 	"/>
	<polygon fill="#F06392" points="23.002,1.037 15.326,7.776 23.285,15.419 23.701,2.586 	"/>
	<path fill="#455B64" d="M22.556,15.552c-0.124,0-0.247-0.048-0.341-0.144l-7.229-7.321c-0.187-0.188-0.185-0.492,0.003-0.68
		c0.19-0.186,0.494-0.184,0.679,0.006l7.229,7.321c0.187,0.188,0.185,0.492-0.004,0.68C22.799,15.506,22.677,15.552,22.556,15.552"
		/>
	<path fill="#455B64" d="M1.596,15.553c-0.123,0-0.245-0.046-0.338-0.141c-0.189-0.187-0.189-0.489-0.002-0.678l7.26-7.296
		c0.187-0.188,0.491-0.188,0.678-0.002c0.189,0.187,0.189,0.491,0.002,0.679l-7.26,7.295C1.843,15.506,1.719,15.553,1.596,15.553"/>
	<path fill="#FDC516" d="M0.896,1.619c0,0,7.151,5.911,9.673,7.996c0.385,0.317,0.915,0.757,1.536,0.757
		c0.619,0,1.065-0.387,1.421-0.688c1.871-1.573,1.742-1.466,9.581-8.065c0,0,0.446-1.357-1.474-1.357
		c-1.92,0-18.105,0.04-19.226,0.04C1.287,0.302,0.896,1.619,0.896,1.619"/>
	<path fill="#455B64" d="M12.105,10.428c-0.792,0-1.421-0.52-1.837-0.863L0.876,1.799l0.611-0.738l9.388,7.761
		c0.352,0.29,0.783,0.646,1.23,0.646c0.43,0,0.766-0.281,1.089-0.556l9.335-7.857c0.204-0.171,0.505-0.146,0.677,0.058
		c0.171,0.203,0.144,0.505-0.058,0.676l-9.312,7.84C13.422,9.978,12.886,10.428,12.105,10.428"/>
	<path fill="#455B64" d="M19.62,21.256c-0.113,0-0.226-0.04-0.315-0.118l-5.316-4.615H2.586C1.16,16.522,0,15.363,0,13.938V2.586
		C0,1.16,1.16,0,2.586,0h18.829C22.841,0,24,1.16,24,2.586v11.352c0,1.426-1.159,2.585-2.585,2.585H20.1v4.253
		c0,0.188-0.109,0.359-0.281,0.438C19.755,21.242,19.688,21.256,19.62,21.256 M2.586,0.96C1.69,0.96,0.96,1.689,0.96,2.586v11.352
		c0,0.896,0.73,1.625,1.626,1.625h11.582c0.115,0,0.228,0.041,0.315,0.117l4.657,4.044v-3.681c0-0.267,0.215-0.48,0.48-0.48h1.795
		c0.896,0,1.625-0.729,1.625-1.625V2.586c0-0.896-0.729-1.626-1.625-1.626H2.586z"/>
</g>
</svg>
