<?xml version="1.0" encoding="utf-8"?>
<!-- Generator: Adobe Illustrator 16.0.0, SVG Export Plug-In . SVG Version: 6.00 Build 0)  -->
<!DOCTYPE svg PUBLIC "-//W3C//DTD SVG 1.1//EN" "http://www.w3.org/Graphics/SVG/1.1/DTD/svg11.dtd">
<svg version="1.1" id="Layer_1" xmlns="http://www.w3.org/2000/svg" xmlns:xlink="http://www.w3.org/1999/xlink" x="0px" y="0px"
	 width="23.922px" height="22.876px" viewBox="0 0 23.922 22.876" enable-background="new 0 0 23.922 22.876" xml:space="preserve">
<g>
	<path d="M22.922,3.602c-0.002-0.014-0.005-0.026-0.009-0.038c-0.257-0.983-0.878-1.422-2.015-1.422h-1.2V1.441
		c0-0.794-0.646-1.44-1.439-1.44H5.886c-0.794,0-1.439,0.646-1.439,1.44v0.701H3.352c-1.136,0-1.758,0.438-2.017,1.434L0.014,9.201
		C0.006,9.237,0,9.273,0,9.31c0,1.094,0.835,2.107,1.968,2.624v9.022c0,1.055,0.863,1.92,1.919,1.92h0.001h16.41H20.3
		c1.056,0,1.919-0.865,1.919-1.92v-9.031c1.012-0.509,1.708-1.505,1.703-2.698L22.922,3.602z M17.839,21.915h-4.376v-6.764h4.376
		V21.915z M21.259,20.956c0,0.529-0.431,0.959-0.96,0.959h-1.5v-6.764c0-0.529-0.432-0.961-0.96-0.961h-4.376
		c-0.528,0-0.96,0.432-0.96,0.961v6.764H3.889c-0.529,0-0.96-0.43-0.96-0.959v-8.72c0.202,0.034,0.406,0.058,0.614,0.058
		c1.188,0,2.25-0.515,2.851-1.313c0.602,0.798,1.663,1.313,2.852,1.313c1.221,0,2.288-0.533,2.878-1.35
		c0.592,0.816,1.659,1.35,2.881,1.35c1.187,0,2.248-0.516,2.85-1.313c0.603,0.797,1.664,1.313,2.853,1.313
		c0.189,0,0.371-0.022,0.551-0.052V20.956z M3.352,3.102h1.095v2.119c0,0.404,0.168,0.77,0.437,1.03
		c0.259,0.253,0.612,0.41,1.002,0.41h0.077L5.945,7.187L5.944,7.211L5.853,9.846c-0.001,0.031,0.01,0.06,0.014,0.09
		c-0.275,0.806-1.232,1.397-2.324,1.397c-0.209,0-0.413-0.032-0.614-0.077c-0.158-0.036-0.31-0.083-0.458-0.142
		c-0.178-0.072-0.345-0.16-0.502-0.261C1.391,10.48,0.984,9.935,0.962,9.362l1.304-5.556C2.396,3.31,2.576,3.102,3.352,3.102
		 M5.406,2.142V1.441c0-0.266,0.216-0.48,0.48-0.48h12.373c0.264,0,0.479,0.215,0.479,0.48v0.701v0.479v0.48v2.119
		c0,0.266-0.215,0.48-0.479,0.48h-0.006h-0.962h-4.716h-0.96H6.958H5.996h-0.11c-0.264,0-0.48-0.215-0.48-0.48V3.102v-0.48V2.142z
		 M17.343,7.211l0.085,2.447c-0.016,0.034-0.033,0.067-0.042,0.104c-0.189,0.896-1.213,1.57-2.381,1.57
		c-1.25,0-2.305-0.757-2.403-1.724c-0.005-0.041-0.02-0.078-0.034-0.115l0.004-2.283V7.187l0.001-0.525h4.751l0.019,0.525V7.211z
		 M6.906,7.187l0.018-0.525h4.689v0.525v0.024l-0.006,2.574c-0.202,0.88-1.19,1.548-2.361,1.548c-1.17,0-2.194-0.675-2.382-1.568
		c-0.008-0.04-0.026-0.075-0.043-0.11l0.084-2.443L6.906,7.187z M21.259,11.271c-0.173,0.038-0.355,0.063-0.551,0.063
		c-1.095,0-2.052-0.594-2.326-1.402c0.004-0.028,0.015-0.055,0.014-0.085l-0.091-2.635l-0.001-0.024l-0.018-0.528
		c0.379-0.007,0.722-0.16,0.975-0.407c0.269-0.261,0.437-0.626,0.437-1.03V3.102h1.2c0.767,0,0.952,0.202,1.082,0.688l0.989,5.521
		c0,0.541-0.274,1.098-0.75,1.492c-0.203,0.168-0.441,0.304-0.715,0.396C21.424,11.225,21.344,11.251,21.259,11.271"/>
	<path d="M6.626,14.534c-0.265,0-0.479,0.215-0.479,0.48v3.021c0,0.266,0.214,0.48,0.479,0.48c0.266,0,0.48-0.215,0.48-0.48v-3.021
		C7.106,14.749,6.893,14.534,6.626,14.534"/>
	<path d="M9.167,14.534c-0.266,0-0.48,0.215-0.48,0.48v3.021c0,0.266,0.214,0.48,0.48,0.48c0.265,0,0.48-0.215,0.48-0.48v-3.021
		C9.646,14.749,9.432,14.534,9.167,14.534"/>
</g>
</svg>
