<?xml version="1.0" encoding="utf-8"?>
<!-- Generator: Adobe Illustrator 16.0.0, SVG Export Plug-In . SVG Version: 6.00 Build 0)  -->
<!DOCTYPE svg PUBLIC "-//W3C//DTD SVG 1.1//EN" "http://www.w3.org/Graphics/SVG/1.1/DTD/svg11.dtd">
<svg version="1.1" id="Layer_1" xmlns="http://www.w3.org/2000/svg" xmlns:xlink="http://www.w3.org/1999/xlink" x="0px" y="0px"
	 width="19.341px" height="19.965px" viewBox="0 0 19.341 19.965" enable-background="new 0 0 19.341 19.965" xml:space="preserve">
<g>
	<path fill="#FFFFFF" d="M18.719,19.484c0-2.793,0.778-5.057-5.895-5.057c-6.393,0-5.899,2.264-5.899,5.057H18.719z"/>
	<path fill="#01579B" d="M9.525,19.213c-0.265,0-0.48-0.215-0.48-0.48v-2.115c0-0.266,0.215-0.479,0.48-0.479s0.48,0.214,0.48,0.479
		v2.115C10.005,18.998,9.791,19.213,9.525,19.213"/>
	<path fill="#455B64" d="M18.861,19.965H6.928c-0.265,0-0.48-0.215-0.48-0.48v-1.308c0-2.332,1.897-4.229,4.228-4.229h4.436
		c2.333,0,4.23,1.897,4.23,4.229v1.308C19.341,19.75,19.127,19.965,18.861,19.965 M7.408,19.005h10.974v-0.828
		c0-1.803-1.467-3.269-3.27-3.269h-4.436c-1.802,0-3.268,1.466-3.268,3.269V19.005z"/>
	<path fill="#FFFFFF" d="M19.015,6.607c0,3.385-2.741,6.128-6.126,6.128c-3.385,0-6.127-2.743-6.127-6.128
		c0-3.385,2.742-6.128,6.127-6.128C16.274,0.479,19.015,3.222,19.015,6.607"/>
	<path fill="#455B64" d="M12.588,13.216c-3.643,0-6.607-2.964-6.607-6.608S8.945,0,12.588,0c3.644,0,6.609,2.964,6.609,6.608
		S16.232,13.216,12.588,13.216 M12.588,0.96c-3.114,0-5.648,2.534-5.648,5.648s2.534,5.648,5.648,5.648
		c3.115,0,5.649-2.534,5.649-5.648S15.703,0.96,12.588,0.96"/>
	<path fill="#FFFFFF" d="M12.937,6.607c0,3.385-2.742,6.128-6.127,6.128c-3.385,0-6.128-2.743-6.128-6.128
		c0-3.385,2.743-6.128,6.128-6.128C10.194,0.479,12.937,3.222,12.937,6.607"/>
	<path fill="#FDC516" d="M2.012,2.662c0,0,3.042,4.431,10.656,3.946c0,0-1.385-5.481-4.582-6.118
		C4.889-0.148,2.012,2.662,2.012,2.662"/>
	<path fill="#455B64" d="M12.734,7.087c-8.79,0-10.904-3.842-10.99-4.006C1.621,2.846,1.712,2.557,1.946,2.434
		c0.236-0.122,0.523-0.033,0.647,0.2C2.625,2.69,4.615,6.127,12.734,6.127c0.265,0,0.48,0.215,0.48,0.48S13,7.087,12.734,7.087"/>
	<path fill="#455B64" d="M6.607,13.216C2.964,13.216,0,10.252,0,6.608S2.964,0,6.607,0s6.608,2.964,6.608,6.608
		S10.25,13.216,6.607,13.216 M6.607,0.96c-3.114,0-5.647,2.534-5.647,5.648s2.533,5.648,5.647,5.648
		c3.114,0,5.648-2.534,5.648-5.648S9.721,0.96,6.607,0.96"/>
	<path fill="#FFFFFF" d="M12.639,19.484c0-2.793,0.778-5.057-5.896-5.057c-6.392,0-5.898,2.264-5.898,5.057H12.639z"/>
	<polygon fill="#F06392" points="7.058,14.428 3.51,14.428 1.003,16.617 1.003,19.484 7.058,19.484 	"/>
	<path fill="#455B64" d="M6.962,19.965c-0.265,0-0.48-0.215-0.48-0.48v-5.057c0-0.266,0.215-0.48,0.48-0.48
		c0.265,0,0.48,0.215,0.48,0.48v5.057C7.442,19.75,7.227,19.965,6.962,19.965"/>
	<path fill="#455B64" d="M12.847,19.965H0.914c-0.265,0-0.48-0.215-0.48-0.48v-1.308c0-2.332,1.897-4.229,4.228-4.229h4.436
		c2.333,0,4.23,1.897,4.23,4.229v1.308C13.327,19.75,13.113,19.965,12.847,19.965 M1.394,19.005h10.974v-0.828
		c0-1.803-1.467-3.269-3.27-3.269H4.662c-1.802,0-3.268,1.466-3.268,3.269V19.005z"/>
</g>
</svg>
