<?xml version="1.0" encoding="utf-8"?>
<!-- Generator: Adobe Illustrator 16.0.0, SVG Export Plug-In . SVG Version: 6.00 Build 0)  -->
<!DOCTYPE svg PUBLIC "-//W3C//DTD SVG 1.1//EN" "http://www.w3.org/Graphics/SVG/1.1/DTD/svg11.dtd">
<svg version="1.1" id="Layer_1" xmlns="http://www.w3.org/2000/svg" xmlns:xlink="http://www.w3.org/1999/xlink" x="0px" y="0px"
	 width="21.589px" height="21.565px" viewBox="0 0 21.589 21.565" enable-background="new 0 0 21.589 21.565" xml:space="preserve">
<g>
	<path d="M20.99,18.078l-3.786-3.786c2.27-3.603,1.844-8.428-1.291-11.562C14.154,0.97,11.813,0,9.323,0
		C6.834,0,4.492,0.97,2.731,2.73C0.971,4.492,0,6.833,0,9.324c0,2.489,0.971,4.83,2.731,6.59c1.76,1.763,4.1,2.733,6.59,2.733h0.002
		c1.8,0,3.519-0.514,5.001-1.461l3.78,3.779c0.387,0.387,0.901,0.6,1.444,0.6s1.055-0.214,1.442-0.601
		c0.387-0.387,0.6-0.901,0.599-1.448C21.588,18.972,21.375,18.46,20.99,18.078 M20.311,20.287c-0.411,0.412-1.118,0.409-1.53,0
		l-3.663-3.667c0.277-0.221,0.545-0.452,0.798-0.706c0.263-0.264,0.502-0.541,0.727-0.826l3.669,3.67
		c0.205,0.203,0.317,0.473,0.317,0.76C20.629,19.809,20.517,20.081,20.311,20.287 M9.323,17.688H9.321
		c-2.233,0-4.332-0.871-5.911-2.453c-1.58-1.577-2.45-3.678-2.45-5.91c0-2.234,0.87-4.334,2.45-5.914
		c1.58-1.58,3.68-2.45,5.913-2.45s4.333,0.87,5.912,2.45c2.757,2.757,3.174,6.972,1.269,10.181c-0.084,0.142-0.167,0.283-0.26,0.42
		c-0.09,0.133-0.189,0.262-0.287,0.391c-0.221,0.288-0.456,0.57-0.719,0.833c-0.254,0.255-0.526,0.483-0.805,0.7
		c-0.129,0.101-0.258,0.199-0.392,0.291c-0.135,0.093-0.276,0.177-0.416,0.263C12.338,17.264,10.865,17.688,9.323,17.688"/>
	<path d="M14.877,13.322c0.096-0.133,0.187-0.268,0.272-0.405c0.088-0.142,0.173-0.283,0.25-0.431
		c0.505-0.965,0.775-2.043,0.775-3.164c0-1.83-0.713-3.55-2.008-4.843c-1.293-1.295-3.013-2.007-4.842-2.007
		c-1.83,0-3.55,0.712-4.843,2.007C3.186,5.772,2.473,7.492,2.473,9.323c0,1.83,0.713,3.552,2.008,4.844
		c1.292,1.295,3.011,2.008,4.84,2.008h0.002c1.134,0,2.225-0.275,3.199-0.791c0.145-0.077,0.285-0.164,0.425-0.252
		c0.139-0.087,0.274-0.181,0.407-0.277c0.284-0.209,0.558-0.433,0.812-0.687C14.43,13.903,14.663,13.618,14.877,13.322
		 M9.322,15.215c-1.573,0-3.052-0.613-4.163-1.727c-1.113-1.111-1.726-2.592-1.726-4.165s0.613-3.053,1.726-4.166
		C6.271,4.046,7.75,3.433,9.324,3.433c1.573,0,3.051,0.613,4.164,1.725c1.113,1.113,1.726,2.593,1.726,4.165
		c0,0.858-0.188,1.687-0.535,2.444c-0.07,0.153-0.145,0.304-0.229,0.451c-0.081,0.142-0.165,0.283-0.258,0.419
		c-0.206,0.302-0.44,0.588-0.704,0.852c-0.255,0.254-0.53,0.479-0.819,0.681c-0.137,0.095-0.277,0.181-0.421,0.264
		c-0.146,0.084-0.295,0.16-0.447,0.231C11.034,15.021,10.194,15.215,9.322,15.215L9.322,15.215z"/>
</g>
</svg>
