<?xml version="1.0" encoding="utf-8"?>
<!-- Generator: Adobe Illustrator 16.0.0, SVG Export Plug-In . SVG Version: 6.00 Build 0)  -->
<!DOCTYPE svg PUBLIC "-//W3C//DTD SVG 1.1//EN" "http://www.w3.org/Graphics/SVG/1.1/DTD/svg11.dtd">
<svg version="1.1" id="Layer_1" xmlns="http://www.w3.org/2000/svg" xmlns:xlink="http://www.w3.org/1999/xlink" x="0px" y="0px"
	 width="23.453px" height="23.028px" viewBox="0 0 23.453 23.028" enable-background="new 0 0 23.453 23.028" xml:space="preserve">
<g>
	<path fill="#FFFFFF" d="M1.938,5.481c-0.547,0.055-0.995,0.549-0.995,1.1v3.352v2v3.347c0,0.551,0.45,1.02,0.999,1.044l6.286,0.273
		c0.549,0.024,1.425,0.188,1.946,0.364l11.443,3.894c0.521,0.177,0.947-0.128,0.947-0.678v-8.244v-2V1.682
		c0-0.55-0.43-0.866-0.955-0.703L10.542,4.419c-0.525,0.164-1.403,0.342-1.95,0.397L1.938,5.481z"/>
	<polygon fill="#F06392" points="22.564,0.682 22.564,21.178 19.39,20.267 19.39,1.331 	"/>
	<path fill="#FFFFFF" d="M4.783,16.754v4.794c0,0.551,0.45,1,1,1h2.245c0.55,0,1-0.449,1-1v-4.906"/>
	<path fill="#FFFFFF" d="M8.55,4.717H2.044c-0.756,0-1.596,1.67-1.596,3.582v6.2c0,1.113,1.007,2.341,2.687,2.341H8.55V4.717z"/>
	<path fill="#455B64" d="M8.069,23.028H5.744c-0.794,0-1.44-0.646-1.44-1.44v-4.834c0-0.265,0.215-0.479,0.48-0.479
		s0.48,0.215,0.48,0.479v4.834c0,0.265,0.216,0.479,0.48,0.479h2.325c0.264,0,0.48-0.215,0.48-0.479v-4.946
		c0-0.267,0.215-0.48,0.48-0.48c0.265,0,0.48,0.214,0.48,0.48v4.946C9.509,22.382,8.863,23.028,8.069,23.028"/>
	<path fill="#455B64" d="M21.725,21.61c-0.235,0-0.479-0.042-0.724-0.128l-12.15-4.267c-0.249-0.088-0.381-0.362-0.293-0.612
		c0.087-0.25,0.36-0.384,0.612-0.294l12.15,4.267c0.328,0.116,0.63,0.099,0.843-0.053s0.33-0.427,0.33-0.778V1.851
		c0-0.349-0.116-0.622-0.325-0.769c-0.21-0.147-0.509-0.162-0.834-0.041L9.176,5.479C8.925,5.568,8.651,5.441,8.56,5.191
		C8.469,4.942,8.597,4.667,8.846,4.576l12.158-4.438c0.622-0.229,1.247-0.17,1.714,0.157c0.467,0.326,0.735,0.893,0.735,1.555
		v17.895c0,0.661-0.268,1.23-0.734,1.562C22.434,21.507,22.091,21.61,21.725,21.61"/>
	<polygon fill="#FDC516" points="9.473,17.069 2.687,17.069 0.599,15.381 0.599,6.141 2.333,4.823 9.239,4.823 	"/>
	<path fill="#455B64" d="M9.011,16.916c-0.265,0-0.48-0.215-0.48-0.479V5.027c0-0.266,0.215-0.48,0.48-0.48s0.48,0.214,0.48,0.48
		v11.409C9.491,16.701,9.276,16.916,9.011,16.916"/>
	<path fill="#455B64" d="M19.39,20.747c-0.265,0-0.48-0.215-0.48-0.48V1.33c0-0.265,0.215-0.48,0.48-0.48
		c0.265,0,0.48,0.215,0.48,0.48v18.937C19.87,20.532,19.655,20.747,19.39,20.747"/>
	<path fill="#455B64" d="M5.856,11.18H3.711c-0.265,0-0.48-0.215-0.48-0.48s0.215-0.48,0.48-0.48h2.145
		c0.265,0,0.48,0.215,0.48,0.48S6.121,11.18,5.856,11.18"/>
	<path fill="#455B64" d="M5.856,14.079H3.711c-0.265,0-0.48-0.215-0.48-0.479s0.215-0.479,0.48-0.479h2.145
		c0.265,0,0.48,0.215,0.48,0.479S6.121,14.079,5.856,14.079"/>
	<path fill="#455B64" d="M5.856,8.281H3.711c-0.265,0-0.48-0.215-0.48-0.48c0-0.265,0.215-0.48,0.48-0.48h2.145
		c0.265,0,0.48,0.215,0.48,0.48C6.336,8.066,6.121,8.281,5.856,8.281"/>
	<path fill="#455B64" d="M9.007,17.243H2.4c-1.323,0-2.4-1.078-2.4-2.4V6.947c0-1.323,1.077-2.4,2.4-2.4h6.614
		c0.265,0,0.48,0.215,0.48,0.48c0,0.266-0.215,0.48-0.48,0.48H2.4c-0.794,0-1.44,0.646-1.44,1.44v7.896
		c0,0.794,0.646,1.439,1.44,1.439h6.607c0.265,0,0.48,0.215,0.48,0.48C9.487,17.027,9.272,17.243,9.007,17.243"/>
</g>
</svg>
