<?xml version="1.0" encoding="utf-8"?>
<!-- Generator: Adobe Illustrator 16.0.0, SVG Export Plug-In . SVG Version: 6.00 Build 0)  -->
<!DOCTYPE svg PUBLIC "-//W3C//DTD SVG 1.1//EN" "http://www.w3.org/Graphics/SVG/1.1/DTD/svg11.dtd">
<svg version="1.1" id="Layer_1" xmlns="http://www.w3.org/2000/svg" xmlns:xlink="http://www.w3.org/1999/xlink" x="0px" y="0px"
	 width="5px" height="18px" viewBox="0 0 5 18" enable-background="new 0 0 5 18" xml:space="preserve">
<g>
	<path d="M2.5,18C1.121,18,0,16.879,0,15.5S1.121,13,2.5,13S5,14.121,5,15.5S3.879,18,2.5,18 M2.5,14C1.673,14,1,14.673,1,15.5
		S1.673,17,2.5,17S4,16.327,4,15.5S3.327,14,2.5,14"/>
	<path d="M2.5,11.5C1.121,11.5,0,10.379,0,9s1.121-2.5,2.5-2.5S5,7.621,5,9S3.879,11.5,2.5,11.5 M2.5,7.5C1.673,7.5,1,8.173,1,9
		s0.673,1.5,1.5,1.5S4,9.827,4,9S3.327,7.5,2.5,7.5"/>
	<path d="M2.5,5C1.121,5,0,3.879,0,2.5S1.121,0,2.5,0S5,1.121,5,2.5S3.879,5,2.5,5 M2.5,1C1.673,1,1,1.673,1,2.5S1.673,4,2.5,4
		S4,3.327,4,2.5S3.327,1,2.5,1"/>
</g>
</svg>
