<?xml version="1.0" encoding="utf-8"?>
<!-- Generator: Adobe Illustrator 16.0.0, SVG Export Plug-In . SVG Version: 6.00 Build 0)  -->
<!DOCTYPE svg PUBLIC "-//W3C//DTD SVG 1.1//EN" "http://www.w3.org/Graphics/SVG/1.1/DTD/svg11.dtd">
<svg version="1.1" id="Layer_1" xmlns="http://www.w3.org/2000/svg" xmlns:xlink="http://www.w3.org/1999/xlink" x="0px" y="0px"
	 width="16px" height="15.981px" viewBox="0 0 16 15.981" enable-background="new 0 0 16 15.981" xml:space="preserve">
<g>
	<path fill="#F06392" d="M14.487,15.625c-0.297,0-0.593-0.115-0.82-0.34L7.841,9.459C7.39,9.006,8.337,9.331,8.79,8.877
		C9.24,8.426,9.024,7.37,9.478,7.823l5.826,5.826c0.453,0.449,0.453,1.184,0,1.637C15.079,15.51,14.783,15.625,14.487,15.625"/>
	<path fill="#455B64" d="M14.487,15.981c-0.402,0-0.784-0.156-1.07-0.443L7.59,9.709c-0.081-0.08-0.294-0.293-0.201-0.564
		c0.092-0.271,0.368-0.307,0.59-0.336C8.173,8.784,8.412,8.752,8.54,8.625C8.665,8.5,8.721,8.239,8.766,8.028
		c0.059-0.281,0.121-0.57,0.408-0.654c0.185-0.057,0.37,0.012,0.556,0.197l5.827,5.826C15.842,13.68,16,14.061,16,14.463
		c0.001,0.406-0.157,0.787-0.443,1.074C15.27,15.823,14.89,15.981,14.487,15.981 M8.358,9.469l5.562,5.564
		c0.305,0.303,0.827,0.305,1.133,0c0.153-0.152,0.235-0.354,0.235-0.57c0-0.213-0.082-0.412-0.234-0.563L9.438,8.284
		c-0.06,0.271-0.154,0.604-0.395,0.846C8.838,9.333,8.585,9.42,8.358,9.469"/>
	<path fill="#FDC516" d="M11.543,2.274c-2.561-2.559-6.71-2.559-9.268,0c-2.561,2.561-2.561,6.709-0.002,9.268
		c2.56,2.563,6.709,2.563,9.27,0C14.103,8.983,14.101,4.834,11.543,2.274"/>
	<path fill="#455B64" d="M6.909,13.819L6.909,13.819c-1.847,0-3.581-0.719-4.885-2.025C0.72,10.489,0,8.754,0,6.909
		s0.72-3.58,2.024-4.887C3.329,0.718,5.064,0,6.909,0s3.58,0.718,4.884,2.022c2.694,2.695,2.696,7.078,0.003,9.771
		C10.49,13.1,8.754,13.819,6.909,13.819 M6.909,0.711c-1.655,0-3.211,0.645-4.382,1.815c-1.171,1.17-1.816,2.729-1.816,4.383
		s0.646,3.211,1.816,4.383c1.17,1.172,2.726,1.816,4.381,1.816h0.001c1.656,0,3.212-0.645,4.383-1.816
		c2.416-2.418,2.415-6.35-0.002-8.766C10.12,1.355,8.564,0.711,6.909,0.711"/>
	<path fill="#FFFFFF" d="M10.287,10.288c-1.866,1.867-4.892,1.867-6.754,0c-1.866-1.867-1.866-4.891,0-6.758
		c1.862-1.866,4.888-1.866,6.754,0C12.153,5.397,12.153,8.42,10.287,10.288"/>
	<path fill="#455B64" d="M6.909,11.987L6.909,11.987c-1.357,0-2.631-0.529-3.588-1.488C2.36,9.54,1.832,8.266,1.832,6.909
		s0.528-2.631,1.489-3.59C4.278,2.36,5.554,1.832,6.91,1.832c1.355,0,2.631,0.528,3.589,1.487c0.959,0.959,1.488,2.232,1.488,3.59
		c0,1.355-0.529,2.631-1.488,3.59C9.541,11.458,8.266,11.987,6.909,11.987 M6.91,2.543c-1.167,0-2.263,0.453-3.086,1.279
		c-0.826,0.824-1.28,1.92-1.28,3.086s0.454,2.262,1.28,3.088c0.822,0.824,1.919,1.279,3.085,1.279s2.263-0.455,3.087-1.279
		c0.825-0.826,1.278-1.922,1.278-3.088s-0.453-2.262-1.278-3.086C9.172,2.997,8.076,2.543,6.91,2.543"/>
</g>
</svg>
