<?xml version="1.0" encoding="utf-8"?>
<!-- Generator: Adobe Illustrator 16.0.0, SVG Export Plug-In . SVG Version: 6.00 Build 0)  -->
<!DOCTYPE svg PUBLIC "-//W3C//DTD SVG 1.1//EN" "http://www.w3.org/Graphics/SVG/1.1/DTD/svg11.dtd">
<svg version="1.1" id="Layer_1" xmlns="http://www.w3.org/2000/svg" xmlns:xlink="http://www.w3.org/1999/xlink" x="0px" y="0px"
	 width="16.494px" height="16.476px" viewBox="0 0 16.494 16.476" enable-background="new 0 0 16.494 16.476" xml:space="preserve">
<g>
	<g>
		<path d="M14.821,16.476c-0.445,0-0.866-0.175-1.184-0.491l-3.049-3.05c-0.104-0.104-0.158-0.25-0.145-0.397
			s0.091-0.281,0.212-0.366c0.32-0.224,0.591-0.448,0.828-0.687c0.25-0.25,0.48-0.527,0.704-0.851
			c0.084-0.122,0.218-0.199,0.366-0.213c0.146-0.008,0.293,0.041,0.398,0.145l3.052,3.053c0.316,0.314,0.49,0.733,0.491,1.18
			c0,0.448-0.174,0.869-0.491,1.186C15.686,16.301,15.266,16.476,14.821,16.476z M11.702,12.634l2.642,2.643
			c0.257,0.255,0.694,0.258,0.952,0c0.128-0.128,0.198-0.297,0.198-0.477s-0.07-0.348-0.197-0.474l-2.645-2.646
			c-0.148,0.182-0.3,0.352-0.46,0.511C12.04,12.343,11.878,12.491,11.702,12.634z"/>
	</g>
	<g>
		<path d="M7.135,14.287c-1.837,0-3.661-0.711-5.043-2.096C0.743,10.842,0,9.048,0,7.141S0.743,3.44,2.092,2.092
			C3.44,0.743,5.234,0,7.142,0c1.907,0,3.701,0.743,5.049,2.092c2.443,2.444,2.788,6.276,0.818,9.113
			c-0.158,0.227-0.469,0.281-0.696,0.126c-0.227-0.158-0.283-0.47-0.125-0.696c1.693-2.438,1.397-5.734-0.704-7.835
			C10.324,1.639,8.782,1,7.142,1C5.501,1,3.959,1.639,2.799,2.799C1.639,3.958,1,5.5,1,7.141s0.639,3.183,1.799,4.343
			c2.107,2.112,5.412,2.401,7.855,0.688c0.227-0.159,0.538-0.104,0.696,0.122c0.159,0.227,0.104,0.538-0.122,0.696
			C9.988,13.861,8.557,14.287,7.135,14.287z"/>
	</g>
	<g>
		<path d="M7.141,12.428c-1.412,0-2.739-0.551-3.735-1.551C2.407,9.881,1.857,8.554,1.857,7.142s0.55-2.739,1.549-3.737
			C4.403,2.407,5.73,1.857,7.142,1.857s2.738,0.55,3.736,1.549c0.999,0.997,1.549,2.323,1.549,3.734
			c0,1.412-0.549,2.739-1.549,3.738C9.88,11.877,8.553,12.428,7.141,12.428z M7.142,2.857c-1.144,0-2.219,0.446-3.028,1.256
			C3.303,4.921,2.857,5.998,2.857,7.142s0.446,2.221,1.256,3.029c0.808,0.811,1.883,1.257,3.028,1.257s2.22-0.446,3.029-1.257
			c0.811-0.81,1.257-1.887,1.256-3.031c0-1.144-0.446-2.219-1.256-3.027C9.362,3.303,8.286,2.857,7.142,2.857z"/>
	</g>
</g>
</svg>
