<?xml version="1.0" encoding="utf-8"?>
<!-- Generator: Adobe Illustrator 16.0.0, SVG Export Plug-In . SVG Version: 6.00 Build 0)  -->
<!DOCTYPE svg PUBLIC "-//W3C//DTD SVG 1.1//EN" "http://www.w3.org/Graphics/SVG/1.1/DTD/svg11.dtd">
<svg version="1.1" id="Layer_1" xmlns="http://www.w3.org/2000/svg" xmlns:xlink="http://www.w3.org/1999/xlink" x="0px" y="0px"
	 width="16px" height="15.999px" viewBox="0 0 16 15.999" enable-background="new 0 0 16 15.999" xml:space="preserve">
<path d="M15.381,6.417l-0.986-0.122c-0.152-0.571-0.377-1.111-0.667-1.611l0.61-0.784c0.218-0.281,0.189-0.686-0.067-0.943
	l-0.613-0.612L13.044,1.73c-0.258-0.258-0.663-0.286-0.943-0.067l-0.784,0.609c-0.499-0.29-1.04-0.514-1.611-0.666L9.582,0.62
	C9.538,0.266,9.231,0,8.867,0H8H7.133C6.77,0,6.462,0.266,6.418,0.62L6.295,1.606c-0.57,0.152-1.111,0.376-1.61,0.666L3.9,1.663
	C3.619,1.444,3.214,1.473,2.956,1.73L2.343,2.344L1.73,2.956C1.474,3.214,1.443,3.618,1.662,3.899l0.61,0.784
	c-0.289,0.5-0.515,1.04-0.666,1.611L0.619,6.417C0.267,6.462,0,6.769,0,7.134v0.865v0.867C0,9.23,0.267,9.538,0.619,9.583
	l0.987,0.123c0.151,0.57,0.377,1.111,0.666,1.611l-0.61,0.783c-0.219,0.281-0.188,0.686,0.068,0.943l0.612,0.613l0.613,0.612
	c0.258,0.259,0.663,0.287,0.944,0.068l0.784-0.61c0.499,0.29,1.04,0.514,1.61,0.666l0.123,0.987
	c0.044,0.354,0.352,0.618,0.715,0.618H8h0.867c0.364,0,0.671-0.264,0.715-0.618l0.123-0.987c0.571-0.152,1.112-0.376,1.611-0.666
	l0.784,0.61c0.28,0.219,0.686,0.19,0.943-0.068l0.613-0.612l0.613-0.613c0.257-0.258,0.287-0.662,0.067-0.943l-0.61-0.783
	c0.29-0.5,0.515-1.041,0.667-1.613l0.986-0.123C15.734,9.538,16,9.23,16,8.866V7.999V7.134C16,6.769,15.734,6.462,15.381,6.417
	 M8,10.895c-1.599,0-2.895-1.296-2.895-2.896c0-1.598,1.296-2.894,2.895-2.894c1.6,0,2.895,1.296,2.895,2.894
	C10.895,9.599,9.6,10.895,8,10.895"/>
</svg>
