<?xml version="1.0" encoding="utf-8"?>
<!-- Generator: Adobe Illustrator 16.0.0, SVG Export Plug-In . SVG Version: 6.00 Build 0)  -->
<!DOCTYPE svg PUBLIC "-//W3C//DTD SVG 1.1//EN" "http://www.w3.org/Graphics/SVG/1.1/DTD/svg11.dtd">
<svg version="1.1" id="Layer_1" xmlns="http://www.w3.org/2000/svg" xmlns:xlink="http://www.w3.org/1999/xlink" x="0px" y="0px"
	 width="12px" height="11.493px" viewBox="0 0 12 11.493" enable-background="new 0 0 12 11.493" xml:space="preserve">
<path d="M11.973,4.366c-0.185-0.575-1.196-0.707-2.271-0.847C9.116,3.44,8.449,3.353,8.247,3.204C8.044,3.056,7.76,2.446,7.51,1.907
	c-0.455-0.98-0.886-1.904-1.487-1.906L6.012,0c-0.6,0.01-1.033,0.923-1.497,1.892C4.26,2.429,3.969,3.036,3.768,3.182
	c-0.204,0.147-0.873,0.229-1.463,0.3C1.234,3.613,0.219,3.735,0.03,4.308C-0.16,4.879,0.582,5.582,1.367,6.325
	c0.429,0.41,0.917,0.873,0.995,1.113c0.076,0.237-0.055,0.897-0.167,1.479c-0.208,1.06-0.404,2.062,0.082,2.42
	c0.116,0.084,0.261,0.126,0.434,0.122c0.495-0.007,1.209-0.393,1.898-0.768c0.517-0.281,1.103-0.6,1.363-0.604
	c0.252,0,0.84,0.327,1.357,0.616c0.706,0.391,1.436,0.797,1.933,0.788c0.153-0.002,0.286-0.043,0.394-0.12
	c0.489-0.351,0.304-1.353,0.107-2.417C9.654,8.374,9.534,7.71,9.611,7.472c0.078-0.238,0.571-0.695,1.005-1.1
	C11.407,5.635,12.155,4.942,11.973,4.366"/>
</svg>
