<?xml version="1.0" encoding="utf-8"?>
<!-- Generator: Adobe Illustrator 16.0.0, SVG Export Plug-In . SVG Version: 6.00 Build 0)  -->
<!DOCTYPE svg PUBLIC "-//W3C//DTD SVG 1.1//EN" "http://www.w3.org/Graphics/SVG/1.1/DTD/svg11.dtd">
<svg version="1.1" id="Layer_1" xmlns="http://www.w3.org/2000/svg" xmlns:xlink="http://www.w3.org/1999/xlink" x="0px" y="0px"
	 width="19.95px" height="19.95px" viewBox="0 0 19.95 19.95" enable-background="new 0 0 19.95 19.95" xml:space="preserve">
<g>
	<g>
		<path d="M9.976,19.95C4.475,19.95,0,15.476,0,9.975C0,4.475,4.475,0,9.976,0c5.5,0,9.975,4.475,9.975,9.975
			C19.95,15.476,15.476,19.95,9.976,19.95z M9.976,1C5.026,1,1,5.026,1,9.975c0,4.949,4.026,8.976,8.976,8.976
			c4.949,0,8.975-4.026,8.975-8.976C18.95,5.026,14.924,1,9.976,1z"/>
	</g>
	<g>
		<path d="M15.323,10.475H9.998c-0.276,0-0.5-0.224-0.5-0.5V4.666c0-0.276,0.224-0.5,0.5-0.5s0.5,0.224,0.5,0.5v4.809h4.825
			c0.276,0,0.5,0.224,0.5,0.5S15.6,10.475,15.323,10.475z"/>
	</g>
</g>
</svg>
