<?xml version="1.0" encoding="utf-8"?>
<!-- Generator: Adobe Illustrator 16.0.0, SVG Export Plug-In . SVG Version: 6.00 Build 0)  -->
<!DOCTYPE svg PUBLIC "-//W3C//DTD SVG 1.1//EN" "http://www.w3.org/Graphics/SVG/1.1/DTD/svg11.dtd">
<svg version="1.1" id="Layer_1" xmlns="http://www.w3.org/2000/svg" xmlns:xlink="http://www.w3.org/1999/xlink" x="0px" y="0px"
	 width="16px" height="11.411px" viewBox="0 0 16 11.411" enable-background="new 0 0 16 11.411" xml:space="preserve">
<path d="M15.795,1.393c-0.131-0.133-0.308-0.205-0.494-0.205h-3.338c-0.386,0-0.699,0.313-0.699,0.698s0.313,0.698,0.699,0.698
	h1.649L12.25,3.947c-0.525-0.373-1.141-0.612-1.807-0.703c-0.164-0.768-0.539-1.473-1.107-2.04C8.56,0.428,7.527,0,6.429,0
	C4.162,0,2.319,1.845,2.319,4.111c0,0.894,0.294,1.716,0.78,2.391L2.299,7.303l-1.07-1.068c-0.272-0.274-0.716-0.272-0.987,0
	c-0.273,0.272-0.273,0.715,0,0.987l1.069,1.069L0.205,9.396c-0.273,0.273-0.273,0.715,0,0.988c0.136,0.137,0.314,0.205,0.494,0.205
	c0.179,0,0.357-0.068,0.494-0.205l1.105-1.105l1.052,1.052c0.138,0.136,0.316,0.204,0.494,0.204c0.18,0,0.358-0.068,0.495-0.204
	c0.272-0.272,0.272-0.716,0-0.989L3.287,8.291l0.806-0.807c0.52,0.36,1.126,0.59,1.78,0.68c0.401,1.851,2.048,3.245,4.017,3.247
	c2.266-0.003,4.109-1.847,4.11-4.112c-0.001-0.881-0.286-1.693-0.761-2.365l1.362-1.363V5.22c0,0.386,0.313,0.698,0.698,0.698
	c0.386,0,0.699-0.313,0.699-0.698L16,1.886C16,1.699,15.926,1.523,15.795,1.393 M6.429,1.398c0.726,0,1.406,0.281,1.919,0.793
	c0.312,0.312,0.525,0.689,0.654,1.097c-1.666,0.368-2.94,1.751-3.171,3.463C4.623,6.479,3.716,5.4,3.716,4.111
	C3.716,2.615,4.933,1.398,6.429,1.398 M9.065,4.725c-0.112,0.489-0.354,0.94-0.718,1.305C8.036,6.34,7.658,6.554,7.25,6.684
	C7.466,5.753,8.164,5.014,9.065,4.725 M9.89,10.013c-1.208-0.001-2.223-0.801-2.574-1.895c0.759-0.166,1.459-0.539,2.021-1.101
	c0.646-0.646,1.033-1.472,1.15-2.361c1.208,0.277,2.114,1.354,2.115,2.643C12.602,8.794,11.384,10.012,9.89,10.013"/>
</svg>
