<?xml version="1.0" encoding="utf-8"?>
<!-- Generator: Adobe Illustrator 16.0.0, SVG Export Plug-In . SVG Version: 6.00 Build 0)  -->
<!DOCTYPE svg PUBLIC "-//W3C//DTD SVG 1.1//EN" "http://www.w3.org/Graphics/SVG/1.1/DTD/svg11.dtd">
<svg version="1.1" id="Layer_1" xmlns="http://www.w3.org/2000/svg" xmlns:xlink="http://www.w3.org/1999/xlink" x="0px" y="0px"
	 width="16px" height="12.52px" viewBox="0 0 16 12.52" enable-background="new 0 0 16 12.52" xml:space="preserve">
<g>
	<path d="M11.563,8.612l-2.654,1.485l-0.909,0.509l-0.907-0.509L4.438,8.612L3.456,8.063v2.034c0,1.338,2.034,2.422,4.543,2.422
		c2.511,0,4.543-1.084,4.543-2.422V8.063L11.563,8.612z"/>
	<path d="M15.615,3.958L8.933,0.214c-0.514-0.285-1.353-0.285-1.865,0L0.386,3.958c-0.514,0.287-0.514,0.756,0,1.045L0.648,5.15
		l1.157,0.647l3.848-2.105C5.895,3.56,6.202,3.646,6.335,3.892c0.135,0.244,0.044,0.55-0.198,0.683L2.839,6.378L5.35,7.784
		l0.396,0.223l1.321,0.74c0.513,0.286,1.352,0.286,1.865,0l1.32-0.74l0.397-0.223l4.702-2.634l0.263-0.147
		C16.128,4.714,16.128,4.245,15.615,3.958"/>
	<path d="M1.942,7.214c-0.086-0.092-0.18-0.157-0.283-0.158H1.658c-0.339,0-0.614,0.558-0.614,1.244v2.438h1.229V8.3
		C2.273,7.824,2.136,7.423,1.942,7.214"/>
</g>
</svg>
