<?xml version="1.0" encoding="utf-8"?>
<!-- Generator: Adobe Illustrator 16.0.0, SVG Export Plug-In . SVG Version: 6.00 Build 0)  -->
<!DOCTYPE svg PUBLIC "-//W3C//DTD SVG 1.1//EN" "http://www.w3.org/Graphics/SVG/1.1/DTD/svg11.dtd">
<svg version="1.1" id="Layer_1" xmlns="http://www.w3.org/2000/svg" xmlns:xlink="http://www.w3.org/1999/xlink" x="0px" y="0px"
	 width="16px" height="10.051px" viewBox="0 0 16 10.051" enable-background="new 0 0 16 10.051" xml:space="preserve">
<g>
	<path d="M8.047,0C2.275,0,0,5.026,0,5.026s2.181,5.025,7.953,5.025c5.771,0,8.047-5.025,8.047-5.025S13.818,0,8.047,0 M8,9.233
		c-2.324,0-4.207-1.884-4.207-4.207S5.676,0.818,8,0.818s4.207,1.885,4.207,4.208S10.324,9.233,8,9.233"/>
	<path d="M8,2.302c-0.125,0-0.248,0.01-0.369,0.026C7.86,2.603,8,2.956,8,3.341c0,0.871-0.706,1.576-1.576,1.576
		C6,4.917,5.615,4.75,5.332,4.478C5.296,4.655,5.276,4.837,5.276,5.026c0,1.504,1.22,2.723,2.724,2.723s2.723-1.219,2.723-2.723
		C10.723,3.521,9.504,2.302,8,2.302"/>
</g>
</svg>
