<?xml version="1.0" encoding="utf-8"?>
<!-- Generator: Adobe Illustrator 16.0.0, SVG Export Plug-In . SVG Version: 6.00 Build 0)  -->
<!DOCTYPE svg PUBLIC "-//W3C//DTD SVG 1.1//EN" "http://www.w3.org/Graphics/SVG/1.1/DTD/svg11.dtd">
<svg version="1.1" id="Layer_1" xmlns="http://www.w3.org/2000/svg" xmlns:xlink="http://www.w3.org/1999/xlink" x="0px" y="0px"
	 width="30px" height="27px" viewBox="0 0 30 27" enable-background="new 0 0 30 27" xml:space="preserve">
<path fill="#020202" d="M15.079,6.922c-0.826,0-1.494,0.672-1.494,1.5v7.279c0,0.828,0.668,1.498,1.494,1.498
	c0.823,0,1.493-0.67,1.493-1.498V8.422C16.572,7.592,15.902,6.922,15.079,6.922z M15.079,19.072c-0.826,0-1.494,0.672-1.494,1.5
	v0.004c0,0.828,0.668,1.498,1.494,1.498c0.823,0,1.493-0.67,1.493-1.498v-0.004C16.572,19.742,15.902,19.072,15.079,19.072z
	 M29.297,21.797L17.996,2.147C17.172,0.717,16.087,0,15.001,0s-2.172,0.717-2.996,2.146L0.704,21.795
	C-0.944,24.658,0.403,27,3.697,27h22.608C29.598,27,30.943,24.658,29.297,21.797z M27.926,24.471
	c-0.141,0.242-0.646,0.527-1.621,0.527H3.697c-0.972,0-1.48-0.285-1.62-0.527c-0.138-0.242-0.13-0.826,0.358-1.672l11.3-19.648
	c0.486-0.846,0.986-1.146,1.266-1.146c0.28,0,0.78,0.3,1.267,1.146l11.301,19.647C28.055,23.641,28.064,24.227,27.926,24.471z"/>
</svg>
