<?xml version="1.0" encoding="utf-8"?>
<!-- Generator: Adobe Illustrator 19.2.0, SVG Export Plug-In . SVG Version: 6.00 Build 0)  -->
<svg version="1.1" id="Layer_1" xmlns="http://www.w3.org/2000/svg" xmlns:xlink="http://www.w3.org/1999/xlink" x="0px" y="0px"
	 viewBox="0 0 16 12" style="enable-background:new 0 0 16 12;" xml:space="preserve">
	<path d="M4.5,2.4c-1.1,0-1.9,0.9-1.9,1.9c0,1.1,0.9,1.9,1.9,1.9c1.1,0,1.9-0.9,1.9-1.9C6.4,3.3,5.5,2.4,4.5,2.4 M4.5,5.5
		C3.9,5.5,3.4,5,3.4,4.4c0-0.6,0.5-1.1,1.1-1.1c0.6,0,1.1,0.5,1.1,1.1C5.6,5,5.1,5.5,4.5,5.5"/>
	<path d="M16,0.9c0,0-0.7-1-1.6-1H1.6C0.7-0.1,0,0.5,0,1.4v9c0,0.5,0.3,1,0.6,1.3c0.1,0.1,0.2,0.1,0.3,0.2c0.2,0.1,0.4,0.2,0.7,0.2
		h12.7c0.2,0,0.5-0.1,0.7-0.1c0.1-0.1,0.2-0.1,0.3-0.2c0.4-0.3,0.6-0.8,0.6-1.3L16,0.9L16,0.9z M1,10.1V1.4C1,1,1.2,0.9,1.6,0.9
		h12.7c0.4,0,0.6,0,0.6,0.5v6.3l-3.8-4.6C11.2,3,11.1,3,11,3c-0.1,0-0.2,0-0.3,0.1l-9,8.2c-0.4,0-0.7-0.4-0.7-0.8 M15,10.4
		c0,0.5-0.2,0.6-0.6,0.6H2.8l8.1-7.2L15,9V10.4z"/>
</svg>
