<?xml version="1.0" encoding="utf-8"?>
<!-- Generator: Adobe Illustrator 19.2.0, SVG Export Plug-In . SVG Version: 6.00 Build 0)  -->
<svg version="1.1" id="Layer_1" xmlns="http://www.w3.org/2000/svg" xmlns:xlink="http://www.w3.org/1999/xlink" x="0px" y="0px"
	 viewBox="0 0 20 20" style="enable-background:new 0 0 20 20;" xml:space="preserve">
	<path d="M17.6,2.6h-1V1.4C16.5,0.6,15.8,0,15,0h-0.5c-0.8,0-1.5,0.6-1.5,1.4v1.2H7V1.4C7,0.6,6.4,0,5.6,0H5.1
		C4.3,0,3.6,0.6,3.6,1.4v1.2H2.5C1.1,2.6,0,3.7,0,5v12.6C0,18.9,1.1,20,2.5,20h15.1c1.4,0,2.5-1.1,2.5-2.4V5
		C20,3.7,18.9,2.6,17.6,2.6 M14.1,1.4c0-0.3,0.2-0.5,0.5-0.5H15c0.3,0,0.5,0.2,0.5,0.5V5c0,0.3-0.2,0.5-0.5,0.5h-0.5
		c-0.3,0-0.5-0.2-0.5-0.5V1.4z M4.6,1.4C4.6,1.2,4.8,1,5.1,1h0.5c0.3,0,0.5,0.2,0.5,0.5V5c0,0.3-0.2,0.5-0.5,0.5H5.1
		C4.8,5.5,4.6,5.2,4.6,5V1.4z M19,17.6c0,0.8-0.7,1.4-1.5,1.4H2.5C1.6,19,1,18.4,1,17.6V5c0-0.8,0.7-1.4,1.5-1.4h1.2V5
		c0,0.8,0.7,1.4,1.5,1.4h0.5C6.4,6.4,7,5.8,7,5V3.6h6V5c0,0.8,0.7,1.4,1.5,1.4H15c0.8,0,1.5-0.6,1.5-1.4V3.6h1C18.4,3.6,19,4.2,19,5
		V17.6z"/>
	<path d="M16.9,7.7h-4.6H7.7H3.1c-0.3,0-0.5,0.2-0.5,0.5v4.5v4.5c0,0.3,0.2,0.5,0.5,0.5h4.6h4.6h4.6c0.3,0,0.5-0.2,0.5-0.5v-4.5V8.2
		C17.3,7.9,17.1,7.7,16.9,7.7 M7.2,16.7H3.6v-3.5h3.6V16.7z M7.2,12.2H3.6V8.7h3.6V12.2z M11.8,16.7H8.2v-3.5h3.6L11.8,16.7
		L11.8,16.7z M11.8,12.2H8.2V8.7h3.6L11.8,12.2L11.8,12.2z M16.4,16.7h-3.6v-3.5h3.6V16.7z M16.4,12.2h-3.6V8.7h3.6V12.2z"/>
</svg>
