<?xml version="1.0" encoding="utf-8"?>
<!-- Generator: Adobe Illustrator 19.2.0, SVG Export Plug-In . SVG Version: 6.00 Build 0)  -->
<svg version="1.1" id="Layer_1" xmlns="http://www.w3.org/2000/svg" xmlns:xlink="http://www.w3.org/1999/xlink" x="0px" y="0px"
	 viewBox="0 0 8 8" style="enable-background:new 0 0 8 8;" xml:space="preserve">
<g>
	<path d="M5.5,8H2.5C1.1,8,0,6.9,0,5.5V2.5C0,1.1,1.1,0,2.5,0h3.1C6.9,0,8,1.1,8,2.5v3.1C8,6.9,6.9,8,5.5,8z M2.5,1
		C1.7,1,1,1.7,1,2.5v3.1C1,6.3,1.7,7,2.5,7h3.1C6.3,7,7,6.3,7,5.5V2.5C7,1.7,6.3,1,5.5,1H2.5z"/>
</g>
</svg>
