<?xml version="1.0" encoding="utf-8"?>
<!-- Generator: Adobe Illustrator 19.2.0, SVG Export Plug-In . SVG Version: 6.00 Build 0)  -->
<svg version="1.1" id="Layer_1" xmlns="http://www.w3.org/2000/svg" xmlns:xlink="http://www.w3.org/1999/xlink" x="0px" y="0px"
	 viewBox="0 0 16 14" style="enable-background:new 0 0 16 14;" xml:space="preserve">
	<path d="M15.7,6.3l-6-6c-0.4-0.4-1-0.4-1.4,0s-0.4,1,0,1.4L13.6,7l-5.3,5.3c-0.4,0.4-0.4,1,0,1.4C8.5,13.9,8.7,14,9,14
		s0.5-0.1,0.7-0.3l6-6C16.1,7.3,16.1,6.7,15.7,6.3"/>
	<path d="M7.7,6.3l-6-6c-0.4-0.4-1-0.4-1.4,0s-0.4,1,0,1.4L5.6,7l-5.3,5.3c-0.4,0.4-0.4,1,0,1.4C0.5,13.9,0.7,14,1,14
		s0.5-0.1,0.7-0.3l6-6C8.1,7.3,8.1,6.7,7.7,6.3"/>
</svg>
