<?xml version="1.0" encoding="utf-8"?>
<!-- Generator: Adobe Illustrator 19.2.0, SVG Export Plug-In . SVG Version: 6.00 Build 0)  -->
<svg version="1.1" id="Layer_1" xmlns="http://www.w3.org/2000/svg" xmlns:xlink="http://www.w3.org/1999/xlink" x="0px" y="0px"
	 viewBox="0 0 13 16" style="enable-background:new 0 0 13 16;" xml:space="preserve">
	<path d="M9.2,13c-0.2,0-0.4-0.1-0.5-0.4c-0.2-0.8-1.1-1.4-2.2-1.4c-1,0-1.9,0.6-2.2,1.4C4.2,12.9,4,13.1,3.7,13
		c-0.3-0.1-0.4-0.4-0.4-0.6c0.4-1.3,1.7-2.1,3.2-2.1c1.5,0,2.8,0.9,3.2,2.1C9.8,12.7,9.6,13,9.3,13C9.3,13,9.2,13,9.2,13"/>
	<path d="M4.8,8.8c0,0.5-0.4,1-1,1c-0.6,0-1-0.4-1-1s0.4-1,1-1C4.3,7.9,4.8,8.3,4.8,8.8"/>
	<path d="M10.2,8.8c0,0.5-0.5,1-1,1c-0.6,0-1-0.4-1-1s0.5-1,1-1C9.8,7.9,10.2,8.3,10.2,8.8"/>
	<path d="M6.5,16C2.9,16,0,13.2,0,9.7c0-0.3,0-0.6,0.1-0.8l0-0.2c0-0.2,0.1-0.4,0.1-0.6c1.1-4.2,5.8-7.8,6-8C6.3,0,6.4,0,6.5,0h0
		c0.1,0,0.2,0,0.3,0.1c0.2,0.1,4.5,3.5,5.8,7.5C12.9,8.3,13,9,13,9.7C13,13.2,10.1,16,6.5,16 M6.5,1.1C5.4,2,2,5.1,1.2,8.3
		c0,0.2-0.1,0.3-0.1,0.5l0,0.2C1,9.2,1,9.5,1,9.7C1,12.6,3.5,15,6.5,15S12,12.6,12,9.7c0-0.6-0.1-1.2-0.3-1.8
		C10.7,4.8,7.5,2,6.5,1.1"/>
</svg>
