<?xml version="1.0" encoding="utf-8"?>
<!-- Generator: Adobe Illustrator 16.0.0, SVG Export Plug-In . SVG Version: 6.00 Build 0)  -->
<!DOCTYPE svg PUBLIC "-//W3C//DTD SVG 1.1//EN" "http://www.w3.org/Graphics/SVG/1.1/DTD/svg11.dtd">
<svg version="1.1" id="Layer_1" xmlns="http://www.w3.org/2000/svg" xmlns:xlink="http://www.w3.org/1999/xlink" x="0px" y="0px"
	 width="16px" height="16px" viewBox="0 0 16 16" enable-background="new 0 0 16 16" xml:space="preserve">
<g>
	<path d="M6.14,6.891c0,0.685-0.553,1.237-1.237,1.237c-0.683,0-1.236-0.553-1.236-1.237c0-0.684,0.553-1.236,1.236-1.236
		C5.587,5.654,6.14,6.207,6.14,6.891"/>
	<path d="M12.097,6.891c0,0.685-0.554,1.237-1.237,1.237c-0.683,0-1.236-0.553-1.236-1.237c0-0.684,0.554-1.236,1.236-1.236
		C11.543,5.654,12.097,6.207,12.097,6.891"/>
	<path d="M8,10.662H4.423c-0.342,0-0.619-0.277-0.619-0.616c0-0.343,0.277-0.62,0.619-0.62H8c0.342,0,0.617,0.277,0.617,0.62
		C8.617,10.385,8.342,10.662,8,10.662"/>
	<path d="M11.574,10.662H8c-0.342,0-0.618-0.277-0.618-0.616c0-0.343,0.276-0.62,0.618-0.62h3.574c0.342,0,0.619,0.277,0.619,0.62
		C12.193,10.385,11.916,10.662,11.574,10.662"/>
	<path d="M8,16c-4.411,0-8-3.59-8-8c0-4.411,3.589-8,8-8s8,3.589,8,8C16,12.41,12.411,16,8,16 M8,0.897
		C4.084,0.897,0.898,4.084,0.898,8S4.084,15.102,8,15.102S15.102,11.916,15.102,8S11.916,0.897,8,0.897"/>
</g>
</svg>
