<?xml version="1.0" encoding="utf-8"?>
<!-- Generator: Adobe Illustrator 19.2.0, SVG Export Plug-In . SVG Version: 6.00 Build 0)  -->
<svg version="1.1" id="Layer_1" xmlns="http://www.w3.org/2000/svg" xmlns:xlink="http://www.w3.org/1999/xlink" x="0px" y="0px"
	 viewBox="0 0 20 20" style="enable-background:new 0 0 20 20;" xml:space="preserve">
	<path d="M19.4,16.7L16,13.2c2.1-3.4,1.7-7.8-1.2-10.7C13.1,0.9,10.9,0,8.6,0S4.2,0.9,2.5,2.5S0,6.3,0,8.7c0,2.3,0.9,4.5,2.5,6.1
		c1.7,1.7,3.9,2.5,6.1,2.5c1.6,0,3.2-0.5,4.6-1.4l3.5,3.5c0.4,0.4,0.8,0.6,1.4,0.6c0.5,0,1-0.2,1.4-0.6s0.6-0.8,0.6-1.4
		C20,17.6,19.8,17.1,19.4,16.7 M13,15L13,15L13,15c-3.1,2.1-7.2,1.8-9.8-0.9C1.8,12.6,1,10.7,1,8.7c0-2.1,0.8-4,2.3-5.4
		C4.7,1.8,6.6,1,8.6,1s4,0.8,5.4,2.3c2.6,2.6,3,6.8,0.9,9.8c-0.3,0.4-0.6,0.8-0.9,1.1C13.8,14.4,13.4,14.7,13,15 M18.8,18.8
		c-0.4,0.4-1,0.4-1.4,0L14,15.4c0.3-0.2,0.5-0.4,0.7-0.6c0.2-0.2,0.4-0.5,0.6-0.7l3.4,3.4c0.2,0.2,0.3,0.4,0.3,0.7
		C19,18.3,18.9,18.6,18.8,18.8"/>
	<path d="M13.1,4.2c-1.2-1.2-2.8-1.9-4.5-1.9c-1.7,0-3.3,0.7-4.5,1.9C3.9,4.3,3.9,4.6,4,4.8c0,0,0,0,0,0C4.3,5,4.6,5,4.7,4.8
		c1-1,2.4-1.6,3.8-1.6c1.4,0,2.8,0.6,3.8,1.6C12.5,4.9,12.6,5,12.7,5s0.2,0,0.3-0.1c0,0,0,0,0,0C13.2,4.6,13.2,4.3,13.1,4.2"/>
</svg>
