<?xml version="1.0" encoding="utf-8"?>
<!-- Generator: Adobe Illustrator 19.2.0, SVG Export Plug-In . SVG Version: 6.00 Build 0)  -->
<svg version="1.1" id="Layer_1" xmlns="http://www.w3.org/2000/svg" xmlns:xlink="http://www.w3.org/1999/xlink" x="0px" y="0px"
	 viewBox="0 0 16 16" style="enable-background:new 0 0 16 16;" xml:space="preserve">
<path d="M15.4,6.4l-1-0.1c-0.2-0.6-0.4-1.1-0.7-1.6l0.6-0.8c0.2-0.3,0.2-0.7-0.1-0.9l-0.6-0.6L13,1.7c-0.3-0.3-0.7-0.3-0.9-0.1
	l-0.8,0.6c-0.5-0.3-1-0.5-1.6-0.7l-0.1-1C9.5,0.3,9.2,0,8.9,0H8H7.1C6.8,0,6.5,0.3,6.4,0.6l-0.1,1C5.7,1.8,5.2,2,4.7,2.3L3.9,1.7
	C3.6,1.4,3.2,1.5,3,1.7L2.3,2.3L1.7,3C1.5,3.2,1.4,3.6,1.7,3.9l0.6,0.8C2,5.2,1.8,5.7,1.6,6.3l-1,0.1C0.3,6.5,0,6.8,0,7.1V8v0.9
	c0,0.4,0.3,0.7,0.6,0.7l1,0.1c0.2,0.6,0.4,1.1,0.7,1.6l-0.6,0.8c-0.2,0.3-0.2,0.7,0.1,0.9l0.6,0.6L3,14.3c0.3,0.3,0.7,0.3,0.9,0.1
	l0.8-0.6c0.5,0.3,1,0.5,1.6,0.7l0.1,1c0,0.4,0.4,0.6,0.7,0.6H8h0.9c0.4,0,0.7-0.3,0.7-0.6l0.1-1c0.6-0.2,1.1-0.4,1.6-0.7l0.8,0.6
	c0.3,0.2,0.7,0.2,0.9-0.1l0.6-0.6l0.6-0.6c0.3-0.3,0.3-0.7,0.1-0.9l-0.6-0.8c0.3-0.5,0.5-1,0.7-1.6l1-0.1c0.4,0,0.6-0.4,0.6-0.7V8
	V7.1C16,6.8,15.7,6.5,15.4,6.4 M8,10.9c-1.6,0-2.9-1.3-2.9-2.9c0-1.6,1.3-2.9,2.9-2.9c1.6,0,2.9,1.3,2.9,2.9
	C10.9,9.6,9.6,10.9,8,10.9"/>
</svg>
