<?xml version="1.0" encoding="utf-8"?>
<!-- Generator: Adobe Illustrator 19.2.0, SVG Export Plug-In . SVG Version: 6.00 Build 0)  -->
<svg version="1.1" id="Layer_1" xmlns="http://www.w3.org/2000/svg" xmlns:xlink="http://www.w3.org/1999/xlink" x="0px" y="0px"
	 viewBox="0 0 15 16" style="enable-background:new 0 0 15 16;" xml:space="preserve">
<g>
	<g>
		<path d="M5.6,13.4c-0.1,0-0.1,0-0.2,0c-0.5-0.2-1-0.5-1.5-0.9c-0.2-0.2-0.2-0.5-0.1-0.7c0.2-0.2,0.5-0.2,0.7-0.1
			c0.4,0.3,0.8,0.6,1.2,0.8c0.3,0.1,0.4,0.4,0.3,0.6C6,13.3,5.8,13.4,5.6,13.4z"/>
	</g>
	<g>
		<path d="M2.4,9.2C2.1,9.2,1.9,9,1.9,8.7l0-0.2c0-0.1,0-0.3,0-0.4c0-0.3,0-0.6,0.1-0.9C2,7,2.2,6.8,2.5,6.9c0.3,0,0.5,0.3,0.4,0.6
			c0,0.3-0.1,0.5-0.1,0.8c0,0.1,0,0.2,0,0.3l0,0.2C2.9,8.9,2.7,9.2,2.4,9.2C2.4,9.2,2.4,9.2,2.4,9.2z"/>
	</g>
	<g>
		<path d="M10.5,4.5c-0.1,0-0.2,0-0.3-0.1C9.9,4.2,9.6,4,9.3,3.9C9,3.8,8.9,3.5,9,3.3C9.1,3,9.4,2.9,9.7,3c0.4,0.2,0.7,0.3,1.1,0.6
			C11,3.8,11,4.1,10.9,4.3C10.8,4.4,10.6,4.5,10.5,4.5z"/>
	</g>
	<g>
		<path d="M12.6,9.2C12.6,9.2,12.6,9.2,12.6,9.2c-0.3,0-0.5-0.3-0.5-0.5l0-0.2c0-0.1,0-0.2,0-0.3c0-0.2,0-0.5-0.1-0.8
			c0-0.3,0.1-0.5,0.4-0.6C12.8,6.8,13,7,13.1,7.3c0,0.3,0.1,0.6,0.1,0.9c0,0.1,0,0.3,0,0.4l0,0.2C13.1,9,12.9,9.2,12.6,9.2z"/>
	</g>
	<g>
		<path d="M4.5,4.5c-0.2,0-0.3-0.1-0.4-0.2C4,4.1,4,3.8,4.2,3.6C4.6,3.3,5,3.1,5.3,3C5.6,2.9,5.9,3,6,3.3c0.1,0.3,0,0.5-0.3,0.7
			C5.4,4,5.1,4.2,4.8,4.4C4.7,4.5,4.6,4.5,4.5,4.5z"/>
	</g>
	<g>
		<path d="M9.4,13.4c-0.2,0-0.4-0.1-0.5-0.3c-0.1-0.3,0-0.5,0.3-0.6c0.4-0.2,0.8-0.4,1.2-0.8c0.2-0.2,0.5-0.1,0.7,0.1
			c0.2,0.2,0.1,0.5-0.1,0.7c-0.5,0.4-1,0.7-1.5,0.9C9.5,13.4,9.5,13.4,9.4,13.4z"/>
	</g>
	<g>
		<path d="M12.6,7.8c-0.1,0-0.1,0-0.2,0c-0.2-0.1-0.3-0.2-0.3-0.4c-0.2-1.2-0.9-2.3-1.9-3C10,4.3,10,4.1,10,3.9
			c0-0.2,0.2-0.3,0.3-0.4l2.3-0.7c0.5-0.2,1.2,0.1,1.5,0.6l0.7,1.3c0.3,0.5,0.2,1.2-0.3,1.6l-1.7,1.5C12.8,7.8,12.7,7.8,12.6,7.8z
			 M11.5,4.2c0.6,0.6,1.1,1.4,1.4,2.2l1.1-0.9C14,5.4,14,5.2,14,5.1l-0.7-1.3c0-0.1-0.2-0.1-0.3-0.1L11.5,4.2z"/>
	</g>
	<g>
		<path d="M5.5,4c-0.1,0-0.2,0-0.3-0.1C5,3.7,5,3.5,5,3.4L5.5,1c0.1-0.6,0.7-1,1.3-1h1.5c0.6,0,1.1,0.5,1.3,1L10,3.4
			c0,0.2,0,0.4-0.2,0.5C9.7,4,9.5,4,9.3,3.9c-1.1-0.5-2.5-0.5-3.6,0C5.6,3.9,5.6,4,5.5,4z M6.8,1C6.6,1,6.5,1.1,6.5,1.2L6.2,2.7
			C7,2.5,8,2.5,8.8,2.7L8.5,1.2C8.5,1.1,8.4,1,8.2,1H6.8z"/>
	</g>
	<g>
		<path d="M8.2,16H6.8c-0.6,0-1.1-0.5-1.3-1L5.1,13c0-0.2,0-0.4,0.2-0.5c0.1-0.1,0.3-0.1,0.5-0.1c1.1,0.4,2.3,0.4,3.4,0
			c0.2-0.1,0.4,0,0.5,0.1c0.1,0.1,0.2,0.3,0.2,0.5L9.5,15C9.4,15.5,8.8,16,8.2,16z M6.3,13.7l0.2,1.1c0,0.1,0.2,0.2,0.3,0.2h1.5
			c0.1,0,0.3-0.1,0.3-0.2l0.2-1.1C7.9,13.9,7.1,13.9,6.3,13.7z"/>
	</g>
	<g>
		<path d="M2,13.3c-0.5,0-0.9-0.3-1.1-0.6l-0.7-1.3c-0.3-0.5-0.2-1.2,0.3-1.6l1.6-1.4c0.1-0.1,0.3-0.2,0.5-0.1
			c0.2,0.1,0.3,0.2,0.3,0.4c0.1,1.2,0.7,2.3,1.6,3.1c0.1,0.1,0.2,0.3,0.2,0.5c0,0.2-0.2,0.3-0.3,0.4l-1.9,0.6
			C2.3,13.3,2.2,13.3,2,13.3z M2.1,9.6l-1,0.9C1,10.6,1,10.8,1,10.9l0.7,1.3c0.1,0.1,0.2,0.2,0.3,0.1l1.2-0.4
			C2.7,11.2,2.3,10.5,2.1,9.6z"/>
	</g>
	<g>
		<path d="M2.4,7.8c-0.1,0-0.2,0-0.3-0.1L0.4,6.2C0,5.8-0.1,5.1,0.2,4.6l0.7-1.3c0.3-0.5,1-0.8,1.5-0.6l2.3,0.7C4.9,3.6,5,3.8,5,3.9
			c0,0.2-0.1,0.4-0.2,0.5c-1,0.7-1.7,1.8-1.9,3c0,0.2-0.2,0.3-0.3,0.4C2.5,7.8,2.5,7.8,2.4,7.8z M2.1,3.7c-0.2,0-0.3,0.1-0.3,0.1
			L1,5.1C1,5.2,1,5.4,1.1,5.5l1.1,0.9c0.3-0.8,0.7-1.6,1.4-2.2L2.1,3.7C2.1,3.7,2.1,3.7,2.1,3.7z"/>
	</g>
	<g>
		<path d="M13,13.3L13,13.3c-0.1,0-0.3,0-0.4-0.1l-1.9-0.6c-0.2-0.1-0.3-0.2-0.3-0.4c0-0.2,0-0.4,0.2-0.5c0.9-0.8,1.5-1.9,1.6-3.1
			c0-0.2,0.1-0.3,0.3-0.4c0.2-0.1,0.4,0,0.5,0.1l1.6,1.4c0.4,0.4,0.6,1.1,0.3,1.6l-0.7,1.3C13.9,13,13.4,13.3,13,13.3z M11.7,11.9
			l1.2,0.4c0.1,0,0.2-0.1,0.3-0.1l0.7-1.3c0.1-0.1,0-0.3-0.1-0.4l-1-0.9C12.7,10.5,12.3,11.2,11.7,11.9z"/>
	</g>
	<g>
		<path d="M5.5,4C5.3,4,5.1,3.8,5,3.6C4.9,3.4,5.1,3.1,5.3,3c1.4-0.6,3-0.6,4.4,0c0.3,0.1,0.4,0.4,0.3,0.7C9.8,3.9,9.6,4,9.3,3.9
			c-1.1-0.5-2.5-0.5-3.6,0C5.6,3.9,5.6,4,5.5,4z"/>
	</g>
	<g>
		<path d="M12.6,7.8c-0.2,0-0.5-0.2-0.5-0.4c-0.2-1.2-0.9-2.3-1.9-3C10,4.3,9.9,3.9,10.1,3.7c0.2-0.2,0.5-0.3,0.7-0.1
			c1.2,0.9,2,2.2,2.3,3.7C13.1,7.5,12.9,7.8,12.6,7.8C12.6,7.8,12.6,7.8,12.6,7.8z"/>
	</g>
	<g>
		<path d="M7.5,13.8c-0.7,0-1.4-0.1-2.1-0.4C5.1,13.3,5,13,5.1,12.7c0.1-0.3,0.4-0.4,0.7-0.3c1.1,0.4,2.3,0.4,3.4,0
			c0.3-0.1,0.5,0,0.7,0.3c0.1,0.3,0,0.5-0.3,0.6C8.9,13.7,8.2,13.8,7.5,13.8z"/>
	</g>
	<g>
		<path d="M4.2,12.6c-0.1,0-0.2,0-0.3-0.1c-1.1-0.9-1.8-2.3-2-3.7c0-0.3,0.2-0.5,0.4-0.5c0.3,0,0.5,0.2,0.5,0.4
			c0.1,1.2,0.7,2.3,1.6,3.1c0.2,0.2,0.2,0.5,0.1,0.7C4.5,12.5,4.4,12.6,4.2,12.6z"/>
	</g>
	<g>
		<path d="M2.4,7.8C2.4,7.8,2.4,7.8,2.4,7.8C2.1,7.8,1.9,7.5,1.9,7.3C2.2,5.8,3,4.5,4.2,3.6c0.2-0.2,0.5-0.1,0.7,0.1
			C5.1,3.9,5,4.3,4.8,4.4c-1,0.7-1.7,1.8-1.9,3C2.9,7.7,2.7,7.8,2.4,7.8z"/>
	</g>
	<g>
		<path d="M9.3,8.7H5.7c-0.3,0-0.5-0.2-0.5-0.5c0-0.3,0.2-0.5,0.5-0.5h3.5c0.3,0,0.5,0.2,0.5,0.5C9.8,8.5,9.5,8.7,9.3,8.7z"/>
	</g>
</g>
</svg>
