<?xml version="1.0" encoding="utf-8"?>
<!-- Generator: Adobe Illustrator 19.2.0, SVG Export Plug-In . SVG Version: 6.00 Build 0)  -->
<svg version="1.1" id="Layer_1" xmlns="http://www.w3.org/2000/svg" xmlns:xlink="http://www.w3.org/1999/xlink" x="0px" y="0px"
	 viewBox="0 0 12 12" style="enable-background:new 0 0 12 12;" xml:space="preserve">
<path d="M12,4.6C11.8,4,10.8,3.8,9.7,3.7C9.1,3.6,8.4,3.5,8.2,3.3C8,3.2,7.8,2.6,7.5,2C7.1,1,6.6,0,6,0l0,0C5.4,0,5,1,4.5,2
	C4.3,2.5,4,3.2,3.8,3.3C3.6,3.5,2.9,3.6,2.3,3.6C1.2,3.8,0.2,3.9,0,4.5c-0.2,0.6,0.6,1.3,1.3,2.1c0.4,0.4,0.9,0.9,1,1.2
	C2.4,8,2.3,8.7,2.2,9.3c-0.2,1.1-0.4,2.2,0.1,2.5C2.4,11.9,2.5,12,2.7,12c0.5,0,1.2-0.4,1.9-0.8c0.5-0.3,1.1-0.6,1.4-0.6
	c0.3,0,0.8,0.3,1.4,0.6C8,11.6,8.8,12,9.3,12c0.2,0,0.3,0,0.4-0.1c0.5-0.4,0.3-1.4,0.1-2.5C9.7,8.7,9.5,8.1,9.6,7.8
	c0.1-0.2,0.6-0.7,1-1.1C11.4,5.9,12.2,5.2,12,4.6"/>
</svg>
