<?xml version="1.0" encoding="utf-8"?>
<!-- Generator: Adobe Illustrator 19.2.0, SVG Export Plug-In . SVG Version: 6.00 Build 0)  -->
<svg version="1.1" id="Layer_1" xmlns="http://www.w3.org/2000/svg" xmlns:xlink="http://www.w3.org/1999/xlink" x="0px" y="0px"
	 viewBox="0 0 20 20" style="enable-background:new 0 0 20 20;" xml:space="preserve">
<g>
	<g>
		<path d="M10,20C4.5,20,0,15.5,0,10C0,4.5,4.5,0,10,0c5.5,0,10,4.5,10,10C20,15.5,15.5,20,10,20z M10,1c-5,0-9,4-9,9s4,9,9,9
			c5,0,9-4,9-9C19,5,15,1,10,1z"/>
	</g>
	<g>
		<path d="M15.4,10.5H10c-0.3,0-0.5-0.2-0.5-0.5V4.7c0-0.3,0.2-0.5,0.5-0.5s0.5,0.2,0.5,0.5v4.8h4.8c0.3,0,0.5,0.2,0.5,0.5
			S15.6,10.5,15.4,10.5z"/>
	</g>
</g>
</svg>
