<?xml version="1.0" encoding="utf-8"?>
<!-- Generator: Adobe Illustrator 19.2.0, SVG Export Plug-In . SVG Version: 6.00 Build 0)  -->
<svg version="1.1" id="Layer_1" xmlns="http://www.w3.org/2000/svg" xmlns:xlink="http://www.w3.org/1999/xlink" x="0px" y="0px"
	 viewBox="0 0 16 12" style="enable-background:new 0 0 16 12;" xml:space="preserve">
<path d="M15.8,1.5c-0.1-0.1-0.3-0.2-0.5-0.2H12c-0.4,0-0.7,0.3-0.7,0.7s0.3,0.7,0.7,0.7h1.6l-1.4,1.4c-0.5-0.4-1.1-0.6-1.8-0.7
	c-0.2-0.8-0.5-1.5-1.1-2.1C8.6,0.5,7.5,0,6.4,0C4.2,0,2.3,1.9,2.3,4.3c0,0.9,0.3,1.8,0.8,2.5L2.3,7.7L1.2,6.6c-0.3-0.3-0.7-0.3-1,0
	C0,6.8,0,7.3,0.2,7.6l1.1,1.1L0.2,9.9c-0.3,0.3-0.3,0.8,0,1c0.1,0.1,0.3,0.2,0.5,0.2c0.2,0,0.4-0.1,0.5-0.2l1.1-1.2l1.1,1.1
	c0.1,0.1,0.3,0.2,0.5,0.2c0.2,0,0.4-0.1,0.5-0.2c0.3-0.3,0.3-0.8,0-1L3.3,8.7l0.8-0.8c0.5,0.4,1.1,0.6,1.8,0.7c0.4,1.9,2,3.4,4,3.4
	c2.3,0,4.1-1.9,4.1-4.3c0-0.9-0.3-1.8-0.8-2.5l1.4-1.4v1.7c0,0.4,0.3,0.7,0.7,0.7c0.4,0,0.7-0.3,0.7-0.7L16,2
	C16,1.8,15.9,1.6,15.8,1.5 M6.4,1.5c0.7,0,1.4,0.3,1.9,0.8C8.7,2.6,8.9,3,9,3.5C7.3,3.8,6.1,5.3,5.8,7.1C4.6,6.8,3.7,5.7,3.7,4.3
	C3.7,2.7,4.9,1.5,6.4,1.5 M9.1,5C9,5.5,8.7,6,8.3,6.3C8,6.7,7.7,6.9,7.2,7C7.5,6,8.2,5.3,9.1,5 M9.9,10.5c-1.2,0-2.2-0.8-2.6-2
	c0.8-0.2,1.5-0.6,2-1.2c0.6-0.7,1-1.5,1.1-2.5c1.2,0.3,2.1,1.4,2.1,2.8C12.6,9.2,11.4,10.5,9.9,10.5"/>
</svg>
