<?xml version="1.0" encoding="utf-8"?>
<!-- Generator: Adobe Illustrator 19.2.0, SVG Export Plug-In . SVG Version: 6.00 Build 0)  -->
<svg version="1.1" id="Layer_1" xmlns="http://www.w3.org/2000/svg" xmlns:xlink="http://www.w3.org/1999/xlink" x="0px" y="0px"
	 viewBox="0 0 16 13" style="enable-background:new 0 0 16 13;" xml:space="preserve">
<g>
	<path d="M11.6,8.9l-2.7,1.5L8,11l-0.9-0.5L4.4,8.9l-1-0.6v2.1c0,1.4,2,2.5,4.5,2.5c2.5,0,4.5-1.1,4.5-2.5V8.4L11.6,8.9z"/>
	<path d="M15.6,4.1L8.9,0.2c-0.5-0.3-1.4-0.3-1.9,0L0.4,4.1c-0.5,0.3-0.5,0.8,0,1.1l0.3,0.2L1.8,6l3.8-2.2c0.2-0.1,0.5,0,0.7,0.2
		c0.1,0.3,0,0.6-0.2,0.7L2.8,6.6l2.5,1.5l0.4,0.2l1.3,0.8c0.5,0.3,1.4,0.3,1.9,0l1.3-0.8l0.4-0.2l4.7-2.7l0.3-0.2
		C16.1,4.9,16.1,4.4,15.6,4.1"/>
	<path d="M1.9,7.5C1.9,7.4,1.8,7.3,1.7,7.3h0C1.3,7.3,1,7.9,1,8.6v2.5h1.2V8.6C2.3,8.1,2.1,7.7,1.9,7.5"/>
</g>
</svg>
