<?xml version="1.0" encoding="utf-8"?>
<!-- Generator: Adobe Illustrator 19.2.0, SVG Export Plug-In . SVG Version: 6.00 Build 0)  -->
<svg version="1.1" id="Layer_1" xmlns="http://www.w3.org/2000/svg" xmlns:xlink="http://www.w3.org/1999/xlink" x="0px" y="0px"
	 viewBox="0 0 12 12" style="enable-background:new 0 0 12 12;" xml:space="preserve">
<path d="M4,12h6.8c0.7,0,1.3-0.6,1.3-1.3v-6C12,3.9,11.4,3,10.7,3H8V1.3C8,0.6,7.1,0,6.4,0H4.7C4,0,3,0.6,3,1.3V3H0.5
	C0.2,3,0,3.2,0,3.5v7.9C0,11.8,0.2,12,0.5,12h2.9 M11,10.7c0,0.1-0.1,0.3-0.5,0.3H4V4V3.5v-2C4,1.3,4.1,1,4.7,1h1.7
	C6.9,1,7,1.3,7,1.6v1.6C7,3.9,7.2,4,7.9,4h2.5C11,4,11,4.5,11,4.6V10.7z"/>
</svg>
