<?xml version="1.0" encoding="utf-8"?>
<!-- Generator: Adobe Illustrator 19.2.0, SVG Export Plug-In . SVG Version: 6.00 Build 0)  -->
<svg version="1.1" id="Layer_1" xmlns="http://www.w3.org/2000/svg" xmlns:xlink="http://www.w3.org/1999/xlink" x="0px" y="0px"
	 viewBox="0 0 13 12" style="enable-background:new 0 0 13 12;" xml:space="preserve">
<g>
	<path d="M5.4,9.3V8.1C2.8,7.9,0.9,7,0,6.4v3.9C0,11.2,0.7,12,1.6,12h9.8c0.9,0,1.6-0.8,1.6-1.7V6.4C12.1,7,10.2,7.9,7.6,8.1v1.3
		C7.6,9.3,5.4,9.3,5.4,9.3z"/>
	<path d="M7.6,5.9v1.3c3-0.2,4.9-1.4,5.4-1.8V4.7C13,3.8,12.3,3,11.4,3H9.6V1.7C9.6,0.7,8.9,0,8,0H5C4.1,0,3.4,0.7,3.4,1.7V3H1.6
		C0.7,3,0,3.8,0,4.7v0.7C0.5,5.8,2.5,7,5.4,7.2V5.9H7.6z M5,1.7h3V3H5V1.7z"/>
</g>
</svg>
