<?xml version="1.0" encoding="utf-8"?>
<!-- Generator: Adobe Illustrator 19.2.0, SVG Export Plug-In . SVG Version: 6.00 Build 0)  -->
<svg version="1.1" id="Layer_1" xmlns="http://www.w3.org/2000/svg" xmlns:xlink="http://www.w3.org/1999/xlink" x="0px" y="0px"
	 viewBox="0 0 30 27" style="enable-background:new 0 0 30 27;" xml:space="preserve">
<style type="text/css">
	.st0{fill:#020202;}
</style>
<path class="st0" d="M15.1,6.9c-0.8,0-1.5,0.7-1.5,1.5v7.3c0,0.8,0.7,1.5,1.5,1.5c0.8,0,1.5-0.7,1.5-1.5V8.4
	C16.6,7.6,15.9,6.9,15.1,6.9z M15.1,19.1c-0.8,0-1.5,0.7-1.5,1.5v0c0,0.8,0.7,1.5,1.5,1.5c0.8,0,1.5-0.7,1.5-1.5v0
	C16.6,19.7,15.9,19.1,15.1,19.1z M29.3,21.8L18,2.1C17.2,0.7,16.1,0,15,0s-2.2,0.7-3,2.1L0.7,21.8c-1.6,2.9-0.3,5.2,3,5.2h22.6
	C29.6,27,30.9,24.7,29.3,21.8z M27.9,24.5c-0.1,0.2-0.6,0.5-1.6,0.5H3.7c-1,0-1.5-0.3-1.6-0.5c-0.1-0.2-0.1-0.8,0.4-1.7L13.7,3.2
	C14.2,2.3,14.7,2,15,2s0.8,0.3,1.3,1.1l11.3,19.6C28.1,23.6,28.1,24.2,27.9,24.5z"/>
</svg>
